<svg width="1204" height="678" viewBox="0 0 1204 678" fill="none" xmlns="http://www.w3.org/2000/svg">
<rect width="1204" height="677.25" fill="white"/>
<rect x="170.5" y="239.5" width="919" height="49" stroke="#D8D8D8"/>
<rect x="170.5" y="338.5" width="919" height="49" stroke="#D8D8D8"/>
<rect x="170.5" y="387.5" width="148" height="49" transform="rotate(-90 170.5 387.5)" stroke="#D8D8D8"/>
<rect x="513.5" y="387.5" width="148" height="199" transform="rotate(-90 513.5 387.5)" stroke="#D8D8D8"/>
<rect x="1040.5" y="387.5" width="148" height="49" transform="rotate(-90 1040.5 387.5)" stroke="#D8D8D8"/>
<g clip-path="url(#clip0_901:279)">
<path fill-rule="evenodd" clip-rule="evenodd" d="M341.761 288.269C338.487 288.269 336.484 289.995 336.484 293.524V321.911H336.33L317.147 291.107C315.953 289.113 313.95 288.23 311.677 288.23C307.017 288.23 304.782 290.11 304.782 294.598V332.575C304.782 336.104 306.785 337.83 310.059 337.83C313.334 337.83 315.337 336.104 315.337 332.575V304.994H315.452L334.481 334.915C335.868 337.102 337.023 337.83 340.49 337.83C345.113 337.83 346.962 335.375 346.962 331.041V293.486C347.038 289.995 345.035 288.269 341.761 288.269Z" fill="#41A5DD"/>
<path fill-rule="evenodd" clip-rule="evenodd" d="M384.095 288.269C381.822 288.269 380.628 289.074 379.357 291.452L369.881 308.945L360.328 291.452C359.211 289.343 357.978 288.269 355.397 288.269C353.279 288.269 349.851 289.534 349.851 293.255C349.851 294.253 350.236 295.25 350.775 296.132L364.18 318.343V332.46C364.18 335.72 366.299 337.907 369.65 337.907C373.001 337.907 375.12 335.72 375.12 332.46V318.343L388.524 296.132C389.064 295.25 389.449 294.253 389.449 293.255C389.488 289.534 386.098 288.269 384.095 288.269Z" fill="#41A5DD"/>
<path fill-rule="evenodd" clip-rule="evenodd" d="M432.783 293.14C432.783 289.496 429.971 288.269 427.236 288.269C424.694 288.269 423.115 289.803 422.113 293.064L411.829 325.632H411.713L401.813 293.064C400.812 289.803 399.194 288.269 396.266 288.269C393.531 288.269 390.72 289.458 390.72 293.14C390.72 294.023 390.912 295.058 391.374 296.324L404.856 334.109C405.973 337.216 408.13 337.907 411.52 337.907C414.91 337.907 417.067 337.255 418.184 334.109L432.09 296.324C432.591 295.058 432.783 293.984 432.783 293.14Z" fill="#41A5DD"/>
<path fill-rule="evenodd" clip-rule="evenodd" d="M453.892 292.258C452.698 288.882 450.503 288.269 447.999 288.269H445.38C442.722 288.269 440.988 289.151 440.025 291.606L425.85 328.931C425.465 330.005 424.771 331.923 424.771 333.112C424.771 336.027 426.852 337.907 429.856 337.907C432.475 337.907 433.978 337.025 434.748 334.915L437.637 326.936H455.279L458.091 334.915C458.9 337.025 460.634 337.907 463.022 337.907C465.834 337.907 468.183 335.797 468.183 333.112C468.183 331.923 467.529 330.005 467.105 328.931L453.892 292.258ZM440.064 319.34L446.535 300.122H446.651L452.853 319.34H440.064Z" fill="#41A5DD"/>
<path fill-rule="evenodd" clip-rule="evenodd" d="M507.897 288.269C504.623 288.269 502.62 289.995 502.62 293.524V321.911H502.504L483.322 291.107C482.127 289.113 480.124 288.23 477.852 288.23C473.191 288.23 470.957 290.11 470.957 294.598V332.575C470.957 336.104 472.959 337.83 476.234 337.83C479.508 337.83 481.511 336.104 481.511 332.575V304.994H481.626L500.655 334.915C502.042 337.102 503.198 337.83 506.664 337.83C511.287 337.83 513.136 335.375 513.136 331.041V293.486C513.174 289.995 511.171 288.269 507.897 288.269Z" fill="#41A5DD"/>
<path d="M243.767 334.57C246.958 334.57 249.545 331.994 249.545 328.815C249.545 325.638 246.958 323.062 243.767 323.062C240.576 323.062 237.989 325.638 237.989 328.815C237.989 331.994 240.576 334.57 243.767 334.57Z" fill="#41A5DD"/>
<path fill-rule="evenodd" clip-rule="evenodd" d="M289.066 292.258C287.872 288.882 285.676 288.269 283.173 288.269H280.553C280.322 288.269 280.091 288.269 279.86 288.307H226.24C222.851 288.307 220.077 291.069 220.077 294.445V331.769C220.077 335.145 222.851 337.907 226.24 337.907H264.991V337.869H265.107C267.726 337.869 269.229 336.986 269.999 334.876L272.888 326.897H290.53L293.342 334.876C294.151 336.986 295.884 337.869 298.272 337.869C301.084 337.869 303.396 335.759 303.396 333.074C303.396 331.884 302.741 329.966 302.317 328.892L289.066 292.258ZM243.767 335.874C239.876 335.874 236.679 332.728 236.679 328.815C236.679 324.941 239.838 321.757 243.767 321.757C247.657 321.757 250.854 324.903 250.854 328.815C250.816 332.728 247.657 335.874 243.767 335.874ZM258.751 329.353H252.241C252.241 327.972 251.663 320.299 243.574 320.299C235.485 320.299 235.138 329.429 235.138 329.429H233.405C233.405 329.429 228.359 327.396 227.319 326.859C226.279 326.284 226.163 323.445 226.163 323.445V320.952H227.049V318.42C227.473 313.049 240.685 308.216 240.685 308.216C240.685 308.216 251.779 297.322 253.512 295.787C257.249 292.527 272.387 293.255 272.387 293.255L258.751 329.353ZM275.237 319.34L281.709 300.122H281.824L288.026 319.34H275.237Z" fill="#41A5DD"/>
<path fill-rule="evenodd" clip-rule="evenodd" d="M235.985 314.699C235.523 314.584 233.828 314.584 233.097 314.546C232.865 314.546 232.634 314.623 232.48 314.776C232.134 315.045 231.594 315.582 231.093 316.234C230.516 317.001 230.092 317.96 229.822 318.574C229.63 319.072 230.169 319.111 230.169 319.111L231.44 319.379C231.594 319.418 231.748 319.379 231.864 319.264L236.101 315.582C236.063 315.582 236.679 314.853 235.985 314.699Z" fill="#41A5DD"/>
<path fill-rule="evenodd" clip-rule="evenodd" d="M264.606 296.478C264.028 296.478 258.674 297.053 257.634 297.245C256.594 297.437 255.053 298.626 255.053 298.626L248.466 305.876V309.75L262.41 307.065C262.41 307.065 264.221 306.72 264.491 304.418C264.76 302.116 265.338 297.206 265.338 297.206C265.338 297.206 265.184 296.478 264.606 296.478Z" fill="#41A5DD"/>
</g>
<line x1="1100" y1="288.5" x2="1114" y2="288.5" stroke="black"/>
<line x1="1100" y1="338.5" x2="1114" y2="338.5" stroke="black"/>
<line x1="1113.5" y1="339" x2="1113.5" y2="289" stroke="black"/>
<path d="M1126.17 314.33C1126.39 313.845 1126.67 313.467 1127 313.196C1127.32 312.921 1127.72 312.783 1128.19 312.783C1128.34 312.783 1128.48 312.799 1128.62 312.832C1128.76 312.865 1128.88 312.916 1128.99 312.986L1128.9 313.917C1128.87 314.034 1128.8 314.092 1128.69 314.092C1128.62 314.092 1128.53 314.078 1128.4 314.05C1128.28 314.022 1128.13 314.008 1127.98 314.008C1127.75 314.008 1127.55 314.041 1127.37 314.106C1127.2 314.171 1127.05 314.269 1126.91 314.4C1126.77 314.526 1126.65 314.685 1126.53 314.876C1126.43 315.063 1126.33 315.277 1126.24 315.52V320H1124.99V312.909H1125.7C1125.84 312.909 1125.93 312.935 1125.98 312.986C1126.03 313.037 1126.07 313.126 1126.09 313.252L1126.17 314.33Z" fill="black"/>
<line x1="160" y1="289.5" x2="146" y2="289.5" stroke="black"/>
<line x1="160" y1="239.5" x2="146" y2="239.5" stroke="black"/>
<line x1="146.5" y1="239" x2="146.5" y2="289" stroke="black"/>
<path d="M82.126 268.048V269H76.75V268.048H78.899V261.209C78.899 261.004 78.906 260.796 78.92 260.586L77.135 262.119C77.0743 262.17 77.0137 262.203 76.953 262.217C76.8923 262.226 76.8363 262.226 76.785 262.217C76.7337 262.208 76.6847 262.189 76.638 262.161C76.596 262.133 76.5633 262.103 76.54 262.07L76.148 261.531L79.137 258.948H80.152V268.048H82.126ZM91.1211 263.988C91.1211 264.865 91.0254 265.626 90.8341 266.27C90.6474 266.909 90.3908 267.439 90.0641 267.859C89.7374 268.279 89.3501 268.592 88.9021 268.797C88.4588 269.002 87.9828 269.105 87.4741 269.105C86.9608 269.105 86.4824 269.002 86.0391 268.797C85.6004 268.592 85.2178 268.279 84.8911 267.859C84.5644 267.439 84.3078 266.909 84.1211 266.27C83.9344 265.626 83.8411 264.865 83.8411 263.988C83.8411 263.111 83.9344 262.35 84.1211 261.706C84.3078 261.062 84.5644 260.53 84.8911 260.11C85.2178 259.685 85.6004 259.37 86.0391 259.165C86.4824 258.96 86.9608 258.857 87.4741 258.857C87.9828 258.857 88.4588 258.96 88.9021 259.165C89.3501 259.37 89.7374 259.685 90.0641 260.11C90.3908 260.53 90.6474 261.062 90.8341 261.706C91.0254 262.35 91.1211 263.111 91.1211 263.988ZM89.8261 263.988C89.8261 263.223 89.7608 262.581 89.6301 262.063C89.5041 261.54 89.3314 261.12 89.1121 260.803C88.8974 260.486 88.6478 260.259 88.3631 260.124C88.0784 259.984 87.7821 259.914 87.4741 259.914C87.1661 259.914 86.8698 259.984 86.5851 260.124C86.3004 260.259 86.0508 260.486 85.8361 260.803C85.6214 261.12 85.4488 261.54 85.3181 262.063C85.1921 262.581 85.1291 263.223 85.1291 263.988C85.1291 264.753 85.1921 265.395 85.3181 265.913C85.4488 266.431 85.6214 266.849 85.8361 267.166C86.0508 267.483 86.3004 267.712 86.5851 267.852C86.8698 267.987 87.1661 268.055 87.4741 268.055C87.7821 268.055 88.0784 267.987 88.3631 267.852C88.6478 267.712 88.8974 267.483 89.1121 267.166C89.3314 266.849 89.5041 266.431 89.6301 265.913C89.7608 265.395 89.8261 264.753 89.8261 263.988ZM99.5422 263.988C99.5422 264.865 99.4465 265.626 99.2552 266.27C99.0685 266.909 98.8119 267.439 98.4852 267.859C98.1585 268.279 97.7712 268.592 97.3232 268.797C96.8799 269.002 96.4039 269.105 95.8952 269.105C95.3819 269.105 94.9035 269.002 94.4602 268.797C94.0215 268.592 93.6389 268.279 93.3122 267.859C92.9855 267.439 92.7289 266.909 92.5422 266.27C92.3555 265.626 92.2622 264.865 92.2622 263.988C92.2622 263.111 92.3555 262.35 92.5422 261.706C92.7289 261.062 92.9855 260.53 93.3122 260.11C93.6389 259.685 94.0215 259.37 94.4602 259.165C94.9035 258.96 95.3819 258.857 95.8952 258.857C96.4039 258.857 96.8799 258.96 97.3232 259.165C97.7712 259.37 98.1585 259.685 98.4852 260.11C98.8119 260.53 99.0685 261.062 99.2552 261.706C99.4465 262.35 99.5422 263.111 99.5422 263.988ZM98.2472 263.988C98.2472 263.223 98.1819 262.581 98.0512 262.063C97.9252 261.54 97.7525 261.12 97.5332 260.803C97.3185 260.486 97.0689 260.259 96.7842 260.124C96.4995 259.984 96.2032 259.914 95.8952 259.914C95.5872 259.914 95.2909 259.984 95.0062 260.124C94.7215 260.259 94.4719 260.486 94.2572 260.803C94.0425 261.12 93.8699 261.54 93.7392 262.063C93.6132 262.581 93.5502 263.223 93.5502 263.988C93.5502 264.753 93.6132 265.395 93.7392 265.913C93.8699 266.431 94.0425 266.849 94.2572 267.166C94.4719 267.483 94.7215 267.712 95.0062 267.852C95.2909 267.987 95.5872 268.055 95.8952 268.055C96.2032 268.055 96.4995 267.987 96.7842 267.852C97.0689 267.712 97.3185 267.483 97.5332 267.166C97.7525 266.849 97.9252 266.431 98.0512 265.913C98.1819 265.395 98.2472 264.753 98.2472 263.988ZM105.317 261.391C105.317 261.783 105.257 262.135 105.135 262.448C105.014 262.756 104.851 263.017 104.645 263.232C104.445 263.442 104.209 263.603 103.938 263.715C103.672 263.827 103.39 263.883 103.091 263.883C102.779 263.883 102.487 263.827 102.216 263.715C101.946 263.603 101.71 263.442 101.509 263.232C101.313 263.017 101.159 262.756 101.047 262.448C100.935 262.135 100.879 261.783 100.879 261.391C100.879 260.99 100.935 260.633 101.047 260.32C101.159 260.007 101.313 259.744 101.509 259.529C101.71 259.314 101.946 259.151 102.216 259.039C102.487 258.927 102.779 258.871 103.091 258.871C103.409 258.871 103.703 258.927 103.973 259.039C104.244 259.151 104.48 259.314 104.68 259.529C104.881 259.744 105.037 260.007 105.149 260.32C105.261 260.633 105.317 260.99 105.317 261.391ZM104.351 261.391C104.351 261.083 104.319 260.822 104.253 260.607C104.188 260.392 104.097 260.217 103.98 260.082C103.868 259.942 103.735 259.842 103.581 259.781C103.427 259.72 103.264 259.69 103.091 259.69C102.919 259.69 102.758 259.72 102.608 259.781C102.459 259.842 102.328 259.942 102.216 260.082C102.104 260.217 102.016 260.392 101.95 260.607C101.885 260.822 101.852 261.083 101.852 261.391C101.852 261.694 101.885 261.953 101.95 262.168C102.016 262.378 102.104 262.551 102.216 262.686C102.328 262.817 102.459 262.912 102.608 262.973C102.758 263.029 102.919 263.057 103.091 263.057C103.264 263.057 103.427 263.029 103.581 262.973C103.735 262.912 103.868 262.817 103.98 262.686C104.097 262.551 104.188 262.378 104.253 262.168C104.319 261.953 104.351 261.694 104.351 261.391ZM108.866 259.179C108.913 259.123 108.967 259.074 109.027 259.032C109.093 258.99 109.179 258.969 109.286 258.969H110.189L102.853 268.797C102.811 268.858 102.758 268.907 102.692 268.944C102.627 268.981 102.548 269 102.454 269H101.537L108.866 259.179ZM110.868 266.634C110.868 267.026 110.808 267.376 110.686 267.684C110.565 267.992 110.402 268.253 110.196 268.468C109.996 268.678 109.76 268.839 109.489 268.951C109.223 269.063 108.941 269.119 108.642 269.119C108.325 269.119 108.031 269.063 107.76 268.951C107.494 268.839 107.261 268.678 107.06 268.468C106.864 268.253 106.71 267.992 106.598 267.684C106.486 267.376 106.43 267.026 106.43 266.634C106.43 266.233 106.486 265.876 106.598 265.563C106.71 265.246 106.864 264.98 107.06 264.765C107.261 264.55 107.494 264.387 107.76 264.275C108.031 264.163 108.325 264.107 108.642 264.107C108.955 264.107 109.247 264.163 109.517 264.275C109.793 264.387 110.028 264.55 110.224 264.765C110.425 264.98 110.581 265.246 110.693 265.563C110.81 265.876 110.868 266.233 110.868 266.634ZM109.902 266.634C109.902 266.326 109.87 266.065 109.804 265.85C109.739 265.631 109.648 265.453 109.531 265.318C109.419 265.183 109.286 265.085 109.132 265.024C108.978 264.963 108.815 264.933 108.642 264.933C108.47 264.933 108.306 264.963 108.152 265.024C108.003 265.085 107.872 265.183 107.76 265.318C107.648 265.453 107.56 265.631 107.494 265.85C107.434 266.065 107.403 266.326 107.403 266.634C107.403 266.937 107.434 267.194 107.494 267.404C107.56 267.614 107.648 267.787 107.76 267.922C107.872 268.053 108.003 268.148 108.152 268.209C108.306 268.265 108.47 268.293 108.642 268.293C108.815 268.293 108.978 268.265 109.132 268.209C109.286 268.148 109.419 268.053 109.531 267.922C109.648 267.787 109.739 267.614 109.804 267.404C109.87 267.194 109.902 266.937 109.902 266.634ZM119.646 261.797C120.164 261.797 120.631 261.883 121.046 262.056C121.461 262.229 121.816 262.474 122.11 262.791C122.404 263.108 122.628 263.493 122.782 263.946C122.941 264.394 123.02 264.896 123.02 265.451C123.02 266.011 122.941 266.515 122.782 266.963C122.628 267.411 122.404 267.794 122.11 268.111C121.816 268.428 121.461 268.673 121.046 268.846C120.631 269.014 120.164 269.098 119.646 269.098C119.123 269.098 118.652 269.014 118.232 268.846C117.817 268.673 117.462 268.428 117.168 268.111C116.874 267.794 116.648 267.411 116.489 266.963C116.335 266.515 116.258 266.011 116.258 265.451C116.258 264.896 116.335 264.394 116.489 263.946C116.648 263.493 116.874 263.108 117.168 262.791C117.462 262.474 117.817 262.229 118.232 262.056C118.652 261.883 119.123 261.797 119.646 261.797ZM119.646 268.125C120.346 268.125 120.869 267.892 121.214 267.425C121.559 266.954 121.732 266.298 121.732 265.458C121.732 264.613 121.559 263.955 121.214 263.484C120.869 263.013 120.346 262.777 119.646 262.777C119.291 262.777 118.981 262.838 118.715 262.959C118.454 263.08 118.234 263.255 118.057 263.484C117.884 263.713 117.754 263.995 117.665 264.331C117.581 264.662 117.539 265.038 117.539 265.458C117.539 266.298 117.712 266.954 118.057 267.425C118.407 267.892 118.937 268.125 119.646 268.125ZM125.212 269V262.973L124.428 262.882C124.33 262.859 124.248 262.824 124.183 262.777C124.122 262.726 124.092 262.653 124.092 262.56V262.049H125.212V261.363C125.212 260.957 125.268 260.598 125.38 260.285C125.497 259.968 125.66 259.702 125.87 259.487C126.085 259.268 126.341 259.102 126.64 258.99C126.939 258.878 127.275 258.822 127.648 258.822C127.965 258.822 128.257 258.869 128.523 258.962L128.495 259.585C128.486 259.697 128.423 259.758 128.306 259.767C128.194 259.776 128.042 259.781 127.851 259.781C127.636 259.781 127.44 259.809 127.263 259.865C127.09 259.921 126.941 260.012 126.815 260.138C126.689 260.264 126.591 260.43 126.521 260.635C126.456 260.84 126.423 261.095 126.423 261.398V262.049H128.467V262.952H126.465V269H125.212ZM134.763 263.33C134.987 262.845 135.263 262.467 135.589 262.196C135.916 261.921 136.315 261.783 136.786 261.783C136.936 261.783 137.078 261.799 137.213 261.832C137.353 261.865 137.477 261.916 137.584 261.986L137.493 262.917C137.465 263.034 137.395 263.092 137.283 263.092C137.218 263.092 137.122 263.078 136.996 263.05C136.87 263.022 136.728 263.008 136.569 263.008C136.345 263.008 136.145 263.041 135.967 263.106C135.795 263.171 135.638 263.269 135.498 263.4C135.363 263.526 135.239 263.685 135.127 263.876C135.02 264.063 134.922 264.277 134.833 264.52V269H133.58V261.909H134.294C134.43 261.909 134.523 261.935 134.574 261.986C134.626 262.037 134.661 262.126 134.679 262.252L134.763 263.33Z" fill="black"/>
<line x1="220.5" y1="398" x2="220.5" y2="412" stroke="black"/>
<line x1="170.5" y1="398" x2="170.5" y2="412" stroke="black"/>
<line x1="170" y1="411.5" x2="220" y2="411.5" stroke="black"/>
<path d="M170.126 435.048V436H164.75V435.048H166.899V428.209C166.899 428.004 166.906 427.796 166.92 427.586L165.135 429.119C165.074 429.17 165.014 429.203 164.953 429.217C164.892 429.226 164.836 429.226 164.785 429.217C164.734 429.208 164.685 429.189 164.638 429.161C164.596 429.133 164.563 429.103 164.54 429.07L164.148 428.531L167.137 425.948H168.152V435.048H170.126ZM179.121 430.988C179.121 431.865 179.025 432.626 178.834 433.27C178.647 433.909 178.391 434.439 178.064 434.859C177.737 435.279 177.35 435.592 176.902 435.797C176.459 436.002 175.983 436.105 175.474 436.105C174.961 436.105 174.482 436.002 174.039 435.797C173.6 435.592 173.218 435.279 172.891 434.859C172.564 434.439 172.308 433.909 172.121 433.27C171.934 432.626 171.841 431.865 171.841 430.988C171.841 430.111 171.934 429.35 172.121 428.706C172.308 428.062 172.564 427.53 172.891 427.11C173.218 426.685 173.6 426.37 174.039 426.165C174.482 425.96 174.961 425.857 175.474 425.857C175.983 425.857 176.459 425.96 176.902 426.165C177.35 426.37 177.737 426.685 178.064 427.11C178.391 427.53 178.647 428.062 178.834 428.706C179.025 429.35 179.121 430.111 179.121 430.988ZM177.826 430.988C177.826 430.223 177.761 429.581 177.63 429.063C177.504 428.54 177.331 428.12 177.112 427.803C176.897 427.486 176.648 427.259 176.363 427.124C176.078 426.984 175.782 426.914 175.474 426.914C175.166 426.914 174.87 426.984 174.585 427.124C174.3 427.259 174.051 427.486 173.836 427.803C173.621 428.12 173.449 428.54 173.318 429.063C173.192 429.581 173.129 430.223 173.129 430.988C173.129 431.753 173.192 432.395 173.318 432.913C173.449 433.431 173.621 433.849 173.836 434.166C174.051 434.483 174.3 434.712 174.585 434.852C174.87 434.987 175.166 435.055 175.474 435.055C175.782 435.055 176.078 434.987 176.363 434.852C176.648 434.712 176.897 434.483 177.112 434.166C177.331 433.849 177.504 433.431 177.63 432.913C177.761 432.395 177.826 431.753 177.826 430.988ZM187.542 430.988C187.542 431.865 187.447 432.626 187.255 433.27C187.069 433.909 186.812 434.439 186.485 434.859C186.159 435.279 185.771 435.592 185.323 435.797C184.88 436.002 184.404 436.105 183.895 436.105C183.382 436.105 182.904 436.002 182.46 435.797C182.022 435.592 181.639 435.279 181.312 434.859C180.986 434.439 180.729 433.909 180.542 433.27C180.356 432.626 180.262 431.865 180.262 430.988C180.262 430.111 180.356 429.35 180.542 428.706C180.729 428.062 180.986 427.53 181.312 427.11C181.639 426.685 182.022 426.37 182.46 426.165C182.904 425.96 183.382 425.857 183.895 425.857C184.404 425.857 184.88 425.96 185.323 426.165C185.771 426.37 186.159 426.685 186.485 427.11C186.812 427.53 187.069 428.062 187.255 428.706C187.447 429.35 187.542 430.111 187.542 430.988ZM186.247 430.988C186.247 430.223 186.182 429.581 186.051 429.063C185.925 428.54 185.753 428.12 185.533 427.803C185.319 427.486 185.069 427.259 184.784 427.124C184.5 426.984 184.203 426.914 183.895 426.914C183.587 426.914 183.291 426.984 183.006 427.124C182.722 427.259 182.472 427.486 182.257 427.803C182.043 428.12 181.87 428.54 181.739 429.063C181.613 429.581 181.55 430.223 181.55 430.988C181.55 431.753 181.613 432.395 181.739 432.913C181.87 433.431 182.043 433.849 182.257 434.166C182.472 434.483 182.722 434.712 183.006 434.852C183.291 434.987 183.587 435.055 183.895 435.055C184.203 435.055 184.5 434.987 184.784 434.852C185.069 434.712 185.319 434.483 185.533 434.166C185.753 433.849 185.925 433.431 186.051 432.913C186.182 432.395 186.247 431.753 186.247 430.988ZM193.317 428.391C193.317 428.783 193.257 429.135 193.135 429.448C193.014 429.756 192.851 430.017 192.645 430.232C192.445 430.442 192.209 430.603 191.938 430.715C191.672 430.827 191.39 430.883 191.091 430.883C190.779 430.883 190.487 430.827 190.216 430.715C189.946 430.603 189.71 430.442 189.509 430.232C189.313 430.017 189.159 429.756 189.047 429.448C188.935 429.135 188.879 428.783 188.879 428.391C188.879 427.99 188.935 427.633 189.047 427.32C189.159 427.007 189.313 426.744 189.509 426.529C189.71 426.314 189.946 426.151 190.216 426.039C190.487 425.927 190.779 425.871 191.091 425.871C191.409 425.871 191.703 425.927 191.973 426.039C192.244 426.151 192.48 426.314 192.68 426.529C192.881 426.744 193.037 427.007 193.149 427.32C193.261 427.633 193.317 427.99 193.317 428.391ZM192.351 428.391C192.351 428.083 192.319 427.822 192.253 427.607C192.188 427.392 192.097 427.217 191.98 427.082C191.868 426.942 191.735 426.842 191.581 426.781C191.427 426.72 191.264 426.69 191.091 426.69C190.919 426.69 190.758 426.72 190.608 426.781C190.459 426.842 190.328 426.942 190.216 427.082C190.104 427.217 190.016 427.392 189.95 427.607C189.885 427.822 189.852 428.083 189.852 428.391C189.852 428.694 189.885 428.953 189.95 429.168C190.016 429.378 190.104 429.551 190.216 429.686C190.328 429.817 190.459 429.912 190.608 429.973C190.758 430.029 190.919 430.057 191.091 430.057C191.264 430.057 191.427 430.029 191.581 429.973C191.735 429.912 191.868 429.817 191.98 429.686C192.097 429.551 192.188 429.378 192.253 429.168C192.319 428.953 192.351 428.694 192.351 428.391ZM196.866 426.179C196.913 426.123 196.967 426.074 197.027 426.032C197.093 425.99 197.179 425.969 197.286 425.969H198.189L190.853 435.797C190.811 435.858 190.758 435.907 190.692 435.944C190.627 435.981 190.548 436 190.454 436H189.537L196.866 426.179ZM198.868 433.634C198.868 434.026 198.808 434.376 198.686 434.684C198.565 434.992 198.402 435.253 198.196 435.468C197.996 435.678 197.76 435.839 197.489 435.951C197.223 436.063 196.941 436.119 196.642 436.119C196.325 436.119 196.031 436.063 195.76 435.951C195.494 435.839 195.261 435.678 195.06 435.468C194.864 435.253 194.71 434.992 194.598 434.684C194.486 434.376 194.43 434.026 194.43 433.634C194.43 433.233 194.486 432.876 194.598 432.563C194.71 432.246 194.864 431.98 195.06 431.765C195.261 431.55 195.494 431.387 195.76 431.275C196.031 431.163 196.325 431.107 196.642 431.107C196.955 431.107 197.247 431.163 197.517 431.275C197.793 431.387 198.028 431.55 198.224 431.765C198.425 431.98 198.581 432.246 198.693 432.563C198.81 432.876 198.868 433.233 198.868 433.634ZM197.902 433.634C197.902 433.326 197.87 433.065 197.804 432.85C197.739 432.631 197.648 432.453 197.531 432.318C197.419 432.183 197.286 432.085 197.132 432.024C196.978 431.963 196.815 431.933 196.642 431.933C196.47 431.933 196.306 431.963 196.152 432.024C196.003 432.085 195.872 432.183 195.76 432.318C195.648 432.453 195.56 432.631 195.494 432.85C195.434 433.065 195.403 433.326 195.403 433.634C195.403 433.937 195.434 434.194 195.494 434.404C195.56 434.614 195.648 434.787 195.76 434.922C195.872 435.053 196.003 435.148 196.152 435.209C196.306 435.265 196.47 435.293 196.642 435.293C196.815 435.293 196.978 435.265 197.132 435.209C197.286 435.148 197.419 435.053 197.531 434.922C197.648 434.787 197.739 434.614 197.804 434.404C197.87 434.194 197.902 433.937 197.902 433.634ZM207.646 428.797C208.164 428.797 208.631 428.883 209.046 429.056C209.461 429.229 209.816 429.474 210.11 429.791C210.404 430.108 210.628 430.493 210.782 430.946C210.941 431.394 211.02 431.896 211.02 432.451C211.02 433.011 210.941 433.515 210.782 433.963C210.628 434.411 210.404 434.794 210.11 435.111C209.816 435.428 209.461 435.673 209.046 435.846C208.631 436.014 208.164 436.098 207.646 436.098C207.123 436.098 206.652 436.014 206.232 435.846C205.817 435.673 205.462 435.428 205.168 435.111C204.874 434.794 204.648 434.411 204.489 433.963C204.335 433.515 204.258 433.011 204.258 432.451C204.258 431.896 204.335 431.394 204.489 430.946C204.648 430.493 204.874 430.108 205.168 429.791C205.462 429.474 205.817 429.229 206.232 429.056C206.652 428.883 207.123 428.797 207.646 428.797ZM207.646 435.125C208.346 435.125 208.869 434.892 209.214 434.425C209.559 433.954 209.732 433.298 209.732 432.458C209.732 431.613 209.559 430.955 209.214 430.484C208.869 430.013 208.346 429.777 207.646 429.777C207.291 429.777 206.981 429.838 206.715 429.959C206.454 430.08 206.234 430.255 206.057 430.484C205.884 430.713 205.754 430.995 205.665 431.331C205.581 431.662 205.539 432.038 205.539 432.458C205.539 433.298 205.712 433.954 206.057 434.425C206.407 434.892 206.937 435.125 207.646 435.125ZM213.212 436V429.973L212.428 429.882C212.33 429.859 212.248 429.824 212.183 429.777C212.122 429.726 212.092 429.653 212.092 429.56V429.049H213.212V428.363C213.212 427.957 213.268 427.598 213.38 427.285C213.497 426.968 213.66 426.702 213.87 426.487C214.085 426.268 214.341 426.102 214.64 425.99C214.939 425.878 215.275 425.822 215.648 425.822C215.965 425.822 216.257 425.869 216.523 425.962L216.495 426.585C216.486 426.697 216.423 426.758 216.306 426.767C216.194 426.776 216.042 426.781 215.851 426.781C215.636 426.781 215.44 426.809 215.263 426.865C215.09 426.921 214.941 427.012 214.815 427.138C214.689 427.264 214.591 427.43 214.521 427.635C214.456 427.84 214.423 428.095 214.423 428.398V429.049H216.467V429.952H214.465V436H213.212ZM222.763 430.33C222.987 429.845 223.263 429.467 223.589 429.196C223.916 428.921 224.315 428.783 224.786 428.783C224.936 428.783 225.078 428.799 225.213 428.832C225.353 428.865 225.477 428.916 225.584 428.986L225.493 429.917C225.465 430.034 225.395 430.092 225.283 430.092C225.218 430.092 225.122 430.078 224.996 430.05C224.87 430.022 224.728 430.008 224.569 430.008C224.345 430.008 224.145 430.041 223.967 430.106C223.795 430.171 223.638 430.269 223.498 430.4C223.363 430.526 223.239 430.685 223.127 430.876C223.02 431.063 222.922 431.277 222.833 431.52V436H221.58V428.909H222.294C222.43 428.909 222.523 428.935 222.574 428.986C222.626 429.037 222.661 429.126 222.679 429.252L222.763 430.33Z" fill="black"/>
<line y1="-0.5" x2="14" y2="-0.5" transform="matrix(-1.16918e-06 1 -1 -6.53684e-09 713 398)" stroke="black"/>
<line x1="513.5" y1="398" x2="513.5" y2="412" stroke="black"/>
<line x1="513" y1="411.5" x2="713" y2="411.5" stroke="black"/>
<path d="M561.608 432.276L560.033 428.195C559.986 428.074 559.937 427.934 559.886 427.775C559.835 427.612 559.786 427.439 559.739 427.257C559.641 427.635 559.541 427.95 559.438 428.202L557.863 432.276H561.608ZM564.436 436H563.386C563.265 436 563.167 435.97 563.092 435.909C563.017 435.848 562.961 435.771 562.924 435.678L561.986 433.256H557.485L556.547 435.678C556.519 435.762 556.465 435.837 556.386 435.902C556.307 435.967 556.209 436 556.092 436H555.042L559.053 425.969H560.425L564.436 436ZM567.515 436.112C566.955 436.112 566.523 435.956 566.22 435.643C565.921 435.33 565.772 434.88 565.772 434.292V429.952H564.918C564.843 429.952 564.78 429.931 564.729 429.889C564.677 429.842 564.652 429.772 564.652 429.679V429.182L565.814 429.035L566.101 426.844C566.115 426.774 566.145 426.718 566.192 426.676C566.243 426.629 566.308 426.606 566.388 426.606H567.018V429.049H569.069V429.952H567.018V434.208C567.018 434.507 567.09 434.728 567.235 434.873C567.379 435.018 567.566 435.09 567.795 435.09C567.925 435.09 568.037 435.074 568.131 435.041C568.229 435.004 568.313 434.964 568.383 434.922C568.453 434.88 568.511 434.843 568.558 434.81C568.609 434.773 568.653 434.754 568.691 434.754C568.756 434.754 568.814 434.794 568.866 434.873L569.23 435.468C569.015 435.669 568.756 435.827 568.453 435.944C568.149 436.056 567.837 436.112 567.515 436.112ZM575.825 425.689V436H574.579V425.689H575.825ZM582.892 431.681C582.892 431.392 582.85 431.128 582.766 430.89C582.687 430.647 582.568 430.44 582.409 430.267C582.255 430.09 582.066 429.954 581.842 429.861C581.618 429.763 581.364 429.714 581.079 429.714C580.482 429.714 580.008 429.889 579.658 430.239C579.313 430.584 579.098 431.065 579.014 431.681H582.892ZM583.9 435.006C583.746 435.193 583.562 435.356 583.347 435.496C583.132 435.631 582.901 435.743 582.654 435.832C582.411 435.921 582.159 435.986 581.898 436.028C581.637 436.075 581.378 436.098 581.121 436.098C580.631 436.098 580.178 436.016 579.763 435.853C579.352 435.685 578.995 435.442 578.692 435.125C578.393 434.803 578.16 434.406 577.992 433.935C577.824 433.464 577.74 432.922 577.74 432.311C577.74 431.816 577.815 431.354 577.964 430.925C578.118 430.496 578.337 430.125 578.622 429.812C578.907 429.495 579.254 429.247 579.665 429.07C580.076 428.888 580.538 428.797 581.051 428.797C581.476 428.797 581.868 428.869 582.227 429.014C582.591 429.154 582.904 429.359 583.165 429.63C583.431 429.896 583.639 430.227 583.788 430.624C583.937 431.016 584.012 431.464 584.012 431.968C584.012 432.164 583.991 432.295 583.949 432.36C583.907 432.425 583.828 432.458 583.711 432.458H578.972C578.986 432.906 579.047 433.296 579.154 433.627C579.266 433.958 579.42 434.236 579.616 434.46C579.812 434.679 580.045 434.845 580.316 434.957C580.587 435.064 580.89 435.118 581.226 435.118C581.539 435.118 581.807 435.083 582.031 435.013C582.26 434.938 582.456 434.859 582.619 434.775C582.782 434.691 582.918 434.614 583.025 434.544C583.137 434.469 583.233 434.432 583.312 434.432C583.415 434.432 583.494 434.472 583.55 434.551L583.9 435.006ZM589.685 432.808C589.111 432.827 588.621 432.873 588.215 432.948C587.814 433.018 587.485 433.111 587.228 433.228C586.976 433.345 586.792 433.482 586.675 433.641C586.563 433.8 586.507 433.977 586.507 434.173C586.507 434.36 586.538 434.521 586.598 434.656C586.659 434.791 586.741 434.903 586.843 434.992C586.951 435.076 587.074 435.139 587.214 435.181C587.359 435.218 587.513 435.237 587.676 435.237C587.896 435.237 588.096 435.216 588.278 435.174C588.46 435.127 588.631 435.062 588.789 434.978C588.953 434.894 589.107 434.794 589.251 434.677C589.401 434.56 589.545 434.427 589.685 434.278V432.808ZM585.66 429.91C586.052 429.532 586.475 429.25 586.927 429.063C587.38 428.876 587.882 428.783 588.432 428.783C588.829 428.783 589.181 428.848 589.489 428.979C589.797 429.11 590.056 429.292 590.266 429.525C590.476 429.758 590.635 430.041 590.742 430.372C590.85 430.703 590.903 431.067 590.903 431.464V436H590.35C590.229 436 590.136 435.981 590.07 435.944C590.005 435.902 589.954 435.823 589.916 435.706L589.776 435.034C589.59 435.207 589.408 435.361 589.23 435.496C589.053 435.627 588.866 435.739 588.67 435.832C588.474 435.921 588.264 435.988 588.04 436.035C587.821 436.086 587.576 436.112 587.305 436.112C587.03 436.112 586.771 436.075 586.528 436C586.286 435.921 586.073 435.804 585.891 435.65C585.714 435.496 585.572 435.302 585.464 435.069C585.362 434.831 585.31 434.551 585.31 434.229C585.31 433.949 585.387 433.681 585.541 433.424C585.695 433.163 585.945 432.932 586.29 432.731C586.636 432.53 587.086 432.367 587.641 432.241C588.197 432.11 588.878 432.036 589.685 432.017V431.464C589.685 430.913 589.566 430.498 589.328 430.218C589.09 429.933 588.743 429.791 588.285 429.791C587.977 429.791 587.718 429.831 587.508 429.91C587.303 429.985 587.123 430.071 586.969 430.169C586.82 430.262 586.689 430.349 586.577 430.428C586.47 430.503 586.363 430.54 586.255 430.54C586.171 430.54 586.099 430.519 586.038 430.477C585.978 430.43 585.926 430.374 585.884 430.309L585.66 429.91ZM597.231 430.078C597.175 430.181 597.089 430.232 596.972 430.232C596.902 430.232 596.823 430.206 596.734 430.155C596.646 430.104 596.536 430.048 596.405 429.987C596.279 429.922 596.128 429.863 595.95 429.812C595.773 429.756 595.563 429.728 595.32 429.728C595.11 429.728 594.921 429.756 594.753 429.812C594.585 429.863 594.441 429.936 594.319 430.029C594.203 430.122 594.112 430.232 594.046 430.358C593.986 430.479 593.955 430.612 593.955 430.757C593.955 430.939 594.007 431.091 594.109 431.212C594.217 431.333 594.357 431.438 594.529 431.527C594.702 431.616 594.898 431.695 595.117 431.765C595.337 431.83 595.561 431.903 595.789 431.982C596.023 432.057 596.249 432.141 596.468 432.234C596.688 432.327 596.884 432.444 597.056 432.584C597.229 432.724 597.367 432.897 597.469 433.102C597.577 433.303 597.63 433.545 597.63 433.83C597.63 434.157 597.572 434.46 597.455 434.74C597.339 435.015 597.166 435.256 596.937 435.461C596.709 435.662 596.429 435.82 596.097 435.937C595.766 436.054 595.383 436.112 594.949 436.112C594.455 436.112 594.007 436.033 593.605 435.874C593.204 435.711 592.863 435.503 592.583 435.251L592.877 434.775C592.915 434.714 592.959 434.668 593.01 434.635C593.062 434.602 593.127 434.586 593.206 434.586C593.29 434.586 593.379 434.619 593.472 434.684C593.566 434.749 593.678 434.822 593.808 434.901C593.944 434.98 594.107 435.053 594.298 435.118C594.49 435.183 594.728 435.216 595.012 435.216C595.255 435.216 595.467 435.186 595.649 435.125C595.831 435.06 595.983 434.973 596.104 434.866C596.226 434.759 596.314 434.635 596.37 434.495C596.431 434.355 596.461 434.206 596.461 434.047C596.461 433.851 596.408 433.69 596.3 433.564C596.198 433.433 596.06 433.324 595.887 433.235C595.715 433.142 595.516 433.062 595.292 432.997C595.073 432.927 594.847 432.855 594.613 432.78C594.385 432.705 594.158 432.621 593.934 432.528C593.715 432.43 593.519 432.309 593.346 432.164C593.174 432.019 593.034 431.842 592.926 431.632C592.824 431.417 592.772 431.158 592.772 430.855C592.772 430.584 592.828 430.325 592.94 430.078C593.052 429.826 593.216 429.607 593.43 429.42C593.645 429.229 593.909 429.077 594.221 428.965C594.534 428.853 594.891 428.797 595.292 428.797C595.759 428.797 596.177 428.872 596.545 429.021C596.919 429.166 597.241 429.366 597.511 429.623L597.231 430.078ZM601.635 436.112C601.075 436.112 600.643 435.956 600.34 435.643C600.041 435.33 599.892 434.88 599.892 434.292V429.952H599.038C598.963 429.952 598.9 429.931 598.849 429.889C598.798 429.842 598.772 429.772 598.772 429.679V429.182L599.934 429.035L600.221 426.844C600.235 426.774 600.265 426.718 600.312 426.676C600.363 426.629 600.429 426.606 600.508 426.606H601.138V429.049H603.189V429.952H601.138V434.208C601.138 434.507 601.21 434.728 601.355 434.873C601.5 435.018 601.686 435.09 601.915 435.09C602.046 435.09 602.158 435.074 602.251 435.041C602.349 435.004 602.433 434.964 602.503 434.922C602.573 434.88 602.631 434.843 602.678 434.81C602.729 434.773 602.774 434.754 602.811 434.754C602.876 434.754 602.935 434.794 602.986 434.873L603.35 435.468C603.135 435.669 602.876 435.827 602.573 435.944C602.27 436.056 601.957 436.112 601.635 436.112ZM612.781 432.381V428.244C612.781 428.123 612.785 427.99 612.795 427.845C612.804 427.7 612.818 427.553 612.837 427.404L609.183 432.381H612.781ZM615.392 432.381V433.095C615.392 433.17 615.368 433.233 615.322 433.284C615.28 433.335 615.212 433.361 615.119 433.361H613.873V436H612.781V433.361H608.329C608.235 433.361 608.154 433.335 608.084 433.284C608.018 433.228 607.976 433.16 607.958 433.081L607.832 432.444L612.711 425.969H613.873V432.381H615.392ZM623.792 430.988C623.792 431.865 623.696 432.626 623.505 433.27C623.318 433.909 623.061 434.439 622.735 434.859C622.408 435.279 622.021 435.592 621.573 435.797C621.129 436.002 620.653 436.105 620.145 436.105C619.631 436.105 619.153 436.002 618.71 435.797C618.271 435.592 617.888 435.279 617.562 434.859C617.235 434.439 616.978 433.909 616.792 433.27C616.605 432.626 616.512 431.865 616.512 430.988C616.512 430.111 616.605 429.35 616.792 428.706C616.978 428.062 617.235 427.53 617.562 427.11C617.888 426.685 618.271 426.37 618.71 426.165C619.153 425.96 619.631 425.857 620.145 425.857C620.653 425.857 621.129 425.96 621.573 426.165C622.021 426.37 622.408 426.685 622.735 427.11C623.061 427.53 623.318 428.062 623.505 428.706C623.696 429.35 623.792 430.111 623.792 430.988ZM622.497 430.988C622.497 430.223 622.431 429.581 622.301 429.063C622.175 428.54 622.002 428.12 621.783 427.803C621.568 427.486 621.318 427.259 621.034 427.124C620.749 426.984 620.453 426.914 620.145 426.914C619.837 426.914 619.54 426.984 619.256 427.124C618.971 427.259 618.721 427.486 618.507 427.803C618.292 428.12 618.119 428.54 617.989 429.063C617.863 429.581 617.8 430.223 617.8 430.988C617.8 431.753 617.863 432.395 617.989 432.913C618.119 433.431 618.292 433.849 618.507 434.166C618.721 434.483 618.971 434.712 619.256 434.852C619.54 434.987 619.837 435.055 620.145 435.055C620.453 435.055 620.749 434.987 621.034 434.852C621.318 434.712 621.568 434.483 621.783 434.166C622.002 433.849 622.175 433.431 622.301 432.913C622.431 432.395 622.497 431.753 622.497 430.988ZM632.213 430.988C632.213 431.865 632.117 432.626 631.926 433.27C631.739 433.909 631.483 434.439 631.156 434.859C630.829 435.279 630.442 435.592 629.994 435.797C629.551 436.002 629.075 436.105 628.566 436.105C628.053 436.105 627.574 436.002 627.131 435.797C626.692 435.592 626.31 435.279 625.983 434.859C625.656 434.439 625.4 433.909 625.213 433.27C625.026 432.626 624.933 431.865 624.933 430.988C624.933 430.111 625.026 429.35 625.213 428.706C625.4 428.062 625.656 427.53 625.983 427.11C626.31 426.685 626.692 426.37 627.131 426.165C627.574 425.96 628.053 425.857 628.566 425.857C629.075 425.857 629.551 425.96 629.994 426.165C630.442 426.37 630.829 426.685 631.156 427.11C631.483 427.53 631.739 428.062 631.926 428.706C632.117 429.35 632.213 430.111 632.213 430.988ZM630.918 430.988C630.918 430.223 630.853 429.581 630.722 429.063C630.596 428.54 630.423 428.12 630.204 427.803C629.989 427.486 629.74 427.259 629.455 427.124C629.17 426.984 628.874 426.914 628.566 426.914C628.258 426.914 627.962 426.984 627.677 427.124C627.392 427.259 627.143 427.486 626.928 427.803C626.713 428.12 626.541 428.54 626.41 429.063C626.284 429.581 626.221 430.223 626.221 430.988C626.221 431.753 626.284 432.395 626.41 432.913C626.541 433.431 626.713 433.849 626.928 434.166C627.143 434.483 627.392 434.712 627.677 434.852C627.962 434.987 628.258 435.055 628.566 435.055C628.874 435.055 629.17 434.987 629.455 434.852C629.74 434.712 629.989 434.483 630.204 434.166C630.423 433.849 630.596 433.431 630.722 432.913C630.853 432.395 630.918 431.753 630.918 430.988ZM637.988 428.391C637.988 428.783 637.927 429.135 637.806 429.448C637.685 429.756 637.521 430.017 637.316 430.232C637.115 430.442 636.88 430.603 636.609 430.715C636.343 430.827 636.061 430.883 635.762 430.883C635.449 430.883 635.158 430.827 634.887 430.715C634.616 430.603 634.381 430.442 634.18 430.232C633.984 430.017 633.83 429.756 633.718 429.448C633.606 429.135 633.55 428.783 633.55 428.391C633.55 427.99 633.606 427.633 633.718 427.32C633.83 427.007 633.984 426.744 634.18 426.529C634.381 426.314 634.616 426.151 634.887 426.039C635.158 425.927 635.449 425.871 635.762 425.871C636.079 425.871 636.373 425.927 636.644 426.039C636.915 426.151 637.15 426.314 637.351 426.529C637.552 426.744 637.708 427.007 637.82 427.32C637.932 427.633 637.988 427.99 637.988 428.391ZM637.022 428.391C637.022 428.083 636.989 427.822 636.924 427.607C636.859 427.392 636.768 427.217 636.651 427.082C636.539 426.942 636.406 426.842 636.252 426.781C636.098 426.72 635.935 426.69 635.762 426.69C635.589 426.69 635.428 426.72 635.279 426.781C635.13 426.842 634.999 426.942 634.887 427.082C634.775 427.217 634.686 427.392 634.621 427.607C634.556 427.822 634.523 428.083 634.523 428.391C634.523 428.694 634.556 428.953 634.621 429.168C634.686 429.378 634.775 429.551 634.887 429.686C634.999 429.817 635.13 429.912 635.279 429.973C635.428 430.029 635.589 430.057 635.762 430.057C635.935 430.057 636.098 430.029 636.252 429.973C636.406 429.912 636.539 429.817 636.651 429.686C636.768 429.551 636.859 429.378 636.924 429.168C636.989 428.953 637.022 428.694 637.022 428.391ZM641.537 426.179C641.584 426.123 641.637 426.074 641.698 426.032C641.763 425.99 641.85 425.969 641.957 425.969H642.86L635.524 435.797C635.482 435.858 635.428 435.907 635.363 435.944C635.298 435.981 635.218 436 635.125 436H634.208L641.537 426.179ZM643.539 433.634C643.539 434.026 643.478 434.376 643.357 434.684C643.236 434.992 643.072 435.253 642.867 435.468C642.666 435.678 642.431 435.839 642.16 435.951C641.894 436.063 641.612 436.119 641.313 436.119C640.996 436.119 640.702 436.063 640.431 435.951C640.165 435.839 639.932 435.678 639.731 435.468C639.535 435.253 639.381 434.992 639.269 434.684C639.157 434.376 639.101 434.026 639.101 433.634C639.101 433.233 639.157 432.876 639.269 432.563C639.381 432.246 639.535 431.98 639.731 431.765C639.932 431.55 640.165 431.387 640.431 431.275C640.702 431.163 640.996 431.107 641.313 431.107C641.626 431.107 641.917 431.163 642.188 431.275C642.463 431.387 642.699 431.55 642.895 431.765C643.096 431.98 643.252 432.246 643.364 432.563C643.481 432.876 643.539 433.233 643.539 433.634ZM642.573 433.634C642.573 433.326 642.54 433.065 642.475 432.85C642.41 432.631 642.319 432.453 642.202 432.318C642.09 432.183 641.957 432.085 641.803 432.024C641.649 431.963 641.486 431.933 641.313 431.933C641.14 431.933 640.977 431.963 640.823 432.024C640.674 432.085 640.543 432.183 640.431 432.318C640.319 432.453 640.23 432.631 640.165 432.85C640.104 433.065 640.074 433.326 640.074 433.634C640.074 433.937 640.104 434.194 640.165 434.404C640.23 434.614 640.319 434.787 640.431 434.922C640.543 435.053 640.674 435.148 640.823 435.209C640.977 435.265 641.14 435.293 641.313 435.293C641.486 435.293 641.649 435.265 641.803 435.209C641.957 435.148 642.09 435.053 642.202 434.922C642.319 434.787 642.41 434.614 642.475 434.404C642.54 434.194 642.573 433.937 642.573 433.634ZM652.317 428.797C652.835 428.797 653.301 428.883 653.717 429.056C654.132 429.229 654.487 429.474 654.781 429.791C655.075 430.108 655.299 430.493 655.453 430.946C655.611 431.394 655.691 431.896 655.691 432.451C655.691 433.011 655.611 433.515 655.453 433.963C655.299 434.411 655.075 434.794 654.781 435.111C654.487 435.428 654.132 435.673 653.717 435.846C653.301 436.014 652.835 436.098 652.317 436.098C651.794 436.098 651.323 436.014 650.903 435.846C650.487 435.673 650.133 435.428 649.839 435.111C649.545 434.794 649.318 434.411 649.16 433.963C649.006 433.515 648.929 433.011 648.929 432.451C648.929 431.896 649.006 431.394 649.16 430.946C649.318 430.493 649.545 430.108 649.839 429.791C650.133 429.474 650.487 429.229 650.903 429.056C651.323 428.883 651.794 428.797 652.317 428.797ZM652.317 435.125C653.017 435.125 653.539 434.892 653.885 434.425C654.23 433.954 654.403 433.298 654.403 432.458C654.403 431.613 654.23 430.955 653.885 430.484C653.539 430.013 653.017 429.777 652.317 429.777C651.962 429.777 651.652 429.838 651.386 429.959C651.124 430.08 650.905 430.255 650.728 430.484C650.555 430.713 650.424 430.995 650.336 431.331C650.252 431.662 650.21 432.038 650.21 432.458C650.21 433.298 650.382 433.954 650.728 434.425C651.078 434.892 651.607 435.125 652.317 435.125ZM657.883 436V429.973L657.099 429.882C657.001 429.859 656.919 429.824 656.854 429.777C656.793 429.726 656.763 429.653 656.763 429.56V429.049H657.883V428.363C657.883 427.957 657.939 427.598 658.051 427.285C658.167 426.968 658.331 426.702 658.541 426.487C658.755 426.268 659.012 426.102 659.311 425.99C659.609 425.878 659.945 425.822 660.319 425.822C660.636 425.822 660.928 425.869 661.194 425.962L661.166 426.585C661.156 426.697 661.093 426.758 660.977 426.767C660.865 426.776 660.713 426.781 660.522 426.781C660.307 426.781 660.111 426.809 659.934 426.865C659.761 426.921 659.612 427.012 659.486 427.138C659.36 427.264 659.262 427.43 659.192 427.635C659.126 427.84 659.094 428.095 659.094 428.398V429.049H661.138V429.952H659.136V436H657.883ZM667.434 430.33C667.658 429.845 667.933 429.467 668.26 429.196C668.587 428.921 668.986 428.783 669.457 428.783C669.606 428.783 669.749 428.799 669.884 428.832C670.024 428.865 670.148 428.916 670.255 428.986L670.164 429.917C670.136 430.034 670.066 430.092 669.954 430.092C669.889 430.092 669.793 430.078 669.667 430.05C669.541 430.022 669.399 430.008 669.24 430.008C669.016 430.008 668.815 430.041 668.638 430.106C668.465 430.171 668.309 430.269 668.169 430.4C668.034 430.526 667.91 430.685 667.798 430.876C667.691 431.063 667.593 431.277 667.504 431.52V436H666.251V428.909H666.965C667.1 428.909 667.194 428.935 667.245 428.986C667.296 429.037 667.331 429.126 667.35 429.252L667.434 430.33Z" fill="black"/>
<path d="M759.614 312.983C759.614 316.761 759.049 320.193 757.921 323.28C756.792 326.344 755.202 328.97 753.152 331.158C751.102 333.324 748.637 335.005 745.757 336.203C742.901 337.378 739.745 337.965 736.29 337.965C732.834 337.965 729.678 337.378 726.822 336.203C723.965 335.005 721.512 333.324 719.462 331.158C717.411 328.97 715.822 326.344 714.693 323.28C713.564 320.193 713 316.761 713 312.983C713 309.228 713.564 305.818 714.693 302.755C715.822 299.668 717.411 297.042 719.462 294.876C721.512 292.688 723.965 290.995 726.822 289.797C729.678 288.599 732.834 288 736.29 288C739.745 288 742.901 288.599 745.757 289.797C748.637 290.972 751.102 292.653 753.152 294.842C755.202 297.03 756.792 299.668 757.921 302.755C759.049 305.818 759.614 309.228 759.614 312.983ZM755.951 312.983C755.951 309.573 755.479 306.51 754.534 303.791C753.59 301.073 752.254 298.769 750.526 296.88C748.798 294.991 746.725 293.552 744.306 292.561C741.887 291.548 739.215 291.041 736.29 291.041C733.387 291.041 730.726 291.548 728.308 292.561C725.889 293.552 723.804 294.991 722.053 296.88C720.326 298.769 718.978 301.073 718.01 303.791C717.066 306.51 716.594 309.573 716.594 312.983C716.594 316.415 717.066 319.49 718.01 322.209C718.978 324.904 720.326 327.196 722.053 329.085C723.804 330.974 725.889 332.414 728.308 333.404C730.726 334.395 733.387 334.89 736.29 334.89C739.215 334.89 741.887 334.395 744.306 333.404C746.725 332.414 748.798 330.974 750.526 329.085C752.254 327.196 753.59 324.904 754.534 322.209C755.479 319.49 755.951 316.415 755.951 312.983Z" fill="#41A5DD"/>
<path d="M774.404 291.49V312.05H796.691V314.987H774.404V337.447H770.845V288.553H800.147V291.49H774.404Z" fill="#41A5DD"/>
<path d="M813.412 291.49V312.05H835.7V314.987H813.412V337.447H809.853V288.553H839.155V291.49H813.412Z" fill="#41A5DD"/>
<path d="M878.233 334.51L878.164 337.447H848.862V288.553H878.164V291.49H852.421V311.255H873.845V314.123H852.421V334.51H878.233Z" fill="#41A5DD"/>
<path d="M900.975 312.706C903.141 312.706 905.076 312.453 906.78 311.946C908.508 311.416 909.959 310.668 911.134 309.7C912.332 308.733 913.242 307.569 913.864 306.21C914.486 304.851 914.797 303.319 914.797 301.614C914.797 298.136 913.657 295.556 911.376 293.874C909.118 292.193 905.813 291.352 901.459 291.352H892.509V312.706H900.975ZM922.675 337.447H919.634C919.243 337.447 918.909 337.39 918.632 337.274C918.379 337.136 918.137 336.894 917.907 336.549L902.219 316.715C902.035 316.461 901.839 316.242 901.632 316.058C901.447 315.874 901.229 315.736 900.975 315.643C900.745 315.528 900.457 315.448 900.111 315.402C899.789 315.355 899.386 315.332 898.902 315.332H892.509V337.447H888.95V288.553H901.459C907.08 288.553 911.284 289.647 914.071 291.836C916.882 294.001 918.287 297.191 918.287 301.407C918.287 303.273 917.964 304.978 917.319 306.521C916.674 308.065 915.741 309.424 914.52 310.598C913.323 311.75 911.86 312.695 910.132 313.432C908.427 314.169 906.504 314.664 904.361 314.918C904.914 315.263 905.41 315.724 905.847 316.3L922.675 337.447Z" fill="#41A5DD"/>
<path d="M934.487 337.447H930.928V288.553H934.487V337.447Z" fill="#41A5DD"/>
<path d="M986.681 288.553V337.447H985.022C984.723 337.447 984.47 337.401 984.262 337.309C984.078 337.194 983.894 337.009 983.709 336.756L951.954 294.323C952.023 295.015 952.058 295.671 952.058 296.293V337.447H948.948V288.553H950.71C951.033 288.553 951.274 288.599 951.436 288.691C951.62 288.76 951.816 288.933 952.023 289.209L983.709 331.538C983.64 330.847 983.606 330.191 983.606 329.569V288.553H986.681Z" fill="#41A5DD"/>
<path d="M1040.16 315.263V332.644C1037.72 334.372 1035.12 335.696 1032.35 336.618C1029.59 337.539 1026.48 338 1023.02 338C1019.15 338 1015.68 337.413 1012.59 336.238C1009.5 335.04 1006.86 333.358 1004.68 331.193C1002.51 329.004 1000.84 326.367 999.665 323.28C998.513 320.193 997.938 316.761 997.938 312.983C997.938 309.205 998.502 305.784 999.631 302.72C1000.78 299.633 1002.42 297.007 1004.54 294.842C1006.68 292.653 1009.26 290.972 1012.28 289.797C1015.3 288.599 1018.69 288 1022.47 288C1024.34 288 1026.05 288.127 1027.62 288.38C1029.21 288.633 1030.68 289.014 1032.04 289.52C1033.4 290.004 1034.67 290.615 1035.84 291.352C1037.02 292.066 1038.15 292.895 1039.23 293.84L1038.26 295.36C1037.94 295.913 1037.46 296.04 1036.81 295.74C1036.47 295.602 1035.97 295.279 1035.33 294.773C1034.68 294.266 1033.79 293.736 1032.66 293.183C1031.54 292.63 1030.13 292.135 1028.45 291.697C1026.79 291.26 1024.76 291.041 1022.37 291.041C1019.19 291.041 1016.31 291.548 1013.73 292.561C1011.17 293.575 1008.98 295.026 1007.16 296.915C1005.37 298.804 1003.97 301.108 1002.98 303.826C1002.01 306.544 1001.53 309.596 1001.53 312.983C1001.53 316.415 1002.01 319.502 1002.98 322.243C1003.97 324.985 1005.39 327.311 1007.23 329.223C1009.1 331.135 1011.36 332.598 1014.01 333.612C1016.65 334.625 1019.64 335.132 1022.95 335.132C1024.41 335.132 1025.74 335.04 1026.96 334.856C1028.21 334.671 1029.38 334.418 1030.49 334.095C1031.62 333.75 1032.7 333.335 1033.74 332.851C1034.8 332.345 1035.87 331.78 1036.95 331.158V317.993H1027.59C1027.33 317.993 1027.11 317.912 1026.93 317.751C1026.77 317.59 1026.69 317.406 1026.69 317.198V315.263H1040.16Z" fill="#41A5DD"/>
<defs>
<clipPath id="clip0_901:279">
<rect width="293.137" height="50" fill="white" transform="translate(220 288)"/>
</clipPath>
</defs>
</svg>
