<svg width="1204" height="678" viewBox="0 0 1204 678" fill="none" xmlns="http://www.w3.org/2000/svg">
<rect width="1204" height="677.25" fill="white"/>
<rect x="348.5" y="239.5" width="562" height="49" stroke="#D8D8D8"/>
<rect x="348.5" y="338.5" width="562" height="49" stroke="#D8D8D8"/>
<rect x="348.5" y="387.5" width="148" height="49" transform="rotate(-90 348.5 387.5)" stroke="#D8D8D8"/>
<rect x="481.5" y="387.5" width="148" height="49" transform="rotate(-90 481.5 387.5)" stroke="#D8D8D8"/>
<rect x="861.5" y="387.5" width="148" height="49" transform="rotate(-90 861.5 387.5)" stroke="#D8D8D8"/>
<path d="M421.767 334.57C424.958 334.57 427.545 331.994 427.545 328.815C427.545 325.638 424.958 323.062 421.767 323.062C418.576 323.062 415.989 325.638 415.989 328.815C415.989 331.994 418.576 334.57 421.767 334.57Z" fill="#41A5DD"/>
<path fill-rule="evenodd" clip-rule="evenodd" d="M467.066 292.258C465.872 288.882 463.676 288.269 461.173 288.269H458.553C458.322 288.269 458.091 288.269 457.86 288.307H404.24C400.851 288.307 398.077 291.069 398.077 294.445V331.769C398.077 335.145 400.851 337.907 404.24 337.907H442.991V337.869H443.107C445.726 337.869 447.229 336.986 447.999 334.876L450.888 326.897H468.53L471.342 334.876C472.151 336.986 473.884 337.869 476.272 337.869C479.084 337.869 481.396 335.759 481.396 333.074C481.396 331.884 480.741 329.966 480.317 328.892L467.066 292.258ZM421.767 335.874C417.876 335.874 414.679 332.728 414.679 328.815C414.679 324.941 417.838 321.757 421.767 321.757C425.657 321.757 428.854 324.903 428.854 328.815C428.816 332.728 425.657 335.874 421.767 335.874ZM436.751 329.353H430.241C430.241 327.972 429.663 320.299 421.574 320.299C413.485 320.299 413.138 329.429 413.138 329.429H411.405C411.405 329.429 406.359 327.396 405.319 326.859C404.279 326.284 404.163 323.445 404.163 323.445V320.952H405.049V318.42C405.473 313.049 418.685 308.216 418.685 308.216C418.685 308.216 429.779 297.322 431.512 295.787C435.249 292.527 450.387 293.255 450.387 293.255L436.751 329.353ZM453.237 319.34L459.709 300.122H459.824L466.026 319.34H453.237Z" fill="#41A5DD"/>
<path fill-rule="evenodd" clip-rule="evenodd" d="M413.986 314.699C413.523 314.584 411.829 314.584 411.097 314.545C410.866 314.545 410.635 314.622 410.48 314.776C410.134 315.044 409.594 315.581 409.094 316.233C408.516 317 408.092 317.959 407.823 318.573C407.63 319.072 408.169 319.11 408.169 319.11L409.44 319.379C409.594 319.417 409.749 319.379 409.864 319.264L414.101 315.581C414.063 315.581 414.679 314.852 413.986 314.699Z" fill="#41A5DD"/>
<path fill-rule="evenodd" clip-rule="evenodd" d="M442.606 296.478C442.028 296.478 436.674 297.053 435.634 297.245C434.594 297.437 433.053 298.626 433.053 298.626L426.466 305.876V309.75L440.41 307.065C440.41 307.065 442.221 306.72 442.49 304.418C442.76 302.116 443.338 297.206 443.338 297.206C443.338 297.206 443.184 296.478 442.606 296.478Z" fill="#41A5DD"/>
<path d="M543.656 314.936C545.799 314.936 547.724 314.637 549.43 314.037C551.136 313.438 552.577 312.608 553.752 311.548C554.951 310.487 555.862 309.243 556.484 307.813C557.13 306.361 557.452 304.782 557.452 303.076C557.452 299.319 556.3 296.426 553.994 294.397C551.689 292.368 548.243 291.354 543.656 291.354H534.562V314.936H543.656ZM543.656 288.553C549.396 288.553 553.718 289.81 556.622 292.322C559.55 294.835 561.014 298.42 561.014 303.076C561.014 305.22 560.61 307.191 559.804 308.989C558.997 310.787 557.844 312.343 556.346 313.657C554.847 314.948 553.026 315.962 550.882 316.7C548.739 317.414 546.33 317.772 543.656 317.772H534.562V337.481H531V288.553H543.656Z" fill="#41A5DD"/>
<path d="M583.014 312.723C585.181 312.723 587.117 312.47 588.823 311.963C590.552 311.432 592.004 310.683 593.18 309.715C594.379 308.747 595.289 307.583 595.912 306.223C596.534 304.863 596.845 303.33 596.845 301.624C596.845 298.143 595.704 295.561 593.422 293.878C591.163 292.195 587.855 291.354 583.498 291.354H574.543V312.723H583.014ZM604.729 337.481H601.686C601.294 337.481 600.96 337.424 600.684 337.308C600.43 337.17 600.188 336.928 599.957 336.582L584.259 316.734C584.075 316.481 583.879 316.262 583.671 316.077C583.487 315.893 583.268 315.755 583.014 315.663C582.784 315.547 582.496 315.467 582.15 315.42C581.827 315.374 581.424 315.351 580.939 315.351H574.543V337.481H570.981V288.553H583.498C589.123 288.553 593.33 289.648 596.119 291.838C598.932 294.005 600.338 297.198 600.338 301.416C600.338 303.284 600.015 304.989 599.37 306.534C598.724 308.078 597.791 309.438 596.569 310.614C595.37 311.767 593.906 312.712 592.177 313.45C590.472 314.187 588.547 314.683 586.403 314.936C586.956 315.282 587.452 315.743 587.89 316.32L604.729 337.481Z" fill="#41A5DD"/>
<path d="M656.183 313C656.183 316.781 655.618 320.215 654.488 323.304C653.359 326.37 651.768 328.998 649.716 331.188C647.665 333.355 645.198 335.038 642.317 336.237C639.458 337.412 636.3 338 632.842 338C629.385 338 626.226 337.412 623.368 336.237C620.509 335.038 618.054 333.355 616.003 331.188C613.951 328.998 612.361 326.37 611.231 323.304C610.101 320.215 609.537 316.781 609.537 313C609.537 309.243 610.101 305.831 611.231 302.765C612.361 299.676 613.951 297.048 616.003 294.881C618.054 292.691 620.509 290.997 623.368 289.798C626.226 288.599 629.385 288 632.842 288C636.3 288 639.458 288.599 642.317 289.798C645.198 290.974 647.665 292.657 649.716 294.846C651.768 297.036 653.359 299.676 654.488 302.765C655.618 305.831 656.183 309.243 656.183 313ZM652.517 313C652.517 309.588 652.045 306.522 651.1 303.802C650.154 301.082 648.817 298.777 647.089 296.887C645.36 294.996 643.285 293.556 640.864 292.564C638.444 291.55 635.77 291.043 632.842 291.043C629.938 291.043 627.275 291.55 624.855 292.564C622.434 293.556 620.348 294.996 618.596 296.887C616.867 298.777 615.519 301.082 614.551 303.802C613.605 306.522 613.133 309.588 613.133 313C613.133 316.435 613.605 319.512 614.551 322.232C615.519 324.929 616.867 327.223 618.596 329.113C620.348 331.004 622.434 332.444 624.855 333.436C627.275 334.427 629.938 334.923 632.842 334.923C635.77 334.923 638.444 334.427 640.864 333.436C643.285 332.444 645.36 331.004 647.089 329.113C648.817 327.223 650.154 324.929 651.1 322.232C652.045 319.512 652.517 316.435 652.517 313Z" fill="#41A5DD"/>
<path d="M680.077 314.936C682.221 314.936 684.146 314.637 685.852 314.037C687.558 313.438 688.998 312.608 690.174 311.548C691.373 310.487 692.283 309.243 692.906 307.813C693.551 306.361 693.874 304.782 693.874 303.076C693.874 299.319 692.721 296.426 690.416 294.397C688.111 292.368 684.665 291.354 680.077 291.354H670.983V314.936H680.077ZM680.077 288.553C685.817 288.553 690.139 289.81 693.044 292.322C695.972 294.835 697.435 298.42 697.435 303.076C697.435 305.22 697.032 307.191 696.225 308.989C695.418 310.787 694.266 312.343 692.767 313.657C691.269 314.948 689.448 315.962 687.304 316.7C685.16 317.414 682.751 317.772 680.077 317.772H670.983V337.481H667.422V288.553H680.077Z" fill="#41A5DD"/>
<path d="M736.794 334.542L736.725 337.481H707.403V288.553H736.725V291.492H710.964V311.271H732.403V314.141H710.964V334.542H736.794Z" fill="#41A5DD"/>
<path d="M759.552 312.723C761.719 312.723 763.655 312.47 765.361 311.963C767.09 311.432 768.542 310.683 769.718 309.715C770.916 308.747 771.827 307.583 772.449 306.223C773.072 304.863 773.383 303.33 773.383 301.624C773.383 298.143 772.242 295.561 769.96 293.878C767.701 292.195 764.393 291.354 760.036 291.354H751.08V312.723H759.552ZM781.267 337.481H778.224C777.832 337.481 777.498 337.424 777.221 337.308C776.968 337.17 776.726 336.928 776.495 336.582L760.797 316.734C760.612 316.481 760.416 316.262 760.209 316.077C760.024 315.893 759.805 315.755 759.552 315.663C759.321 315.547 759.033 315.467 758.687 315.42C758.365 315.374 757.961 315.351 757.477 315.351H751.08V337.481H747.519V288.553H760.036C765.661 288.553 769.868 289.648 772.657 291.838C775.469 294.005 776.875 297.198 776.875 301.416C776.875 303.284 776.553 304.989 775.907 306.534C775.262 308.078 774.328 309.438 773.106 310.614C771.908 311.767 770.444 312.712 768.715 313.45C767.009 314.187 765.084 314.683 762.94 314.936C763.494 315.282 763.989 315.743 764.427 316.32L781.267 337.481Z" fill="#41A5DD"/>
<path d="M819.311 291.562H802.126V337.481H798.565V291.562H781.276V288.553H819.311V291.562Z" fill="#41A5DD"/>
<path d="M842.659 317.322V337.481H839.132V317.322L821.013 288.553H824.125C824.448 288.553 824.713 288.634 824.92 288.795C825.128 288.934 825.301 289.141 825.439 289.418L839.443 311.894C839.743 312.424 840.019 312.942 840.273 313.45C840.526 313.934 840.745 314.418 840.93 314.902C841.114 314.418 841.322 313.934 841.552 313.45C841.783 312.942 842.048 312.424 842.348 311.894L856.352 289.418C856.467 289.164 856.628 288.957 856.836 288.795C857.066 288.634 857.343 288.553 857.666 288.553H860.778L842.659 317.322Z" fill="#41A5DD"/>
<line x1="921" y1="288.5" x2="935" y2="288.5" stroke="black"/>
<line x1="921" y1="338.5" x2="935" y2="338.5" stroke="black"/>
<line x1="934.5" y1="339" x2="934.5" y2="289" stroke="black"/>
<path d="M947.17 314.33C947.394 313.845 947.669 313.467 947.996 313.196C948.323 312.921 948.722 312.783 949.193 312.783C949.342 312.783 949.485 312.799 949.62 312.832C949.76 312.865 949.884 312.916 949.991 312.986L949.9 313.917C949.872 314.034 949.802 314.092 949.69 314.092C949.625 314.092 949.529 314.078 949.403 314.05C949.277 314.022 949.135 314.008 948.976 314.008C948.752 314.008 948.551 314.041 948.374 314.106C948.201 314.171 948.045 314.269 947.905 314.4C947.77 314.526 947.646 314.685 947.534 314.876C947.427 315.063 947.329 315.277 947.24 315.52V320H945.987V312.909H946.701C946.836 312.909 946.93 312.935 946.981 312.986C947.032 313.037 947.067 313.126 947.086 313.252L947.17 314.33Z" fill="black"/>
<line x1="338" y1="289.5" x2="324" y2="289.5" stroke="black"/>
<line x1="338" y1="239.5" x2="324" y2="239.5" stroke="black"/>
<line x1="324.5" y1="239" x2="324.5" y2="289" stroke="black"/>
<path d="M260.126 268.048V269H254.75V268.048H256.899V261.209C256.899 261.004 256.906 260.796 256.92 260.586L255.135 262.119C255.074 262.17 255.014 262.203 254.953 262.217C254.892 262.226 254.836 262.226 254.785 262.217C254.734 262.208 254.685 262.189 254.638 262.161C254.596 262.133 254.563 262.103 254.54 262.07L254.148 261.531L257.137 258.948H258.152V268.048H260.126ZM269.121 263.988C269.121 264.865 269.025 265.626 268.834 266.27C268.647 266.909 268.391 267.439 268.064 267.859C267.737 268.279 267.35 268.592 266.902 268.797C266.459 269.002 265.983 269.105 265.474 269.105C264.961 269.105 264.482 269.002 264.039 268.797C263.6 268.592 263.218 268.279 262.891 267.859C262.564 267.439 262.308 266.909 262.121 266.27C261.934 265.626 261.841 264.865 261.841 263.988C261.841 263.111 261.934 262.35 262.121 261.706C262.308 261.062 262.564 260.53 262.891 260.11C263.218 259.685 263.6 259.37 264.039 259.165C264.482 258.96 264.961 258.857 265.474 258.857C265.983 258.857 266.459 258.96 266.902 259.165C267.35 259.37 267.737 259.685 268.064 260.11C268.391 260.53 268.647 261.062 268.834 261.706C269.025 262.35 269.121 263.111 269.121 263.988ZM267.826 263.988C267.826 263.223 267.761 262.581 267.63 262.063C267.504 261.54 267.331 261.12 267.112 260.803C266.897 260.486 266.648 260.259 266.363 260.124C266.078 259.984 265.782 259.914 265.474 259.914C265.166 259.914 264.87 259.984 264.585 260.124C264.3 260.259 264.051 260.486 263.836 260.803C263.621 261.12 263.449 261.54 263.318 262.063C263.192 262.581 263.129 263.223 263.129 263.988C263.129 264.753 263.192 265.395 263.318 265.913C263.449 266.431 263.621 266.849 263.836 267.166C264.051 267.483 264.3 267.712 264.585 267.852C264.87 267.987 265.166 268.055 265.474 268.055C265.782 268.055 266.078 267.987 266.363 267.852C266.648 267.712 266.897 267.483 267.112 267.166C267.331 266.849 267.504 266.431 267.63 265.913C267.761 265.395 267.826 264.753 267.826 263.988ZM277.542 263.988C277.542 264.865 277.447 265.626 277.255 266.27C277.069 266.909 276.812 267.439 276.485 267.859C276.159 268.279 275.771 268.592 275.323 268.797C274.88 269.002 274.404 269.105 273.895 269.105C273.382 269.105 272.904 269.002 272.46 268.797C272.022 268.592 271.639 268.279 271.312 267.859C270.986 267.439 270.729 266.909 270.542 266.27C270.356 265.626 270.262 264.865 270.262 263.988C270.262 263.111 270.356 262.35 270.542 261.706C270.729 261.062 270.986 260.53 271.312 260.11C271.639 259.685 272.022 259.37 272.46 259.165C272.904 258.96 273.382 258.857 273.895 258.857C274.404 258.857 274.88 258.96 275.323 259.165C275.771 259.37 276.159 259.685 276.485 260.11C276.812 260.53 277.069 261.062 277.255 261.706C277.447 262.35 277.542 263.111 277.542 263.988ZM276.247 263.988C276.247 263.223 276.182 262.581 276.051 262.063C275.925 261.54 275.753 261.12 275.533 260.803C275.319 260.486 275.069 260.259 274.784 260.124C274.5 259.984 274.203 259.914 273.895 259.914C273.587 259.914 273.291 259.984 273.006 260.124C272.722 260.259 272.472 260.486 272.257 260.803C272.043 261.12 271.87 261.54 271.739 262.063C271.613 262.581 271.55 263.223 271.55 263.988C271.55 264.753 271.613 265.395 271.739 265.913C271.87 266.431 272.043 266.849 272.257 267.166C272.472 267.483 272.722 267.712 273.006 267.852C273.291 267.987 273.587 268.055 273.895 268.055C274.203 268.055 274.5 267.987 274.784 267.852C275.069 267.712 275.319 267.483 275.533 267.166C275.753 266.849 275.925 266.431 276.051 265.913C276.182 265.395 276.247 264.753 276.247 263.988ZM283.317 261.391C283.317 261.783 283.257 262.135 283.135 262.448C283.014 262.756 282.851 263.017 282.645 263.232C282.445 263.442 282.209 263.603 281.938 263.715C281.672 263.827 281.39 263.883 281.091 263.883C280.779 263.883 280.487 263.827 280.216 263.715C279.946 263.603 279.71 263.442 279.509 263.232C279.313 263.017 279.159 262.756 279.047 262.448C278.935 262.135 278.879 261.783 278.879 261.391C278.879 260.99 278.935 260.633 279.047 260.32C279.159 260.007 279.313 259.744 279.509 259.529C279.71 259.314 279.946 259.151 280.216 259.039C280.487 258.927 280.779 258.871 281.091 258.871C281.409 258.871 281.703 258.927 281.973 259.039C282.244 259.151 282.48 259.314 282.68 259.529C282.881 259.744 283.037 260.007 283.149 260.32C283.261 260.633 283.317 260.99 283.317 261.391ZM282.351 261.391C282.351 261.083 282.319 260.822 282.253 260.607C282.188 260.392 282.097 260.217 281.98 260.082C281.868 259.942 281.735 259.842 281.581 259.781C281.427 259.72 281.264 259.69 281.091 259.69C280.919 259.69 280.758 259.72 280.608 259.781C280.459 259.842 280.328 259.942 280.216 260.082C280.104 260.217 280.016 260.392 279.95 260.607C279.885 260.822 279.852 261.083 279.852 261.391C279.852 261.694 279.885 261.953 279.95 262.168C280.016 262.378 280.104 262.551 280.216 262.686C280.328 262.817 280.459 262.912 280.608 262.973C280.758 263.029 280.919 263.057 281.091 263.057C281.264 263.057 281.427 263.029 281.581 262.973C281.735 262.912 281.868 262.817 281.98 262.686C282.097 262.551 282.188 262.378 282.253 262.168C282.319 261.953 282.351 261.694 282.351 261.391ZM286.866 259.179C286.913 259.123 286.967 259.074 287.027 259.032C287.093 258.99 287.179 258.969 287.286 258.969H288.189L280.853 268.797C280.811 268.858 280.758 268.907 280.692 268.944C280.627 268.981 280.548 269 280.454 269H279.537L286.866 259.179ZM288.868 266.634C288.868 267.026 288.808 267.376 288.686 267.684C288.565 267.992 288.402 268.253 288.196 268.468C287.996 268.678 287.76 268.839 287.489 268.951C287.223 269.063 286.941 269.119 286.642 269.119C286.325 269.119 286.031 269.063 285.76 268.951C285.494 268.839 285.261 268.678 285.06 268.468C284.864 268.253 284.71 267.992 284.598 267.684C284.486 267.376 284.43 267.026 284.43 266.634C284.43 266.233 284.486 265.876 284.598 265.563C284.71 265.246 284.864 264.98 285.06 264.765C285.261 264.55 285.494 264.387 285.76 264.275C286.031 264.163 286.325 264.107 286.642 264.107C286.955 264.107 287.247 264.163 287.517 264.275C287.793 264.387 288.028 264.55 288.224 264.765C288.425 264.98 288.581 265.246 288.693 265.563C288.81 265.876 288.868 266.233 288.868 266.634ZM287.902 266.634C287.902 266.326 287.87 266.065 287.804 265.85C287.739 265.631 287.648 265.453 287.531 265.318C287.419 265.183 287.286 265.085 287.132 265.024C286.978 264.963 286.815 264.933 286.642 264.933C286.47 264.933 286.306 264.963 286.152 265.024C286.003 265.085 285.872 265.183 285.76 265.318C285.648 265.453 285.56 265.631 285.494 265.85C285.434 266.065 285.403 266.326 285.403 266.634C285.403 266.937 285.434 267.194 285.494 267.404C285.56 267.614 285.648 267.787 285.76 267.922C285.872 268.053 286.003 268.148 286.152 268.209C286.306 268.265 286.47 268.293 286.642 268.293C286.815 268.293 286.978 268.265 287.132 268.209C287.286 268.148 287.419 268.053 287.531 267.922C287.648 267.787 287.739 267.614 287.804 267.404C287.87 267.194 287.902 266.937 287.902 266.634ZM297.646 261.797C298.164 261.797 298.631 261.883 299.046 262.056C299.461 262.229 299.816 262.474 300.11 262.791C300.404 263.108 300.628 263.493 300.782 263.946C300.941 264.394 301.02 264.896 301.02 265.451C301.02 266.011 300.941 266.515 300.782 266.963C300.628 267.411 300.404 267.794 300.11 268.111C299.816 268.428 299.461 268.673 299.046 268.846C298.631 269.014 298.164 269.098 297.646 269.098C297.123 269.098 296.652 269.014 296.232 268.846C295.817 268.673 295.462 268.428 295.168 268.111C294.874 267.794 294.648 267.411 294.489 266.963C294.335 266.515 294.258 266.011 294.258 265.451C294.258 264.896 294.335 264.394 294.489 263.946C294.648 263.493 294.874 263.108 295.168 262.791C295.462 262.474 295.817 262.229 296.232 262.056C296.652 261.883 297.123 261.797 297.646 261.797ZM297.646 268.125C298.346 268.125 298.869 267.892 299.214 267.425C299.559 266.954 299.732 266.298 299.732 265.458C299.732 264.613 299.559 263.955 299.214 263.484C298.869 263.013 298.346 262.777 297.646 262.777C297.291 262.777 296.981 262.838 296.715 262.959C296.454 263.08 296.234 263.255 296.057 263.484C295.884 263.713 295.754 263.995 295.665 264.331C295.581 264.662 295.539 265.038 295.539 265.458C295.539 266.298 295.712 266.954 296.057 267.425C296.407 267.892 296.937 268.125 297.646 268.125ZM303.212 269V262.973L302.428 262.882C302.33 262.859 302.248 262.824 302.183 262.777C302.122 262.726 302.092 262.653 302.092 262.56V262.049H303.212V261.363C303.212 260.957 303.268 260.598 303.38 260.285C303.497 259.968 303.66 259.702 303.87 259.487C304.085 259.268 304.341 259.102 304.64 258.99C304.939 258.878 305.275 258.822 305.648 258.822C305.965 258.822 306.257 258.869 306.523 258.962L306.495 259.585C306.486 259.697 306.423 259.758 306.306 259.767C306.194 259.776 306.042 259.781 305.851 259.781C305.636 259.781 305.44 259.809 305.263 259.865C305.09 259.921 304.941 260.012 304.815 260.138C304.689 260.264 304.591 260.43 304.521 260.635C304.456 260.84 304.423 261.095 304.423 261.398V262.049H306.467V262.952H304.465V269H303.212ZM312.763 263.33C312.987 262.845 313.263 262.467 313.589 262.196C313.916 261.921 314.315 261.783 314.786 261.783C314.936 261.783 315.078 261.799 315.213 261.832C315.353 261.865 315.477 261.916 315.584 261.986L315.493 262.917C315.465 263.034 315.395 263.092 315.283 263.092C315.218 263.092 315.122 263.078 314.996 263.05C314.87 263.022 314.728 263.008 314.569 263.008C314.345 263.008 314.145 263.041 313.967 263.106C313.795 263.171 313.638 263.269 313.498 263.4C313.363 263.526 313.239 263.685 313.127 263.876C313.02 264.063 312.922 264.277 312.833 264.52V269H311.58V261.909H312.294C312.43 261.909 312.523 261.935 312.574 261.986C312.626 262.037 312.661 262.126 312.679 262.252L312.763 263.33Z" fill="black"/>
<line x1="398.5" y1="398" x2="398.5" y2="412" stroke="black"/>
<line x1="348.5" y1="398" x2="348.5" y2="412" stroke="black"/>
<line x1="348" y1="411.5" x2="398" y2="411.5" stroke="black"/>
<path d="M348.126 435.048V436H342.75V435.048H344.899V428.209C344.899 428.004 344.906 427.796 344.92 427.586L343.135 429.119C343.074 429.17 343.014 429.203 342.953 429.217C342.892 429.226 342.836 429.226 342.785 429.217C342.734 429.208 342.685 429.189 342.638 429.161C342.596 429.133 342.563 429.103 342.54 429.07L342.148 428.531L345.137 425.948H346.152V435.048H348.126ZM357.121 430.988C357.121 431.865 357.025 432.626 356.834 433.27C356.647 433.909 356.391 434.439 356.064 434.859C355.737 435.279 355.35 435.592 354.902 435.797C354.459 436.002 353.983 436.105 353.474 436.105C352.961 436.105 352.482 436.002 352.039 435.797C351.6 435.592 351.218 435.279 350.891 434.859C350.564 434.439 350.308 433.909 350.121 433.27C349.934 432.626 349.841 431.865 349.841 430.988C349.841 430.111 349.934 429.35 350.121 428.706C350.308 428.062 350.564 427.53 350.891 427.11C351.218 426.685 351.6 426.37 352.039 426.165C352.482 425.96 352.961 425.857 353.474 425.857C353.983 425.857 354.459 425.96 354.902 426.165C355.35 426.37 355.737 426.685 356.064 427.11C356.391 427.53 356.647 428.062 356.834 428.706C357.025 429.35 357.121 430.111 357.121 430.988ZM355.826 430.988C355.826 430.223 355.761 429.581 355.63 429.063C355.504 428.54 355.331 428.12 355.112 427.803C354.897 427.486 354.648 427.259 354.363 427.124C354.078 426.984 353.782 426.914 353.474 426.914C353.166 426.914 352.87 426.984 352.585 427.124C352.3 427.259 352.051 427.486 351.836 427.803C351.621 428.12 351.449 428.54 351.318 429.063C351.192 429.581 351.129 430.223 351.129 430.988C351.129 431.753 351.192 432.395 351.318 432.913C351.449 433.431 351.621 433.849 351.836 434.166C352.051 434.483 352.3 434.712 352.585 434.852C352.87 434.987 353.166 435.055 353.474 435.055C353.782 435.055 354.078 434.987 354.363 434.852C354.648 434.712 354.897 434.483 355.112 434.166C355.331 433.849 355.504 433.431 355.63 432.913C355.761 432.395 355.826 431.753 355.826 430.988ZM365.542 430.988C365.542 431.865 365.447 432.626 365.255 433.27C365.069 433.909 364.812 434.439 364.485 434.859C364.159 435.279 363.771 435.592 363.323 435.797C362.88 436.002 362.404 436.105 361.895 436.105C361.382 436.105 360.904 436.002 360.46 435.797C360.022 435.592 359.639 435.279 359.312 434.859C358.986 434.439 358.729 433.909 358.542 433.27C358.356 432.626 358.262 431.865 358.262 430.988C358.262 430.111 358.356 429.35 358.542 428.706C358.729 428.062 358.986 427.53 359.312 427.11C359.639 426.685 360.022 426.37 360.46 426.165C360.904 425.96 361.382 425.857 361.895 425.857C362.404 425.857 362.88 425.96 363.323 426.165C363.771 426.37 364.159 426.685 364.485 427.11C364.812 427.53 365.069 428.062 365.255 428.706C365.447 429.35 365.542 430.111 365.542 430.988ZM364.247 430.988C364.247 430.223 364.182 429.581 364.051 429.063C363.925 428.54 363.753 428.12 363.533 427.803C363.319 427.486 363.069 427.259 362.784 427.124C362.5 426.984 362.203 426.914 361.895 426.914C361.587 426.914 361.291 426.984 361.006 427.124C360.722 427.259 360.472 427.486 360.257 427.803C360.043 428.12 359.87 428.54 359.739 429.063C359.613 429.581 359.55 430.223 359.55 430.988C359.55 431.753 359.613 432.395 359.739 432.913C359.87 433.431 360.043 433.849 360.257 434.166C360.472 434.483 360.722 434.712 361.006 434.852C361.291 434.987 361.587 435.055 361.895 435.055C362.203 435.055 362.5 434.987 362.784 434.852C363.069 434.712 363.319 434.483 363.533 434.166C363.753 433.849 363.925 433.431 364.051 432.913C364.182 432.395 364.247 431.753 364.247 430.988ZM371.317 428.391C371.317 428.783 371.257 429.135 371.135 429.448C371.014 429.756 370.851 430.017 370.645 430.232C370.445 430.442 370.209 430.603 369.938 430.715C369.672 430.827 369.39 430.883 369.091 430.883C368.779 430.883 368.487 430.827 368.216 430.715C367.946 430.603 367.71 430.442 367.509 430.232C367.313 430.017 367.159 429.756 367.047 429.448C366.935 429.135 366.879 428.783 366.879 428.391C366.879 427.99 366.935 427.633 367.047 427.32C367.159 427.007 367.313 426.744 367.509 426.529C367.71 426.314 367.946 426.151 368.216 426.039C368.487 425.927 368.779 425.871 369.091 425.871C369.409 425.871 369.703 425.927 369.973 426.039C370.244 426.151 370.48 426.314 370.68 426.529C370.881 426.744 371.037 427.007 371.149 427.32C371.261 427.633 371.317 427.99 371.317 428.391ZM370.351 428.391C370.351 428.083 370.319 427.822 370.253 427.607C370.188 427.392 370.097 427.217 369.98 427.082C369.868 426.942 369.735 426.842 369.581 426.781C369.427 426.72 369.264 426.69 369.091 426.69C368.919 426.69 368.758 426.72 368.608 426.781C368.459 426.842 368.328 426.942 368.216 427.082C368.104 427.217 368.016 427.392 367.95 427.607C367.885 427.822 367.852 428.083 367.852 428.391C367.852 428.694 367.885 428.953 367.95 429.168C368.016 429.378 368.104 429.551 368.216 429.686C368.328 429.817 368.459 429.912 368.608 429.973C368.758 430.029 368.919 430.057 369.091 430.057C369.264 430.057 369.427 430.029 369.581 429.973C369.735 429.912 369.868 429.817 369.98 429.686C370.097 429.551 370.188 429.378 370.253 429.168C370.319 428.953 370.351 428.694 370.351 428.391ZM374.866 426.179C374.913 426.123 374.967 426.074 375.027 426.032C375.093 425.99 375.179 425.969 375.286 425.969H376.189L368.853 435.797C368.811 435.858 368.758 435.907 368.692 435.944C368.627 435.981 368.548 436 368.454 436H367.537L374.866 426.179ZM376.868 433.634C376.868 434.026 376.808 434.376 376.686 434.684C376.565 434.992 376.402 435.253 376.196 435.468C375.996 435.678 375.76 435.839 375.489 435.951C375.223 436.063 374.941 436.119 374.642 436.119C374.325 436.119 374.031 436.063 373.76 435.951C373.494 435.839 373.261 435.678 373.06 435.468C372.864 435.253 372.71 434.992 372.598 434.684C372.486 434.376 372.43 434.026 372.43 433.634C372.43 433.233 372.486 432.876 372.598 432.563C372.71 432.246 372.864 431.98 373.06 431.765C373.261 431.55 373.494 431.387 373.76 431.275C374.031 431.163 374.325 431.107 374.642 431.107C374.955 431.107 375.247 431.163 375.517 431.275C375.793 431.387 376.028 431.55 376.224 431.765C376.425 431.98 376.581 432.246 376.693 432.563C376.81 432.876 376.868 433.233 376.868 433.634ZM375.902 433.634C375.902 433.326 375.87 433.065 375.804 432.85C375.739 432.631 375.648 432.453 375.531 432.318C375.419 432.183 375.286 432.085 375.132 432.024C374.978 431.963 374.815 431.933 374.642 431.933C374.47 431.933 374.306 431.963 374.152 432.024C374.003 432.085 373.872 432.183 373.76 432.318C373.648 432.453 373.56 432.631 373.494 432.85C373.434 433.065 373.403 433.326 373.403 433.634C373.403 433.937 373.434 434.194 373.494 434.404C373.56 434.614 373.648 434.787 373.76 434.922C373.872 435.053 374.003 435.148 374.152 435.209C374.306 435.265 374.47 435.293 374.642 435.293C374.815 435.293 374.978 435.265 375.132 435.209C375.286 435.148 375.419 435.053 375.531 434.922C375.648 434.787 375.739 434.614 375.804 434.404C375.87 434.194 375.902 433.937 375.902 433.634ZM385.646 428.797C386.164 428.797 386.631 428.883 387.046 429.056C387.461 429.229 387.816 429.474 388.11 429.791C388.404 430.108 388.628 430.493 388.782 430.946C388.941 431.394 389.02 431.896 389.02 432.451C389.02 433.011 388.941 433.515 388.782 433.963C388.628 434.411 388.404 434.794 388.11 435.111C387.816 435.428 387.461 435.673 387.046 435.846C386.631 436.014 386.164 436.098 385.646 436.098C385.123 436.098 384.652 436.014 384.232 435.846C383.817 435.673 383.462 435.428 383.168 435.111C382.874 434.794 382.648 434.411 382.489 433.963C382.335 433.515 382.258 433.011 382.258 432.451C382.258 431.896 382.335 431.394 382.489 430.946C382.648 430.493 382.874 430.108 383.168 429.791C383.462 429.474 383.817 429.229 384.232 429.056C384.652 428.883 385.123 428.797 385.646 428.797ZM385.646 435.125C386.346 435.125 386.869 434.892 387.214 434.425C387.559 433.954 387.732 433.298 387.732 432.458C387.732 431.613 387.559 430.955 387.214 430.484C386.869 430.013 386.346 429.777 385.646 429.777C385.291 429.777 384.981 429.838 384.715 429.959C384.454 430.08 384.234 430.255 384.057 430.484C383.884 430.713 383.754 430.995 383.665 431.331C383.581 431.662 383.539 432.038 383.539 432.458C383.539 433.298 383.712 433.954 384.057 434.425C384.407 434.892 384.937 435.125 385.646 435.125ZM391.212 436V429.973L390.428 429.882C390.33 429.859 390.248 429.824 390.183 429.777C390.122 429.726 390.092 429.653 390.092 429.56V429.049H391.212V428.363C391.212 427.957 391.268 427.598 391.38 427.285C391.497 426.968 391.66 426.702 391.87 426.487C392.085 426.268 392.341 426.102 392.64 425.99C392.939 425.878 393.275 425.822 393.648 425.822C393.965 425.822 394.257 425.869 394.523 425.962L394.495 426.585C394.486 426.697 394.423 426.758 394.306 426.767C394.194 426.776 394.042 426.781 393.851 426.781C393.636 426.781 393.44 426.809 393.263 426.865C393.09 426.921 392.941 427.012 392.815 427.138C392.689 427.264 392.591 427.43 392.521 427.635C392.456 427.84 392.423 428.095 392.423 428.398V429.049H394.467V429.952H392.465V436H391.212ZM400.763 430.33C400.987 429.845 401.263 429.467 401.589 429.196C401.916 428.921 402.315 428.783 402.786 428.783C402.936 428.783 403.078 428.799 403.213 428.832C403.353 428.865 403.477 428.916 403.584 428.986L403.493 429.917C403.465 430.034 403.395 430.092 403.283 430.092C403.218 430.092 403.122 430.078 402.996 430.05C402.87 430.022 402.728 430.008 402.569 430.008C402.345 430.008 402.145 430.041 401.967 430.106C401.795 430.171 401.638 430.269 401.498 430.4C401.363 430.526 401.239 430.685 401.127 430.876C401.02 431.063 400.922 431.277 400.833 431.52V436H399.58V428.909H400.294C400.43 428.909 400.523 428.935 400.574 428.986C400.626 429.037 400.661 429.126 400.679 429.252L400.763 430.33Z" fill="black"/>
<line x1="531.5" y1="398" x2="531.5" y2="412" stroke="black"/>
<line x1="481.5" y1="398" x2="481.5" y2="412" stroke="black"/>
<line x1="481" y1="411.5" x2="531" y2="411.5" stroke="black"/>
<path d="M481.126 435.048V436H475.75V435.048H477.899V428.209C477.899 428.004 477.906 427.796 477.92 427.586L476.135 429.119C476.074 429.17 476.014 429.203 475.953 429.217C475.892 429.226 475.836 429.226 475.785 429.217C475.734 429.208 475.685 429.189 475.638 429.161C475.596 429.133 475.563 429.103 475.54 429.07L475.148 428.531L478.137 425.948H479.152V435.048H481.126ZM490.121 430.988C490.121 431.865 490.025 432.626 489.834 433.27C489.647 433.909 489.391 434.439 489.064 434.859C488.737 435.279 488.35 435.592 487.902 435.797C487.459 436.002 486.983 436.105 486.474 436.105C485.961 436.105 485.482 436.002 485.039 435.797C484.6 435.592 484.218 435.279 483.891 434.859C483.564 434.439 483.308 433.909 483.121 433.27C482.934 432.626 482.841 431.865 482.841 430.988C482.841 430.111 482.934 429.35 483.121 428.706C483.308 428.062 483.564 427.53 483.891 427.11C484.218 426.685 484.6 426.37 485.039 426.165C485.482 425.96 485.961 425.857 486.474 425.857C486.983 425.857 487.459 425.96 487.902 426.165C488.35 426.37 488.737 426.685 489.064 427.11C489.391 427.53 489.647 428.062 489.834 428.706C490.025 429.35 490.121 430.111 490.121 430.988ZM488.826 430.988C488.826 430.223 488.761 429.581 488.63 429.063C488.504 428.54 488.331 428.12 488.112 427.803C487.897 427.486 487.648 427.259 487.363 427.124C487.078 426.984 486.782 426.914 486.474 426.914C486.166 426.914 485.87 426.984 485.585 427.124C485.3 427.259 485.051 427.486 484.836 427.803C484.621 428.12 484.449 428.54 484.318 429.063C484.192 429.581 484.129 430.223 484.129 430.988C484.129 431.753 484.192 432.395 484.318 432.913C484.449 433.431 484.621 433.849 484.836 434.166C485.051 434.483 485.3 434.712 485.585 434.852C485.87 434.987 486.166 435.055 486.474 435.055C486.782 435.055 487.078 434.987 487.363 434.852C487.648 434.712 487.897 434.483 488.112 434.166C488.331 433.849 488.504 433.431 488.63 432.913C488.761 432.395 488.826 431.753 488.826 430.988ZM498.542 430.988C498.542 431.865 498.447 432.626 498.255 433.27C498.069 433.909 497.812 434.439 497.485 434.859C497.159 435.279 496.771 435.592 496.323 435.797C495.88 436.002 495.404 436.105 494.895 436.105C494.382 436.105 493.904 436.002 493.46 435.797C493.022 435.592 492.639 435.279 492.312 434.859C491.986 434.439 491.729 433.909 491.542 433.27C491.356 432.626 491.262 431.865 491.262 430.988C491.262 430.111 491.356 429.35 491.542 428.706C491.729 428.062 491.986 427.53 492.312 427.11C492.639 426.685 493.022 426.37 493.46 426.165C493.904 425.96 494.382 425.857 494.895 425.857C495.404 425.857 495.88 425.96 496.323 426.165C496.771 426.37 497.159 426.685 497.485 427.11C497.812 427.53 498.069 428.062 498.255 428.706C498.447 429.35 498.542 430.111 498.542 430.988ZM497.247 430.988C497.247 430.223 497.182 429.581 497.051 429.063C496.925 428.54 496.753 428.12 496.533 427.803C496.319 427.486 496.069 427.259 495.784 427.124C495.5 426.984 495.203 426.914 494.895 426.914C494.587 426.914 494.291 426.984 494.006 427.124C493.722 427.259 493.472 427.486 493.257 427.803C493.043 428.12 492.87 428.54 492.739 429.063C492.613 429.581 492.55 430.223 492.55 430.988C492.55 431.753 492.613 432.395 492.739 432.913C492.87 433.431 493.043 433.849 493.257 434.166C493.472 434.483 493.722 434.712 494.006 434.852C494.291 434.987 494.587 435.055 494.895 435.055C495.203 435.055 495.5 434.987 495.784 434.852C496.069 434.712 496.319 434.483 496.533 434.166C496.753 433.849 496.925 433.431 497.051 432.913C497.182 432.395 497.247 431.753 497.247 430.988ZM504.317 428.391C504.317 428.783 504.257 429.135 504.135 429.448C504.014 429.756 503.851 430.017 503.645 430.232C503.445 430.442 503.209 430.603 502.938 430.715C502.672 430.827 502.39 430.883 502.091 430.883C501.779 430.883 501.487 430.827 501.216 430.715C500.946 430.603 500.71 430.442 500.509 430.232C500.313 430.017 500.159 429.756 500.047 429.448C499.935 429.135 499.879 428.783 499.879 428.391C499.879 427.99 499.935 427.633 500.047 427.32C500.159 427.007 500.313 426.744 500.509 426.529C500.71 426.314 500.946 426.151 501.216 426.039C501.487 425.927 501.779 425.871 502.091 425.871C502.409 425.871 502.703 425.927 502.973 426.039C503.244 426.151 503.48 426.314 503.68 426.529C503.881 426.744 504.037 427.007 504.149 427.32C504.261 427.633 504.317 427.99 504.317 428.391ZM503.351 428.391C503.351 428.083 503.319 427.822 503.253 427.607C503.188 427.392 503.097 427.217 502.98 427.082C502.868 426.942 502.735 426.842 502.581 426.781C502.427 426.72 502.264 426.69 502.091 426.69C501.919 426.69 501.758 426.72 501.608 426.781C501.459 426.842 501.328 426.942 501.216 427.082C501.104 427.217 501.016 427.392 500.95 427.607C500.885 427.822 500.852 428.083 500.852 428.391C500.852 428.694 500.885 428.953 500.95 429.168C501.016 429.378 501.104 429.551 501.216 429.686C501.328 429.817 501.459 429.912 501.608 429.973C501.758 430.029 501.919 430.057 502.091 430.057C502.264 430.057 502.427 430.029 502.581 429.973C502.735 429.912 502.868 429.817 502.98 429.686C503.097 429.551 503.188 429.378 503.253 429.168C503.319 428.953 503.351 428.694 503.351 428.391ZM507.866 426.179C507.913 426.123 507.967 426.074 508.027 426.032C508.093 425.99 508.179 425.969 508.286 425.969H509.189L501.853 435.797C501.811 435.858 501.758 435.907 501.692 435.944C501.627 435.981 501.548 436 501.454 436H500.537L507.866 426.179ZM509.868 433.634C509.868 434.026 509.808 434.376 509.686 434.684C509.565 434.992 509.402 435.253 509.196 435.468C508.996 435.678 508.76 435.839 508.489 435.951C508.223 436.063 507.941 436.119 507.642 436.119C507.325 436.119 507.031 436.063 506.76 435.951C506.494 435.839 506.261 435.678 506.06 435.468C505.864 435.253 505.71 434.992 505.598 434.684C505.486 434.376 505.43 434.026 505.43 433.634C505.43 433.233 505.486 432.876 505.598 432.563C505.71 432.246 505.864 431.98 506.06 431.765C506.261 431.55 506.494 431.387 506.76 431.275C507.031 431.163 507.325 431.107 507.642 431.107C507.955 431.107 508.247 431.163 508.517 431.275C508.793 431.387 509.028 431.55 509.224 431.765C509.425 431.98 509.581 432.246 509.693 432.563C509.81 432.876 509.868 433.233 509.868 433.634ZM508.902 433.634C508.902 433.326 508.87 433.065 508.804 432.85C508.739 432.631 508.648 432.453 508.531 432.318C508.419 432.183 508.286 432.085 508.132 432.024C507.978 431.963 507.815 431.933 507.642 431.933C507.47 431.933 507.306 431.963 507.152 432.024C507.003 432.085 506.872 432.183 506.76 432.318C506.648 432.453 506.56 432.631 506.494 432.85C506.434 433.065 506.403 433.326 506.403 433.634C506.403 433.937 506.434 434.194 506.494 434.404C506.56 434.614 506.648 434.787 506.76 434.922C506.872 435.053 507.003 435.148 507.152 435.209C507.306 435.265 507.47 435.293 507.642 435.293C507.815 435.293 507.978 435.265 508.132 435.209C508.286 435.148 508.419 435.053 508.531 434.922C508.648 434.787 508.739 434.614 508.804 434.404C508.87 434.194 508.902 433.937 508.902 433.634ZM518.646 428.797C519.164 428.797 519.631 428.883 520.046 429.056C520.461 429.229 520.816 429.474 521.11 429.791C521.404 430.108 521.628 430.493 521.782 430.946C521.941 431.394 522.02 431.896 522.02 432.451C522.02 433.011 521.941 433.515 521.782 433.963C521.628 434.411 521.404 434.794 521.11 435.111C520.816 435.428 520.461 435.673 520.046 435.846C519.631 436.014 519.164 436.098 518.646 436.098C518.123 436.098 517.652 436.014 517.232 435.846C516.817 435.673 516.462 435.428 516.168 435.111C515.874 434.794 515.648 434.411 515.489 433.963C515.335 433.515 515.258 433.011 515.258 432.451C515.258 431.896 515.335 431.394 515.489 430.946C515.648 430.493 515.874 430.108 516.168 429.791C516.462 429.474 516.817 429.229 517.232 429.056C517.652 428.883 518.123 428.797 518.646 428.797ZM518.646 435.125C519.346 435.125 519.869 434.892 520.214 434.425C520.559 433.954 520.732 433.298 520.732 432.458C520.732 431.613 520.559 430.955 520.214 430.484C519.869 430.013 519.346 429.777 518.646 429.777C518.291 429.777 517.981 429.838 517.715 429.959C517.454 430.08 517.234 430.255 517.057 430.484C516.884 430.713 516.754 430.995 516.665 431.331C516.581 431.662 516.539 432.038 516.539 432.458C516.539 433.298 516.712 433.954 517.057 434.425C517.407 434.892 517.937 435.125 518.646 435.125ZM524.212 436V429.973L523.428 429.882C523.33 429.859 523.248 429.824 523.183 429.777C523.122 429.726 523.092 429.653 523.092 429.56V429.049H524.212V428.363C524.212 427.957 524.268 427.598 524.38 427.285C524.497 426.968 524.66 426.702 524.87 426.487C525.085 426.268 525.341 426.102 525.64 425.99C525.939 425.878 526.275 425.822 526.648 425.822C526.965 425.822 527.257 425.869 527.523 425.962L527.495 426.585C527.486 426.697 527.423 426.758 527.306 426.767C527.194 426.776 527.042 426.781 526.851 426.781C526.636 426.781 526.44 426.809 526.263 426.865C526.09 426.921 525.941 427.012 525.815 427.138C525.689 427.264 525.591 427.43 525.521 427.635C525.456 427.84 525.423 428.095 525.423 428.398V429.049H527.467V429.952H525.465V436H524.212ZM533.763 430.33C533.987 429.845 534.263 429.467 534.589 429.196C534.916 428.921 535.315 428.783 535.786 428.783C535.936 428.783 536.078 428.799 536.213 428.832C536.353 428.865 536.477 428.916 536.584 428.986L536.493 429.917C536.465 430.034 536.395 430.092 536.283 430.092C536.218 430.092 536.122 430.078 535.996 430.05C535.87 430.022 535.728 430.008 535.569 430.008C535.345 430.008 535.145 430.041 534.967 430.106C534.795 430.171 534.638 430.269 534.498 430.4C534.363 430.526 534.239 430.685 534.127 430.876C534.02 431.063 533.922 431.277 533.833 431.52V436H532.58V428.909H533.294C533.43 428.909 533.523 428.935 533.574 428.986C533.626 429.037 533.661 429.126 533.679 429.252L533.763 430.33Z" fill="black"/>
</svg>
