<svg width="1204" height="678" viewBox="0 0 1204 678" fill="none" xmlns="http://www.w3.org/2000/svg">
<rect width="1204" height="677.25" fill="white"/>
<g clip-path="url(#clip0_867:280)">
<path d="M511.26 351.942C513.175 351.942 514.727 350.396 514.727 348.489C514.727 346.583 513.175 345.037 511.26 345.037C509.345 345.037 507.793 346.583 507.793 348.489C507.793 350.396 509.345 351.942 511.26 351.942Z" fill="#41A5DD"/>
<path fill-rule="evenodd" clip-rule="evenodd" d="M538.44 326.555C537.723 324.529 536.406 324.161 534.903 324.161H533.332C533.193 324.161 533.054 324.161 532.916 324.184H500.744C498.71 324.184 497.046 325.841 497.046 327.867V350.262C497.046 352.287 498.71 353.944 500.744 353.944H523.995V353.921H524.064C525.636 353.921 526.537 353.392 526.999 352.126L528.732 347.338H539.318L541.005 352.126C541.49 353.392 542.53 353.921 543.963 353.921C545.651 353.921 547.037 352.655 547.037 351.044C547.037 350.331 546.644 349.18 546.39 348.535L538.44 326.555ZM511.26 352.724C508.926 352.724 507.007 350.837 507.007 348.489C507.007 346.165 508.903 344.254 511.26 344.254C513.594 344.254 515.513 346.142 515.513 348.489C515.489 350.837 513.594 352.724 511.26 352.724ZM520.251 348.812H516.345C516.345 347.983 515.998 343.38 511.144 343.38C506.291 343.38 506.083 348.857 506.083 348.857H505.043C505.043 348.857 502.015 347.638 501.391 347.315C500.767 346.97 500.698 345.267 500.698 345.267V343.771H501.229V342.252C501.484 339.03 509.411 336.13 509.411 336.13C509.411 336.13 516.067 329.593 517.107 328.672C519.349 326.716 528.432 327.153 528.432 327.153L520.251 348.812ZM530.142 342.804L534.025 331.273H534.094L537.815 342.804H530.142Z" fill="#41A5DD"/>
<path fill-rule="evenodd" clip-rule="evenodd" d="M506.591 340.019C506.314 339.95 505.297 339.95 504.858 339.927C504.719 339.927 504.581 339.973 504.488 340.065C504.28 340.226 503.957 340.548 503.656 340.939C503.31 341.4 503.055 341.975 502.894 342.343C502.778 342.643 503.102 342.666 503.102 342.666L503.864 342.827C503.957 342.85 504.049 342.827 504.119 342.758L506.661 340.548C506.638 340.548 507.008 340.111 506.591 340.019Z" fill="#41A5DD"/>
<path fill-rule="evenodd" clip-rule="evenodd" d="M523.763 329.087C523.417 329.087 520.204 329.432 519.58 329.547C518.956 329.662 518.032 330.376 518.032 330.376L514.08 334.726V337.051L522.446 335.439C522.446 335.439 523.532 335.232 523.694 333.851C523.856 332.47 524.203 329.524 524.203 329.524C524.203 329.524 524.11 329.087 523.763 329.087Z" fill="#41A5DD"/>
</g>
<path d="M584.393 340.162C585.68 340.162 586.835 339.982 587.858 339.622C588.882 339.263 589.746 338.765 590.452 338.129C591.171 337.492 591.717 336.746 592.091 335.888C592.478 335.017 592.671 334.069 592.671 333.046C592.671 330.791 591.98 329.055 590.597 327.838C589.214 326.621 587.146 326.012 584.393 326.012H578.937V340.162H584.393ZM584.393 324.332C587.837 324.332 590.431 325.086 592.173 326.593C593.93 328.101 594.808 330.252 594.808 333.046C594.808 334.332 594.566 335.515 594.082 336.593C593.598 337.672 592.907 338.606 592.008 339.394C591.108 340.169 590.016 340.777 588.73 341.22C587.443 341.649 585.998 341.863 584.393 341.863H578.937V353.689H576.8V324.332H584.393Z" fill="#41A5DD"/>
<path d="M608.009 338.834C609.309 338.834 610.471 338.682 611.494 338.378C612.531 338.059 613.403 337.61 614.108 337.029C614.827 336.448 615.374 335.75 615.747 334.934C616.121 334.118 616.307 333.198 616.307 332.174C616.307 330.086 615.623 328.537 614.253 327.527C612.898 326.517 610.913 326.012 608.299 326.012H602.926V338.834H608.009ZM621.038 353.689H619.212C618.977 353.689 618.776 353.654 618.61 353.585C618.458 353.502 618.313 353.357 618.175 353.149L608.755 341.241C608.645 341.089 608.527 340.957 608.403 340.846C608.292 340.736 608.161 340.653 608.009 340.598C607.87 340.528 607.697 340.48 607.49 340.452C607.296 340.425 607.054 340.411 606.764 340.411H602.926V353.689H600.789V324.332H608.299C611.674 324.332 614.198 324.989 615.872 326.303C617.559 327.603 618.403 329.519 618.403 332.05C618.403 333.17 618.209 334.194 617.822 335.12C617.435 336.047 616.874 336.863 616.141 337.568C615.422 338.26 614.544 338.827 613.506 339.27C612.483 339.712 611.328 340.01 610.042 340.162C610.374 340.369 610.671 340.646 610.934 340.992L621.038 353.689Z" fill="#41A5DD"/>
<path d="M651.91 339C651.91 341.268 651.571 343.329 650.893 345.183C650.215 347.022 649.261 348.599 648.03 349.913C646.799 351.213 645.319 352.223 643.59 352.942C641.875 353.647 639.98 354 637.905 354C635.831 354 633.936 353.647 632.221 352.942C630.506 352.223 629.033 351.213 627.802 349.913C626.571 348.599 625.616 347.022 624.939 345.183C624.261 343.329 623.922 341.268 623.922 339C623.922 336.746 624.261 334.698 624.939 332.859C625.616 331.006 626.571 329.429 627.802 328.129C629.033 326.815 630.506 325.798 632.221 325.079C633.936 324.36 635.831 324 637.905 324C639.98 324 641.875 324.36 643.59 325.079C645.319 325.784 646.799 326.794 648.03 328.108C649.261 329.422 650.215 331.006 650.893 332.859C651.571 334.698 651.91 336.746 651.91 339ZM649.71 339C649.71 336.953 649.427 335.113 648.86 333.481C648.293 331.849 647.491 330.466 646.453 329.332C645.416 328.198 644.171 327.333 642.719 326.739C641.266 326.13 639.662 325.826 637.905 325.826C636.163 325.826 634.565 326.13 633.113 326.739C631.661 327.333 630.409 328.198 629.358 329.332C628.32 330.466 627.511 331.849 626.93 333.481C626.363 335.113 626.08 336.953 626.08 339C626.08 341.061 626.363 342.907 626.93 344.539C627.511 346.158 628.32 347.534 629.358 348.668C630.409 349.802 631.661 350.667 633.113 351.261C634.565 351.856 636.163 352.154 637.905 352.154C639.662 352.154 641.266 351.856 642.719 351.261C644.171 350.667 645.416 349.802 646.453 348.668C647.491 347.534 648.293 346.158 648.86 344.539C649.427 342.907 649.71 341.061 649.71 339Z" fill="#41A5DD"/>
<path d="M666.246 340.162C667.533 340.162 668.688 339.982 669.711 339.622C670.735 339.263 671.599 338.765 672.304 338.129C673.024 337.492 673.57 336.746 673.943 335.888C674.331 335.017 674.524 334.069 674.524 333.046C674.524 330.791 673.833 329.055 672.45 327.838C671.067 326.621 668.999 326.012 666.246 326.012H660.79V340.162H666.246ZM666.246 324.332C669.69 324.332 672.284 325.086 674.026 326.593C675.783 328.101 676.661 330.252 676.661 333.046C676.661 334.332 676.419 335.515 675.935 336.593C675.451 337.672 674.759 338.606 673.86 339.394C672.961 340.169 671.869 340.777 670.582 341.22C669.296 341.649 667.851 341.863 666.246 341.863H660.79V353.689H658.653V324.332H666.246Z" fill="#41A5DD"/>
<path d="M700.276 351.925L700.235 353.689H682.642V324.332H700.235V326.095H684.779V337.963H697.642V339.685H684.779V351.925H700.276Z" fill="#41A5DD"/>
<path d="M713.931 338.834C715.231 338.834 716.393 338.682 717.417 338.378C718.454 338.059 719.325 337.61 720.031 337.029C720.75 336.448 721.296 335.75 721.67 334.934C722.043 334.118 722.23 333.198 722.23 332.174C722.23 330.086 721.545 328.537 720.176 327.527C718.82 326.517 716.836 326.012 714.222 326.012H708.848V338.834H713.931ZM726.96 353.689H725.134C724.899 353.689 724.699 353.654 724.533 353.585C724.381 353.502 724.235 353.357 724.097 353.149L714.678 341.241C714.567 341.089 714.45 340.957 714.325 340.846C714.215 340.736 714.083 340.653 713.931 340.598C713.793 340.528 713.62 340.48 713.412 340.452C713.219 340.425 712.977 340.411 712.686 340.411H708.848V353.689H706.711V324.332H714.222C717.596 324.332 720.121 324.989 721.794 326.303C723.482 327.603 724.325 329.519 724.325 332.05C724.325 333.17 724.132 334.194 723.744 335.12C723.357 336.047 722.797 336.863 722.064 337.568C721.345 338.26 720.466 338.827 719.429 339.27C718.406 339.712 717.251 340.01 715.964 340.162C716.296 340.369 716.594 340.646 716.856 340.992L726.96 353.689Z" fill="#41A5DD"/>
<path d="M749.787 326.137H739.476V353.689H737.339V326.137H726.965V324.332H749.787V326.137Z" fill="#41A5DD"/>
<path d="M763.795 341.593V353.689H761.679V341.593L750.808 324.332H752.675C752.869 324.332 753.028 324.38 753.152 324.477C753.277 324.56 753.38 324.685 753.463 324.851L761.866 338.336C762.046 338.654 762.212 338.965 762.364 339.27C762.516 339.56 762.647 339.851 762.758 340.141C762.869 339.851 762.993 339.56 763.131 339.27C763.27 338.965 763.429 338.654 763.609 338.336L772.011 324.851C772.08 324.698 772.177 324.574 772.302 324.477C772.44 324.38 772.606 324.332 772.799 324.332H774.667L763.795 341.593Z" fill="#41A5DD"/>
<line x1="487" y1="354.5" x2="473" y2="354.5" stroke="black"/>
<line x1="487" y1="324.5" x2="473" y2="324.5" stroke="black"/>
<line x1="473.5" y1="324" x2="473.5" y2="354" stroke="black"/>
<path d="M430.91 337.685C430.975 337.228 431.101 336.824 431.288 336.474C431.475 336.119 431.71 335.823 431.995 335.585C432.284 335.347 432.613 335.167 432.982 335.046C433.355 334.92 433.757 334.857 434.186 334.857C434.611 334.857 435.003 334.918 435.362 335.039C435.721 335.16 436.029 335.333 436.286 335.557C436.547 335.781 436.75 336.052 436.895 336.369C437.04 336.686 437.112 337.039 437.112 337.426C437.112 337.743 437.07 338.028 436.986 338.28C436.907 338.527 436.79 338.744 436.636 338.931C436.487 339.118 436.305 339.276 436.09 339.407C435.875 339.538 435.635 339.645 435.369 339.729C436.022 339.897 436.512 340.186 436.839 340.597C437.17 341.003 437.336 341.512 437.336 342.123C437.336 342.585 437.247 343 437.07 343.369C436.897 343.738 436.659 344.053 436.356 344.314C436.053 344.571 435.698 344.769 435.292 344.909C434.891 345.044 434.459 345.112 433.997 345.112C433.465 345.112 433.01 345.047 432.632 344.916C432.254 344.781 431.934 344.596 431.673 344.363C431.412 344.13 431.197 343.854 431.029 343.537C430.861 343.215 430.719 342.867 430.602 342.494L431.141 342.27C431.281 342.209 431.416 342.193 431.547 342.221C431.682 342.249 431.78 342.326 431.841 342.452C431.902 342.583 431.976 342.739 432.065 342.921C432.158 343.103 432.284 343.278 432.443 343.446C432.602 343.614 432.802 343.756 433.045 343.873C433.292 343.99 433.605 344.048 433.983 344.048C434.333 344.048 434.639 343.992 434.9 343.88C435.166 343.763 435.385 343.614 435.558 343.432C435.735 343.25 435.868 343.047 435.957 342.823C436.046 342.599 436.09 342.377 436.09 342.158C436.09 341.887 436.055 341.64 435.985 341.416C435.915 341.192 435.784 340.998 435.593 340.835C435.402 340.672 435.138 340.543 434.802 340.45C434.471 340.357 434.044 340.31 433.521 340.31V339.407C433.95 339.402 434.314 339.356 434.613 339.267C434.916 339.178 435.161 339.057 435.348 338.903C435.539 338.749 435.677 338.565 435.761 338.35C435.85 338.135 435.894 337.897 435.894 337.636C435.894 337.347 435.847 337.095 435.754 336.88C435.665 336.665 435.542 336.488 435.383 336.348C435.224 336.208 435.035 336.103 434.816 336.033C434.601 335.963 434.368 335.928 434.116 335.928C433.864 335.928 433.628 335.965 433.409 336.04C433.194 336.115 433.003 336.22 432.835 336.355C432.672 336.486 432.534 336.642 432.422 336.824C432.31 337.006 432.231 337.207 432.184 337.426C432.123 337.589 432.046 337.699 431.953 337.755C431.864 337.806 431.734 337.82 431.561 337.797L430.91 337.685ZM446.121 339.988C446.121 340.865 446.025 341.626 445.834 342.27C445.647 342.909 445.391 343.439 445.064 343.859C444.737 344.279 444.35 344.592 443.902 344.797C443.459 345.002 442.983 345.105 442.474 345.105C441.961 345.105 441.482 345.002 441.039 344.797C440.6 344.592 440.218 344.279 439.891 343.859C439.564 343.439 439.308 342.909 439.121 342.27C438.934 341.626 438.841 340.865 438.841 339.988C438.841 339.111 438.934 338.35 439.121 337.706C439.308 337.062 439.564 336.53 439.891 336.11C440.218 335.685 440.6 335.37 441.039 335.165C441.482 334.96 441.961 334.857 442.474 334.857C442.983 334.857 443.459 334.96 443.902 335.165C444.35 335.37 444.737 335.685 445.064 336.11C445.391 336.53 445.647 337.062 445.834 337.706C446.025 338.35 446.121 339.111 446.121 339.988ZM444.826 339.988C444.826 339.223 444.761 338.581 444.63 338.063C444.504 337.54 444.331 337.12 444.112 336.803C443.897 336.486 443.648 336.259 443.363 336.124C443.078 335.984 442.782 335.914 442.474 335.914C442.166 335.914 441.87 335.984 441.585 336.124C441.3 336.259 441.051 336.486 440.836 336.803C440.621 337.12 440.449 337.54 440.318 338.063C440.192 338.581 440.129 339.223 440.129 339.988C440.129 340.753 440.192 341.395 440.318 341.913C440.449 342.431 440.621 342.849 440.836 343.166C441.051 343.483 441.3 343.712 441.585 343.852C441.87 343.987 442.166 344.055 442.474 344.055C442.782 344.055 443.078 343.987 443.363 343.852C443.648 343.712 443.897 343.483 444.112 343.166C444.331 342.849 444.504 342.431 444.63 341.913C444.761 341.395 444.826 340.753 444.826 339.988ZM449.082 343.292C449.311 343.6 449.561 343.817 449.831 343.943C450.102 344.069 450.405 344.132 450.741 344.132C451.404 344.132 451.913 343.896 452.267 343.425C452.622 342.954 452.799 342.282 452.799 341.409C452.799 340.947 452.757 340.55 452.673 340.219C452.594 339.888 452.477 339.617 452.323 339.407C452.169 339.192 451.98 339.036 451.756 338.938C451.532 338.84 451.278 338.791 450.993 338.791C450.587 338.791 450.23 338.884 449.922 339.071C449.619 339.258 449.339 339.521 449.082 339.862V343.292ZM449.019 339.008C449.318 338.639 449.663 338.343 450.055 338.119C450.447 337.895 450.895 337.783 451.399 337.783C451.81 337.783 452.181 337.862 452.512 338.021C452.844 338.175 453.126 338.406 453.359 338.714C453.593 339.017 453.772 339.395 453.898 339.848C454.024 340.301 454.087 340.821 454.087 341.409C454.087 341.932 454.017 342.419 453.877 342.872C453.737 343.32 453.534 343.71 453.268 344.041C453.007 344.368 452.685 344.627 452.302 344.818C451.924 345.005 451.497 345.098 451.021 345.098C450.587 345.098 450.214 345.026 449.901 344.881C449.593 344.732 449.32 344.526 449.082 344.265V347.401H447.829V337.909H448.578C448.756 337.909 448.865 337.995 448.907 338.168L449.019 339.008ZM461.527 345H460.33C460.228 345 460.146 344.974 460.085 344.923C460.029 344.867 459.983 344.806 459.945 344.741L458.16 341.962C458.142 342.027 458.121 342.093 458.097 342.158C458.079 342.219 458.051 342.275 458.013 342.326L456.361 344.741C456.315 344.806 456.263 344.867 456.207 344.923C456.156 344.974 456.084 345 455.99 345H454.877L457.362 341.36L454.975 337.909H456.172C456.275 337.909 456.35 337.925 456.396 337.958C456.443 337.991 456.485 338.037 456.522 338.098L458.265 340.758C458.303 340.623 458.361 340.492 458.44 340.366L459.966 338.126C460.008 338.061 460.053 338.009 460.099 337.972C460.151 337.93 460.211 337.909 460.281 337.909H461.429L459.042 341.297L461.527 345Z" fill="black"/>
<defs>
<clipPath id="clip0_867:280">
<rect width="50.4" height="30" fill="white" transform="translate(497 324)"/>
</clipPath>
</defs>
</svg>
