<svg width="1204" height="678" viewBox="0 0 1204 678" fill="none" xmlns="http://www.w3.org/2000/svg">
<rect width="1204" height="677.25" fill="white"/>
<path opacity="0.2" d="M257.552 390.596C265.296 390.596 271.574 384.331 271.574 376.603C271.574 368.875 265.296 362.61 257.552 362.61C249.807 362.61 243.529 368.875 243.529 376.603C243.529 384.331 249.807 390.596 257.552 390.596Z" fill="#41A5DD"/>
<path opacity="0.2" fill-rule="evenodd" clip-rule="evenodd" d="M367.554 287.696C364.66 279.492 359.32 278 353.233 278H346.879C346.312 278 345.745 278 345.208 278.09H214.977C206.743 278.09 200 284.802 200 293.007V383.796C200 392 206.743 398.713 214.977 398.713H309.077V398.624H309.346C315.701 398.624 319.371 396.475 321.22 391.344L328.232 371.951H371.075L377.937 391.374C379.906 396.505 384.113 398.653 389.901 398.653C396.733 398.653 402.342 393.522 402.342 386.988C402.342 384.094 400.761 379.44 399.717 376.814L367.554 287.696ZM257.552 393.79C248.094 393.79 240.337 386.152 240.337 376.635C240.337 367.207 248.005 359.45 257.552 359.45C267.01 359.45 274.767 367.088 274.767 376.605C274.648 386.123 266.98 393.79 257.552 393.79ZM293.921 377.918H278.108C278.108 374.547 276.706 355.9 257.075 355.9C237.443 355.9 236.578 378.097 236.578 378.097H232.371C232.371 378.097 220.109 373.144 217.603 371.832C215.067 370.429 214.798 363.537 214.798 363.537V357.481H216.946V351.335C217.961 338.267 250.063 326.512 250.063 326.512C250.063 326.512 277.005 300.018 281.211 296.289C290.281 288.353 327.038 290.143 327.038 290.143L293.921 377.918ZM333.96 353.572L349.683 306.821H349.952L365.018 353.572H333.96V353.572Z" fill="#41A5DD"/>
<path opacity="0.2" fill-rule="evenodd" clip-rule="evenodd" d="M238.636 342.295C237.502 342.027 233.385 342.027 231.625 341.907C231.058 341.907 230.491 342.086 230.133 342.474C229.298 343.13 227.985 344.443 226.762 346.024C225.359 347.904 224.315 350.231 223.688 351.723C223.211 352.946 224.524 353.036 224.524 353.036L227.597 353.692C227.985 353.782 228.343 353.692 228.611 353.424L238.904 344.473C238.845 344.443 240.337 342.653 238.636 342.295Z" fill="#41A5DD"/>
<path opacity="0.2" fill-rule="evenodd" clip-rule="evenodd" d="M308.152 297.962C306.749 297.962 293.741 299.364 291.205 299.842C288.669 300.319 284.94 303.213 284.94 303.213L268.948 320.845V330.273L302.811 323.74C302.811 323.74 307.197 322.904 307.853 317.295C308.51 311.686 309.912 299.752 309.912 299.752C309.912 299.752 309.554 297.962 308.152 297.962Z" fill="#41A5DD"/>
<path d="M392.7 398.2C398 396.9 401.9 392.4 401.9 387C401.9 384.1 400.3 379.5 399.3 376.8L367.1 287.7C364.2 279.5 358.8 278 352.7 278H349" stroke="#41A5DD" stroke-width="4" stroke-miterlimit="10" stroke-linecap="round" stroke-linejoin="round"/>
<line x1="991.5" y1="390" x2="991.5" y2="277" stroke="#D8D8D8"/>
<path opacity="0.2" d="M846.552 390.596C854.296 390.596 860.574 384.331 860.574 376.603C860.574 368.875 854.296 362.61 846.552 362.61C838.807 362.61 832.529 368.875 832.529 376.603C832.529 384.331 838.807 390.596 846.552 390.596Z" fill="#41A5DD"/>
<path opacity="0.2" fill-rule="evenodd" clip-rule="evenodd" d="M956.554 287.696C953.66 279.492 948.32 278 942.233 278H935.879C935.312 278 934.745 278 934.208 278.09H803.977C795.743 278.09 789 284.802 789 293.007V383.796C789 392 795.743 398.713 803.977 398.713H898.077V398.624H898.346C904.701 398.624 908.371 396.475 910.22 391.344L917.232 371.951H960.075L966.937 391.374C968.906 396.505 973.113 398.653 978.901 398.653C985.733 398.653 991.342 393.522 991.342 386.988C991.342 384.094 989.761 379.44 988.717 376.814L956.554 287.696ZM846.552 393.79C837.094 393.79 829.337 386.152 829.337 376.635C829.337 367.207 837.005 359.45 846.552 359.45C856.01 359.45 863.767 367.088 863.767 376.605C863.648 386.123 855.98 393.79 846.552 393.79ZM882.921 377.918H867.108C867.108 374.547 865.706 355.9 846.075 355.9C826.443 355.9 825.578 378.097 825.578 378.097H821.371C821.371 378.097 809.109 373.144 806.603 371.832C804.067 370.429 803.798 363.537 803.798 363.537V357.481H805.946V351.335C806.961 338.267 839.063 326.512 839.063 326.512C839.063 326.512 866.005 300.018 870.211 296.289C879.281 288.353 916.038 290.143 916.038 290.143L882.921 377.918ZM922.96 353.572L938.683 306.821H938.952L954.018 353.572H922.96V353.572Z" fill="#41A5DD"/>
<path opacity="0.2" fill-rule="evenodd" clip-rule="evenodd" d="M827.636 342.295C826.502 342.027 822.385 342.027 820.625 341.907C820.058 341.907 819.491 342.086 819.133 342.474C818.298 343.13 816.985 344.443 815.762 346.024C814.359 347.904 813.315 350.231 812.688 351.723C812.211 352.946 813.524 353.036 813.524 353.036L816.597 353.692C816.985 353.782 817.343 353.692 817.611 353.424L827.904 344.473C827.845 344.443 829.337 342.653 827.636 342.295Z" fill="#41A5DD"/>
<path opacity="0.2" fill-rule="evenodd" clip-rule="evenodd" d="M897.152 297.962C895.749 297.962 882.741 299.364 880.205 299.842C877.669 300.319 873.94 303.213 873.94 303.213L857.948 320.845V330.273L891.811 323.74C891.811 323.74 896.197 322.904 896.853 317.295C897.51 311.686 898.912 299.752 898.912 299.752C898.912 299.752 898.554 297.962 897.152 297.962Z" fill="#41A5DD"/>
<path d="M981.7 398.2C987 396.9 990.9 392.4 990.9 387C990.9 384.1 989.3 379.5 988.3 376.8L956.1 287.7C953.2 279.5 947.8 278 941.7 278H938" stroke="#41A5DD" stroke-width="4" stroke-miterlimit="10" stroke-linecap="round" stroke-linejoin="round"/>
<path d="M990.896 274.214C966.687 261.514 954.284 274.12 954.284 274.12" stroke="#292929" stroke-miterlimit="10" stroke-linecap="round" stroke-linejoin="round"/>
<path d="M959.508 275.269L953.709 274.81L953.764 268.514" stroke="#292929" stroke-linecap="round" stroke-linejoin="round"/>
<path d="M1001.13 277.048V278H995.75V277.048H997.899V270.209C997.899 270.004 997.906 269.796 997.92 269.586L996.135 271.119C996.074 271.17 996.014 271.203 995.953 271.217C995.892 271.226 995.836 271.226 995.785 271.217C995.734 271.208 995.685 271.189 995.638 271.161C995.596 271.133 995.563 271.103 995.54 271.07L995.148 270.531L998.137 267.948H999.152V277.048H1001.13ZM1006.48 277.118C1006.81 277.118 1007.1 277.074 1007.36 276.985C1007.62 276.892 1007.84 276.763 1008.01 276.6C1008.2 276.432 1008.33 276.234 1008.43 276.005C1008.53 275.772 1008.57 275.515 1008.57 275.235C1008.57 274.89 1008.52 274.596 1008.4 274.353C1008.29 274.106 1008.13 273.905 1007.94 273.751C1007.75 273.597 1007.52 273.485 1007.27 273.415C1007.02 273.34 1006.76 273.303 1006.48 273.303C1006.21 273.303 1005.94 273.34 1005.69 273.415C1005.44 273.485 1005.21 273.597 1005.02 273.751C1004.83 273.905 1004.67 274.106 1004.56 274.353C1004.44 274.596 1004.39 274.89 1004.39 275.235C1004.39 275.515 1004.43 275.772 1004.53 276.005C1004.63 276.234 1004.76 276.432 1004.94 276.6C1005.12 276.763 1005.34 276.892 1005.6 276.985C1005.86 277.074 1006.15 277.118 1006.48 277.118ZM1006.48 268.823C1006.18 268.823 1005.92 268.867 1005.69 268.956C1005.47 269.045 1005.28 269.166 1005.12 269.32C1004.97 269.474 1004.86 269.654 1004.78 269.859C1004.71 270.064 1004.67 270.284 1004.67 270.517C1004.67 270.746 1004.7 270.967 1004.77 271.182C1004.83 271.397 1004.94 271.588 1005.08 271.756C1005.23 271.919 1005.41 272.052 1005.64 272.155C1005.87 272.253 1006.15 272.302 1006.48 272.302C1006.81 272.302 1007.09 272.253 1007.31 272.155C1007.55 272.052 1007.74 271.919 1007.88 271.756C1008.03 271.588 1008.13 271.397 1008.2 271.182C1008.26 270.967 1008.29 270.746 1008.29 270.517C1008.29 270.284 1008.25 270.064 1008.18 269.859C1008.1 269.654 1007.99 269.474 1007.83 269.32C1007.68 269.166 1007.49 269.045 1007.27 268.956C1007.04 268.867 1006.78 268.823 1006.48 268.823ZM1007.92 272.771C1008.54 272.948 1009.02 273.245 1009.36 273.66C1009.69 274.075 1009.86 274.607 1009.86 275.256C1009.86 275.695 1009.78 276.091 1009.61 276.446C1009.45 276.796 1009.22 277.095 1008.92 277.342C1008.62 277.589 1008.27 277.781 1007.85 277.916C1007.44 278.047 1006.98 278.112 1006.48 278.112C1005.98 278.112 1005.52 278.047 1005.11 277.916C1004.69 277.781 1004.34 277.589 1004.04 277.342C1003.74 277.095 1003.51 276.796 1003.35 276.446C1003.18 276.091 1003.1 275.695 1003.1 275.256C1003.1 274.607 1003.27 274.075 1003.6 273.66C1003.94 273.245 1004.42 272.948 1005.05 272.771C1004.52 272.575 1004.12 272.283 1003.85 271.896C1003.58 271.504 1003.45 271.037 1003.45 270.496C1003.45 270.127 1003.52 269.782 1003.67 269.46C1003.81 269.138 1004.02 268.858 1004.28 268.62C1004.55 268.382 1004.87 268.195 1005.24 268.06C1005.61 267.925 1006.02 267.857 1006.48 267.857C1006.93 267.857 1007.35 267.925 1007.72 268.06C1008.09 268.195 1008.41 268.382 1008.68 268.62C1008.95 268.858 1009.15 269.138 1009.3 269.46C1009.44 269.782 1009.51 270.127 1009.51 270.496C1009.51 271.037 1009.38 271.504 1009.11 271.896C1008.84 272.283 1008.44 272.575 1007.92 272.771ZM1011.47 270.104C1011.47 269.791 1011.52 269.497 1011.64 269.222C1011.76 268.947 1011.92 268.709 1012.12 268.508C1012.33 268.303 1012.57 268.142 1012.84 268.025C1013.12 267.908 1013.42 267.85 1013.74 267.85C1014.06 267.85 1014.36 267.908 1014.64 268.025C1014.92 268.142 1015.16 268.303 1015.36 268.508C1015.57 268.709 1015.73 268.947 1015.85 269.222C1015.97 269.497 1016.03 269.791 1016.03 270.104C1016.03 270.412 1015.97 270.704 1015.85 270.979C1015.73 271.25 1015.57 271.488 1015.36 271.693C1015.16 271.894 1014.92 272.055 1014.64 272.176C1014.36 272.293 1014.06 272.351 1013.74 272.351C1013.42 272.351 1013.12 272.293 1012.84 272.176C1012.57 272.055 1012.33 271.894 1012.12 271.693C1011.92 271.488 1011.76 271.25 1011.64 270.979C1011.52 270.704 1011.47 270.412 1011.47 270.104ZM1012.35 270.111C1012.35 270.307 1012.38 270.491 1012.45 270.664C1012.52 270.832 1012.62 270.979 1012.75 271.105C1012.87 271.231 1013.02 271.331 1013.19 271.406C1013.36 271.476 1013.54 271.511 1013.74 271.511C1013.94 271.511 1014.12 271.476 1014.29 271.406C1014.46 271.331 1014.61 271.231 1014.73 271.105C1014.86 270.979 1014.96 270.832 1015.03 270.664C1015.1 270.491 1015.13 270.307 1015.13 270.111C1015.13 269.915 1015.1 269.731 1015.03 269.558C1014.96 269.385 1014.86 269.236 1014.73 269.11C1014.61 268.979 1014.46 268.879 1014.29 268.809C1014.12 268.734 1013.94 268.697 1013.74 268.697C1013.54 268.697 1013.36 268.734 1013.19 268.809C1013.02 268.879 1012.87 268.979 1012.75 269.11C1012.62 269.236 1012.52 269.385 1012.45 269.558C1012.38 269.731 1012.35 269.915 1012.35 270.111Z" fill="black"/>
</svg>
