<svg width="1204" height="678" viewBox="0 0 1204 678" fill="none" xmlns="http://www.w3.org/2000/svg">
<rect width="1204" height="677.25" fill="white"/>
<line y1="-0.5" x2="14" y2="-0.5" transform="matrix(-1 -3.01064e-06 2.53858e-09 -1 80 571)" stroke="black"/>
<line x1="80" y1="56.5" x2="66" y2="56.5" stroke="black"/>
<line x1="66.5" y1="56" x2="66.5" y2="571" stroke="black"/>
<line x1="144.5" y1="581" x2="144.5" y2="595" stroke="black"/>
<line x1="91.5" y1="581" x2="91.5" y2="595" stroke="black"/>
<line x1="91" y1="594.5" x2="144" y2="594.5" stroke="black"/>
<path d="M97.126 618.048V619H91.75V618.048H93.899V611.209C93.899 611.004 93.906 610.796 93.92 610.586L92.135 612.119C92.0743 612.17 92.0137 612.203 91.953 612.217C91.8923 612.226 91.8363 612.226 91.785 612.217C91.7337 612.208 91.6847 612.189 91.638 612.161C91.596 612.133 91.5633 612.103 91.54 612.07L91.148 611.531L94.137 608.948H95.152V618.048H97.126ZM106.121 613.988C106.121 614.865 106.025 615.626 105.834 616.27C105.647 616.909 105.391 617.439 105.064 617.859C104.737 618.279 104.35 618.592 103.902 618.797C103.459 619.002 102.983 619.105 102.474 619.105C101.961 619.105 101.482 619.002 101.039 618.797C100.6 618.592 100.218 618.279 99.8911 617.859C99.5644 617.439 99.3078 616.909 99.1211 616.27C98.9344 615.626 98.8411 614.865 98.8411 613.988C98.8411 613.111 98.9344 612.35 99.1211 611.706C99.3078 611.062 99.5644 610.53 99.8911 610.11C100.218 609.685 100.6 609.37 101.039 609.165C101.482 608.96 101.961 608.857 102.474 608.857C102.983 608.857 103.459 608.96 103.902 609.165C104.35 609.37 104.737 609.685 105.064 610.11C105.391 610.53 105.647 611.062 105.834 611.706C106.025 612.35 106.121 613.111 106.121 613.988ZM104.826 613.988C104.826 613.223 104.761 612.581 104.63 612.063C104.504 611.54 104.331 611.12 104.112 610.803C103.897 610.486 103.648 610.259 103.363 610.124C103.078 609.984 102.782 609.914 102.474 609.914C102.166 609.914 101.87 609.984 101.585 610.124C101.3 610.259 101.051 610.486 100.836 610.803C100.621 611.12 100.449 611.54 100.318 612.063C100.192 612.581 100.129 613.223 100.129 613.988C100.129 614.753 100.192 615.395 100.318 615.913C100.449 616.431 100.621 616.849 100.836 617.166C101.051 617.483 101.3 617.712 101.585 617.852C101.87 617.987 102.166 618.055 102.474 618.055C102.782 618.055 103.078 617.987 103.363 617.852C103.648 617.712 103.897 617.483 104.112 617.166C104.331 616.849 104.504 616.431 104.63 615.913C104.761 615.395 104.826 614.753 104.826 613.988ZM111.896 611.391C111.896 611.783 111.836 612.135 111.714 612.448C111.593 612.756 111.43 613.017 111.224 613.232C111.024 613.442 110.788 613.603 110.517 613.715C110.251 613.827 109.969 613.883 109.67 613.883C109.358 613.883 109.066 613.827 108.795 613.715C108.525 613.603 108.289 613.442 108.088 613.232C107.892 613.017 107.738 612.756 107.626 612.448C107.514 612.135 107.458 611.783 107.458 611.391C107.458 610.99 107.514 610.633 107.626 610.32C107.738 610.007 107.892 609.744 108.088 609.529C108.289 609.314 108.525 609.151 108.795 609.039C109.066 608.927 109.358 608.871 109.67 608.871C109.988 608.871 110.282 608.927 110.552 609.039C110.823 609.151 111.059 609.314 111.259 609.529C111.46 609.744 111.616 610.007 111.728 610.32C111.84 610.633 111.896 610.99 111.896 611.391ZM110.93 611.391C110.93 611.083 110.898 610.822 110.832 610.607C110.767 610.392 110.676 610.217 110.559 610.082C110.447 609.942 110.314 609.842 110.16 609.781C110.006 609.72 109.843 609.69 109.67 609.69C109.498 609.69 109.337 609.72 109.187 609.781C109.038 609.842 108.907 609.942 108.795 610.082C108.683 610.217 108.595 610.392 108.529 610.607C108.464 610.822 108.431 611.083 108.431 611.391C108.431 611.694 108.464 611.953 108.529 612.168C108.595 612.378 108.683 612.551 108.795 612.686C108.907 612.817 109.038 612.912 109.187 612.973C109.337 613.029 109.498 613.057 109.67 613.057C109.843 613.057 110.006 613.029 110.16 612.973C110.314 612.912 110.447 612.817 110.559 612.686C110.676 612.551 110.767 612.378 110.832 612.168C110.898 611.953 110.93 611.694 110.93 611.391ZM115.445 609.179C115.492 609.123 115.546 609.074 115.606 609.032C115.672 608.99 115.758 608.969 115.865 608.969H116.768L109.432 618.797C109.39 618.858 109.337 618.907 109.271 618.944C109.206 618.981 109.127 619 109.033 619H108.116L115.445 609.179ZM117.447 616.634C117.447 617.026 117.387 617.376 117.265 617.684C117.144 617.992 116.981 618.253 116.775 618.468C116.575 618.678 116.339 618.839 116.068 618.951C115.802 619.063 115.52 619.119 115.221 619.119C114.904 619.119 114.61 619.063 114.339 618.951C114.073 618.839 113.84 618.678 113.639 618.468C113.443 618.253 113.289 617.992 113.177 617.684C113.065 617.376 113.009 617.026 113.009 616.634C113.009 616.233 113.065 615.876 113.177 615.563C113.289 615.246 113.443 614.98 113.639 614.765C113.84 614.55 114.073 614.387 114.339 614.275C114.61 614.163 114.904 614.107 115.221 614.107C115.534 614.107 115.826 614.163 116.096 614.275C116.372 614.387 116.607 614.55 116.803 614.765C117.004 614.98 117.16 615.246 117.272 615.563C117.389 615.876 117.447 616.233 117.447 616.634ZM116.481 616.634C116.481 616.326 116.449 616.065 116.383 615.85C116.318 615.631 116.227 615.453 116.11 615.318C115.998 615.183 115.865 615.085 115.711 615.024C115.557 614.963 115.394 614.933 115.221 614.933C115.049 614.933 114.885 614.963 114.731 615.024C114.582 615.085 114.451 615.183 114.339 615.318C114.227 615.453 114.139 615.631 114.073 615.85C114.013 616.065 113.982 616.326 113.982 616.634C113.982 616.937 114.013 617.194 114.073 617.404C114.139 617.614 114.227 617.787 114.339 617.922C114.451 618.053 114.582 618.148 114.731 618.209C114.885 618.265 115.049 618.293 115.221 618.293C115.394 618.293 115.557 618.265 115.711 618.209C115.865 618.148 115.998 618.053 116.11 617.922C116.227 617.787 116.318 617.614 116.383 617.404C116.449 617.194 116.481 616.937 116.481 616.634ZM126.225 611.797C126.743 611.797 127.209 611.883 127.625 612.056C128.04 612.229 128.395 612.474 128.689 612.791C128.983 613.108 129.207 613.493 129.361 613.946C129.519 614.394 129.599 614.896 129.599 615.451C129.599 616.011 129.519 616.515 129.361 616.963C129.207 617.411 128.983 617.794 128.689 618.111C128.395 618.428 128.04 618.673 127.625 618.846C127.209 619.014 126.743 619.098 126.225 619.098C125.702 619.098 125.231 619.014 124.811 618.846C124.395 618.673 124.041 618.428 123.747 618.111C123.453 617.794 123.226 617.411 123.068 616.963C122.914 616.515 122.837 616.011 122.837 615.451C122.837 614.896 122.914 614.394 123.068 613.946C123.226 613.493 123.453 613.108 123.747 612.791C124.041 612.474 124.395 612.229 124.811 612.056C125.231 611.883 125.702 611.797 126.225 611.797ZM126.225 618.125C126.925 618.125 127.447 617.892 127.793 617.425C128.138 616.954 128.311 616.298 128.311 615.458C128.311 614.613 128.138 613.955 127.793 613.484C127.447 613.013 126.925 612.777 126.225 612.777C125.87 612.777 125.56 612.838 125.294 612.959C125.032 613.08 124.813 613.255 124.636 613.484C124.463 613.713 124.332 613.995 124.244 614.331C124.16 614.662 124.118 615.038 124.118 615.458C124.118 616.298 124.29 616.954 124.636 617.425C124.986 617.892 125.515 618.125 126.225 618.125ZM131.791 619V612.973L131.007 612.882C130.909 612.859 130.827 612.824 130.762 612.777C130.701 612.726 130.671 612.653 130.671 612.56V612.049H131.791V611.363C131.791 610.957 131.847 610.598 131.959 610.285C132.075 609.968 132.239 609.702 132.449 609.487C132.663 609.268 132.92 609.102 133.219 608.99C133.517 608.878 133.853 608.822 134.227 608.822C134.544 608.822 134.836 608.869 135.102 608.962L135.074 609.585C135.064 609.697 135.001 609.758 134.885 609.767C134.773 609.776 134.621 609.781 134.43 609.781C134.215 609.781 134.019 609.809 133.842 609.865C133.669 609.921 133.52 610.012 133.394 610.138C133.268 610.264 133.17 610.43 133.1 610.635C133.034 610.84 133.002 611.095 133.002 611.398V612.049H135.046V612.952H133.044V619H131.791ZM141.342 613.33C141.566 612.845 141.842 612.467 142.168 612.196C142.495 611.921 142.894 611.783 143.365 611.783C143.515 611.783 143.657 611.799 143.792 611.832C143.932 611.865 144.056 611.916 144.163 611.986L144.072 612.917C144.044 613.034 143.974 613.092 143.862 613.092C143.797 613.092 143.701 613.078 143.575 613.05C143.449 613.022 143.307 613.008 143.148 613.008C142.924 613.008 142.724 613.041 142.546 613.106C142.374 613.171 142.217 613.269 142.077 613.4C141.942 613.526 141.818 613.685 141.706 613.876C141.599 614.063 141.501 614.277 141.412 614.52V619H140.159V611.909H140.873C141.009 611.909 141.102 611.935 141.153 611.986C141.205 612.037 141.24 612.126 141.258 612.252L141.342 613.33Z" fill="black"/>
<path d="M52.17 313.33C52.394 312.845 52.6693 312.467 52.996 312.196C53.3227 311.921 53.7217 311.783 54.193 311.783C54.3423 311.783 54.4847 311.799 54.62 311.832C54.76 311.865 54.8837 311.916 54.991 311.986L54.9 312.917C54.872 313.034 54.802 313.092 54.69 313.092C54.6247 313.092 54.529 313.078 54.403 313.05C54.277 313.022 54.1347 313.008 53.976 313.008C53.752 313.008 53.5513 313.041 53.374 313.106C53.2013 313.171 53.045 313.269 52.905 313.4C52.7697 313.526 52.646 313.685 52.534 313.876C52.4267 314.063 52.3287 314.277 52.24 314.52V319H50.987V311.909H51.701C51.8363 311.909 51.9297 311.935 51.981 311.986C52.0323 312.037 52.0673 312.126 52.086 312.252L52.17 313.33Z" fill="black"/>
<rect x="90.5" y="570.5" width="514" height="51" transform="rotate(-90 90.5 570.5)" stroke="#D8D8D8"/>
<rect x="1022.5" y="570.5" width="514" height="51" transform="rotate(-90 1022.5 570.5)" stroke="#D8D8D8"/>
<rect x="90.5" y="519.5" width="983" height="51" stroke="#D8D8D8"/>
<rect x="90.5" y="56.5" width="983" height="51" stroke="#D8D8D8"/>
<line x1="1074" y1="519.5" x2="1088" y2="519.5" stroke="black"/>
<line x1="1074" y1="570.5" x2="1088" y2="570.5" stroke="black"/>
<line x1="1087.5" y1="571" x2="1087.5" y2="520" stroke="black"/>
<path d="M1105.13 550.048V551H1099.75V550.048H1101.9V543.209C1101.9 543.004 1101.91 542.796 1101.92 542.586L1100.14 544.119C1100.07 544.17 1100.01 544.203 1099.95 544.217C1099.89 544.226 1099.84 544.226 1099.79 544.217C1099.73 544.208 1099.68 544.189 1099.64 544.161C1099.6 544.133 1099.56 544.103 1099.54 544.07L1099.15 543.531L1102.14 540.948H1103.15V550.048H1105.13ZM1114.12 545.988C1114.12 546.865 1114.03 547.626 1113.83 548.27C1113.65 548.909 1113.39 549.439 1113.06 549.859C1112.74 550.279 1112.35 550.592 1111.9 550.797C1111.46 551.002 1110.98 551.105 1110.47 551.105C1109.96 551.105 1109.48 551.002 1109.04 550.797C1108.6 550.592 1108.22 550.279 1107.89 549.859C1107.56 549.439 1107.31 548.909 1107.12 548.27C1106.93 547.626 1106.84 546.865 1106.84 545.988C1106.84 545.111 1106.93 544.35 1107.12 543.706C1107.31 543.062 1107.56 542.53 1107.89 542.11C1108.22 541.685 1108.6 541.37 1109.04 541.165C1109.48 540.96 1109.96 540.857 1110.47 540.857C1110.98 540.857 1111.46 540.96 1111.9 541.165C1112.35 541.37 1112.74 541.685 1113.06 542.11C1113.39 542.53 1113.65 543.062 1113.83 543.706C1114.03 544.35 1114.12 545.111 1114.12 545.988ZM1112.83 545.988C1112.83 545.223 1112.76 544.581 1112.63 544.063C1112.5 543.54 1112.33 543.12 1112.11 542.803C1111.9 542.486 1111.65 542.259 1111.36 542.124C1111.08 541.984 1110.78 541.914 1110.47 541.914C1110.17 541.914 1109.87 541.984 1109.59 542.124C1109.3 542.259 1109.05 542.486 1108.84 542.803C1108.62 543.12 1108.45 543.54 1108.32 544.063C1108.19 544.581 1108.13 545.223 1108.13 545.988C1108.13 546.753 1108.19 547.395 1108.32 547.913C1108.45 548.431 1108.62 548.849 1108.84 549.166C1109.05 549.483 1109.3 549.712 1109.59 549.852C1109.87 549.987 1110.17 550.055 1110.47 550.055C1110.78 550.055 1111.08 549.987 1111.36 549.852C1111.65 549.712 1111.9 549.483 1112.11 549.166C1112.33 548.849 1112.5 548.431 1112.63 547.913C1112.76 547.395 1112.83 546.753 1112.83 545.988ZM1119.9 543.391C1119.9 543.783 1119.84 544.135 1119.71 544.448C1119.59 544.756 1119.43 545.017 1119.22 545.232C1119.02 545.442 1118.79 545.603 1118.52 545.715C1118.25 545.827 1117.97 545.883 1117.67 545.883C1117.36 545.883 1117.07 545.827 1116.8 545.715C1116.52 545.603 1116.29 545.442 1116.09 545.232C1115.89 545.017 1115.74 544.756 1115.63 544.448C1115.51 544.135 1115.46 543.783 1115.46 543.391C1115.46 542.99 1115.51 542.633 1115.63 542.32C1115.74 542.007 1115.89 541.744 1116.09 541.529C1116.29 541.314 1116.52 541.151 1116.8 541.039C1117.07 540.927 1117.36 540.871 1117.67 540.871C1117.99 540.871 1118.28 540.927 1118.55 541.039C1118.82 541.151 1119.06 541.314 1119.26 541.529C1119.46 541.744 1119.62 542.007 1119.73 542.32C1119.84 542.633 1119.9 542.99 1119.9 543.391ZM1118.93 543.391C1118.93 543.083 1118.9 542.822 1118.83 542.607C1118.77 542.392 1118.68 542.217 1118.56 542.082C1118.45 541.942 1118.31 541.842 1118.16 541.781C1118.01 541.72 1117.84 541.69 1117.67 541.69C1117.5 541.69 1117.34 541.72 1117.19 541.781C1117.04 541.842 1116.91 541.942 1116.8 542.082C1116.68 542.217 1116.59 542.392 1116.53 542.607C1116.46 542.822 1116.43 543.083 1116.43 543.391C1116.43 543.694 1116.46 543.953 1116.53 544.168C1116.59 544.378 1116.68 544.551 1116.8 544.686C1116.91 544.817 1117.04 544.912 1117.19 544.973C1117.34 545.029 1117.5 545.057 1117.67 545.057C1117.84 545.057 1118.01 545.029 1118.16 544.973C1118.31 544.912 1118.45 544.817 1118.56 544.686C1118.68 544.551 1118.77 544.378 1118.83 544.168C1118.9 543.953 1118.93 543.694 1118.93 543.391ZM1123.45 541.179C1123.49 541.123 1123.55 541.074 1123.61 541.032C1123.67 540.99 1123.76 540.969 1123.87 540.969H1124.77L1117.43 550.797C1117.39 550.858 1117.34 550.907 1117.27 550.944C1117.21 550.981 1117.13 551 1117.03 551H1116.12L1123.45 541.179ZM1125.45 548.634C1125.45 549.026 1125.39 549.376 1125.27 549.684C1125.14 549.992 1124.98 550.253 1124.78 550.468C1124.57 550.678 1124.34 550.839 1124.07 550.951C1123.8 551.063 1123.52 551.119 1123.22 551.119C1122.9 551.119 1122.61 551.063 1122.34 550.951C1122.07 550.839 1121.84 550.678 1121.64 550.468C1121.44 550.253 1121.29 549.992 1121.18 549.684C1121.07 549.376 1121.01 549.026 1121.01 548.634C1121.01 548.233 1121.07 547.876 1121.18 547.563C1121.29 547.246 1121.44 546.98 1121.64 546.765C1121.84 546.55 1122.07 546.387 1122.34 546.275C1122.61 546.163 1122.9 546.107 1123.22 546.107C1123.53 546.107 1123.83 546.163 1124.1 546.275C1124.37 546.387 1124.61 546.55 1124.8 546.765C1125 546.98 1125.16 547.246 1125.27 547.563C1125.39 547.876 1125.45 548.233 1125.45 548.634ZM1124.48 548.634C1124.48 548.326 1124.45 548.065 1124.38 547.85C1124.32 547.631 1124.23 547.453 1124.11 547.318C1124 547.183 1123.87 547.085 1123.71 547.024C1123.56 546.963 1123.39 546.933 1123.22 546.933C1123.05 546.933 1122.89 546.963 1122.73 547.024C1122.58 547.085 1122.45 547.183 1122.34 547.318C1122.23 547.453 1122.14 547.631 1122.07 547.85C1122.01 548.065 1121.98 548.326 1121.98 548.634C1121.98 548.937 1122.01 549.194 1122.07 549.404C1122.14 549.614 1122.23 549.787 1122.34 549.922C1122.45 550.053 1122.58 550.148 1122.73 550.209C1122.89 550.265 1123.05 550.293 1123.22 550.293C1123.39 550.293 1123.56 550.265 1123.71 550.209C1123.87 550.148 1124 550.053 1124.11 549.922C1124.23 549.787 1124.32 549.614 1124.38 549.404C1124.45 549.194 1124.48 548.937 1124.48 548.634ZM1134.22 543.797C1134.74 543.797 1135.21 543.883 1135.62 544.056C1136.04 544.229 1136.39 544.474 1136.69 544.791C1136.98 545.108 1137.21 545.493 1137.36 545.946C1137.52 546.394 1137.6 546.896 1137.6 547.451C1137.6 548.011 1137.52 548.515 1137.36 548.963C1137.21 549.411 1136.98 549.794 1136.69 550.111C1136.39 550.428 1136.04 550.673 1135.62 550.846C1135.21 551.014 1134.74 551.098 1134.22 551.098C1133.7 551.098 1133.23 551.014 1132.81 550.846C1132.4 550.673 1132.04 550.428 1131.75 550.111C1131.45 549.794 1131.23 549.411 1131.07 548.963C1130.91 548.515 1130.84 548.011 1130.84 547.451C1130.84 546.896 1130.91 546.394 1131.07 545.946C1131.23 545.493 1131.45 545.108 1131.75 544.791C1132.04 544.474 1132.4 544.229 1132.81 544.056C1133.23 543.883 1133.7 543.797 1134.22 543.797ZM1134.22 550.125C1134.92 550.125 1135.45 549.892 1135.79 549.425C1136.14 548.954 1136.31 548.298 1136.31 547.458C1136.31 546.613 1136.14 545.955 1135.79 545.484C1135.45 545.013 1134.92 544.777 1134.22 544.777C1133.87 544.777 1133.56 544.838 1133.29 544.959C1133.03 545.08 1132.81 545.255 1132.64 545.484C1132.46 545.713 1132.33 545.995 1132.24 546.331C1132.16 546.662 1132.12 547.038 1132.12 547.458C1132.12 548.298 1132.29 548.954 1132.64 549.425C1132.99 549.892 1133.52 550.125 1134.22 550.125ZM1139.79 551V544.973L1139.01 544.882C1138.91 544.859 1138.83 544.824 1138.76 544.777C1138.7 544.726 1138.67 544.653 1138.67 544.56V544.049H1139.79V543.363C1139.79 542.957 1139.85 542.598 1139.96 542.285C1140.08 541.968 1140.24 541.702 1140.45 541.487C1140.66 541.268 1140.92 541.102 1141.22 540.99C1141.52 540.878 1141.85 540.822 1142.23 540.822C1142.54 540.822 1142.84 540.869 1143.1 540.962L1143.07 541.585C1143.06 541.697 1143 541.758 1142.88 541.767C1142.77 541.776 1142.62 541.781 1142.43 541.781C1142.22 541.781 1142.02 541.809 1141.84 541.865C1141.67 541.921 1141.52 542.012 1141.39 542.138C1141.27 542.264 1141.17 542.43 1141.1 542.635C1141.03 542.84 1141 543.095 1141 543.398V544.049H1143.05V544.952H1141.04V551H1139.79ZM1149.34 545.33C1149.57 544.845 1149.84 544.467 1150.17 544.196C1150.49 543.921 1150.89 543.783 1151.37 543.783C1151.51 543.783 1151.66 543.799 1151.79 543.832C1151.93 543.865 1152.06 543.916 1152.16 543.986L1152.07 544.917C1152.04 545.034 1151.97 545.092 1151.86 545.092C1151.8 545.092 1151.7 545.078 1151.58 545.05C1151.45 545.022 1151.31 545.008 1151.15 545.008C1150.92 545.008 1150.72 545.041 1150.55 545.106C1150.37 545.171 1150.22 545.269 1150.08 545.4C1149.94 545.526 1149.82 545.685 1149.71 545.876C1149.6 546.063 1149.5 546.277 1149.41 546.52V551H1148.16V543.909H1148.87C1149.01 543.909 1149.1 543.935 1149.15 543.986C1149.2 544.037 1149.24 544.126 1149.26 544.252L1149.34 545.33Z" fill="black"/>
</svg>
