<svg width="1204" height="678" viewBox="0 0 1204 678" fill="none" xmlns="http://www.w3.org/2000/svg">
<rect width="1204" height="677.25" fill="white"/>
<line x1="812" y1="338.5" x2="826" y2="338.5" stroke="black"/>
<line x1="812" y1="357.5" x2="826" y2="357.5" stroke="black"/>
<line x1="825.5" y1="358" x2="825.5" y2="339" stroke="black"/>
<path d="M841.11 349.381V345.244C841.11 345.123 841.115 344.99 841.124 344.845C841.133 344.7 841.147 344.553 841.166 344.404L837.512 349.381H841.11ZM843.721 349.381V350.095C843.721 350.17 843.698 350.233 843.651 350.284C843.609 350.335 843.541 350.361 843.448 350.361H842.202V353H841.11V350.361H836.658C836.565 350.361 836.483 350.335 836.413 350.284C836.348 350.228 836.306 350.16 836.287 350.081L836.161 349.444L841.04 342.969H842.202V349.381H843.721ZM852.121 347.988C852.121 348.865 852.025 349.626 851.834 350.27C851.647 350.909 851.391 351.439 851.064 351.859C850.737 352.279 850.35 352.592 849.902 352.797C849.459 353.002 848.983 353.105 848.474 353.105C847.961 353.105 847.482 353.002 847.039 352.797C846.6 352.592 846.218 352.279 845.891 351.859C845.564 351.439 845.308 350.909 845.121 350.27C844.934 349.626 844.841 348.865 844.841 347.988C844.841 347.111 844.934 346.35 845.121 345.706C845.308 345.062 845.564 344.53 845.891 344.11C846.218 343.685 846.6 343.37 847.039 343.165C847.482 342.96 847.961 342.857 848.474 342.857C848.983 342.857 849.459 342.96 849.902 343.165C850.35 343.37 850.737 343.685 851.064 344.11C851.391 344.53 851.647 345.062 851.834 345.706C852.025 346.35 852.121 347.111 852.121 347.988ZM850.826 347.988C850.826 347.223 850.761 346.581 850.63 346.063C850.504 345.54 850.331 345.12 850.112 344.803C849.897 344.486 849.648 344.259 849.363 344.124C849.078 343.984 848.782 343.914 848.474 343.914C848.166 343.914 847.87 343.984 847.585 344.124C847.3 344.259 847.051 344.486 846.836 344.803C846.621 345.12 846.449 345.54 846.318 346.063C846.192 346.581 846.129 347.223 846.129 347.988C846.129 348.753 846.192 349.395 846.318 349.913C846.449 350.431 846.621 350.849 846.836 351.166C847.051 351.483 847.3 351.712 847.585 351.852C847.87 351.987 848.166 352.055 848.474 352.055C848.782 352.055 849.078 351.987 849.363 351.852C849.648 351.712 849.897 351.483 850.112 351.166C850.331 350.849 850.504 350.431 850.63 349.913C850.761 349.395 850.826 348.753 850.826 347.988ZM857.896 345.391C857.896 345.783 857.836 346.135 857.714 346.448C857.593 346.756 857.43 347.017 857.224 347.232C857.024 347.442 856.788 347.603 856.517 347.715C856.251 347.827 855.969 347.883 855.67 347.883C855.358 347.883 855.066 347.827 854.795 347.715C854.525 347.603 854.289 347.442 854.088 347.232C853.892 347.017 853.738 346.756 853.626 346.448C853.514 346.135 853.458 345.783 853.458 345.391C853.458 344.99 853.514 344.633 853.626 344.32C853.738 344.007 853.892 343.744 854.088 343.529C854.289 343.314 854.525 343.151 854.795 343.039C855.066 342.927 855.358 342.871 855.67 342.871C855.988 342.871 856.282 342.927 856.552 343.039C856.823 343.151 857.059 343.314 857.259 343.529C857.46 343.744 857.616 344.007 857.728 344.32C857.84 344.633 857.896 344.99 857.896 345.391ZM856.93 345.391C856.93 345.083 856.898 344.822 856.832 344.607C856.767 344.392 856.676 344.217 856.559 344.082C856.447 343.942 856.314 343.842 856.16 343.781C856.006 343.72 855.843 343.69 855.67 343.69C855.498 343.69 855.337 343.72 855.187 343.781C855.038 343.842 854.907 343.942 854.795 344.082C854.683 344.217 854.595 344.392 854.529 344.607C854.464 344.822 854.431 345.083 854.431 345.391C854.431 345.694 854.464 345.953 854.529 346.168C854.595 346.378 854.683 346.551 854.795 346.686C854.907 346.817 855.038 346.912 855.187 346.973C855.337 347.029 855.498 347.057 855.67 347.057C855.843 347.057 856.006 347.029 856.16 346.973C856.314 346.912 856.447 346.817 856.559 346.686C856.676 346.551 856.767 346.378 856.832 346.168C856.898 345.953 856.93 345.694 856.93 345.391ZM861.445 343.179C861.492 343.123 861.546 343.074 861.606 343.032C861.672 342.99 861.758 342.969 861.865 342.969H862.768L855.432 352.797C855.39 352.858 855.337 352.907 855.271 352.944C855.206 352.981 855.127 353 855.033 353H854.116L861.445 343.179ZM863.447 350.634C863.447 351.026 863.387 351.376 863.265 351.684C863.144 351.992 862.981 352.253 862.775 352.468C862.575 352.678 862.339 352.839 862.068 352.951C861.802 353.063 861.52 353.119 861.221 353.119C860.904 353.119 860.61 353.063 860.339 352.951C860.073 352.839 859.84 352.678 859.639 352.468C859.443 352.253 859.289 351.992 859.177 351.684C859.065 351.376 859.009 351.026 859.009 350.634C859.009 350.233 859.065 349.876 859.177 349.563C859.289 349.246 859.443 348.98 859.639 348.765C859.84 348.55 860.073 348.387 860.339 348.275C860.61 348.163 860.904 348.107 861.221 348.107C861.534 348.107 861.826 348.163 862.096 348.275C862.372 348.387 862.607 348.55 862.803 348.765C863.004 348.98 863.16 349.246 863.272 349.563C863.389 349.876 863.447 350.233 863.447 350.634ZM862.481 350.634C862.481 350.326 862.449 350.065 862.383 349.85C862.318 349.631 862.227 349.453 862.11 349.318C861.998 349.183 861.865 349.085 861.711 349.024C861.557 348.963 861.394 348.933 861.221 348.933C861.049 348.933 860.885 348.963 860.731 349.024C860.582 349.085 860.451 349.183 860.339 349.318C860.227 349.453 860.139 349.631 860.073 349.85C860.013 350.065 859.982 350.326 859.982 350.634C859.982 350.937 860.013 351.194 860.073 351.404C860.139 351.614 860.227 351.787 860.339 351.922C860.451 352.053 860.582 352.148 860.731 352.209C860.885 352.265 861.049 352.293 861.221 352.293C861.394 352.293 861.557 352.265 861.711 352.209C861.865 352.148 861.998 352.053 862.11 351.922C862.227 351.787 862.318 351.614 862.383 351.404C862.449 351.194 862.481 350.937 862.481 350.634ZM872.225 345.797C872.743 345.797 873.209 345.883 873.625 346.056C874.04 346.229 874.395 346.474 874.689 346.791C874.983 347.108 875.207 347.493 875.361 347.946C875.519 348.394 875.599 348.896 875.599 349.451C875.599 350.011 875.519 350.515 875.361 350.963C875.207 351.411 874.983 351.794 874.689 352.111C874.395 352.428 874.04 352.673 873.625 352.846C873.209 353.014 872.743 353.098 872.225 353.098C871.702 353.098 871.231 353.014 870.811 352.846C870.395 352.673 870.041 352.428 869.747 352.111C869.453 351.794 869.226 351.411 869.068 350.963C868.914 350.515 868.837 350.011 868.837 349.451C868.837 348.896 868.914 348.394 869.068 347.946C869.226 347.493 869.453 347.108 869.747 346.791C870.041 346.474 870.395 346.229 870.811 346.056C871.231 345.883 871.702 345.797 872.225 345.797ZM872.225 352.125C872.925 352.125 873.447 351.892 873.793 351.425C874.138 350.954 874.311 350.298 874.311 349.458C874.311 348.613 874.138 347.955 873.793 347.484C873.447 347.013 872.925 346.777 872.225 346.777C871.87 346.777 871.56 346.838 871.294 346.959C871.032 347.08 870.813 347.255 870.636 347.484C870.463 347.713 870.332 347.995 870.244 348.331C870.16 348.662 870.118 349.038 870.118 349.458C870.118 350.298 870.29 350.954 870.636 351.425C870.986 351.892 871.515 352.125 872.225 352.125ZM877.791 353V346.973L877.007 346.882C876.909 346.859 876.827 346.824 876.762 346.777C876.701 346.726 876.671 346.653 876.671 346.56V346.049H877.791V345.363C877.791 344.957 877.847 344.598 877.959 344.285C878.075 343.968 878.239 343.702 878.449 343.487C878.663 343.268 878.92 343.102 879.219 342.99C879.517 342.878 879.853 342.822 880.227 342.822C880.544 342.822 880.836 342.869 881.102 342.962L881.074 343.585C881.064 343.697 881.001 343.758 880.885 343.767C880.773 343.776 880.621 343.781 880.43 343.781C880.215 343.781 880.019 343.809 879.842 343.865C879.669 343.921 879.52 344.012 879.394 344.138C879.268 344.264 879.17 344.43 879.1 344.635C879.034 344.84 879.002 345.095 879.002 345.398V346.049H881.046V346.952H879.044V353H877.791ZM887.342 347.33C887.566 346.845 887.842 346.467 888.168 346.196C888.495 345.921 888.894 345.783 889.365 345.783C889.515 345.783 889.657 345.799 889.792 345.832C889.932 345.865 890.056 345.916 890.163 345.986L890.072 346.917C890.044 347.034 889.974 347.092 889.862 347.092C889.797 347.092 889.701 347.078 889.575 347.05C889.449 347.022 889.307 347.008 889.148 347.008C888.924 347.008 888.724 347.041 888.546 347.106C888.374 347.171 888.217 347.269 888.077 347.4C887.942 347.526 887.818 347.685 887.706 347.876C887.599 348.063 887.501 348.277 887.412 348.52V353H886.159V345.909H886.873C887.009 345.909 887.102 345.935 887.153 345.986C887.205 346.037 887.24 346.126 887.258 346.252L887.342 347.33Z" fill="black"/>
<rect x="409.5" y="218.5" width="392" height="49" stroke="#D8D8D8"/>
<rect x="409.5" y="358.5" width="392" height="49" stroke="#D8D8D8"/>
<rect x="409.5" y="318.5" width="392" height="19" stroke="#D8D8D8"/>
<rect x="409.5" y="407.5" width="189" height="49" transform="rotate(-90 409.5 407.5)" stroke="#D8D8D8"/>
<rect x="752.5" y="407.5" width="189" height="49" transform="rotate(-90 752.5 407.5)" stroke="#D8D8D8"/>
<g clip-path="url(#clip0)">
<path fill-rule="evenodd" clip-rule="evenodd" d="M580.761 267.269C577.487 267.269 575.484 268.995 575.484 272.524V300.91H575.33L556.147 270.107C554.953 268.112 552.95 267.23 550.677 267.23C546.016 267.23 543.782 269.11 543.782 273.598V311.575C543.782 315.104 545.785 316.83 549.059 316.83C552.333 316.83 554.337 315.104 554.337 311.575V283.994H554.452L573.481 313.915C574.868 316.101 576.023 316.83 579.49 316.83C584.112 316.83 585.961 314.375 585.961 310.041V272.486C586.038 268.995 584.035 267.269 580.761 267.269Z" fill="#41A5DD"/>
<path fill-rule="evenodd" clip-rule="evenodd" d="M623.094 267.269C620.822 267.269 619.627 268.074 618.357 270.452L608.881 287.945L599.328 270.452C598.21 268.343 596.978 267.269 594.397 267.269C592.278 267.269 588.85 268.534 588.85 272.255C588.85 273.253 589.236 274.25 589.775 275.132L603.18 297.343V311.46C603.18 314.72 605.298 316.907 608.649 316.907C612.001 316.907 614.119 314.72 614.119 311.46V297.343L627.524 275.132C628.063 274.25 628.449 273.253 628.449 272.255C628.487 268.534 625.097 267.269 623.094 267.269Z" fill="#41A5DD"/>
<path fill-rule="evenodd" clip-rule="evenodd" d="M671.783 272.14C671.783 268.496 668.972 267.269 666.237 267.269C663.694 267.269 662.115 268.803 661.113 272.064L650.829 304.632H650.713L640.813 272.064C639.812 268.803 638.194 267.269 635.267 267.269C632.532 267.269 629.72 268.458 629.72 272.14C629.72 273.023 629.912 274.058 630.375 275.324L643.857 313.109C644.974 316.216 647.131 316.907 650.521 316.907C653.91 316.907 656.067 316.255 657.184 313.109L671.09 275.324C671.591 274.058 671.783 272.984 671.783 272.14Z" fill="#41A5DD"/>
<path fill-rule="evenodd" clip-rule="evenodd" d="M692.892 271.258C691.698 267.882 689.503 267.269 686.999 267.269H684.379C681.722 267.269 679.988 268.151 679.025 270.606L664.85 307.931C664.465 309.005 663.771 310.923 663.771 312.112C663.771 315.027 665.851 316.907 668.856 316.907C671.475 316.907 672.977 316.025 673.748 313.915L676.637 305.936H694.279L697.091 313.915C697.9 316.025 699.633 316.907 702.022 316.907C704.833 316.907 707.183 314.797 707.183 312.112C707.183 310.923 706.528 309.005 706.105 307.931L692.892 271.258ZM679.064 298.34L685.535 279.122H685.651L691.852 298.34H679.064Z" fill="#41A5DD"/>
<path fill-rule="evenodd" clip-rule="evenodd" d="M746.897 267.269C743.623 267.269 741.62 268.995 741.62 272.524V300.91H741.504L722.322 270.107C721.127 268.112 719.124 267.23 716.852 267.23C712.191 267.23 709.957 269.11 709.957 273.598V311.575C709.957 315.104 711.959 316.83 715.234 316.83C718.508 316.83 720.511 315.104 720.511 311.575V283.994H720.626L739.655 313.915C741.042 316.101 742.198 316.83 745.664 316.83C750.287 316.83 752.136 314.375 752.136 310.041V272.486C752.174 268.995 750.171 267.269 746.897 267.269Z" fill="#41A5DD"/>
<path d="M482.767 313.57C485.958 313.57 488.545 310.993 488.545 307.815C488.545 304.638 485.958 302.061 482.767 302.061C479.576 302.061 476.989 304.638 476.989 307.815C476.989 310.993 479.576 313.57 482.767 313.57Z" fill="#41A5DD"/>
<path fill-rule="evenodd" clip-rule="evenodd" d="M528.066 271.258C526.872 267.882 524.676 267.269 522.173 267.269H519.553C519.322 267.269 519.091 267.269 518.86 267.307H465.24C461.851 267.307 459.077 270.069 459.077 273.445V310.769C459.077 314.145 461.851 316.907 465.24 316.907H503.991V316.869H504.107C506.726 316.869 508.229 315.986 508.999 313.876L511.888 305.897H529.53L532.342 313.876C533.151 315.986 534.884 316.869 537.272 316.869C540.084 316.869 542.396 314.759 542.396 312.074C542.396 310.884 541.741 308.966 541.317 307.892L528.066 271.258ZM482.767 314.874C478.876 314.874 475.679 311.728 475.679 307.815C475.679 303.941 478.838 300.757 482.767 300.757C486.657 300.757 489.854 303.903 489.854 307.815C489.816 311.728 486.657 314.874 482.767 314.874ZM497.751 308.353H491.241C491.241 306.972 490.663 299.299 482.574 299.299C474.485 299.299 474.138 308.429 474.138 308.429H472.405C472.405 308.429 467.359 306.396 466.319 305.859C465.279 305.284 465.163 302.445 465.163 302.445V299.952H466.049V297.42C466.473 292.049 479.685 287.216 479.685 287.216C479.685 287.216 490.779 276.322 492.512 274.787C496.249 271.527 511.387 272.255 511.387 272.255L497.751 308.353ZM514.237 298.34L520.709 279.122H520.824L527.026 298.34H514.237Z" fill="#41A5DD"/>
<path fill-rule="evenodd" clip-rule="evenodd" d="M474.986 293.699C474.523 293.584 472.829 293.584 472.097 293.545C471.866 293.545 471.635 293.622 471.48 293.776C471.134 294.044 470.594 294.581 470.094 295.233C469.516 296 469.092 296.959 468.823 297.573C468.63 298.072 469.169 298.11 469.169 298.11L470.44 298.379C470.594 298.417 470.749 298.379 470.864 298.264L475.101 294.581C475.063 294.581 475.679 293.852 474.986 293.699Z" fill="#41A5DD"/>
<path fill-rule="evenodd" clip-rule="evenodd" d="M503.606 275.478C503.028 275.478 497.674 276.053 496.634 276.245C495.594 276.437 494.053 277.626 494.053 277.626L487.466 284.876V288.75L501.41 286.065C501.41 286.065 503.221 285.72 503.49 283.418C503.76 281.117 504.338 276.207 504.338 276.207C504.338 276.207 504.184 275.478 503.606 275.478Z" fill="#41A5DD"/>
</g>
<line x1="812" y1="267.5" x2="826" y2="267.5" stroke="black"/>
<line x1="812" y1="317.5" x2="826" y2="317.5" stroke="black"/>
<line x1="825.5" y1="318" x2="825.5" y2="268" stroke="black"/>
<path d="M838.17 293.33C838.394 292.845 838.669 292.467 838.996 292.196C839.323 291.921 839.722 291.783 840.193 291.783C840.342 291.783 840.485 291.799 840.62 291.832C840.76 291.865 840.884 291.916 840.991 291.986L840.9 292.917C840.872 293.034 840.802 293.092 840.69 293.092C840.625 293.092 840.529 293.078 840.403 293.05C840.277 293.022 840.135 293.008 839.976 293.008C839.752 293.008 839.551 293.041 839.374 293.106C839.201 293.171 839.045 293.269 838.905 293.4C838.77 293.526 838.646 293.685 838.534 293.876C838.427 294.063 838.329 294.277 838.24 294.52V299H836.987V291.909H837.701C837.836 291.909 837.93 291.935 837.981 291.986C838.032 292.037 838.067 292.126 838.086 292.252L838.17 293.33Z" fill="black"/>
<line x1="399" y1="268.5" x2="385" y2="268.5" stroke="black"/>
<line x1="399" y1="218.5" x2="385" y2="218.5" stroke="black"/>
<line x1="385.5" y1="218" x2="385.5" y2="268" stroke="black"/>
<path d="M321.126 247.048V248H315.75V247.048H317.899V240.209C317.899 240.004 317.906 239.796 317.92 239.586L316.135 241.119C316.074 241.17 316.014 241.203 315.953 241.217C315.892 241.226 315.836 241.226 315.785 241.217C315.734 241.208 315.685 241.189 315.638 241.161C315.596 241.133 315.563 241.103 315.54 241.07L315.148 240.531L318.137 237.948H319.152V247.048H321.126ZM330.121 242.988C330.121 243.865 330.025 244.626 329.834 245.27C329.647 245.909 329.391 246.439 329.064 246.859C328.737 247.279 328.35 247.592 327.902 247.797C327.459 248.002 326.983 248.105 326.474 248.105C325.961 248.105 325.482 248.002 325.039 247.797C324.6 247.592 324.218 247.279 323.891 246.859C323.564 246.439 323.308 245.909 323.121 245.27C322.934 244.626 322.841 243.865 322.841 242.988C322.841 242.111 322.934 241.35 323.121 240.706C323.308 240.062 323.564 239.53 323.891 239.11C324.218 238.685 324.6 238.37 325.039 238.165C325.482 237.96 325.961 237.857 326.474 237.857C326.983 237.857 327.459 237.96 327.902 238.165C328.35 238.37 328.737 238.685 329.064 239.11C329.391 239.53 329.647 240.062 329.834 240.706C330.025 241.35 330.121 242.111 330.121 242.988ZM328.826 242.988C328.826 242.223 328.761 241.581 328.63 241.063C328.504 240.54 328.331 240.12 328.112 239.803C327.897 239.486 327.648 239.259 327.363 239.124C327.078 238.984 326.782 238.914 326.474 238.914C326.166 238.914 325.87 238.984 325.585 239.124C325.3 239.259 325.051 239.486 324.836 239.803C324.621 240.12 324.449 240.54 324.318 241.063C324.192 241.581 324.129 242.223 324.129 242.988C324.129 243.753 324.192 244.395 324.318 244.913C324.449 245.431 324.621 245.849 324.836 246.166C325.051 246.483 325.3 246.712 325.585 246.852C325.87 246.987 326.166 247.055 326.474 247.055C326.782 247.055 327.078 246.987 327.363 246.852C327.648 246.712 327.897 246.483 328.112 246.166C328.331 245.849 328.504 245.431 328.63 244.913C328.761 244.395 328.826 243.753 328.826 242.988ZM338.542 242.988C338.542 243.865 338.447 244.626 338.255 245.27C338.069 245.909 337.812 246.439 337.485 246.859C337.159 247.279 336.771 247.592 336.323 247.797C335.88 248.002 335.404 248.105 334.895 248.105C334.382 248.105 333.904 248.002 333.46 247.797C333.022 247.592 332.639 247.279 332.312 246.859C331.986 246.439 331.729 245.909 331.542 245.27C331.356 244.626 331.262 243.865 331.262 242.988C331.262 242.111 331.356 241.35 331.542 240.706C331.729 240.062 331.986 239.53 332.312 239.11C332.639 238.685 333.022 238.37 333.46 238.165C333.904 237.96 334.382 237.857 334.895 237.857C335.404 237.857 335.88 237.96 336.323 238.165C336.771 238.37 337.159 238.685 337.485 239.11C337.812 239.53 338.069 240.062 338.255 240.706C338.447 241.35 338.542 242.111 338.542 242.988ZM337.247 242.988C337.247 242.223 337.182 241.581 337.051 241.063C336.925 240.54 336.753 240.12 336.533 239.803C336.319 239.486 336.069 239.259 335.784 239.124C335.5 238.984 335.203 238.914 334.895 238.914C334.587 238.914 334.291 238.984 334.006 239.124C333.722 239.259 333.472 239.486 333.257 239.803C333.043 240.12 332.87 240.54 332.739 241.063C332.613 241.581 332.55 242.223 332.55 242.988C332.55 243.753 332.613 244.395 332.739 244.913C332.87 245.431 333.043 245.849 333.257 246.166C333.472 246.483 333.722 246.712 334.006 246.852C334.291 246.987 334.587 247.055 334.895 247.055C335.203 247.055 335.5 246.987 335.784 246.852C336.069 246.712 336.319 246.483 336.533 246.166C336.753 245.849 336.925 245.431 337.051 244.913C337.182 244.395 337.247 243.753 337.247 242.988ZM344.317 240.391C344.317 240.783 344.257 241.135 344.135 241.448C344.014 241.756 343.851 242.017 343.645 242.232C343.445 242.442 343.209 242.603 342.938 242.715C342.672 242.827 342.39 242.883 342.091 242.883C341.779 242.883 341.487 242.827 341.216 242.715C340.946 242.603 340.71 242.442 340.509 242.232C340.313 242.017 340.159 241.756 340.047 241.448C339.935 241.135 339.879 240.783 339.879 240.391C339.879 239.99 339.935 239.633 340.047 239.32C340.159 239.007 340.313 238.744 340.509 238.529C340.71 238.314 340.946 238.151 341.216 238.039C341.487 237.927 341.779 237.871 342.091 237.871C342.409 237.871 342.703 237.927 342.973 238.039C343.244 238.151 343.48 238.314 343.68 238.529C343.881 238.744 344.037 239.007 344.149 239.32C344.261 239.633 344.317 239.99 344.317 240.391ZM343.351 240.391C343.351 240.083 343.319 239.822 343.253 239.607C343.188 239.392 343.097 239.217 342.98 239.082C342.868 238.942 342.735 238.842 342.581 238.781C342.427 238.72 342.264 238.69 342.091 238.69C341.919 238.69 341.758 238.72 341.608 238.781C341.459 238.842 341.328 238.942 341.216 239.082C341.104 239.217 341.016 239.392 340.95 239.607C340.885 239.822 340.852 240.083 340.852 240.391C340.852 240.694 340.885 240.953 340.95 241.168C341.016 241.378 341.104 241.551 341.216 241.686C341.328 241.817 341.459 241.912 341.608 241.973C341.758 242.029 341.919 242.057 342.091 242.057C342.264 242.057 342.427 242.029 342.581 241.973C342.735 241.912 342.868 241.817 342.98 241.686C343.097 241.551 343.188 241.378 343.253 241.168C343.319 240.953 343.351 240.694 343.351 240.391ZM347.866 238.179C347.913 238.123 347.967 238.074 348.027 238.032C348.093 237.99 348.179 237.969 348.286 237.969H349.189L341.853 247.797C341.811 247.858 341.758 247.907 341.692 247.944C341.627 247.981 341.548 248 341.454 248H340.537L347.866 238.179ZM349.868 245.634C349.868 246.026 349.808 246.376 349.686 246.684C349.565 246.992 349.402 247.253 349.196 247.468C348.996 247.678 348.76 247.839 348.489 247.951C348.223 248.063 347.941 248.119 347.642 248.119C347.325 248.119 347.031 248.063 346.76 247.951C346.494 247.839 346.261 247.678 346.06 247.468C345.864 247.253 345.71 246.992 345.598 246.684C345.486 246.376 345.43 246.026 345.43 245.634C345.43 245.233 345.486 244.876 345.598 244.563C345.71 244.246 345.864 243.98 346.06 243.765C346.261 243.55 346.494 243.387 346.76 243.275C347.031 243.163 347.325 243.107 347.642 243.107C347.955 243.107 348.247 243.163 348.517 243.275C348.793 243.387 349.028 243.55 349.224 243.765C349.425 243.98 349.581 244.246 349.693 244.563C349.81 244.876 349.868 245.233 349.868 245.634ZM348.902 245.634C348.902 245.326 348.87 245.065 348.804 244.85C348.739 244.631 348.648 244.453 348.531 244.318C348.419 244.183 348.286 244.085 348.132 244.024C347.978 243.963 347.815 243.933 347.642 243.933C347.47 243.933 347.306 243.963 347.152 244.024C347.003 244.085 346.872 244.183 346.76 244.318C346.648 244.453 346.56 244.631 346.494 244.85C346.434 245.065 346.403 245.326 346.403 245.634C346.403 245.937 346.434 246.194 346.494 246.404C346.56 246.614 346.648 246.787 346.76 246.922C346.872 247.053 347.003 247.148 347.152 247.209C347.306 247.265 347.47 247.293 347.642 247.293C347.815 247.293 347.978 247.265 348.132 247.209C348.286 247.148 348.419 247.053 348.531 246.922C348.648 246.787 348.739 246.614 348.804 246.404C348.87 246.194 348.902 245.937 348.902 245.634ZM358.646 240.797C359.164 240.797 359.631 240.883 360.046 241.056C360.461 241.229 360.816 241.474 361.11 241.791C361.404 242.108 361.628 242.493 361.782 242.946C361.941 243.394 362.02 243.896 362.02 244.451C362.02 245.011 361.941 245.515 361.782 245.963C361.628 246.411 361.404 246.794 361.11 247.111C360.816 247.428 360.461 247.673 360.046 247.846C359.631 248.014 359.164 248.098 358.646 248.098C358.123 248.098 357.652 248.014 357.232 247.846C356.817 247.673 356.462 247.428 356.168 247.111C355.874 246.794 355.648 246.411 355.489 245.963C355.335 245.515 355.258 245.011 355.258 244.451C355.258 243.896 355.335 243.394 355.489 242.946C355.648 242.493 355.874 242.108 356.168 241.791C356.462 241.474 356.817 241.229 357.232 241.056C357.652 240.883 358.123 240.797 358.646 240.797ZM358.646 247.125C359.346 247.125 359.869 246.892 360.214 246.425C360.559 245.954 360.732 245.298 360.732 244.458C360.732 243.613 360.559 242.955 360.214 242.484C359.869 242.013 359.346 241.777 358.646 241.777C358.291 241.777 357.981 241.838 357.715 241.959C357.454 242.08 357.234 242.255 357.057 242.484C356.884 242.713 356.754 242.995 356.665 243.331C356.581 243.662 356.539 244.038 356.539 244.458C356.539 245.298 356.712 245.954 357.057 246.425C357.407 246.892 357.937 247.125 358.646 247.125ZM364.212 248V241.973L363.428 241.882C363.33 241.859 363.248 241.824 363.183 241.777C363.122 241.726 363.092 241.653 363.092 241.56V241.049H364.212V240.363C364.212 239.957 364.268 239.598 364.38 239.285C364.497 238.968 364.66 238.702 364.87 238.487C365.085 238.268 365.341 238.102 365.64 237.99C365.939 237.878 366.275 237.822 366.648 237.822C366.965 237.822 367.257 237.869 367.523 237.962L367.495 238.585C367.486 238.697 367.423 238.758 367.306 238.767C367.194 238.776 367.042 238.781 366.851 238.781C366.636 238.781 366.44 238.809 366.263 238.865C366.09 238.921 365.941 239.012 365.815 239.138C365.689 239.264 365.591 239.43 365.521 239.635C365.456 239.84 365.423 240.095 365.423 240.398V241.049H367.467V241.952H365.465V248H364.212ZM373.763 242.33C373.987 241.845 374.263 241.467 374.589 241.196C374.916 240.921 375.315 240.783 375.786 240.783C375.936 240.783 376.078 240.799 376.213 240.832C376.353 240.865 376.477 240.916 376.584 240.986L376.493 241.917C376.465 242.034 376.395 242.092 376.283 242.092C376.218 242.092 376.122 242.078 375.996 242.05C375.87 242.022 375.728 242.008 375.569 242.008C375.345 242.008 375.145 242.041 374.967 242.106C374.795 242.171 374.638 242.269 374.498 242.4C374.363 242.526 374.239 242.685 374.127 242.876C374.02 243.063 373.922 243.277 373.833 243.52V248H372.58V240.909H373.294C373.43 240.909 373.523 240.935 373.574 240.986C373.626 241.037 373.661 241.126 373.679 241.252L373.763 242.33Z" fill="black"/>
<line x1="459.5" y1="418" x2="459.5" y2="432" stroke="black"/>
<line x1="409.5" y1="418" x2="409.5" y2="432" stroke="black"/>
<line x1="409" y1="431.5" x2="459" y2="431.5" stroke="black"/>
<path d="M409.126 455.048V456H403.75V455.048H405.899V448.209C405.899 448.004 405.906 447.796 405.92 447.586L404.135 449.119C404.074 449.17 404.014 449.203 403.953 449.217C403.892 449.226 403.836 449.226 403.785 449.217C403.734 449.208 403.685 449.189 403.638 449.161C403.596 449.133 403.563 449.103 403.54 449.07L403.148 448.531L406.137 445.948H407.152V455.048H409.126ZM418.121 450.988C418.121 451.865 418.025 452.626 417.834 453.27C417.647 453.909 417.391 454.439 417.064 454.859C416.737 455.279 416.35 455.592 415.902 455.797C415.459 456.002 414.983 456.105 414.474 456.105C413.961 456.105 413.482 456.002 413.039 455.797C412.6 455.592 412.218 455.279 411.891 454.859C411.564 454.439 411.308 453.909 411.121 453.27C410.934 452.626 410.841 451.865 410.841 450.988C410.841 450.111 410.934 449.35 411.121 448.706C411.308 448.062 411.564 447.53 411.891 447.11C412.218 446.685 412.6 446.37 413.039 446.165C413.482 445.96 413.961 445.857 414.474 445.857C414.983 445.857 415.459 445.96 415.902 446.165C416.35 446.37 416.737 446.685 417.064 447.11C417.391 447.53 417.647 448.062 417.834 448.706C418.025 449.35 418.121 450.111 418.121 450.988ZM416.826 450.988C416.826 450.223 416.761 449.581 416.63 449.063C416.504 448.54 416.331 448.12 416.112 447.803C415.897 447.486 415.648 447.259 415.363 447.124C415.078 446.984 414.782 446.914 414.474 446.914C414.166 446.914 413.87 446.984 413.585 447.124C413.3 447.259 413.051 447.486 412.836 447.803C412.621 448.12 412.449 448.54 412.318 449.063C412.192 449.581 412.129 450.223 412.129 450.988C412.129 451.753 412.192 452.395 412.318 452.913C412.449 453.431 412.621 453.849 412.836 454.166C413.051 454.483 413.3 454.712 413.585 454.852C413.87 454.987 414.166 455.055 414.474 455.055C414.782 455.055 415.078 454.987 415.363 454.852C415.648 454.712 415.897 454.483 416.112 454.166C416.331 453.849 416.504 453.431 416.63 452.913C416.761 452.395 416.826 451.753 416.826 450.988ZM426.542 450.988C426.542 451.865 426.447 452.626 426.255 453.27C426.069 453.909 425.812 454.439 425.485 454.859C425.159 455.279 424.771 455.592 424.323 455.797C423.88 456.002 423.404 456.105 422.895 456.105C422.382 456.105 421.904 456.002 421.46 455.797C421.022 455.592 420.639 455.279 420.312 454.859C419.986 454.439 419.729 453.909 419.542 453.27C419.356 452.626 419.262 451.865 419.262 450.988C419.262 450.111 419.356 449.35 419.542 448.706C419.729 448.062 419.986 447.53 420.312 447.11C420.639 446.685 421.022 446.37 421.46 446.165C421.904 445.96 422.382 445.857 422.895 445.857C423.404 445.857 423.88 445.96 424.323 446.165C424.771 446.37 425.159 446.685 425.485 447.11C425.812 447.53 426.069 448.062 426.255 448.706C426.447 449.35 426.542 450.111 426.542 450.988ZM425.247 450.988C425.247 450.223 425.182 449.581 425.051 449.063C424.925 448.54 424.753 448.12 424.533 447.803C424.319 447.486 424.069 447.259 423.784 447.124C423.5 446.984 423.203 446.914 422.895 446.914C422.587 446.914 422.291 446.984 422.006 447.124C421.722 447.259 421.472 447.486 421.257 447.803C421.043 448.12 420.87 448.54 420.739 449.063C420.613 449.581 420.55 450.223 420.55 450.988C420.55 451.753 420.613 452.395 420.739 452.913C420.87 453.431 421.043 453.849 421.257 454.166C421.472 454.483 421.722 454.712 422.006 454.852C422.291 454.987 422.587 455.055 422.895 455.055C423.203 455.055 423.5 454.987 423.784 454.852C424.069 454.712 424.319 454.483 424.533 454.166C424.753 453.849 424.925 453.431 425.051 452.913C425.182 452.395 425.247 451.753 425.247 450.988ZM432.317 448.391C432.317 448.783 432.257 449.135 432.135 449.448C432.014 449.756 431.851 450.017 431.645 450.232C431.445 450.442 431.209 450.603 430.938 450.715C430.672 450.827 430.39 450.883 430.091 450.883C429.779 450.883 429.487 450.827 429.216 450.715C428.946 450.603 428.71 450.442 428.509 450.232C428.313 450.017 428.159 449.756 428.047 449.448C427.935 449.135 427.879 448.783 427.879 448.391C427.879 447.99 427.935 447.633 428.047 447.32C428.159 447.007 428.313 446.744 428.509 446.529C428.71 446.314 428.946 446.151 429.216 446.039C429.487 445.927 429.779 445.871 430.091 445.871C430.409 445.871 430.703 445.927 430.973 446.039C431.244 446.151 431.48 446.314 431.68 446.529C431.881 446.744 432.037 447.007 432.149 447.32C432.261 447.633 432.317 447.99 432.317 448.391ZM431.351 448.391C431.351 448.083 431.319 447.822 431.253 447.607C431.188 447.392 431.097 447.217 430.98 447.082C430.868 446.942 430.735 446.842 430.581 446.781C430.427 446.72 430.264 446.69 430.091 446.69C429.919 446.69 429.758 446.72 429.608 446.781C429.459 446.842 429.328 446.942 429.216 447.082C429.104 447.217 429.016 447.392 428.95 447.607C428.885 447.822 428.852 448.083 428.852 448.391C428.852 448.694 428.885 448.953 428.95 449.168C429.016 449.378 429.104 449.551 429.216 449.686C429.328 449.817 429.459 449.912 429.608 449.973C429.758 450.029 429.919 450.057 430.091 450.057C430.264 450.057 430.427 450.029 430.581 449.973C430.735 449.912 430.868 449.817 430.98 449.686C431.097 449.551 431.188 449.378 431.253 449.168C431.319 448.953 431.351 448.694 431.351 448.391ZM435.866 446.179C435.913 446.123 435.967 446.074 436.027 446.032C436.093 445.99 436.179 445.969 436.286 445.969H437.189L429.853 455.797C429.811 455.858 429.758 455.907 429.692 455.944C429.627 455.981 429.548 456 429.454 456H428.537L435.866 446.179ZM437.868 453.634C437.868 454.026 437.808 454.376 437.686 454.684C437.565 454.992 437.402 455.253 437.196 455.468C436.996 455.678 436.76 455.839 436.489 455.951C436.223 456.063 435.941 456.119 435.642 456.119C435.325 456.119 435.031 456.063 434.76 455.951C434.494 455.839 434.261 455.678 434.06 455.468C433.864 455.253 433.71 454.992 433.598 454.684C433.486 454.376 433.43 454.026 433.43 453.634C433.43 453.233 433.486 452.876 433.598 452.563C433.71 452.246 433.864 451.98 434.06 451.765C434.261 451.55 434.494 451.387 434.76 451.275C435.031 451.163 435.325 451.107 435.642 451.107C435.955 451.107 436.247 451.163 436.517 451.275C436.793 451.387 437.028 451.55 437.224 451.765C437.425 451.98 437.581 452.246 437.693 452.563C437.81 452.876 437.868 453.233 437.868 453.634ZM436.902 453.634C436.902 453.326 436.87 453.065 436.804 452.85C436.739 452.631 436.648 452.453 436.531 452.318C436.419 452.183 436.286 452.085 436.132 452.024C435.978 451.963 435.815 451.933 435.642 451.933C435.47 451.933 435.306 451.963 435.152 452.024C435.003 452.085 434.872 452.183 434.76 452.318C434.648 452.453 434.56 452.631 434.494 452.85C434.434 453.065 434.403 453.326 434.403 453.634C434.403 453.937 434.434 454.194 434.494 454.404C434.56 454.614 434.648 454.787 434.76 454.922C434.872 455.053 435.003 455.148 435.152 455.209C435.306 455.265 435.47 455.293 435.642 455.293C435.815 455.293 435.978 455.265 436.132 455.209C436.286 455.148 436.419 455.053 436.531 454.922C436.648 454.787 436.739 454.614 436.804 454.404C436.87 454.194 436.902 453.937 436.902 453.634ZM446.646 448.797C447.164 448.797 447.631 448.883 448.046 449.056C448.461 449.229 448.816 449.474 449.11 449.791C449.404 450.108 449.628 450.493 449.782 450.946C449.941 451.394 450.02 451.896 450.02 452.451C450.02 453.011 449.941 453.515 449.782 453.963C449.628 454.411 449.404 454.794 449.11 455.111C448.816 455.428 448.461 455.673 448.046 455.846C447.631 456.014 447.164 456.098 446.646 456.098C446.123 456.098 445.652 456.014 445.232 455.846C444.817 455.673 444.462 455.428 444.168 455.111C443.874 454.794 443.648 454.411 443.489 453.963C443.335 453.515 443.258 453.011 443.258 452.451C443.258 451.896 443.335 451.394 443.489 450.946C443.648 450.493 443.874 450.108 444.168 449.791C444.462 449.474 444.817 449.229 445.232 449.056C445.652 448.883 446.123 448.797 446.646 448.797ZM446.646 455.125C447.346 455.125 447.869 454.892 448.214 454.425C448.559 453.954 448.732 453.298 448.732 452.458C448.732 451.613 448.559 450.955 448.214 450.484C447.869 450.013 447.346 449.777 446.646 449.777C446.291 449.777 445.981 449.838 445.715 449.959C445.454 450.08 445.234 450.255 445.057 450.484C444.884 450.713 444.754 450.995 444.665 451.331C444.581 451.662 444.539 452.038 444.539 452.458C444.539 453.298 444.712 453.954 445.057 454.425C445.407 454.892 445.937 455.125 446.646 455.125ZM452.212 456V449.973L451.428 449.882C451.33 449.859 451.248 449.824 451.183 449.777C451.122 449.726 451.092 449.653 451.092 449.56V449.049H452.212V448.363C452.212 447.957 452.268 447.598 452.38 447.285C452.497 446.968 452.66 446.702 452.87 446.487C453.085 446.268 453.341 446.102 453.64 445.99C453.939 445.878 454.275 445.822 454.648 445.822C454.965 445.822 455.257 445.869 455.523 445.962L455.495 446.585C455.486 446.697 455.423 446.758 455.306 446.767C455.194 446.776 455.042 446.781 454.851 446.781C454.636 446.781 454.44 446.809 454.263 446.865C454.09 446.921 453.941 447.012 453.815 447.138C453.689 447.264 453.591 447.43 453.521 447.635C453.456 447.84 453.423 448.095 453.423 448.398V449.049H455.467V449.952H453.465V456H452.212ZM461.763 450.33C461.987 449.845 462.263 449.467 462.589 449.196C462.916 448.921 463.315 448.783 463.786 448.783C463.936 448.783 464.078 448.799 464.213 448.832C464.353 448.865 464.477 448.916 464.584 448.986L464.493 449.917C464.465 450.034 464.395 450.092 464.283 450.092C464.218 450.092 464.122 450.078 463.996 450.05C463.87 450.022 463.728 450.008 463.569 450.008C463.345 450.008 463.145 450.041 462.967 450.106C462.795 450.171 462.638 450.269 462.498 450.4C462.363 450.526 462.239 450.685 462.127 450.876C462.02 451.063 461.922 451.277 461.833 451.52V456H460.58V448.909H461.294C461.43 448.909 461.523 448.935 461.574 448.986C461.626 449.037 461.661 449.126 461.679 449.252L461.763 450.33Z" fill="black"/>
<line x1="399" y1="337.5" x2="385" y2="337.5" stroke="black"/>
<line x1="399" y1="318.5" x2="385" y2="318.5" stroke="black"/>
<line x1="385.5" y1="318" x2="385.5" y2="337" stroke="black"/>
<path d="M325.11 329.381V325.244C325.11 325.123 325.115 324.99 325.124 324.845C325.133 324.7 325.147 324.553 325.166 324.404L321.512 329.381H325.11ZM327.721 329.381V330.095C327.721 330.17 327.698 330.233 327.651 330.284C327.609 330.335 327.541 330.361 327.448 330.361H326.202V333H325.11V330.361H320.658C320.565 330.361 320.483 330.335 320.413 330.284C320.348 330.228 320.306 330.16 320.287 330.081L320.161 329.444L325.04 322.969H326.202V329.381H327.721ZM336.121 327.988C336.121 328.865 336.025 329.626 335.834 330.27C335.647 330.909 335.391 331.439 335.064 331.859C334.737 332.279 334.35 332.592 333.902 332.797C333.459 333.002 332.983 333.105 332.474 333.105C331.961 333.105 331.482 333.002 331.039 332.797C330.6 332.592 330.218 332.279 329.891 331.859C329.564 331.439 329.308 330.909 329.121 330.27C328.934 329.626 328.841 328.865 328.841 327.988C328.841 327.111 328.934 326.35 329.121 325.706C329.308 325.062 329.564 324.53 329.891 324.11C330.218 323.685 330.6 323.37 331.039 323.165C331.482 322.96 331.961 322.857 332.474 322.857C332.983 322.857 333.459 322.96 333.902 323.165C334.35 323.37 334.737 323.685 335.064 324.11C335.391 324.53 335.647 325.062 335.834 325.706C336.025 326.35 336.121 327.111 336.121 327.988ZM334.826 327.988C334.826 327.223 334.761 326.581 334.63 326.063C334.504 325.54 334.331 325.12 334.112 324.803C333.897 324.486 333.648 324.259 333.363 324.124C333.078 323.984 332.782 323.914 332.474 323.914C332.166 323.914 331.87 323.984 331.585 324.124C331.3 324.259 331.051 324.486 330.836 324.803C330.621 325.12 330.449 325.54 330.318 326.063C330.192 326.581 330.129 327.223 330.129 327.988C330.129 328.753 330.192 329.395 330.318 329.913C330.449 330.431 330.621 330.849 330.836 331.166C331.051 331.483 331.3 331.712 331.585 331.852C331.87 331.987 332.166 332.055 332.474 332.055C332.782 332.055 333.078 331.987 333.363 331.852C333.648 331.712 333.897 331.483 334.112 331.166C334.331 330.849 334.504 330.431 334.63 329.913C334.761 329.395 334.826 328.753 334.826 327.988ZM341.896 325.391C341.896 325.783 341.836 326.135 341.714 326.448C341.593 326.756 341.43 327.017 341.224 327.232C341.024 327.442 340.788 327.603 340.517 327.715C340.251 327.827 339.969 327.883 339.67 327.883C339.358 327.883 339.066 327.827 338.795 327.715C338.525 327.603 338.289 327.442 338.088 327.232C337.892 327.017 337.738 326.756 337.626 326.448C337.514 326.135 337.458 325.783 337.458 325.391C337.458 324.99 337.514 324.633 337.626 324.32C337.738 324.007 337.892 323.744 338.088 323.529C338.289 323.314 338.525 323.151 338.795 323.039C339.066 322.927 339.358 322.871 339.67 322.871C339.988 322.871 340.282 322.927 340.552 323.039C340.823 323.151 341.059 323.314 341.259 323.529C341.46 323.744 341.616 324.007 341.728 324.32C341.84 324.633 341.896 324.99 341.896 325.391ZM340.93 325.391C340.93 325.083 340.898 324.822 340.832 324.607C340.767 324.392 340.676 324.217 340.559 324.082C340.447 323.942 340.314 323.842 340.16 323.781C340.006 323.72 339.843 323.69 339.67 323.69C339.498 323.69 339.337 323.72 339.187 323.781C339.038 323.842 338.907 323.942 338.795 324.082C338.683 324.217 338.595 324.392 338.529 324.607C338.464 324.822 338.431 325.083 338.431 325.391C338.431 325.694 338.464 325.953 338.529 326.168C338.595 326.378 338.683 326.551 338.795 326.686C338.907 326.817 339.038 326.912 339.187 326.973C339.337 327.029 339.498 327.057 339.67 327.057C339.843 327.057 340.006 327.029 340.16 326.973C340.314 326.912 340.447 326.817 340.559 326.686C340.676 326.551 340.767 326.378 340.832 326.168C340.898 325.953 340.93 325.694 340.93 325.391ZM345.445 323.179C345.492 323.123 345.546 323.074 345.606 323.032C345.672 322.99 345.758 322.969 345.865 322.969H346.768L339.432 332.797C339.39 332.858 339.337 332.907 339.271 332.944C339.206 332.981 339.127 333 339.033 333H338.116L345.445 323.179ZM347.447 330.634C347.447 331.026 347.387 331.376 347.265 331.684C347.144 331.992 346.981 332.253 346.775 332.468C346.575 332.678 346.339 332.839 346.068 332.951C345.802 333.063 345.52 333.119 345.221 333.119C344.904 333.119 344.61 333.063 344.339 332.951C344.073 332.839 343.84 332.678 343.639 332.468C343.443 332.253 343.289 331.992 343.177 331.684C343.065 331.376 343.009 331.026 343.009 330.634C343.009 330.233 343.065 329.876 343.177 329.563C343.289 329.246 343.443 328.98 343.639 328.765C343.84 328.55 344.073 328.387 344.339 328.275C344.61 328.163 344.904 328.107 345.221 328.107C345.534 328.107 345.826 328.163 346.096 328.275C346.372 328.387 346.607 328.55 346.803 328.765C347.004 328.98 347.16 329.246 347.272 329.563C347.389 329.876 347.447 330.233 347.447 330.634ZM346.481 330.634C346.481 330.326 346.449 330.065 346.383 329.85C346.318 329.631 346.227 329.453 346.11 329.318C345.998 329.183 345.865 329.085 345.711 329.024C345.557 328.963 345.394 328.933 345.221 328.933C345.049 328.933 344.885 328.963 344.731 329.024C344.582 329.085 344.451 329.183 344.339 329.318C344.227 329.453 344.139 329.631 344.073 329.85C344.013 330.065 343.982 330.326 343.982 330.634C343.982 330.937 344.013 331.194 344.073 331.404C344.139 331.614 344.227 331.787 344.339 331.922C344.451 332.053 344.582 332.148 344.731 332.209C344.885 332.265 345.049 332.293 345.221 332.293C345.394 332.293 345.557 332.265 345.711 332.209C345.865 332.148 345.998 332.053 346.11 331.922C346.227 331.787 346.318 331.614 346.383 331.404C346.449 331.194 346.481 330.937 346.481 330.634ZM356.225 325.797C356.743 325.797 357.209 325.883 357.625 326.056C358.04 326.229 358.395 326.474 358.689 326.791C358.983 327.108 359.207 327.493 359.361 327.946C359.519 328.394 359.599 328.896 359.599 329.451C359.599 330.011 359.519 330.515 359.361 330.963C359.207 331.411 358.983 331.794 358.689 332.111C358.395 332.428 358.04 332.673 357.625 332.846C357.209 333.014 356.743 333.098 356.225 333.098C355.702 333.098 355.231 333.014 354.811 332.846C354.395 332.673 354.041 332.428 353.747 332.111C353.453 331.794 353.226 331.411 353.068 330.963C352.914 330.515 352.837 330.011 352.837 329.451C352.837 328.896 352.914 328.394 353.068 327.946C353.226 327.493 353.453 327.108 353.747 326.791C354.041 326.474 354.395 326.229 354.811 326.056C355.231 325.883 355.702 325.797 356.225 325.797ZM356.225 332.125C356.925 332.125 357.447 331.892 357.793 331.425C358.138 330.954 358.311 330.298 358.311 329.458C358.311 328.613 358.138 327.955 357.793 327.484C357.447 327.013 356.925 326.777 356.225 326.777C355.87 326.777 355.56 326.838 355.294 326.959C355.032 327.08 354.813 327.255 354.636 327.484C354.463 327.713 354.332 327.995 354.244 328.331C354.16 328.662 354.118 329.038 354.118 329.458C354.118 330.298 354.29 330.954 354.636 331.425C354.986 331.892 355.515 332.125 356.225 332.125ZM361.791 333V326.973L361.007 326.882C360.909 326.859 360.827 326.824 360.762 326.777C360.701 326.726 360.671 326.653 360.671 326.56V326.049H361.791V325.363C361.791 324.957 361.847 324.598 361.959 324.285C362.075 323.968 362.239 323.702 362.449 323.487C362.663 323.268 362.92 323.102 363.219 322.99C363.517 322.878 363.853 322.822 364.227 322.822C364.544 322.822 364.836 322.869 365.102 322.962L365.074 323.585C365.064 323.697 365.001 323.758 364.885 323.767C364.773 323.776 364.621 323.781 364.43 323.781C364.215 323.781 364.019 323.809 363.842 323.865C363.669 323.921 363.52 324.012 363.394 324.138C363.268 324.264 363.17 324.43 363.1 324.635C363.034 324.84 363.002 325.095 363.002 325.398V326.049H365.046V326.952H363.044V333H361.791ZM371.342 327.33C371.566 326.845 371.842 326.467 372.168 326.196C372.495 325.921 372.894 325.783 373.365 325.783C373.515 325.783 373.657 325.799 373.792 325.832C373.932 325.865 374.056 325.916 374.163 325.986L374.072 326.917C374.044 327.034 373.974 327.092 373.862 327.092C373.797 327.092 373.701 327.078 373.575 327.05C373.449 327.022 373.307 327.008 373.148 327.008C372.924 327.008 372.724 327.041 372.546 327.106C372.374 327.171 372.217 327.269 372.077 327.4C371.942 327.526 371.818 327.685 371.706 327.876C371.599 328.063 371.501 328.277 371.412 328.52V333H370.159V325.909H370.873C371.009 325.909 371.102 325.935 371.153 325.986C371.205 326.037 371.24 326.126 371.258 326.252L371.342 327.33Z" fill="black"/>
<path d="M475.413 338.435V354.043H473.391V342.935C473.391 342.768 473.395 342.591 473.402 342.402C473.417 342.214 473.431 342.022 473.446 341.826L468.25 351.359C468.069 351.714 467.79 351.891 467.413 351.891H467.087C466.71 351.891 466.435 351.714 466.261 351.359L460.967 341.793C461.011 342.199 461.033 342.58 461.033 342.935V354.043H459V338.435H460.717C460.92 338.435 461.076 338.457 461.185 338.5C461.301 338.536 461.409 338.645 461.511 338.826L466.728 348.174C466.83 348.362 466.924 348.562 467.011 348.772C467.098 348.982 467.181 349.192 467.261 349.402C467.413 348.975 467.591 348.562 467.793 348.163L472.913 338.826C473.007 338.645 473.109 338.536 473.217 338.5C473.333 338.457 473.493 338.435 473.696 338.435H475.413Z" fill="#41A5DD"/>
<path d="M483.641 342.826C484.453 342.826 485.185 342.96 485.837 343.228C486.496 343.489 487.054 343.87 487.511 344.37C487.974 344.862 488.33 345.46 488.576 346.163C488.822 346.859 488.945 347.641 488.945 348.511C488.945 349.38 488.822 350.167 488.576 350.87C488.33 351.572 487.974 352.17 487.511 352.663C487.054 353.156 486.496 353.536 485.837 353.804C485.185 354.065 484.453 354.196 483.641 354.196C482.822 354.196 482.083 354.065 481.424 353.804C480.772 353.536 480.214 353.156 479.75 352.663C479.286 352.17 478.927 351.572 478.674 350.87C478.427 350.167 478.304 349.38 478.304 348.511C478.304 347.641 478.427 346.859 478.674 346.163C478.927 345.46 479.286 344.862 479.75 344.37C480.214 343.87 480.772 343.489 481.424 343.228C482.083 342.96 482.822 342.826 483.641 342.826ZM483.641 352.543C484.685 352.543 485.464 352.192 485.978 351.489C486.493 350.786 486.75 349.797 486.75 348.522C486.75 347.246 486.493 346.257 485.978 345.554C485.464 344.844 484.685 344.489 483.641 344.489C482.583 344.489 481.793 344.844 481.272 345.554C480.757 346.257 480.5 347.246 480.5 348.522C480.5 349.797 480.757 350.786 481.272 351.489C481.793 352.192 482.583 352.543 483.641 352.543Z" fill="#41A5DD"/>
<path d="M501.015 343L496.537 354.043H494.623L490.145 343H491.895C492.062 343 492.2 343.04 492.308 343.12C492.417 343.199 492.489 343.301 492.526 343.424L495.167 350.207C495.261 350.489 495.341 350.772 495.406 351.054C495.479 351.33 495.544 351.605 495.602 351.88C495.66 351.605 495.725 351.33 495.797 351.054C495.87 350.779 495.957 350.496 496.058 350.207L498.732 343.424C498.776 343.301 498.852 343.199 498.96 343.12C499.069 343.04 499.2 343 499.352 343H501.015Z" fill="#41A5DD"/>
<path d="M510.132 347.293C510.132 346.873 510.071 346.486 509.948 346.13C509.832 345.775 509.658 345.467 509.426 345.207C509.194 344.946 508.911 344.743 508.578 344.598C508.245 344.453 507.861 344.38 507.426 344.38C506.534 344.38 505.832 344.638 505.317 345.152C504.81 345.667 504.487 346.38 504.35 347.293H510.132ZM511.882 352.467C511.621 352.772 511.321 353.036 510.98 353.261C510.64 353.478 510.277 353.656 509.893 353.793C509.509 353.931 509.111 354.033 508.698 354.098C508.292 354.163 507.89 354.196 507.491 354.196C506.73 354.196 506.024 354.069 505.371 353.815C504.726 353.554 504.165 353.178 503.687 352.685C503.216 352.185 502.846 351.569 502.578 350.837C502.317 350.098 502.187 349.25 502.187 348.293C502.187 347.525 502.306 346.812 502.545 346.152C502.784 345.486 503.125 344.906 503.567 344.413C504.016 343.92 504.563 343.533 505.208 343.25C505.853 342.967 506.578 342.826 507.382 342.826C508.056 342.826 508.676 342.938 509.241 343.163C509.813 343.38 510.306 343.699 510.719 344.12C511.132 344.54 511.455 345.058 511.687 345.674C511.926 346.29 512.045 346.993 512.045 347.783C512.045 348.109 512.009 348.33 511.937 348.446C511.864 348.554 511.73 348.609 511.534 348.609H504.295C504.317 349.268 504.411 349.844 504.578 350.337C504.745 350.822 504.973 351.228 505.263 351.554C505.56 351.88 505.911 352.123 506.317 352.283C506.723 352.442 507.176 352.522 507.676 352.522C508.147 352.522 508.553 352.467 508.893 352.359C509.241 352.25 509.538 352.134 509.784 352.011C510.038 351.88 510.248 351.761 510.415 351.652C510.589 351.543 510.741 351.489 510.871 351.489C511.045 351.489 511.179 351.554 511.274 351.685L511.882 352.467Z" fill="#41A5DD"/>
<path d="M526.626 349.141C525.764 349.17 525.032 349.239 524.431 349.348C523.829 349.449 523.34 349.587 522.963 349.761C522.586 349.935 522.315 350.141 522.148 350.38C521.981 350.612 521.898 350.873 521.898 351.163C521.898 351.438 521.942 351.678 522.029 351.88C522.123 352.076 522.246 352.239 522.398 352.37C522.558 352.493 522.742 352.583 522.952 352.641C523.163 352.699 523.391 352.728 523.637 352.728C523.963 352.728 524.26 352.696 524.529 352.63C524.804 352.565 525.061 352.475 525.3 352.359C525.539 352.236 525.768 352.087 525.985 351.913C526.202 351.739 526.416 351.54 526.626 351.315V349.141ZM520.409 344.543C521.025 343.957 521.692 343.518 522.409 343.228C523.134 342.938 523.927 342.793 524.789 342.793C525.42 342.793 525.978 342.899 526.463 343.109C526.949 343.312 527.358 343.598 527.692 343.967C528.025 344.337 528.275 344.779 528.442 345.293C528.615 345.808 528.702 346.377 528.702 347V354.043H527.757C527.547 354.043 527.387 354.011 527.279 353.946C527.17 353.873 527.083 353.743 527.018 353.554L526.789 352.587C526.507 352.848 526.228 353.08 525.952 353.283C525.677 353.478 525.387 353.649 525.083 353.793C524.786 353.931 524.467 354.036 524.126 354.109C523.786 354.181 523.409 354.217 522.996 354.217C522.561 354.217 522.152 354.159 521.768 354.043C521.391 353.92 521.061 353.736 520.779 353.489C520.496 353.243 520.271 352.935 520.105 352.565C519.945 352.196 519.865 351.764 519.865 351.272C519.865 350.837 519.981 350.42 520.213 350.022C520.452 349.616 520.836 349.254 521.365 348.935C521.902 348.616 522.597 348.355 523.452 348.152C524.315 347.949 525.373 347.833 526.626 347.804V347C526.626 346.167 526.449 345.543 526.094 345.13C525.739 344.717 525.217 344.511 524.529 344.511C524.065 344.511 523.673 344.569 523.355 344.685C523.043 344.801 522.771 344.931 522.539 345.076C522.315 345.214 522.115 345.341 521.942 345.457C521.775 345.572 521.601 345.63 521.42 345.63C521.275 345.63 521.148 345.591 521.039 345.511C520.938 345.431 520.855 345.337 520.789 345.228L520.409 344.543Z" fill="#41A5DD"/>
<path d="M533.964 344.533C534.203 344.279 534.453 344.047 534.714 343.837C534.975 343.627 535.25 343.449 535.54 343.304C535.837 343.152 536.152 343.036 536.486 342.957C536.826 342.87 537.188 342.826 537.573 342.826C538.181 342.826 538.714 342.928 539.17 343.13C539.634 343.333 540.022 343.62 540.333 343.989C540.645 344.351 540.88 344.79 541.04 345.304C541.199 345.819 541.279 346.388 541.279 347.011V354.043H539.149V347.011C539.149 346.221 538.967 345.609 538.605 345.174C538.243 344.732 537.688 344.511 536.942 344.511C536.399 344.511 535.888 344.641 535.409 344.902C534.938 345.156 534.5 345.504 534.094 345.946V354.043H531.975V343H533.246C533.544 343 533.728 343.141 533.801 343.424L533.964 344.533Z" fill="#41A5DD"/>
<path d="M553.95 343L547.82 357.25C547.755 357.409 547.668 357.533 547.559 357.62C547.45 357.707 547.291 357.75 547.081 357.75H545.505L547.526 353.348L542.994 343H544.842C545.023 343 545.164 343.043 545.265 343.13C545.367 343.217 545.439 343.315 545.483 343.424L548.287 350.054C548.345 350.221 548.4 350.391 548.45 350.565C548.508 350.732 548.555 350.899 548.592 351.065C548.642 350.891 548.697 350.721 548.755 350.554C548.813 350.38 548.874 350.21 548.939 350.043L551.646 343.424C551.697 343.301 551.776 343.199 551.885 343.12C551.994 343.04 552.117 343 552.255 343H553.95Z" fill="#41A5DD"/>
<path d="M559.462 354.217C558.571 354.217 557.883 353.967 557.397 353.467C556.919 352.967 556.68 352.254 556.68 351.326V344.717H555.397C555.274 344.717 555.169 344.681 555.082 344.609C555.002 344.529 554.962 344.413 554.962 344.261V343.402L556.756 343.152L557.234 339.859C557.263 339.736 557.317 339.641 557.397 339.576C557.484 339.504 557.593 339.467 557.723 339.467H558.799V343.174H561.93V344.717H558.799V351.185C558.799 351.62 558.904 351.946 559.114 352.163C559.332 352.373 559.607 352.478 559.941 352.478C560.136 352.478 560.303 352.453 560.441 352.402C560.585 352.351 560.709 352.297 560.81 352.239C560.912 352.174 560.999 352.116 561.071 352.065C561.143 352.014 561.209 351.989 561.267 351.989C561.339 351.989 561.393 352.007 561.43 352.043C561.473 352.072 561.517 352.123 561.56 352.196L562.191 353.217C561.843 353.536 561.43 353.783 560.951 353.957C560.473 354.13 559.977 354.217 559.462 354.217Z" fill="#41A5DD"/>
<path d="M566.436 344.402C566.9 343.931 567.411 343.551 567.969 343.261C568.534 342.971 569.183 342.826 569.915 342.826C570.523 342.826 571.056 342.928 571.512 343.13C571.976 343.333 572.364 343.62 572.675 343.989C572.987 344.351 573.223 344.79 573.382 345.304C573.541 345.819 573.621 346.388 573.621 347.011V354.043H571.491V347.011C571.491 346.221 571.309 345.609 570.947 345.174C570.585 344.732 570.031 344.511 569.284 344.511C568.741 344.511 568.23 344.641 567.752 344.902C567.281 345.156 566.842 345.504 566.436 345.946V354.043H564.317V338H566.436V344.402Z" fill="#41A5DD"/>
<path d="M579.133 343V354.043H577.014V343H579.133ZM579.536 339.587C579.536 339.783 579.496 339.971 579.416 340.152C579.336 340.326 579.228 340.482 579.09 340.62C578.96 340.75 578.804 340.855 578.623 340.935C578.441 341.007 578.253 341.043 578.057 341.043C577.862 341.043 577.677 341.007 577.503 340.935C577.329 340.855 577.173 340.75 577.036 340.62C576.905 340.482 576.8 340.326 576.72 340.152C576.648 339.971 576.612 339.783 576.612 339.587C576.612 339.384 576.648 339.196 576.72 339.022C576.8 338.841 576.905 338.685 577.036 338.554C577.173 338.417 577.329 338.312 577.503 338.239C577.677 338.159 577.862 338.12 578.057 338.12C578.253 338.12 578.441 338.159 578.623 338.239C578.804 338.312 578.96 338.417 579.09 338.554C579.228 338.685 579.336 338.841 579.416 339.022C579.496 339.196 579.536 339.384 579.536 339.587Z" fill="#41A5DD"/>
<path d="M584.626 344.533C584.865 344.279 585.115 344.047 585.376 343.837C585.637 343.627 585.912 343.449 586.202 343.304C586.499 343.152 586.815 343.036 587.148 342.957C587.488 342.87 587.851 342.826 588.235 342.826C588.844 342.826 589.376 342.928 589.833 343.13C590.296 343.333 590.684 343.62 590.996 343.989C591.307 344.351 591.543 344.79 591.702 345.304C591.862 345.819 591.941 346.388 591.941 347.011V354.043H589.811V347.011C589.811 346.221 589.63 345.609 589.267 345.174C588.905 344.732 588.351 344.511 587.604 344.511C587.061 344.511 586.55 344.641 586.072 344.902C585.601 345.156 585.162 345.504 584.757 345.946V354.043H582.637V343H583.909C584.206 343 584.391 343.141 584.463 343.424L584.626 344.533Z" fill="#41A5DD"/>
<path d="M599.117 348.533C599.494 348.533 599.823 348.482 600.106 348.38C600.396 348.279 600.635 348.138 600.823 347.957C601.019 347.768 601.164 347.543 601.258 347.283C601.36 347.022 601.41 346.736 601.41 346.424C601.41 345.786 601.215 345.279 600.823 344.902C600.439 344.518 599.87 344.326 599.117 344.326C598.37 344.326 597.802 344.518 597.41 344.902C597.026 345.279 596.834 345.786 596.834 346.424C596.834 346.736 596.881 347.022 596.976 347.283C597.077 347.536 597.222 347.757 597.41 347.946C597.606 348.127 597.845 348.272 598.128 348.38C598.418 348.482 598.747 348.533 599.117 348.533ZM602.497 354.62C602.497 354.359 602.425 354.152 602.28 354C602.135 353.841 601.936 353.717 601.682 353.63C601.436 353.536 601.146 353.471 600.812 353.435C600.479 353.391 600.128 353.359 599.758 353.337C599.396 353.315 599.023 353.297 598.639 353.283C598.255 353.261 597.885 353.225 597.53 353.174C597.153 353.362 596.841 353.591 596.595 353.859C596.356 354.127 596.236 354.442 596.236 354.804C596.236 355.036 596.294 355.254 596.41 355.457C596.534 355.659 596.718 355.833 596.965 355.978C597.218 356.13 597.534 356.246 597.91 356.326C598.294 356.413 598.751 356.457 599.28 356.457C599.802 356.457 600.262 356.409 600.66 356.315C601.059 356.228 601.392 356.101 601.66 355.935C601.936 355.775 602.142 355.583 602.28 355.359C602.425 355.134 602.497 354.888 602.497 354.62ZM604.649 343.413V344.207C604.649 344.467 604.486 344.63 604.16 344.696L602.976 344.87C603.077 345.094 603.157 345.333 603.215 345.587C603.273 345.833 603.302 346.094 603.302 346.37C603.302 346.913 603.197 347.406 602.986 347.848C602.776 348.283 602.486 348.656 602.117 348.967C601.747 349.279 601.305 349.518 600.791 349.685C600.284 349.851 599.726 349.935 599.117 349.935C598.617 349.935 598.149 349.88 597.715 349.772C597.497 349.902 597.331 350.047 597.215 350.207C597.106 350.359 597.052 350.511 597.052 350.663C597.052 350.917 597.157 351.105 597.367 351.228C597.584 351.351 597.863 351.442 598.204 351.5C598.552 351.551 598.947 351.583 599.389 351.598C599.838 351.612 600.291 351.638 600.747 351.674C601.211 351.703 601.664 351.761 602.106 351.848C602.555 351.928 602.95 352.062 603.291 352.25C603.639 352.431 603.918 352.685 604.128 353.011C604.345 353.33 604.454 353.746 604.454 354.261C604.454 354.739 604.334 355.203 604.095 355.652C603.863 356.101 603.523 356.5 603.073 356.848C602.624 357.196 602.077 357.475 601.432 357.685C600.787 357.895 600.055 358 599.236 358C598.418 358 597.704 357.92 597.095 357.761C596.494 357.601 595.99 357.388 595.584 357.12C595.186 356.851 594.885 356.54 594.682 356.185C594.486 355.83 594.389 355.46 594.389 355.076C594.389 354.54 594.555 354.087 594.889 353.717C595.222 353.341 595.682 353.047 596.269 352.837C595.95 352.692 595.697 352.496 595.508 352.25C595.32 351.996 595.226 351.663 595.226 351.25C595.226 351.091 595.255 350.928 595.312 350.761C595.37 350.587 595.457 350.417 595.573 350.25C595.697 350.076 595.845 349.913 596.019 349.761C596.2 349.609 596.407 349.471 596.639 349.348C596.095 349.043 595.668 348.641 595.356 348.141C595.044 347.634 594.889 347.043 594.889 346.37C594.889 345.826 594.994 345.337 595.204 344.902C595.414 344.467 595.704 344.094 596.073 343.783C596.45 343.471 596.896 343.232 597.41 343.065C597.932 342.899 598.501 342.815 599.117 342.815C600.073 342.815 600.896 343.014 601.584 343.413H604.649Z" fill="#41A5DD"/>
<path d="M607.986 354.043C607.79 354.043 607.609 354.007 607.442 353.935C607.283 353.862 607.141 353.764 607.018 353.641C606.902 353.511 606.812 353.359 606.746 353.185C606.681 353.011 606.649 352.822 606.649 352.62C606.649 352.446 606.681 352.283 606.746 352.13C606.812 351.971 606.902 351.833 607.018 351.717C607.141 351.601 607.286 351.511 607.453 351.446C607.62 351.373 607.804 351.337 608.007 351.337C608.239 351.337 608.442 351.38 608.616 351.467C608.797 351.547 608.946 351.663 609.062 351.815C609.185 351.96 609.275 352.13 609.333 352.326C609.391 352.522 609.42 352.732 609.42 352.957C609.42 353.283 609.373 353.627 609.279 353.989C609.185 354.351 609.047 354.71 608.866 355.065C608.685 355.42 608.46 355.764 608.192 356.098C607.924 356.431 607.62 356.739 607.279 357.022L606.92 356.685C606.812 356.583 606.757 356.471 606.757 356.348C606.757 356.297 606.772 356.243 606.801 356.185C606.837 356.134 606.88 356.083 606.931 356.033C607.004 355.953 607.098 355.848 607.214 355.717C607.33 355.587 607.442 355.435 607.551 355.261C607.667 355.094 607.772 354.906 607.866 354.696C607.967 354.493 608.04 354.275 608.083 354.043H607.986Z" fill="#41A5DD"/>
<path d="M624.3 349.141C623.437 349.17 622.705 349.239 622.104 349.348C621.502 349.449 621.013 349.587 620.637 349.761C620.26 349.935 619.988 350.141 619.821 350.38C619.655 350.612 619.571 350.873 619.571 351.163C619.571 351.438 619.615 351.678 619.702 351.88C619.796 352.076 619.919 352.239 620.071 352.37C620.231 352.493 620.416 352.583 620.626 352.641C620.836 352.699 621.064 352.728 621.31 352.728C621.637 352.728 621.934 352.696 622.202 352.63C622.477 352.565 622.734 352.475 622.973 352.359C623.213 352.236 623.441 352.087 623.658 351.913C623.876 351.739 624.089 351.54 624.3 351.315V349.141ZM618.082 344.543C618.698 343.957 619.365 343.518 620.082 343.228C620.807 342.938 621.6 342.793 622.463 342.793C623.093 342.793 623.651 342.899 624.137 343.109C624.622 343.312 625.031 343.598 625.365 343.967C625.698 344.337 625.948 344.779 626.115 345.293C626.289 345.808 626.376 346.377 626.376 347V354.043H625.43C625.22 354.043 625.06 354.011 624.952 353.946C624.843 353.873 624.756 353.743 624.691 353.554L624.463 352.587C624.18 352.848 623.901 353.08 623.626 353.283C623.35 353.478 623.06 353.649 622.756 353.793C622.459 353.931 622.14 354.036 621.8 354.109C621.459 354.181 621.082 354.217 620.669 354.217C620.234 354.217 619.825 354.159 619.441 354.043C619.064 353.92 618.734 353.736 618.452 353.489C618.169 353.243 617.945 352.935 617.778 352.565C617.618 352.196 617.539 351.764 617.539 351.272C617.539 350.837 617.655 350.42 617.887 350.022C618.126 349.616 618.51 349.254 619.039 348.935C619.575 348.616 620.271 348.355 621.126 348.152C621.988 347.949 623.046 347.833 624.3 347.804V347C624.3 346.167 624.122 345.543 623.767 345.13C623.412 344.717 622.89 344.511 622.202 344.511C621.738 344.511 621.347 344.569 621.028 344.685C620.716 344.801 620.445 344.931 620.213 345.076C619.988 345.214 619.789 345.341 619.615 345.457C619.448 345.572 619.274 345.63 619.093 345.63C618.948 345.63 618.821 345.591 618.713 345.511C618.611 345.431 618.528 345.337 618.463 345.228L618.082 344.543Z" fill="#41A5DD"/>
<path d="M631.637 344.533C631.876 344.279 632.126 344.047 632.387 343.837C632.648 343.627 632.923 343.449 633.213 343.304C633.51 343.152 633.825 343.036 634.159 342.957C634.499 342.87 634.862 342.826 635.246 342.826C635.854 342.826 636.387 342.928 636.844 343.13C637.307 343.333 637.695 343.62 638.007 343.989C638.318 344.351 638.554 344.79 638.713 345.304C638.873 345.819 638.952 346.388 638.952 347.011V354.043H636.822V347.011C636.822 346.221 636.641 345.609 636.278 345.174C635.916 344.732 635.362 344.511 634.615 344.511C634.072 344.511 633.561 344.641 633.083 344.902C632.612 345.156 632.173 345.504 631.767 345.946V354.043H629.648V343H630.92C631.217 343 631.402 343.141 631.474 343.424L631.637 344.533Z" fill="#41A5DD"/>
<path d="M651.623 343L645.493 357.25C645.428 357.409 645.341 357.533 645.232 357.62C645.123 357.707 644.964 357.75 644.754 357.75H643.178L645.2 353.348L640.667 343H642.515C642.696 343 642.837 343.043 642.939 343.13C643.04 343.217 643.113 343.315 643.156 343.424L645.96 350.054C646.018 350.221 646.073 350.391 646.123 350.565C646.181 350.732 646.229 350.899 646.265 351.065C646.315 350.891 646.37 350.721 646.428 350.554C646.486 350.38 646.547 350.21 646.613 350.043L649.319 343.424C649.37 343.301 649.45 343.199 649.558 343.12C649.667 343.04 649.79 343 649.928 343H651.623Z" fill="#41A5DD"/>
<path d="M669.038 343L665.483 354.043H663.788C663.585 354.043 663.447 353.909 663.375 353.641L661.049 346.446C660.991 346.264 660.94 346.087 660.896 345.913C660.853 345.732 660.813 345.551 660.777 345.37C660.712 345.746 660.621 346.112 660.505 346.467L658.146 353.641C658.074 353.909 657.918 354.043 657.679 354.043H656.07L652.505 343H654.179C654.346 343 654.483 343.04 654.592 343.12C654.708 343.199 654.784 343.301 654.82 343.424L656.809 350.207C656.875 350.482 656.933 350.75 656.983 351.011C657.034 351.272 657.081 351.533 657.125 351.793C657.19 351.533 657.259 351.272 657.331 351.011C657.411 350.75 657.491 350.482 657.57 350.207L659.777 343.38C659.813 343.257 659.882 343.159 659.983 343.087C660.085 343.007 660.208 342.967 660.353 342.967H661.277C661.436 342.967 661.567 343.007 661.668 343.087C661.777 343.159 661.849 343.257 661.886 343.38L664.038 350.207C664.117 350.482 664.193 350.754 664.266 351.022C664.338 351.283 664.404 351.547 664.462 351.815C664.505 351.554 664.556 351.293 664.614 351.033C664.672 350.764 664.737 350.489 664.809 350.207L666.831 343.424C666.867 343.301 666.94 343.199 667.049 343.12C667.165 343.04 667.295 343 667.44 343H669.038Z" fill="#41A5DD"/>
<path d="M673.387 344.402C673.851 343.931 674.362 343.551 674.919 343.261C675.485 342.971 676.133 342.826 676.865 342.826C677.474 342.826 678.006 342.928 678.463 343.13C678.927 343.333 679.314 343.62 679.626 343.989C679.938 344.351 680.173 344.79 680.333 345.304C680.492 345.819 680.572 346.388 680.572 347.011V354.043H678.441V347.011C678.441 346.221 678.26 345.609 677.898 345.174C677.535 344.732 676.981 344.511 676.235 344.511C675.691 344.511 675.18 344.641 674.702 344.902C674.231 345.156 673.793 345.504 673.387 345.946V354.043H671.267V338H673.387V344.402Z" fill="#41A5DD"/>
<path d="M691.182 347.293C691.182 346.873 691.12 346.486 690.997 346.13C690.881 345.775 690.707 345.467 690.475 345.207C690.243 344.946 689.961 344.743 689.628 344.598C689.294 344.453 688.91 344.38 688.475 344.38C687.584 344.38 686.881 344.638 686.367 345.152C685.859 345.667 685.537 346.38 685.399 347.293H691.182ZM692.932 352.467C692.671 352.772 692.37 353.036 692.03 353.261C691.689 353.478 691.327 353.656 690.943 353.793C690.559 353.931 690.16 354.033 689.747 354.098C689.341 354.163 688.939 354.196 688.541 354.196C687.78 354.196 687.073 354.069 686.421 353.815C685.776 353.554 685.214 353.178 684.736 352.685C684.265 352.185 683.896 351.569 683.628 350.837C683.367 350.098 683.236 349.25 683.236 348.293C683.236 347.525 683.356 346.812 683.595 346.152C683.834 345.486 684.175 344.906 684.617 344.413C685.066 343.92 685.613 343.533 686.258 343.25C686.903 342.967 687.628 342.826 688.432 342.826C689.106 342.826 689.725 342.938 690.291 343.163C690.863 343.38 691.356 343.699 691.769 344.12C692.182 344.54 692.504 345.058 692.736 345.674C692.975 346.29 693.095 346.993 693.095 347.783C693.095 348.109 693.059 348.33 692.986 348.446C692.914 348.554 692.78 348.609 692.584 348.609H685.345C685.367 349.268 685.461 349.844 685.628 350.337C685.794 350.822 686.022 351.228 686.312 351.554C686.609 351.88 686.961 352.123 687.367 352.283C687.772 352.442 688.225 352.522 688.725 352.522C689.196 352.522 689.602 352.467 689.943 352.359C690.291 352.25 690.588 352.134 690.834 352.011C691.088 351.88 691.298 351.761 691.464 351.652C691.638 351.543 691.791 351.489 691.921 351.489C692.095 351.489 692.229 351.554 692.323 351.685L692.932 352.467Z" fill="#41A5DD"/>
<path d="M697.808 345.12C698.163 344.395 698.59 343.826 699.09 343.413C699.59 343 700.192 342.793 700.895 342.793C701.134 342.793 701.359 342.822 701.569 342.88C701.786 342.931 701.975 343.011 702.134 343.12L701.993 344.717C701.942 344.913 701.822 345.011 701.634 345.011C701.533 345.011 701.38 344.993 701.177 344.957C700.975 344.913 700.757 344.891 700.525 344.891C700.185 344.891 699.884 344.942 699.623 345.043C699.362 345.138 699.127 345.283 698.917 345.478C698.714 345.667 698.533 345.902 698.373 346.185C698.214 346.46 698.065 346.775 697.927 347.13V354.043H695.808V343H697.025C697.257 343 697.413 343.043 697.493 343.13C697.58 343.21 697.641 343.355 697.677 343.565L697.808 345.12Z" fill="#41A5DD"/>
<path d="M711.116 347.293C711.116 346.873 711.054 346.486 710.931 346.13C710.815 345.775 710.641 345.467 710.409 345.207C710.177 344.946 709.895 344.743 709.561 344.598C709.228 344.453 708.844 344.38 708.409 344.38C707.518 344.38 706.815 344.638 706.3 345.152C705.793 345.667 705.471 346.38 705.333 347.293H711.116ZM712.866 352.467C712.605 352.772 712.304 353.036 711.963 353.261C711.623 353.478 711.261 353.656 710.876 353.793C710.492 353.931 710.094 354.033 709.681 354.098C709.275 354.163 708.873 354.196 708.474 354.196C707.713 354.196 707.007 354.069 706.355 353.815C705.71 353.554 705.148 353.178 704.67 352.685C704.199 352.185 703.829 351.569 703.561 350.837C703.3 350.098 703.17 349.25 703.17 348.293C703.17 347.525 703.29 346.812 703.529 346.152C703.768 345.486 704.108 344.906 704.55 344.413C705 343.92 705.547 343.533 706.192 343.25C706.837 342.967 707.561 342.826 708.366 342.826C709.04 342.826 709.659 342.938 710.224 343.163C710.797 343.38 711.29 343.699 711.703 344.12C712.116 344.54 712.438 345.058 712.67 345.674C712.909 346.29 713.029 346.993 713.029 347.783C713.029 348.109 712.992 348.33 712.92 348.446C712.848 348.554 712.713 348.609 712.518 348.609H705.279C705.3 349.268 705.395 349.844 705.561 350.337C705.728 350.822 705.956 351.228 706.246 351.554C706.543 351.88 706.895 352.123 707.3 352.283C707.706 352.442 708.159 352.522 708.659 352.522C709.13 352.522 709.536 352.467 709.876 352.359C710.224 352.25 710.521 352.134 710.768 352.011C711.021 351.88 711.232 351.761 711.398 351.652C711.572 351.543 711.724 351.489 711.855 351.489C712.029 351.489 712.163 351.554 712.257 351.685L712.866 352.467Z" fill="#41A5DD"/>
<defs>
<clipPath id="clip0">
<rect width="293.137" height="50" fill="white" transform="translate(459 267)"/>
</clipPath>
</defs>
</svg>
