<svg width="1204" height="678" viewBox="0 0 1204 678" fill="none" xmlns="http://www.w3.org/2000/svg">
<rect width="1204" height="677.25" fill="white"/>
<rect x="334.5" y="264.5" width="478" height="49" stroke="#D8D8D8"/>
<rect x="468.5" y="332.5" width="344" height="19" stroke="#D8D8D8"/>
<rect x="334.5" y="364.5" width="478" height="49" stroke="#D8D8D8"/>
<rect x="334.5" y="413.5" width="149" height="49" transform="rotate(-90 334.5 413.5)" stroke="#D8D8D8"/>
<rect x="763.5" y="413.5" width="149" height="49" transform="rotate(-90 763.5 413.5)" stroke="#D8D8D8"/>
<rect x="468.5" y="413.5" width="149" height="39" transform="rotate(-90 468.5 413.5)" stroke="#D8D8D8"/>
<path d="M407.862 360.176C411.076 360.176 413.682 357.581 413.682 354.379C413.682 351.178 411.076 348.583 407.862 348.583C404.648 348.583 402.042 351.178 402.042 354.379C402.042 357.581 404.648 360.176 407.862 360.176Z" fill="#41A5DD"/>
<path fill-rule="evenodd" clip-rule="evenodd" d="M453.492 317.556C452.289 314.155 450.077 313.537 447.555 313.537H444.917C444.684 313.537 444.451 313.537 444.218 313.576H390.208C386.794 313.576 384 316.358 384 319.758V357.355C384 360.755 386.794 363.537 390.208 363.537H429.241V363.499H429.358C431.996 363.499 433.51 362.61 434.285 360.485L437.195 352.447H454.966L457.799 360.485C458.613 362.61 460.359 363.499 462.765 363.499C465.598 363.499 467.926 361.373 467.926 358.669C467.926 357.471 467.266 355.539 466.839 354.457L453.492 317.556ZM407.862 361.489C403.943 361.489 400.723 358.321 400.723 354.379C400.723 350.477 403.905 347.27 407.862 347.27C411.781 347.27 415.002 350.438 415.002 354.379C414.963 358.321 411.781 361.489 407.862 361.489ZM422.956 354.921H416.398C416.398 353.529 415.816 345.801 407.668 345.801C399.52 345.801 399.171 354.998 399.171 354.998H397.425C397.425 354.998 392.342 352.95 391.294 352.409C390.247 351.829 390.13 348.97 390.13 348.97V346.458H391.023V343.908C391.45 338.498 404.758 333.63 404.758 333.63C404.758 333.63 415.933 322.656 417.679 321.111C421.443 317.826 436.691 318.56 436.691 318.56L422.956 354.921ZM439.562 344.835L446.081 325.477H446.197L452.444 344.835H439.562Z" fill="#41A5DD"/>
<path fill-rule="evenodd" clip-rule="evenodd" d="M400.025 340.16C399.559 340.044 397.852 340.044 397.115 340.005C396.882 340.005 396.649 340.083 396.494 340.237C396.145 340.508 395.602 341.049 395.097 341.706C394.515 342.478 394.088 343.444 393.817 344.063C393.623 344.565 394.166 344.604 394.166 344.604L395.446 344.874C395.602 344.913 395.757 344.874 395.873 344.758L400.141 341.049C400.102 341.049 400.723 340.315 400.025 340.16Z" fill="#41A5DD"/>
<path fill-rule="evenodd" clip-rule="evenodd" d="M428.854 321.806C428.272 321.806 422.878 322.386 421.831 322.579C420.783 322.772 419.231 323.97 419.231 323.97L412.596 331.273V335.175L426.642 332.471C426.642 332.471 428.465 332.123 428.737 329.804C429.009 327.486 429.591 322.54 429.591 322.54C429.591 322.54 429.436 321.806 428.854 321.806Z" fill="#41A5DD"/>
<line x1="823" y1="263.5" x2="837" y2="263.5" stroke="black"/>
<line x1="823" y1="313.5" x2="837" y2="313.5" stroke="black"/>
<line x1="836.5" y1="314" x2="836.5" y2="264" stroke="black"/>
<line x1="384.5" y1="424" x2="384.5" y2="438" stroke="black"/>
<line x1="334.5" y1="424" x2="334.5" y2="438" stroke="black"/>
<line x1="334" y1="437.5" x2="384" y2="437.5" stroke="black"/>
<path d="M854.126 294.048V295H848.75V294.048H850.899V287.209C850.899 287.004 850.906 286.796 850.92 286.586L849.135 288.119C849.074 288.17 849.014 288.203 848.953 288.217C848.892 288.226 848.836 288.226 848.785 288.217C848.734 288.208 848.685 288.189 848.638 288.161C848.596 288.133 848.563 288.103 848.54 288.07L848.148 287.531L851.137 284.948H852.152V294.048H854.126ZM863.121 289.988C863.121 290.865 863.025 291.626 862.834 292.27C862.647 292.909 862.391 293.439 862.064 293.859C861.737 294.279 861.35 294.592 860.902 294.797C860.459 295.002 859.983 295.105 859.474 295.105C858.961 295.105 858.482 295.002 858.039 294.797C857.6 294.592 857.218 294.279 856.891 293.859C856.564 293.439 856.308 292.909 856.121 292.27C855.934 291.626 855.841 290.865 855.841 289.988C855.841 289.111 855.934 288.35 856.121 287.706C856.308 287.062 856.564 286.53 856.891 286.11C857.218 285.685 857.6 285.37 858.039 285.165C858.482 284.96 858.961 284.857 859.474 284.857C859.983 284.857 860.459 284.96 860.902 285.165C861.35 285.37 861.737 285.685 862.064 286.11C862.391 286.53 862.647 287.062 862.834 287.706C863.025 288.35 863.121 289.111 863.121 289.988ZM861.826 289.988C861.826 289.223 861.761 288.581 861.63 288.063C861.504 287.54 861.331 287.12 861.112 286.803C860.897 286.486 860.648 286.259 860.363 286.124C860.078 285.984 859.782 285.914 859.474 285.914C859.166 285.914 858.87 285.984 858.585 286.124C858.3 286.259 858.051 286.486 857.836 286.803C857.621 287.12 857.449 287.54 857.318 288.063C857.192 288.581 857.129 289.223 857.129 289.988C857.129 290.753 857.192 291.395 857.318 291.913C857.449 292.431 857.621 292.849 857.836 293.166C858.051 293.483 858.3 293.712 858.585 293.852C858.87 293.987 859.166 294.055 859.474 294.055C859.782 294.055 860.078 293.987 860.363 293.852C860.648 293.712 860.897 293.483 861.112 293.166C861.331 292.849 861.504 292.431 861.63 291.913C861.761 291.395 861.826 290.753 861.826 289.988ZM871.542 289.988C871.542 290.865 871.447 291.626 871.255 292.27C871.069 292.909 870.812 293.439 870.485 293.859C870.159 294.279 869.771 294.592 869.323 294.797C868.88 295.002 868.404 295.105 867.895 295.105C867.382 295.105 866.904 295.002 866.46 294.797C866.022 294.592 865.639 294.279 865.312 293.859C864.986 293.439 864.729 292.909 864.542 292.27C864.356 291.626 864.262 290.865 864.262 289.988C864.262 289.111 864.356 288.35 864.542 287.706C864.729 287.062 864.986 286.53 865.312 286.11C865.639 285.685 866.022 285.37 866.46 285.165C866.904 284.96 867.382 284.857 867.895 284.857C868.404 284.857 868.88 284.96 869.323 285.165C869.771 285.37 870.159 285.685 870.485 286.11C870.812 286.53 871.069 287.062 871.255 287.706C871.447 288.35 871.542 289.111 871.542 289.988ZM870.247 289.988C870.247 289.223 870.182 288.581 870.051 288.063C869.925 287.54 869.753 287.12 869.533 286.803C869.319 286.486 869.069 286.259 868.784 286.124C868.5 285.984 868.203 285.914 867.895 285.914C867.587 285.914 867.291 285.984 867.006 286.124C866.722 286.259 866.472 286.486 866.257 286.803C866.043 287.12 865.87 287.54 865.739 288.063C865.613 288.581 865.55 289.223 865.55 289.988C865.55 290.753 865.613 291.395 865.739 291.913C865.87 292.431 866.043 292.849 866.257 293.166C866.472 293.483 866.722 293.712 867.006 293.852C867.291 293.987 867.587 294.055 867.895 294.055C868.203 294.055 868.5 293.987 868.784 293.852C869.069 293.712 869.319 293.483 869.533 293.166C869.753 292.849 869.925 292.431 870.051 291.913C870.182 291.395 870.247 290.753 870.247 289.988ZM877.317 287.391C877.317 287.783 877.257 288.135 877.135 288.448C877.014 288.756 876.851 289.017 876.645 289.232C876.445 289.442 876.209 289.603 875.938 289.715C875.672 289.827 875.39 289.883 875.091 289.883C874.779 289.883 874.487 289.827 874.216 289.715C873.946 289.603 873.71 289.442 873.509 289.232C873.313 289.017 873.159 288.756 873.047 288.448C872.935 288.135 872.879 287.783 872.879 287.391C872.879 286.99 872.935 286.633 873.047 286.32C873.159 286.007 873.313 285.744 873.509 285.529C873.71 285.314 873.946 285.151 874.216 285.039C874.487 284.927 874.779 284.871 875.091 284.871C875.409 284.871 875.703 284.927 875.973 285.039C876.244 285.151 876.48 285.314 876.68 285.529C876.881 285.744 877.037 286.007 877.149 286.32C877.261 286.633 877.317 286.99 877.317 287.391ZM876.351 287.391C876.351 287.083 876.319 286.822 876.253 286.607C876.188 286.392 876.097 286.217 875.98 286.082C875.868 285.942 875.735 285.842 875.581 285.781C875.427 285.72 875.264 285.69 875.091 285.69C874.919 285.69 874.758 285.72 874.608 285.781C874.459 285.842 874.328 285.942 874.216 286.082C874.104 286.217 874.016 286.392 873.95 286.607C873.885 286.822 873.852 287.083 873.852 287.391C873.852 287.694 873.885 287.953 873.95 288.168C874.016 288.378 874.104 288.551 874.216 288.686C874.328 288.817 874.459 288.912 874.608 288.973C874.758 289.029 874.919 289.057 875.091 289.057C875.264 289.057 875.427 289.029 875.581 288.973C875.735 288.912 875.868 288.817 875.98 288.686C876.097 288.551 876.188 288.378 876.253 288.168C876.319 287.953 876.351 287.694 876.351 287.391ZM880.866 285.179C880.913 285.123 880.967 285.074 881.027 285.032C881.093 284.99 881.179 284.969 881.286 284.969H882.189L874.853 294.797C874.811 294.858 874.758 294.907 874.692 294.944C874.627 294.981 874.548 295 874.454 295H873.537L880.866 285.179ZM882.868 292.634C882.868 293.026 882.808 293.376 882.686 293.684C882.565 293.992 882.402 294.253 882.196 294.468C881.996 294.678 881.76 294.839 881.489 294.951C881.223 295.063 880.941 295.119 880.642 295.119C880.325 295.119 880.031 295.063 879.76 294.951C879.494 294.839 879.261 294.678 879.06 294.468C878.864 294.253 878.71 293.992 878.598 293.684C878.486 293.376 878.43 293.026 878.43 292.634C878.43 292.233 878.486 291.876 878.598 291.563C878.71 291.246 878.864 290.98 879.06 290.765C879.261 290.55 879.494 290.387 879.76 290.275C880.031 290.163 880.325 290.107 880.642 290.107C880.955 290.107 881.247 290.163 881.517 290.275C881.793 290.387 882.028 290.55 882.224 290.765C882.425 290.98 882.581 291.246 882.693 291.563C882.81 291.876 882.868 292.233 882.868 292.634ZM881.902 292.634C881.902 292.326 881.87 292.065 881.804 291.85C881.739 291.631 881.648 291.453 881.531 291.318C881.419 291.183 881.286 291.085 881.132 291.024C880.978 290.963 880.815 290.933 880.642 290.933C880.47 290.933 880.306 290.963 880.152 291.024C880.003 291.085 879.872 291.183 879.76 291.318C879.648 291.453 879.56 291.631 879.494 291.85C879.434 292.065 879.403 292.326 879.403 292.634C879.403 292.937 879.434 293.194 879.494 293.404C879.56 293.614 879.648 293.787 879.76 293.922C879.872 294.053 880.003 294.148 880.152 294.209C880.306 294.265 880.47 294.293 880.642 294.293C880.815 294.293 880.978 294.265 881.132 294.209C881.286 294.148 881.419 294.053 881.531 293.922C881.648 293.787 881.739 293.614 881.804 293.404C881.87 293.194 881.902 292.937 881.902 292.634ZM891.646 287.797C892.164 287.797 892.631 287.883 893.046 288.056C893.461 288.229 893.816 288.474 894.11 288.791C894.404 289.108 894.628 289.493 894.782 289.946C894.941 290.394 895.02 290.896 895.02 291.451C895.02 292.011 894.941 292.515 894.782 292.963C894.628 293.411 894.404 293.794 894.11 294.111C893.816 294.428 893.461 294.673 893.046 294.846C892.631 295.014 892.164 295.098 891.646 295.098C891.123 295.098 890.652 295.014 890.232 294.846C889.817 294.673 889.462 294.428 889.168 294.111C888.874 293.794 888.648 293.411 888.489 292.963C888.335 292.515 888.258 292.011 888.258 291.451C888.258 290.896 888.335 290.394 888.489 289.946C888.648 289.493 888.874 289.108 889.168 288.791C889.462 288.474 889.817 288.229 890.232 288.056C890.652 287.883 891.123 287.797 891.646 287.797ZM891.646 294.125C892.346 294.125 892.869 293.892 893.214 293.425C893.559 292.954 893.732 292.298 893.732 291.458C893.732 290.613 893.559 289.955 893.214 289.484C892.869 289.013 892.346 288.777 891.646 288.777C891.291 288.777 890.981 288.838 890.715 288.959C890.454 289.08 890.234 289.255 890.057 289.484C889.884 289.713 889.754 289.995 889.665 290.331C889.581 290.662 889.539 291.038 889.539 291.458C889.539 292.298 889.712 292.954 890.057 293.425C890.407 293.892 890.937 294.125 891.646 294.125ZM897.212 295V288.973L896.428 288.882C896.33 288.859 896.248 288.824 896.183 288.777C896.122 288.726 896.092 288.653 896.092 288.56V288.049H897.212V287.363C897.212 286.957 897.268 286.598 897.38 286.285C897.497 285.968 897.66 285.702 897.87 285.487C898.085 285.268 898.341 285.102 898.64 284.99C898.939 284.878 899.275 284.822 899.648 284.822C899.965 284.822 900.257 284.869 900.523 284.962L900.495 285.585C900.486 285.697 900.423 285.758 900.306 285.767C900.194 285.776 900.042 285.781 899.851 285.781C899.636 285.781 899.44 285.809 899.263 285.865C899.09 285.921 898.941 286.012 898.815 286.138C898.689 286.264 898.591 286.43 898.521 286.635C898.456 286.84 898.423 287.095 898.423 287.398V288.049H900.467V288.952H898.465V295H897.212ZM906.896 287.909V295.525C906.896 295.81 906.859 296.073 906.784 296.316C906.71 296.563 906.591 296.778 906.427 296.96C906.264 297.142 906.054 297.284 905.797 297.387C905.545 297.494 905.242 297.548 904.887 297.548C904.738 297.548 904.6 297.536 904.474 297.513C904.348 297.49 904.222 297.455 904.096 297.408L904.145 296.736C904.155 296.694 904.171 296.661 904.194 296.638C904.213 296.619 904.241 296.608 904.278 296.603C904.316 296.598 904.365 296.596 904.425 296.596C904.481 296.601 904.554 296.603 904.642 296.603C905.006 296.603 905.265 296.517 905.419 296.344C905.573 296.176 905.65 295.903 905.65 295.525V287.909H906.896ZM907.155 285.683C907.155 285.804 907.13 285.919 907.078 286.026C907.032 286.129 906.966 286.222 906.882 286.306C906.803 286.385 906.71 286.448 906.602 286.495C906.495 286.542 906.381 286.565 906.259 286.565C906.138 286.565 906.024 286.542 905.916 286.495C905.814 286.448 905.723 286.385 905.643 286.306C905.564 286.222 905.501 286.129 905.454 286.026C905.408 285.919 905.384 285.804 905.384 285.683C905.384 285.562 905.408 285.447 905.454 285.34C905.501 285.228 905.564 285.132 905.643 285.053C905.723 284.969 905.814 284.904 905.916 284.857C906.024 284.81 906.138 284.787 906.259 284.787C906.381 284.787 906.495 284.81 906.602 284.857C906.71 284.904 906.803 284.969 906.882 285.053C906.966 285.132 907.032 285.228 907.078 285.34C907.13 285.447 907.155 285.562 907.155 285.683Z" fill="black"/>
<line x1="467.5" y1="254" x2="467.5" y2="240" stroke="black"/>
<line x1="507.5" y1="254" x2="507.5" y2="240" stroke="black"/>
<line x1="508" y1="240.5" x2="468" y2="240.5" stroke="black"/>
<path d="M465.06 226.118C465.387 226.118 465.678 226.074 465.935 225.985C466.196 225.892 466.416 225.763 466.593 225.6C466.775 225.432 466.913 225.234 467.006 225.005C467.104 224.772 467.153 224.515 467.153 224.235C467.153 223.89 467.095 223.596 466.978 223.353C466.866 223.106 466.712 222.905 466.516 222.751C466.325 222.597 466.103 222.485 465.851 222.415C465.599 222.34 465.335 222.303 465.06 222.303C464.785 222.303 464.521 222.34 464.269 222.415C464.017 222.485 463.793 222.597 463.597 222.751C463.406 222.905 463.252 223.106 463.135 223.353C463.023 223.596 462.967 223.89 462.967 224.235C462.967 224.515 463.014 224.772 463.107 225.005C463.205 225.234 463.343 225.432 463.52 225.6C463.702 225.763 463.921 225.892 464.178 225.985C464.439 226.074 464.733 226.118 465.06 226.118ZM465.06 217.823C464.761 217.823 464.498 217.867 464.269 217.956C464.045 218.045 463.856 218.166 463.702 218.32C463.553 218.474 463.438 218.654 463.359 218.859C463.284 219.064 463.247 219.284 463.247 219.517C463.247 219.746 463.28 219.967 463.345 220.182C463.41 220.397 463.515 220.588 463.66 220.756C463.805 220.919 463.991 221.052 464.22 221.155C464.453 221.253 464.733 221.302 465.06 221.302C465.387 221.302 465.664 221.253 465.893 221.155C466.126 221.052 466.315 220.919 466.46 220.756C466.605 220.588 466.71 220.397 466.775 220.182C466.84 219.967 466.873 219.746 466.873 219.517C466.873 219.284 466.833 219.064 466.754 218.859C466.679 218.654 466.565 218.474 466.411 218.32C466.262 218.166 466.073 218.045 465.844 217.956C465.62 217.867 465.359 217.823 465.06 217.823ZM466.495 221.771C467.12 221.948 467.601 222.245 467.937 222.66C468.273 223.075 468.441 223.607 468.441 224.256C468.441 224.695 468.357 225.091 468.189 225.446C468.026 225.796 467.795 226.095 467.496 226.342C467.202 226.589 466.847 226.781 466.432 226.916C466.017 227.047 465.559 227.112 465.06 227.112C464.561 227.112 464.103 227.047 463.688 226.916C463.273 226.781 462.916 226.589 462.617 226.342C462.318 226.095 462.087 225.796 461.924 225.446C461.761 225.091 461.679 224.695 461.679 224.256C461.679 223.607 461.847 223.075 462.183 222.66C462.519 222.245 463 221.948 463.625 221.771C463.098 221.575 462.699 221.283 462.428 220.896C462.162 220.504 462.029 220.037 462.029 219.496C462.029 219.127 462.101 218.782 462.246 218.46C462.391 218.138 462.596 217.858 462.862 217.62C463.128 217.382 463.445 217.195 463.814 217.06C464.187 216.925 464.603 216.857 465.06 216.857C465.513 216.857 465.926 216.925 466.299 217.06C466.672 217.195 466.992 217.382 467.258 217.62C467.524 217.858 467.729 218.138 467.874 218.46C468.019 218.782 468.091 219.127 468.091 219.496C468.091 220.037 467.956 220.504 467.685 220.896C467.419 221.283 467.022 221.575 466.495 221.771ZM477.121 221.988C477.121 222.865 477.025 223.626 476.834 224.27C476.647 224.909 476.391 225.439 476.064 225.859C475.737 226.279 475.35 226.592 474.902 226.797C474.459 227.002 473.983 227.105 473.474 227.105C472.961 227.105 472.482 227.002 472.039 226.797C471.6 226.592 471.218 226.279 470.891 225.859C470.564 225.439 470.308 224.909 470.121 224.27C469.934 223.626 469.841 222.865 469.841 221.988C469.841 221.111 469.934 220.35 470.121 219.706C470.308 219.062 470.564 218.53 470.891 218.11C471.218 217.685 471.6 217.37 472.039 217.165C472.482 216.96 472.961 216.857 473.474 216.857C473.983 216.857 474.459 216.96 474.902 217.165C475.35 217.37 475.737 217.685 476.064 218.11C476.391 218.53 476.647 219.062 476.834 219.706C477.025 220.35 477.121 221.111 477.121 221.988ZM475.826 221.988C475.826 221.223 475.761 220.581 475.63 220.063C475.504 219.54 475.331 219.12 475.112 218.803C474.897 218.486 474.648 218.259 474.363 218.124C474.078 217.984 473.782 217.914 473.474 217.914C473.166 217.914 472.87 217.984 472.585 218.124C472.3 218.259 472.051 218.486 471.836 218.803C471.621 219.12 471.449 219.54 471.318 220.063C471.192 220.581 471.129 221.223 471.129 221.988C471.129 222.753 471.192 223.395 471.318 223.913C471.449 224.431 471.621 224.849 471.836 225.166C472.051 225.483 472.3 225.712 472.585 225.852C472.87 225.987 473.166 226.055 473.474 226.055C473.782 226.055 474.078 225.987 474.363 225.852C474.648 225.712 474.897 225.483 475.112 225.166C475.331 224.849 475.504 224.431 475.63 223.913C475.761 223.395 475.826 222.753 475.826 221.988ZM482.896 219.391C482.896 219.783 482.836 220.135 482.714 220.448C482.593 220.756 482.43 221.017 482.224 221.232C482.024 221.442 481.788 221.603 481.517 221.715C481.251 221.827 480.969 221.883 480.67 221.883C480.358 221.883 480.066 221.827 479.795 221.715C479.525 221.603 479.289 221.442 479.088 221.232C478.892 221.017 478.738 220.756 478.626 220.448C478.514 220.135 478.458 219.783 478.458 219.391C478.458 218.99 478.514 218.633 478.626 218.32C478.738 218.007 478.892 217.744 479.088 217.529C479.289 217.314 479.525 217.151 479.795 217.039C480.066 216.927 480.358 216.871 480.67 216.871C480.988 216.871 481.282 216.927 481.552 217.039C481.823 217.151 482.059 217.314 482.259 217.529C482.46 217.744 482.616 218.007 482.728 218.32C482.84 218.633 482.896 218.99 482.896 219.391ZM481.93 219.391C481.93 219.083 481.898 218.822 481.832 218.607C481.767 218.392 481.676 218.217 481.559 218.082C481.447 217.942 481.314 217.842 481.16 217.781C481.006 217.72 480.843 217.69 480.67 217.69C480.498 217.69 480.337 217.72 480.187 217.781C480.038 217.842 479.907 217.942 479.795 218.082C479.683 218.217 479.595 218.392 479.529 218.607C479.464 218.822 479.431 219.083 479.431 219.391C479.431 219.694 479.464 219.953 479.529 220.168C479.595 220.378 479.683 220.551 479.795 220.686C479.907 220.817 480.038 220.912 480.187 220.973C480.337 221.029 480.498 221.057 480.67 221.057C480.843 221.057 481.006 221.029 481.16 220.973C481.314 220.912 481.447 220.817 481.559 220.686C481.676 220.551 481.767 220.378 481.832 220.168C481.898 219.953 481.93 219.694 481.93 219.391ZM486.445 217.179C486.492 217.123 486.546 217.074 486.606 217.032C486.672 216.99 486.758 216.969 486.865 216.969H487.768L480.432 226.797C480.39 226.858 480.337 226.907 480.271 226.944C480.206 226.981 480.127 227 480.033 227H479.116L486.445 217.179ZM488.447 224.634C488.447 225.026 488.387 225.376 488.265 225.684C488.144 225.992 487.981 226.253 487.775 226.468C487.575 226.678 487.339 226.839 487.068 226.951C486.802 227.063 486.52 227.119 486.221 227.119C485.904 227.119 485.61 227.063 485.339 226.951C485.073 226.839 484.84 226.678 484.639 226.468C484.443 226.253 484.289 225.992 484.177 225.684C484.065 225.376 484.009 225.026 484.009 224.634C484.009 224.233 484.065 223.876 484.177 223.563C484.289 223.246 484.443 222.98 484.639 222.765C484.84 222.55 485.073 222.387 485.339 222.275C485.61 222.163 485.904 222.107 486.221 222.107C486.534 222.107 486.826 222.163 487.096 222.275C487.372 222.387 487.607 222.55 487.803 222.765C488.004 222.98 488.16 223.246 488.272 223.563C488.389 223.876 488.447 224.233 488.447 224.634ZM487.481 224.634C487.481 224.326 487.449 224.065 487.383 223.85C487.318 223.631 487.227 223.453 487.11 223.318C486.998 223.183 486.865 223.085 486.711 223.024C486.557 222.963 486.394 222.933 486.221 222.933C486.049 222.933 485.885 222.963 485.731 223.024C485.582 223.085 485.451 223.183 485.339 223.318C485.227 223.453 485.139 223.631 485.073 223.85C485.013 224.065 484.982 224.326 484.982 224.634C484.982 224.937 485.013 225.194 485.073 225.404C485.139 225.614 485.227 225.787 485.339 225.922C485.451 226.053 485.582 226.148 485.731 226.209C485.885 226.265 486.049 226.293 486.221 226.293C486.394 226.293 486.557 226.265 486.711 226.209C486.865 226.148 486.998 226.053 487.11 225.922C487.227 225.787 487.318 225.614 487.383 225.404C487.449 225.194 487.481 224.937 487.481 224.634ZM497.225 219.797C497.743 219.797 498.209 219.883 498.625 220.056C499.04 220.229 499.395 220.474 499.689 220.791C499.983 221.108 500.207 221.493 500.361 221.946C500.519 222.394 500.599 222.896 500.599 223.451C500.599 224.011 500.519 224.515 500.361 224.963C500.207 225.411 499.983 225.794 499.689 226.111C499.395 226.428 499.04 226.673 498.625 226.846C498.209 227.014 497.743 227.098 497.225 227.098C496.702 227.098 496.231 227.014 495.811 226.846C495.395 226.673 495.041 226.428 494.747 226.111C494.453 225.794 494.226 225.411 494.068 224.963C493.914 224.515 493.837 224.011 493.837 223.451C493.837 222.896 493.914 222.394 494.068 221.946C494.226 221.493 494.453 221.108 494.747 220.791C495.041 220.474 495.395 220.229 495.811 220.056C496.231 219.883 496.702 219.797 497.225 219.797ZM497.225 226.125C497.925 226.125 498.447 225.892 498.793 225.425C499.138 224.954 499.311 224.298 499.311 223.458C499.311 222.613 499.138 221.955 498.793 221.484C498.447 221.013 497.925 220.777 497.225 220.777C496.87 220.777 496.56 220.838 496.294 220.959C496.032 221.08 495.813 221.255 495.636 221.484C495.463 221.713 495.332 221.995 495.244 222.331C495.16 222.662 495.118 223.038 495.118 223.458C495.118 224.298 495.29 224.954 495.636 225.425C495.986 225.892 496.515 226.125 497.225 226.125ZM502.791 227V220.973L502.007 220.882C501.909 220.859 501.827 220.824 501.762 220.777C501.701 220.726 501.671 220.653 501.671 220.56V220.049H502.791V219.363C502.791 218.957 502.847 218.598 502.959 218.285C503.075 217.968 503.239 217.702 503.449 217.487C503.663 217.268 503.92 217.102 504.219 216.99C504.517 216.878 504.853 216.822 505.227 216.822C505.544 216.822 505.836 216.869 506.102 216.962L506.074 217.585C506.064 217.697 506.001 217.758 505.885 217.767C505.773 217.776 505.621 217.781 505.43 217.781C505.215 217.781 505.019 217.809 504.842 217.865C504.669 217.921 504.52 218.012 504.394 218.138C504.268 218.264 504.17 218.43 504.1 218.635C504.034 218.84 504.002 219.095 504.002 219.398V220.049H506.046V220.952H504.044V227H502.791ZM512.475 219.909V227.525C512.475 227.81 512.438 228.073 512.363 228.316C512.289 228.563 512.17 228.778 512.006 228.96C511.843 229.142 511.633 229.284 511.376 229.387C511.124 229.494 510.821 229.548 510.466 229.548C510.317 229.548 510.179 229.536 510.053 229.513C509.927 229.49 509.801 229.455 509.675 229.408L509.724 228.736C509.734 228.694 509.75 228.661 509.773 228.638C509.792 228.619 509.82 228.608 509.857 228.603C509.895 228.598 509.944 228.596 510.004 228.596C510.06 228.601 510.133 228.603 510.221 228.603C510.585 228.603 510.844 228.517 510.998 228.344C511.152 228.176 511.229 227.903 511.229 227.525V219.909H512.475ZM512.734 217.683C512.734 217.804 512.709 217.919 512.657 218.026C512.611 218.129 512.545 218.222 512.461 218.306C512.382 218.385 512.289 218.448 512.181 218.495C512.074 218.542 511.96 218.565 511.838 218.565C511.717 218.565 511.603 218.542 511.495 218.495C511.393 218.448 511.302 218.385 511.222 218.306C511.143 218.222 511.08 218.129 511.033 218.026C510.987 217.919 510.963 217.804 510.963 217.683C510.963 217.562 510.987 217.447 511.033 217.34C511.08 217.228 511.143 217.132 511.222 217.053C511.302 216.969 511.393 216.904 511.495 216.857C511.603 216.81 511.717 216.787 511.838 216.787C511.96 216.787 512.074 216.81 512.181 216.857C512.289 216.904 512.382 216.969 512.461 217.053C512.545 217.132 512.611 217.228 512.657 217.34C512.709 217.447 512.734 217.562 512.734 217.683Z" fill="black"/>
<line x1="324" y1="363.5" x2="310" y2="363.5" stroke="black"/>
<line x1="324" y1="313.5" x2="310" y2="313.5" stroke="black"/>
<line x1="310.5" y1="313" x2="310.5" y2="363" stroke="black"/>
<path d="M335.126 461.048V462H329.75V461.048H331.899V454.209C331.899 454.004 331.906 453.796 331.92 453.586L330.135 455.119C330.074 455.17 330.014 455.203 329.953 455.217C329.892 455.226 329.836 455.226 329.785 455.217C329.734 455.208 329.685 455.189 329.638 455.161C329.596 455.133 329.563 455.103 329.54 455.07L329.148 454.531L332.137 451.948H333.152V461.048H335.126ZM344.121 456.988C344.121 457.865 344.025 458.626 343.834 459.27C343.647 459.909 343.391 460.439 343.064 460.859C342.737 461.279 342.35 461.592 341.902 461.797C341.459 462.002 340.983 462.105 340.474 462.105C339.961 462.105 339.482 462.002 339.039 461.797C338.6 461.592 338.218 461.279 337.891 460.859C337.564 460.439 337.308 459.909 337.121 459.27C336.934 458.626 336.841 457.865 336.841 456.988C336.841 456.111 336.934 455.35 337.121 454.706C337.308 454.062 337.564 453.53 337.891 453.11C338.218 452.685 338.6 452.37 339.039 452.165C339.482 451.96 339.961 451.857 340.474 451.857C340.983 451.857 341.459 451.96 341.902 452.165C342.35 452.37 342.737 452.685 343.064 453.11C343.391 453.53 343.647 454.062 343.834 454.706C344.025 455.35 344.121 456.111 344.121 456.988ZM342.826 456.988C342.826 456.223 342.761 455.581 342.63 455.063C342.504 454.54 342.331 454.12 342.112 453.803C341.897 453.486 341.648 453.259 341.363 453.124C341.078 452.984 340.782 452.914 340.474 452.914C340.166 452.914 339.87 452.984 339.585 453.124C339.3 453.259 339.051 453.486 338.836 453.803C338.621 454.12 338.449 454.54 338.318 455.063C338.192 455.581 338.129 456.223 338.129 456.988C338.129 457.753 338.192 458.395 338.318 458.913C338.449 459.431 338.621 459.849 338.836 460.166C339.051 460.483 339.3 460.712 339.585 460.852C339.87 460.987 340.166 461.055 340.474 461.055C340.782 461.055 341.078 460.987 341.363 460.852C341.648 460.712 341.897 460.483 342.112 460.166C342.331 459.849 342.504 459.431 342.63 458.913C342.761 458.395 342.826 457.753 342.826 456.988ZM352.542 456.988C352.542 457.865 352.447 458.626 352.255 459.27C352.069 459.909 351.812 460.439 351.485 460.859C351.159 461.279 350.771 461.592 350.323 461.797C349.88 462.002 349.404 462.105 348.895 462.105C348.382 462.105 347.904 462.002 347.46 461.797C347.022 461.592 346.639 461.279 346.312 460.859C345.986 460.439 345.729 459.909 345.542 459.27C345.356 458.626 345.262 457.865 345.262 456.988C345.262 456.111 345.356 455.35 345.542 454.706C345.729 454.062 345.986 453.53 346.312 453.11C346.639 452.685 347.022 452.37 347.46 452.165C347.904 451.96 348.382 451.857 348.895 451.857C349.404 451.857 349.88 451.96 350.323 452.165C350.771 452.37 351.159 452.685 351.485 453.11C351.812 453.53 352.069 454.062 352.255 454.706C352.447 455.35 352.542 456.111 352.542 456.988ZM351.247 456.988C351.247 456.223 351.182 455.581 351.051 455.063C350.925 454.54 350.753 454.12 350.533 453.803C350.319 453.486 350.069 453.259 349.784 453.124C349.5 452.984 349.203 452.914 348.895 452.914C348.587 452.914 348.291 452.984 348.006 453.124C347.722 453.259 347.472 453.486 347.257 453.803C347.043 454.12 346.87 454.54 346.739 455.063C346.613 455.581 346.55 456.223 346.55 456.988C346.55 457.753 346.613 458.395 346.739 458.913C346.87 459.431 347.043 459.849 347.257 460.166C347.472 460.483 347.722 460.712 348.006 460.852C348.291 460.987 348.587 461.055 348.895 461.055C349.203 461.055 349.5 460.987 349.784 460.852C350.069 460.712 350.319 460.483 350.533 460.166C350.753 459.849 350.925 459.431 351.051 458.913C351.182 458.395 351.247 457.753 351.247 456.988ZM358.317 454.391C358.317 454.783 358.257 455.135 358.135 455.448C358.014 455.756 357.851 456.017 357.645 456.232C357.445 456.442 357.209 456.603 356.938 456.715C356.672 456.827 356.39 456.883 356.091 456.883C355.779 456.883 355.487 456.827 355.216 456.715C354.946 456.603 354.71 456.442 354.509 456.232C354.313 456.017 354.159 455.756 354.047 455.448C353.935 455.135 353.879 454.783 353.879 454.391C353.879 453.99 353.935 453.633 354.047 453.32C354.159 453.007 354.313 452.744 354.509 452.529C354.71 452.314 354.946 452.151 355.216 452.039C355.487 451.927 355.779 451.871 356.091 451.871C356.409 451.871 356.703 451.927 356.973 452.039C357.244 452.151 357.48 452.314 357.68 452.529C357.881 452.744 358.037 453.007 358.149 453.32C358.261 453.633 358.317 453.99 358.317 454.391ZM357.351 454.391C357.351 454.083 357.319 453.822 357.253 453.607C357.188 453.392 357.097 453.217 356.98 453.082C356.868 452.942 356.735 452.842 356.581 452.781C356.427 452.72 356.264 452.69 356.091 452.69C355.919 452.69 355.758 452.72 355.608 452.781C355.459 452.842 355.328 452.942 355.216 453.082C355.104 453.217 355.016 453.392 354.95 453.607C354.885 453.822 354.852 454.083 354.852 454.391C354.852 454.694 354.885 454.953 354.95 455.168C355.016 455.378 355.104 455.551 355.216 455.686C355.328 455.817 355.459 455.912 355.608 455.973C355.758 456.029 355.919 456.057 356.091 456.057C356.264 456.057 356.427 456.029 356.581 455.973C356.735 455.912 356.868 455.817 356.98 455.686C357.097 455.551 357.188 455.378 357.253 455.168C357.319 454.953 357.351 454.694 357.351 454.391ZM361.866 452.179C361.913 452.123 361.967 452.074 362.027 452.032C362.093 451.99 362.179 451.969 362.286 451.969H363.189L355.853 461.797C355.811 461.858 355.758 461.907 355.692 461.944C355.627 461.981 355.548 462 355.454 462H354.537L361.866 452.179ZM363.868 459.634C363.868 460.026 363.808 460.376 363.686 460.684C363.565 460.992 363.402 461.253 363.196 461.468C362.996 461.678 362.76 461.839 362.489 461.951C362.223 462.063 361.941 462.119 361.642 462.119C361.325 462.119 361.031 462.063 360.76 461.951C360.494 461.839 360.261 461.678 360.06 461.468C359.864 461.253 359.71 460.992 359.598 460.684C359.486 460.376 359.43 460.026 359.43 459.634C359.43 459.233 359.486 458.876 359.598 458.563C359.71 458.246 359.864 457.98 360.06 457.765C360.261 457.55 360.494 457.387 360.76 457.275C361.031 457.163 361.325 457.107 361.642 457.107C361.955 457.107 362.247 457.163 362.517 457.275C362.793 457.387 363.028 457.55 363.224 457.765C363.425 457.98 363.581 458.246 363.693 458.563C363.81 458.876 363.868 459.233 363.868 459.634ZM362.902 459.634C362.902 459.326 362.87 459.065 362.804 458.85C362.739 458.631 362.648 458.453 362.531 458.318C362.419 458.183 362.286 458.085 362.132 458.024C361.978 457.963 361.815 457.933 361.642 457.933C361.47 457.933 361.306 457.963 361.152 458.024C361.003 458.085 360.872 458.183 360.76 458.318C360.648 458.453 360.56 458.631 360.494 458.85C360.434 459.065 360.403 459.326 360.403 459.634C360.403 459.937 360.434 460.194 360.494 460.404C360.56 460.614 360.648 460.787 360.76 460.922C360.872 461.053 361.003 461.148 361.152 461.209C361.306 461.265 361.47 461.293 361.642 461.293C361.815 461.293 361.978 461.265 362.132 461.209C362.286 461.148 362.419 461.053 362.531 460.922C362.648 460.787 362.739 460.614 362.804 460.404C362.87 460.194 362.902 459.937 362.902 459.634ZM372.646 454.797C373.164 454.797 373.631 454.883 374.046 455.056C374.461 455.229 374.816 455.474 375.11 455.791C375.404 456.108 375.628 456.493 375.782 456.946C375.941 457.394 376.02 457.896 376.02 458.451C376.02 459.011 375.941 459.515 375.782 459.963C375.628 460.411 375.404 460.794 375.11 461.111C374.816 461.428 374.461 461.673 374.046 461.846C373.631 462.014 373.164 462.098 372.646 462.098C372.123 462.098 371.652 462.014 371.232 461.846C370.817 461.673 370.462 461.428 370.168 461.111C369.874 460.794 369.648 460.411 369.489 459.963C369.335 459.515 369.258 459.011 369.258 458.451C369.258 457.896 369.335 457.394 369.489 456.946C369.648 456.493 369.874 456.108 370.168 455.791C370.462 455.474 370.817 455.229 371.232 455.056C371.652 454.883 372.123 454.797 372.646 454.797ZM372.646 461.125C373.346 461.125 373.869 460.892 374.214 460.425C374.559 459.954 374.732 459.298 374.732 458.458C374.732 457.613 374.559 456.955 374.214 456.484C373.869 456.013 373.346 455.777 372.646 455.777C372.291 455.777 371.981 455.838 371.715 455.959C371.454 456.08 371.234 456.255 371.057 456.484C370.884 456.713 370.754 456.995 370.665 457.331C370.581 457.662 370.539 458.038 370.539 458.458C370.539 459.298 370.712 459.954 371.057 460.425C371.407 460.892 371.937 461.125 372.646 461.125ZM378.212 462V455.973L377.428 455.882C377.33 455.859 377.248 455.824 377.183 455.777C377.122 455.726 377.092 455.653 377.092 455.56V455.049H378.212V454.363C378.212 453.957 378.268 453.598 378.38 453.285C378.497 452.968 378.66 452.702 378.87 452.487C379.085 452.268 379.341 452.102 379.64 451.99C379.939 451.878 380.275 451.822 380.648 451.822C380.965 451.822 381.257 451.869 381.523 451.962L381.495 452.585C381.486 452.697 381.423 452.758 381.306 452.767C381.194 452.776 381.042 452.781 380.851 452.781C380.636 452.781 380.44 452.809 380.263 452.865C380.09 452.921 379.941 453.012 379.815 453.138C379.689 453.264 379.591 453.43 379.521 453.635C379.456 453.84 379.423 454.095 379.423 454.398V455.049H381.467V455.952H379.465V462H378.212ZM387.896 454.909V462.525C387.896 462.81 387.859 463.073 387.784 463.316C387.71 463.563 387.591 463.778 387.427 463.96C387.264 464.142 387.054 464.284 386.797 464.387C386.545 464.494 386.242 464.548 385.887 464.548C385.738 464.548 385.6 464.536 385.474 464.513C385.348 464.49 385.222 464.455 385.096 464.408L385.145 463.736C385.155 463.694 385.171 463.661 385.194 463.638C385.213 463.619 385.241 463.608 385.278 463.603C385.316 463.598 385.365 463.596 385.425 463.596C385.481 463.601 385.554 463.603 385.642 463.603C386.006 463.603 386.265 463.517 386.419 463.344C386.573 463.176 386.65 462.903 386.65 462.525V454.909H387.896ZM388.155 452.683C388.155 452.804 388.13 452.919 388.078 453.026C388.032 453.129 387.966 453.222 387.882 453.306C387.803 453.385 387.71 453.448 387.602 453.495C387.495 453.542 387.381 453.565 387.259 453.565C387.138 453.565 387.024 453.542 386.916 453.495C386.814 453.448 386.723 453.385 386.643 453.306C386.564 453.222 386.501 453.129 386.454 453.026C386.408 452.919 386.384 452.804 386.384 452.683C386.384 452.562 386.408 452.447 386.454 452.34C386.501 452.228 386.564 452.132 386.643 452.053C386.723 451.969 386.814 451.904 386.916 451.857C387.024 451.81 387.138 451.787 387.259 451.787C387.381 451.787 387.495 451.81 387.602 451.857C387.71 451.904 387.803 451.969 387.882 452.053C387.966 452.132 388.032 452.228 388.078 452.34C388.13 452.447 388.155 452.562 388.155 452.683Z" fill="black"/>
<path d="M524.413 332.435V348.043H522.391V336.935C522.391 336.768 522.395 336.591 522.402 336.402C522.417 336.214 522.431 336.022 522.446 335.826L517.25 345.359C517.069 345.714 516.79 345.891 516.413 345.891H516.087C515.71 345.891 515.435 345.714 515.261 345.359L509.967 335.793C510.011 336.199 510.033 336.58 510.033 336.935V348.043H508V332.435H509.717C509.92 332.435 510.076 332.457 510.185 332.5C510.301 332.536 510.409 332.645 510.511 332.826L515.728 342.174C515.83 342.362 515.924 342.562 516.011 342.772C516.098 342.982 516.181 343.192 516.261 343.402C516.413 342.975 516.591 342.562 516.793 342.163L521.913 332.826C522.007 332.645 522.109 332.536 522.217 332.5C522.333 332.457 522.493 332.435 522.696 332.435H524.413Z" fill="#41A5DD"/>
<path d="M532.641 336.826C533.453 336.826 534.185 336.96 534.837 337.228C535.496 337.489 536.054 337.87 536.511 338.37C536.974 338.862 537.33 339.46 537.576 340.163C537.822 340.859 537.945 341.641 537.945 342.511C537.945 343.38 537.822 344.167 537.576 344.87C537.33 345.572 536.974 346.17 536.511 346.663C536.054 347.156 535.496 347.536 534.837 347.804C534.185 348.065 533.453 348.196 532.641 348.196C531.822 348.196 531.083 348.065 530.424 347.804C529.772 347.536 529.214 347.156 528.75 346.663C528.286 346.17 527.927 345.572 527.674 344.87C527.427 344.167 527.304 343.38 527.304 342.511C527.304 341.641 527.427 340.859 527.674 340.163C527.927 339.46 528.286 338.862 528.75 338.37C529.214 337.87 529.772 337.489 530.424 337.228C531.083 336.96 531.822 336.826 532.641 336.826ZM532.641 346.543C533.685 346.543 534.464 346.192 534.978 345.489C535.493 344.786 535.75 343.797 535.75 342.522C535.75 341.246 535.493 340.257 534.978 339.554C534.464 338.844 533.685 338.489 532.641 338.489C531.583 338.489 530.793 338.844 530.272 339.554C529.757 340.257 529.5 341.246 529.5 342.522C529.5 343.797 529.757 344.786 530.272 345.489C530.793 346.192 531.583 346.543 532.641 346.543Z" fill="#41A5DD"/>
<path d="M550.015 337L545.537 348.043H543.623L539.145 337H540.895C541.062 337 541.2 337.04 541.308 337.12C541.417 337.199 541.489 337.301 541.526 337.424L544.167 344.207C544.261 344.489 544.341 344.772 544.406 345.054C544.479 345.33 544.544 345.605 544.602 345.88C544.66 345.605 544.725 345.33 544.797 345.054C544.87 344.779 544.957 344.496 545.058 344.207L547.732 337.424C547.776 337.301 547.852 337.199 547.96 337.12C548.069 337.04 548.2 337 548.352 337H550.015Z" fill="#41A5DD"/>
<path d="M559.132 341.293C559.132 340.873 559.071 340.486 558.948 340.13C558.832 339.775 558.658 339.467 558.426 339.207C558.194 338.946 557.911 338.743 557.578 338.598C557.245 338.453 556.861 338.38 556.426 338.38C555.534 338.38 554.832 338.638 554.317 339.152C553.81 339.667 553.487 340.38 553.35 341.293H559.132ZM560.882 346.467C560.621 346.772 560.321 347.036 559.98 347.261C559.64 347.478 559.277 347.656 558.893 347.793C558.509 347.931 558.111 348.033 557.698 348.098C557.292 348.163 556.89 348.196 556.491 348.196C555.73 348.196 555.024 348.069 554.371 347.815C553.726 347.554 553.165 347.178 552.687 346.685C552.216 346.185 551.846 345.569 551.578 344.837C551.317 344.098 551.187 343.25 551.187 342.293C551.187 341.525 551.306 340.812 551.545 340.152C551.784 339.486 552.125 338.906 552.567 338.413C553.016 337.92 553.563 337.533 554.208 337.25C554.853 336.967 555.578 336.826 556.382 336.826C557.056 336.826 557.676 336.938 558.241 337.163C558.813 337.38 559.306 337.699 559.719 338.12C560.132 338.54 560.455 339.058 560.687 339.674C560.926 340.29 561.045 340.993 561.045 341.783C561.045 342.109 561.009 342.33 560.937 342.446C560.864 342.554 560.73 342.609 560.534 342.609H553.295C553.317 343.268 553.411 343.844 553.578 344.337C553.745 344.822 553.973 345.228 554.263 345.554C554.56 345.88 554.911 346.123 555.317 346.283C555.723 346.442 556.176 346.522 556.676 346.522C557.147 346.522 557.553 346.467 557.893 346.359C558.241 346.25 558.538 346.134 558.784 346.011C559.038 345.88 559.248 345.761 559.415 345.652C559.589 345.543 559.741 345.489 559.871 345.489C560.045 345.489 560.179 345.554 560.274 345.685L560.882 346.467Z" fill="#41A5DD"/>
<path d="M575.626 343.141C574.764 343.17 574.032 343.239 573.431 343.348C572.829 343.449 572.34 343.587 571.963 343.761C571.586 343.935 571.315 344.141 571.148 344.38C570.981 344.612 570.898 344.873 570.898 345.163C570.898 345.438 570.942 345.678 571.029 345.88C571.123 346.076 571.246 346.239 571.398 346.37C571.558 346.493 571.742 346.583 571.952 346.641C572.163 346.699 572.391 346.728 572.637 346.728C572.963 346.728 573.26 346.696 573.529 346.63C573.804 346.565 574.061 346.475 574.3 346.359C574.539 346.236 574.768 346.087 574.985 345.913C575.202 345.739 575.416 345.54 575.626 345.315V343.141ZM569.409 338.543C570.025 337.957 570.692 337.518 571.409 337.228C572.134 336.938 572.927 336.793 573.789 336.793C574.42 336.793 574.978 336.899 575.463 337.109C575.949 337.312 576.358 337.598 576.692 337.967C577.025 338.337 577.275 338.779 577.442 339.293C577.615 339.808 577.702 340.377 577.702 341V348.043H576.757C576.547 348.043 576.387 348.011 576.279 347.946C576.17 347.873 576.083 347.743 576.018 347.554L575.789 346.587C575.507 346.848 575.228 347.08 574.952 347.283C574.677 347.478 574.387 347.649 574.083 347.793C573.786 347.931 573.467 348.036 573.126 348.109C572.786 348.181 572.409 348.217 571.996 348.217C571.561 348.217 571.152 348.159 570.768 348.043C570.391 347.92 570.061 347.736 569.779 347.489C569.496 347.243 569.271 346.935 569.105 346.565C568.945 346.196 568.865 345.764 568.865 345.272C568.865 344.837 568.981 344.42 569.213 344.022C569.452 343.616 569.836 343.254 570.365 342.935C570.902 342.616 571.597 342.355 572.452 342.152C573.315 341.949 574.373 341.833 575.626 341.804V341C575.626 340.167 575.449 339.543 575.094 339.13C574.739 338.717 574.217 338.511 573.529 338.511C573.065 338.511 572.673 338.569 572.355 338.685C572.043 338.801 571.771 338.931 571.539 339.076C571.315 339.214 571.115 339.341 570.942 339.457C570.775 339.572 570.601 339.63 570.42 339.63C570.275 339.63 570.148 339.591 570.039 339.511C569.938 339.431 569.855 339.337 569.789 339.228L569.409 338.543Z" fill="#41A5DD"/>
<path d="M582.964 338.533C583.203 338.279 583.453 338.047 583.714 337.837C583.975 337.627 584.25 337.449 584.54 337.304C584.837 337.152 585.152 337.036 585.486 336.957C585.826 336.87 586.188 336.826 586.573 336.826C587.181 336.826 587.714 336.928 588.17 337.13C588.634 337.333 589.022 337.62 589.333 337.989C589.645 338.351 589.88 338.79 590.04 339.304C590.199 339.819 590.279 340.388 590.279 341.011V348.043H588.149V341.011C588.149 340.221 587.967 339.609 587.605 339.174C587.243 338.732 586.688 338.511 585.942 338.511C585.399 338.511 584.888 338.641 584.409 338.902C583.938 339.156 583.5 339.504 583.094 339.946V348.043H580.975V337H582.246C582.544 337 582.728 337.141 582.801 337.424L582.964 338.533Z" fill="#41A5DD"/>
<path d="M602.95 337L596.82 351.25C596.755 351.409 596.668 351.533 596.559 351.62C596.45 351.707 596.291 351.75 596.081 351.75H594.505L596.526 347.348L591.994 337H593.842C594.023 337 594.164 337.043 594.265 337.13C594.367 337.217 594.439 337.315 594.483 337.424L597.287 344.054C597.345 344.221 597.4 344.391 597.45 344.565C597.508 344.732 597.555 344.899 597.592 345.065C597.642 344.891 597.697 344.721 597.755 344.554C597.813 344.38 597.874 344.21 597.939 344.043L600.646 337.424C600.697 337.301 600.776 337.199 600.885 337.12C600.994 337.04 601.117 337 601.255 337H602.95Z" fill="#41A5DD"/>
<path d="M608.462 348.217C607.571 348.217 606.883 347.967 606.397 347.467C605.919 346.967 605.68 346.254 605.68 345.326V338.717H604.397C604.274 338.717 604.169 338.681 604.082 338.609C604.002 338.529 603.962 338.413 603.962 338.261V337.402L605.756 337.152L606.234 333.859C606.263 333.736 606.317 333.641 606.397 333.576C606.484 333.504 606.593 333.467 606.723 333.467H607.799V337.174H610.93V338.717H607.799V345.185C607.799 345.62 607.904 345.946 608.114 346.163C608.332 346.373 608.607 346.478 608.941 346.478C609.136 346.478 609.303 346.453 609.441 346.402C609.585 346.351 609.709 346.297 609.81 346.239C609.912 346.174 609.999 346.116 610.071 346.065C610.143 346.014 610.209 345.989 610.267 345.989C610.339 345.989 610.393 346.007 610.43 346.043C610.473 346.072 610.517 346.123 610.56 346.196L611.191 347.217C610.843 347.536 610.43 347.783 609.951 347.957C609.473 348.13 608.977 348.217 608.462 348.217Z" fill="#41A5DD"/>
<path d="M615.436 338.402C615.9 337.931 616.411 337.551 616.969 337.261C617.534 336.971 618.183 336.826 618.915 336.826C619.523 336.826 620.056 336.928 620.512 337.13C620.976 337.333 621.364 337.62 621.675 337.989C621.987 338.351 622.223 338.79 622.382 339.304C622.541 339.819 622.621 340.388 622.621 341.011V348.043H620.491V341.011C620.491 340.221 620.309 339.609 619.947 339.174C619.585 338.732 619.031 338.511 618.284 338.511C617.741 338.511 617.23 338.641 616.752 338.902C616.281 339.156 615.842 339.504 615.436 339.946V348.043H613.317V332H615.436V338.402Z" fill="#41A5DD"/>
<path d="M628.133 337V348.043H626.014V337H628.133ZM628.536 333.587C628.536 333.783 628.496 333.971 628.416 334.152C628.336 334.326 628.228 334.482 628.09 334.62C627.96 334.75 627.804 334.855 627.623 334.935C627.441 335.007 627.253 335.043 627.057 335.043C626.862 335.043 626.677 335.007 626.503 334.935C626.329 334.855 626.173 334.75 626.036 334.62C625.905 334.482 625.8 334.326 625.72 334.152C625.648 333.971 625.612 333.783 625.612 333.587C625.612 333.384 625.648 333.196 625.72 333.022C625.8 332.841 625.905 332.685 626.036 332.554C626.173 332.417 626.329 332.312 626.503 332.239C626.677 332.159 626.862 332.12 627.057 332.12C627.253 332.12 627.441 332.159 627.623 332.239C627.804 332.312 627.96 332.417 628.09 332.554C628.228 332.685 628.336 332.841 628.416 333.022C628.496 333.196 628.536 333.384 628.536 333.587Z" fill="#41A5DD"/>
<path d="M633.626 338.533C633.865 338.279 634.115 338.047 634.376 337.837C634.637 337.627 634.912 337.449 635.202 337.304C635.499 337.152 635.815 337.036 636.148 336.957C636.488 336.87 636.851 336.826 637.235 336.826C637.844 336.826 638.376 336.928 638.833 337.13C639.296 337.333 639.684 337.62 639.996 337.989C640.307 338.351 640.543 338.79 640.702 339.304C640.862 339.819 640.941 340.388 640.941 341.011V348.043H638.811V341.011C638.811 340.221 638.63 339.609 638.267 339.174C637.905 338.732 637.351 338.511 636.604 338.511C636.061 338.511 635.55 338.641 635.072 338.902C634.601 339.156 634.162 339.504 633.757 339.946V348.043H631.637V337H632.909C633.206 337 633.391 337.141 633.463 337.424L633.626 338.533Z" fill="#41A5DD"/>
<path d="M648.117 342.533C648.494 342.533 648.823 342.482 649.106 342.38C649.396 342.279 649.635 342.138 649.823 341.957C650.019 341.768 650.164 341.543 650.258 341.283C650.36 341.022 650.41 340.736 650.41 340.424C650.41 339.786 650.215 339.279 649.823 338.902C649.439 338.518 648.87 338.326 648.117 338.326C647.37 338.326 646.802 338.518 646.41 338.902C646.026 339.279 645.834 339.786 645.834 340.424C645.834 340.736 645.881 341.022 645.976 341.283C646.077 341.536 646.222 341.757 646.41 341.946C646.606 342.127 646.845 342.272 647.128 342.38C647.418 342.482 647.747 342.533 648.117 342.533ZM651.497 348.62C651.497 348.359 651.425 348.152 651.28 348C651.135 347.841 650.936 347.717 650.682 347.63C650.436 347.536 650.146 347.471 649.812 347.435C649.479 347.391 649.128 347.359 648.758 347.337C648.396 347.315 648.023 347.297 647.639 347.283C647.255 347.261 646.885 347.225 646.53 347.174C646.153 347.362 645.841 347.591 645.595 347.859C645.356 348.127 645.236 348.442 645.236 348.804C645.236 349.036 645.294 349.254 645.41 349.457C645.534 349.659 645.718 349.833 645.965 349.978C646.218 350.13 646.534 350.246 646.91 350.326C647.294 350.413 647.751 350.457 648.28 350.457C648.802 350.457 649.262 350.409 649.66 350.315C650.059 350.228 650.392 350.101 650.66 349.935C650.936 349.775 651.142 349.583 651.28 349.359C651.425 349.134 651.497 348.888 651.497 348.62ZM653.649 337.413V338.207C653.649 338.467 653.486 338.63 653.16 338.696L651.976 338.87C652.077 339.094 652.157 339.333 652.215 339.587C652.273 339.833 652.302 340.094 652.302 340.37C652.302 340.913 652.197 341.406 651.986 341.848C651.776 342.283 651.486 342.656 651.117 342.967C650.747 343.279 650.305 343.518 649.791 343.685C649.284 343.851 648.726 343.935 648.117 343.935C647.617 343.935 647.149 343.88 646.715 343.772C646.497 343.902 646.331 344.047 646.215 344.207C646.106 344.359 646.052 344.511 646.052 344.663C646.052 344.917 646.157 345.105 646.367 345.228C646.584 345.351 646.863 345.442 647.204 345.5C647.552 345.551 647.947 345.583 648.389 345.598C648.838 345.612 649.291 345.638 649.747 345.674C650.211 345.703 650.664 345.761 651.106 345.848C651.555 345.928 651.95 346.062 652.291 346.25C652.639 346.431 652.918 346.685 653.128 347.011C653.345 347.33 653.454 347.746 653.454 348.261C653.454 348.739 653.334 349.203 653.095 349.652C652.863 350.101 652.523 350.5 652.073 350.848C651.624 351.196 651.077 351.475 650.432 351.685C649.787 351.895 649.055 352 648.236 352C647.418 352 646.704 351.92 646.095 351.761C645.494 351.601 644.99 351.388 644.584 351.12C644.186 350.851 643.885 350.54 643.682 350.185C643.486 349.83 643.389 349.46 643.389 349.076C643.389 348.54 643.555 348.087 643.889 347.717C644.222 347.341 644.682 347.047 645.269 346.837C644.95 346.692 644.697 346.496 644.508 346.25C644.32 345.996 644.226 345.663 644.226 345.25C644.226 345.091 644.255 344.928 644.312 344.761C644.37 344.587 644.457 344.417 644.573 344.25C644.697 344.076 644.845 343.913 645.019 343.761C645.2 343.609 645.407 343.471 645.639 343.348C645.095 343.043 644.668 342.641 644.356 342.141C644.044 341.634 643.889 341.043 643.889 340.37C643.889 339.826 643.994 339.337 644.204 338.902C644.414 338.467 644.704 338.094 645.073 337.783C645.45 337.471 645.896 337.232 646.41 337.065C646.932 336.899 647.501 336.815 648.117 336.815C649.073 336.815 649.896 337.014 650.584 337.413H653.649Z" fill="#41A5DD"/>
<path d="M656.986 348.043C656.79 348.043 656.609 348.007 656.442 347.935C656.283 347.862 656.141 347.764 656.018 347.641C655.902 347.511 655.812 347.359 655.746 347.185C655.681 347.011 655.649 346.822 655.649 346.62C655.649 346.446 655.681 346.283 655.746 346.13C655.812 345.971 655.902 345.833 656.018 345.717C656.141 345.601 656.286 345.511 656.453 345.446C656.62 345.373 656.804 345.337 657.007 345.337C657.239 345.337 657.442 345.38 657.616 345.467C657.797 345.547 657.946 345.663 658.062 345.815C658.185 345.96 658.275 346.13 658.333 346.326C658.391 346.522 658.42 346.732 658.42 346.957C658.42 347.283 658.373 347.627 658.279 347.989C658.185 348.351 658.047 348.71 657.866 349.065C657.685 349.42 657.46 349.764 657.192 350.098C656.924 350.431 656.62 350.739 656.279 351.022L655.92 350.685C655.812 350.583 655.757 350.471 655.757 350.348C655.757 350.297 655.772 350.243 655.801 350.185C655.837 350.134 655.88 350.083 655.931 350.033C656.004 349.953 656.098 349.848 656.214 349.717C656.33 349.587 656.442 349.435 656.551 349.261C656.667 349.094 656.772 348.906 656.866 348.696C656.967 348.493 657.04 348.275 657.083 348.043H656.986Z" fill="#41A5DD"/>
<path d="M673.3 343.141C672.437 343.17 671.705 343.239 671.104 343.348C670.502 343.449 670.013 343.587 669.637 343.761C669.26 343.935 668.988 344.141 668.821 344.38C668.655 344.612 668.571 344.873 668.571 345.163C668.571 345.438 668.615 345.678 668.702 345.88C668.796 346.076 668.919 346.239 669.071 346.37C669.231 346.493 669.416 346.583 669.626 346.641C669.836 346.699 670.064 346.728 670.31 346.728C670.637 346.728 670.934 346.696 671.202 346.63C671.477 346.565 671.734 346.475 671.973 346.359C672.213 346.236 672.441 346.087 672.658 345.913C672.876 345.739 673.089 345.54 673.3 345.315V343.141ZM667.082 338.543C667.698 337.957 668.365 337.518 669.082 337.228C669.807 336.938 670.6 336.793 671.463 336.793C672.093 336.793 672.651 336.899 673.137 337.109C673.622 337.312 674.031 337.598 674.365 337.967C674.698 338.337 674.948 338.779 675.115 339.293C675.289 339.808 675.376 340.377 675.376 341V348.043H674.43C674.22 348.043 674.06 348.011 673.952 347.946C673.843 347.873 673.756 347.743 673.691 347.554L673.463 346.587C673.18 346.848 672.901 347.08 672.626 347.283C672.35 347.478 672.06 347.649 671.756 347.793C671.459 347.931 671.14 348.036 670.8 348.109C670.459 348.181 670.082 348.217 669.669 348.217C669.234 348.217 668.825 348.159 668.441 348.043C668.064 347.92 667.734 347.736 667.452 347.489C667.169 347.243 666.945 346.935 666.778 346.565C666.618 346.196 666.539 345.764 666.539 345.272C666.539 344.837 666.655 344.42 666.887 344.022C667.126 343.616 667.51 343.254 668.039 342.935C668.575 342.616 669.271 342.355 670.126 342.152C670.988 341.949 672.046 341.833 673.3 341.804V341C673.3 340.167 673.122 339.543 672.767 339.13C672.412 338.717 671.89 338.511 671.202 338.511C670.738 338.511 670.347 338.569 670.028 338.685C669.716 338.801 669.445 338.931 669.213 339.076C668.988 339.214 668.789 339.341 668.615 339.457C668.448 339.572 668.274 339.63 668.093 339.63C667.948 339.63 667.821 339.591 667.713 339.511C667.611 339.431 667.528 339.337 667.463 339.228L667.082 338.543Z" fill="#41A5DD"/>
<path d="M680.637 338.533C680.876 338.279 681.126 338.047 681.387 337.837C681.648 337.627 681.923 337.449 682.213 337.304C682.51 337.152 682.825 337.036 683.159 336.957C683.499 336.87 683.862 336.826 684.246 336.826C684.854 336.826 685.387 336.928 685.844 337.13C686.307 337.333 686.695 337.62 687.007 337.989C687.318 338.351 687.554 338.79 687.713 339.304C687.873 339.819 687.952 340.388 687.952 341.011V348.043H685.822V341.011C685.822 340.221 685.641 339.609 685.278 339.174C684.916 338.732 684.362 338.511 683.615 338.511C683.072 338.511 682.561 338.641 682.083 338.902C681.612 339.156 681.173 339.504 680.767 339.946V348.043H678.648V337H679.92C680.217 337 680.402 337.141 680.474 337.424L680.637 338.533Z" fill="#41A5DD"/>
<path d="M700.623 337L694.493 351.25C694.428 351.409 694.341 351.533 694.232 351.62C694.123 351.707 693.964 351.75 693.754 351.75H692.178L694.2 347.348L689.667 337H691.515C691.696 337 691.837 337.043 691.939 337.13C692.04 337.217 692.113 337.315 692.156 337.424L694.96 344.054C695.018 344.221 695.073 344.391 695.123 344.565C695.181 344.732 695.229 344.899 695.265 345.065C695.315 344.891 695.37 344.721 695.428 344.554C695.486 344.38 695.547 344.21 695.613 344.043L698.319 337.424C698.37 337.301 698.45 337.199 698.558 337.12C698.667 337.04 698.79 337 698.928 337H700.623Z" fill="#41A5DD"/>
<path d="M718.038 337L714.483 348.043H712.788C712.585 348.043 712.447 347.909 712.375 347.641L710.049 340.446C709.991 340.264 709.94 340.087 709.896 339.913C709.853 339.732 709.813 339.551 709.777 339.37C709.712 339.746 709.621 340.112 709.505 340.467L707.146 347.641C707.074 347.909 706.918 348.043 706.679 348.043H705.07L701.505 337H703.179C703.346 337 703.483 337.04 703.592 337.12C703.708 337.199 703.784 337.301 703.82 337.424L705.809 344.207C705.875 344.482 705.933 344.75 705.983 345.011C706.034 345.272 706.081 345.533 706.125 345.793C706.19 345.533 706.259 345.272 706.331 345.011C706.411 344.75 706.491 344.482 706.57 344.207L708.777 337.38C708.813 337.257 708.882 337.159 708.983 337.087C709.085 337.007 709.208 336.967 709.353 336.967H710.277C710.436 336.967 710.567 337.007 710.668 337.087C710.777 337.159 710.849 337.257 710.886 337.38L713.038 344.207C713.117 344.482 713.193 344.754 713.266 345.022C713.338 345.283 713.404 345.547 713.462 345.815C713.505 345.554 713.556 345.293 713.614 345.033C713.672 344.764 713.737 344.489 713.809 344.207L715.831 337.424C715.867 337.301 715.94 337.199 716.049 337.12C716.165 337.04 716.295 337 716.44 337H718.038Z" fill="#41A5DD"/>
<path d="M722.387 338.402C722.851 337.931 723.362 337.551 723.919 337.261C724.485 336.971 725.133 336.826 725.865 336.826C726.474 336.826 727.006 336.928 727.463 337.13C727.927 337.333 728.314 337.62 728.626 337.989C728.938 338.351 729.173 338.79 729.333 339.304C729.492 339.819 729.572 340.388 729.572 341.011V348.043H727.441V341.011C727.441 340.221 727.26 339.609 726.898 339.174C726.535 338.732 725.981 338.511 725.235 338.511C724.691 338.511 724.18 338.641 723.702 338.902C723.231 339.156 722.793 339.504 722.387 339.946V348.043H720.267V332H722.387V338.402Z" fill="#41A5DD"/>
<path d="M740.182 341.293C740.182 340.873 740.12 340.486 739.997 340.13C739.881 339.775 739.707 339.467 739.475 339.207C739.243 338.946 738.961 338.743 738.628 338.598C738.294 338.453 737.91 338.38 737.475 338.38C736.584 338.38 735.881 338.638 735.367 339.152C734.859 339.667 734.537 340.38 734.399 341.293H740.182ZM741.932 346.467C741.671 346.772 741.37 347.036 741.03 347.261C740.689 347.478 740.327 347.656 739.943 347.793C739.559 347.931 739.16 348.033 738.747 348.098C738.341 348.163 737.939 348.196 737.541 348.196C736.78 348.196 736.073 348.069 735.421 347.815C734.776 347.554 734.214 347.178 733.736 346.685C733.265 346.185 732.896 345.569 732.628 344.837C732.367 344.098 732.236 343.25 732.236 342.293C732.236 341.525 732.356 340.812 732.595 340.152C732.834 339.486 733.175 338.906 733.617 338.413C734.066 337.92 734.613 337.533 735.258 337.25C735.903 336.967 736.628 336.826 737.432 336.826C738.106 336.826 738.725 336.938 739.291 337.163C739.863 337.38 740.356 337.699 740.769 338.12C741.182 338.54 741.504 339.058 741.736 339.674C741.975 340.29 742.095 340.993 742.095 341.783C742.095 342.109 742.059 342.33 741.986 342.446C741.914 342.554 741.78 342.609 741.584 342.609H734.345C734.367 343.268 734.461 343.844 734.628 344.337C734.794 344.822 735.022 345.228 735.312 345.554C735.609 345.88 735.961 346.123 736.367 346.283C736.772 346.442 737.225 346.522 737.725 346.522C738.196 346.522 738.602 346.467 738.943 346.359C739.291 346.25 739.588 346.134 739.834 346.011C740.088 345.88 740.298 345.761 740.464 345.652C740.638 345.543 740.791 345.489 740.921 345.489C741.095 345.489 741.229 345.554 741.323 345.685L741.932 346.467Z" fill="#41A5DD"/>
<path d="M746.808 339.12C747.163 338.395 747.59 337.826 748.09 337.413C748.59 337 749.192 336.793 749.895 336.793C750.134 336.793 750.359 336.822 750.569 336.88C750.786 336.931 750.975 337.011 751.134 337.12L750.993 338.717C750.942 338.913 750.822 339.011 750.634 339.011C750.533 339.011 750.38 338.993 750.177 338.957C749.975 338.913 749.757 338.891 749.525 338.891C749.185 338.891 748.884 338.942 748.623 339.043C748.362 339.138 748.127 339.283 747.917 339.478C747.714 339.667 747.533 339.902 747.373 340.185C747.214 340.46 747.065 340.775 746.927 341.13V348.043H744.808V337H746.025C746.257 337 746.413 337.043 746.493 337.13C746.58 337.21 746.641 337.355 746.677 337.565L746.808 339.12Z" fill="#41A5DD"/>
<path d="M760.116 341.293C760.116 340.873 760.054 340.486 759.931 340.13C759.815 339.775 759.641 339.467 759.409 339.207C759.177 338.946 758.895 338.743 758.561 338.598C758.228 338.453 757.844 338.38 757.409 338.38C756.518 338.38 755.815 338.638 755.3 339.152C754.793 339.667 754.471 340.38 754.333 341.293H760.116ZM761.866 346.467C761.605 346.772 761.304 347.036 760.963 347.261C760.623 347.478 760.261 347.656 759.876 347.793C759.492 347.931 759.094 348.033 758.681 348.098C758.275 348.163 757.873 348.196 757.474 348.196C756.713 348.196 756.007 348.069 755.355 347.815C754.71 347.554 754.148 347.178 753.67 346.685C753.199 346.185 752.829 345.569 752.561 344.837C752.3 344.098 752.17 343.25 752.17 342.293C752.17 341.525 752.29 340.812 752.529 340.152C752.768 339.486 753.108 338.906 753.55 338.413C754 337.92 754.547 337.533 755.192 337.25C755.837 336.967 756.561 336.826 757.366 336.826C758.04 336.826 758.659 336.938 759.224 337.163C759.797 337.38 760.29 337.699 760.703 338.12C761.116 338.54 761.438 339.058 761.67 339.674C761.909 340.29 762.029 340.993 762.029 341.783C762.029 342.109 761.992 342.33 761.92 342.446C761.848 342.554 761.713 342.609 761.518 342.609H754.279C754.3 343.268 754.395 343.844 754.561 344.337C754.728 344.822 754.956 345.228 755.246 345.554C755.543 345.88 755.895 346.123 756.3 346.283C756.706 346.442 757.159 346.522 757.659 346.522C758.13 346.522 758.536 346.467 758.876 346.359C759.224 346.25 759.521 346.134 759.768 346.011C760.021 345.88 760.232 345.761 760.398 345.652C760.572 345.543 760.724 345.489 760.855 345.489C761.029 345.489 761.163 345.554 761.257 345.685L761.866 346.467Z" fill="#41A5DD"/>
<line x1="823" y1="331.5" x2="837" y2="331.5" stroke="black"/>
<line x1="823" y1="350.5" x2="837" y2="350.5" stroke="black"/>
<line x1="836.5" y1="351" x2="836.5" y2="332" stroke="black"/>
<path d="M852.11 342.381V338.244C852.11 338.123 852.115 337.99 852.124 337.845C852.133 337.7 852.147 337.553 852.166 337.404L848.512 342.381H852.11ZM854.721 342.381V343.095C854.721 343.17 854.698 343.233 854.651 343.284C854.609 343.335 854.541 343.361 854.448 343.361H853.202V346H852.11V343.361H847.658C847.565 343.361 847.483 343.335 847.413 343.284C847.348 343.228 847.306 343.16 847.287 343.081L847.161 342.444L852.04 335.969H853.202V342.381H854.721ZM863.121 340.988C863.121 341.865 863.025 342.626 862.834 343.27C862.647 343.909 862.391 344.439 862.064 344.859C861.737 345.279 861.35 345.592 860.902 345.797C860.459 346.002 859.983 346.105 859.474 346.105C858.961 346.105 858.482 346.002 858.039 345.797C857.6 345.592 857.218 345.279 856.891 344.859C856.564 344.439 856.308 343.909 856.121 343.27C855.934 342.626 855.841 341.865 855.841 340.988C855.841 340.111 855.934 339.35 856.121 338.706C856.308 338.062 856.564 337.53 856.891 337.11C857.218 336.685 857.6 336.37 858.039 336.165C858.482 335.96 858.961 335.857 859.474 335.857C859.983 335.857 860.459 335.96 860.902 336.165C861.35 336.37 861.737 336.685 862.064 337.11C862.391 337.53 862.647 338.062 862.834 338.706C863.025 339.35 863.121 340.111 863.121 340.988ZM861.826 340.988C861.826 340.223 861.761 339.581 861.63 339.063C861.504 338.54 861.331 338.12 861.112 337.803C860.897 337.486 860.648 337.259 860.363 337.124C860.078 336.984 859.782 336.914 859.474 336.914C859.166 336.914 858.87 336.984 858.585 337.124C858.3 337.259 858.051 337.486 857.836 337.803C857.621 338.12 857.449 338.54 857.318 339.063C857.192 339.581 857.129 340.223 857.129 340.988C857.129 341.753 857.192 342.395 857.318 342.913C857.449 343.431 857.621 343.849 857.836 344.166C858.051 344.483 858.3 344.712 858.585 344.852C858.87 344.987 859.166 345.055 859.474 345.055C859.782 345.055 860.078 344.987 860.363 344.852C860.648 344.712 860.897 344.483 861.112 344.166C861.331 343.849 861.504 343.431 861.63 342.913C861.761 342.395 861.826 341.753 861.826 340.988ZM868.896 338.391C868.896 338.783 868.836 339.135 868.714 339.448C868.593 339.756 868.43 340.017 868.224 340.232C868.024 340.442 867.788 340.603 867.517 340.715C867.251 340.827 866.969 340.883 866.67 340.883C866.358 340.883 866.066 340.827 865.795 340.715C865.525 340.603 865.289 340.442 865.088 340.232C864.892 340.017 864.738 339.756 864.626 339.448C864.514 339.135 864.458 338.783 864.458 338.391C864.458 337.99 864.514 337.633 864.626 337.32C864.738 337.007 864.892 336.744 865.088 336.529C865.289 336.314 865.525 336.151 865.795 336.039C866.066 335.927 866.358 335.871 866.67 335.871C866.988 335.871 867.282 335.927 867.552 336.039C867.823 336.151 868.059 336.314 868.259 336.529C868.46 336.744 868.616 337.007 868.728 337.32C868.84 337.633 868.896 337.99 868.896 338.391ZM867.93 338.391C867.93 338.083 867.898 337.822 867.832 337.607C867.767 337.392 867.676 337.217 867.559 337.082C867.447 336.942 867.314 336.842 867.16 336.781C867.006 336.72 866.843 336.69 866.67 336.69C866.498 336.69 866.337 336.72 866.187 336.781C866.038 336.842 865.907 336.942 865.795 337.082C865.683 337.217 865.595 337.392 865.529 337.607C865.464 337.822 865.431 338.083 865.431 338.391C865.431 338.694 865.464 338.953 865.529 339.168C865.595 339.378 865.683 339.551 865.795 339.686C865.907 339.817 866.038 339.912 866.187 339.973C866.337 340.029 866.498 340.057 866.67 340.057C866.843 340.057 867.006 340.029 867.16 339.973C867.314 339.912 867.447 339.817 867.559 339.686C867.676 339.551 867.767 339.378 867.832 339.168C867.898 338.953 867.93 338.694 867.93 338.391ZM872.445 336.179C872.492 336.123 872.546 336.074 872.606 336.032C872.672 335.99 872.758 335.969 872.865 335.969H873.768L866.432 345.797C866.39 345.858 866.337 345.907 866.271 345.944C866.206 345.981 866.127 346 866.033 346H865.116L872.445 336.179ZM874.447 343.634C874.447 344.026 874.387 344.376 874.265 344.684C874.144 344.992 873.981 345.253 873.775 345.468C873.575 345.678 873.339 345.839 873.068 345.951C872.802 346.063 872.52 346.119 872.221 346.119C871.904 346.119 871.61 346.063 871.339 345.951C871.073 345.839 870.84 345.678 870.639 345.468C870.443 345.253 870.289 344.992 870.177 344.684C870.065 344.376 870.009 344.026 870.009 343.634C870.009 343.233 870.065 342.876 870.177 342.563C870.289 342.246 870.443 341.98 870.639 341.765C870.84 341.55 871.073 341.387 871.339 341.275C871.61 341.163 871.904 341.107 872.221 341.107C872.534 341.107 872.826 341.163 873.096 341.275C873.372 341.387 873.607 341.55 873.803 341.765C874.004 341.98 874.16 342.246 874.272 342.563C874.389 342.876 874.447 343.233 874.447 343.634ZM873.481 343.634C873.481 343.326 873.449 343.065 873.383 342.85C873.318 342.631 873.227 342.453 873.11 342.318C872.998 342.183 872.865 342.085 872.711 342.024C872.557 341.963 872.394 341.933 872.221 341.933C872.049 341.933 871.885 341.963 871.731 342.024C871.582 342.085 871.451 342.183 871.339 342.318C871.227 342.453 871.139 342.631 871.073 342.85C871.013 343.065 870.982 343.326 870.982 343.634C870.982 343.937 871.013 344.194 871.073 344.404C871.139 344.614 871.227 344.787 871.339 344.922C871.451 345.053 871.582 345.148 871.731 345.209C871.885 345.265 872.049 345.293 872.221 345.293C872.394 345.293 872.557 345.265 872.711 345.209C872.865 345.148 872.998 345.053 873.11 344.922C873.227 344.787 873.318 344.614 873.383 344.404C873.449 344.194 873.481 343.937 873.481 343.634ZM883.225 338.797C883.743 338.797 884.209 338.883 884.625 339.056C885.04 339.229 885.395 339.474 885.689 339.791C885.983 340.108 886.207 340.493 886.361 340.946C886.519 341.394 886.599 341.896 886.599 342.451C886.599 343.011 886.519 343.515 886.361 343.963C886.207 344.411 885.983 344.794 885.689 345.111C885.395 345.428 885.04 345.673 884.625 345.846C884.209 346.014 883.743 346.098 883.225 346.098C882.702 346.098 882.231 346.014 881.811 345.846C881.395 345.673 881.041 345.428 880.747 345.111C880.453 344.794 880.226 344.411 880.068 343.963C879.914 343.515 879.837 343.011 879.837 342.451C879.837 341.896 879.914 341.394 880.068 340.946C880.226 340.493 880.453 340.108 880.747 339.791C881.041 339.474 881.395 339.229 881.811 339.056C882.231 338.883 882.702 338.797 883.225 338.797ZM883.225 345.125C883.925 345.125 884.447 344.892 884.793 344.425C885.138 343.954 885.311 343.298 885.311 342.458C885.311 341.613 885.138 340.955 884.793 340.484C884.447 340.013 883.925 339.777 883.225 339.777C882.87 339.777 882.56 339.838 882.294 339.959C882.032 340.08 881.813 340.255 881.636 340.484C881.463 340.713 881.332 340.995 881.244 341.331C881.16 341.662 881.118 342.038 881.118 342.458C881.118 343.298 881.29 343.954 881.636 344.425C881.986 344.892 882.515 345.125 883.225 345.125ZM888.791 346V339.973L888.007 339.882C887.909 339.859 887.827 339.824 887.762 339.777C887.701 339.726 887.671 339.653 887.671 339.56V339.049H888.791V338.363C888.791 337.957 888.847 337.598 888.959 337.285C889.075 336.968 889.239 336.702 889.449 336.487C889.663 336.268 889.92 336.102 890.219 335.99C890.517 335.878 890.853 335.822 891.227 335.822C891.544 335.822 891.836 335.869 892.102 335.962L892.074 336.585C892.064 336.697 892.001 336.758 891.885 336.767C891.773 336.776 891.621 336.781 891.43 336.781C891.215 336.781 891.019 336.809 890.842 336.865C890.669 336.921 890.52 337.012 890.394 337.138C890.268 337.264 890.17 337.43 890.1 337.635C890.034 337.84 890.002 338.095 890.002 338.398V339.049H892.046V339.952H890.044V346H888.791ZM898.475 338.909V346.525C898.475 346.81 898.438 347.073 898.363 347.316C898.289 347.563 898.17 347.778 898.006 347.96C897.843 348.142 897.633 348.284 897.376 348.387C897.124 348.494 896.821 348.548 896.466 348.548C896.317 348.548 896.179 348.536 896.053 348.513C895.927 348.49 895.801 348.455 895.675 348.408L895.724 347.736C895.734 347.694 895.75 347.661 895.773 347.638C895.792 347.619 895.82 347.608 895.857 347.603C895.895 347.598 895.944 347.596 896.004 347.596C896.06 347.601 896.133 347.603 896.221 347.603C896.585 347.603 896.844 347.517 896.998 347.344C897.152 347.176 897.229 346.903 897.229 346.525V338.909H898.475ZM898.734 336.683C898.734 336.804 898.709 336.919 898.657 337.026C898.611 337.129 898.545 337.222 898.461 337.306C898.382 337.385 898.289 337.448 898.181 337.495C898.074 337.542 897.96 337.565 897.838 337.565C897.717 337.565 897.603 337.542 897.495 337.495C897.393 337.448 897.302 337.385 897.222 337.306C897.143 337.222 897.08 337.129 897.033 337.026C896.987 336.919 896.963 336.804 896.963 336.683C896.963 336.562 896.987 336.447 897.033 336.34C897.08 336.228 897.143 336.132 897.222 336.053C897.302 335.969 897.393 335.904 897.495 335.857C897.603 335.81 897.717 335.787 897.838 335.787C897.96 335.787 898.074 335.81 898.181 335.857C898.289 335.904 898.382 335.969 898.461 336.053C898.545 336.132 898.611 336.228 898.657 336.34C898.709 336.447 898.734 336.562 898.734 336.683Z" fill="black"/>
<path d="M298.303 336.909V344.525C298.303 344.81 298.266 345.073 298.191 345.316C298.116 345.563 297.997 345.778 297.834 345.96C297.671 346.142 297.461 346.284 297.204 346.387C296.952 346.494 296.649 346.548 296.294 346.548C296.145 346.548 296.007 346.536 295.881 346.513C295.755 346.49 295.629 346.455 295.503 346.408L295.552 345.736C295.561 345.694 295.578 345.661 295.601 345.638C295.62 345.619 295.648 345.608 295.685 345.603C295.722 345.598 295.771 345.596 295.832 345.596C295.888 345.601 295.96 345.603 296.049 345.603C296.413 345.603 296.672 345.517 296.826 345.344C296.98 345.176 297.057 344.903 297.057 344.525V336.909H298.303ZM298.562 334.683C298.562 334.804 298.536 334.919 298.485 335.026C298.438 335.129 298.373 335.222 298.289 335.306C298.21 335.385 298.116 335.448 298.009 335.495C297.902 335.542 297.787 335.565 297.666 335.565C297.545 335.565 297.43 335.542 297.323 335.495C297.22 335.448 297.129 335.385 297.05 335.306C296.971 335.222 296.908 335.129 296.861 335.026C296.814 334.919 296.791 334.804 296.791 334.683C296.791 334.562 296.814 334.447 296.861 334.34C296.908 334.228 296.971 334.132 297.05 334.053C297.129 333.969 297.22 333.904 297.323 333.857C297.43 333.81 297.545 333.787 297.666 333.787C297.787 333.787 297.902 333.81 298.009 333.857C298.116 333.904 298.21 333.969 298.289 334.053C298.373 334.132 298.438 334.228 298.485 334.34C298.536 334.447 298.562 334.562 298.562 334.683Z" fill="black"/>
</svg>
