<svg width="1204" height="678" viewBox="0 0 1204 678" fill="none" xmlns="http://www.w3.org/2000/svg">
<rect width="1204" height="677.25" fill="white"/>
<rect x="30" y="635" width="542" height="5" rx="2.5" fill="#70C216"/>
<path d="M43.005 614.493C43.005 615.447 42.846 616.323 42.528 617.121C42.21 617.919 41.763 618.606 41.187 619.182C40.611 619.758 39.918 620.205 39.108 620.523C38.298 620.841 37.398 621 36.408 621H31.449V607.986H36.408C37.398 607.986 38.298 608.148 39.108 608.472C39.918 608.79 40.611 609.237 41.187 609.813C41.763 610.383 42.21 611.067 42.528 611.865C42.846 612.663 43.005 613.539 43.005 614.493ZM40.521 614.493C40.521 613.779 40.425 613.14 40.233 612.576C40.047 612.006 39.774 611.526 39.414 611.136C39.06 610.74 38.628 610.437 38.118 610.227C37.614 610.017 37.044 609.912 36.408 609.912H33.879V619.074H36.408C37.044 619.074 37.614 618.969 38.118 618.759C38.628 618.549 39.06 618.249 39.414 617.859C39.774 617.463 40.047 616.983 40.233 616.419C40.425 615.849 40.521 615.207 40.521 614.493ZM49.0543 611.622C49.7383 611.622 50.3593 611.733 50.9173 611.955C51.4813 612.177 51.9613 612.492 52.3573 612.9C52.7593 613.308 53.0683 613.806 53.2843 614.394C53.5003 614.982 53.6083 615.639 53.6083 616.365C53.6083 617.097 53.5003 617.757 53.2843 618.345C53.0683 618.933 52.7593 619.434 52.3573 619.848C51.9613 620.262 51.4813 620.58 50.9173 620.802C50.3593 621.024 49.7383 621.135 49.0543 621.135C48.3643 621.135 47.7373 621.024 47.1733 620.802C46.6093 620.58 46.1263 620.262 45.7243 619.848C45.3283 619.434 45.0193 618.933 44.7973 618.345C44.5813 617.757 44.4733 617.097 44.4733 616.365C44.4733 615.639 44.5813 614.982 44.7973 614.394C45.0193 613.806 45.3283 613.308 45.7243 612.9C46.1263 612.492 46.6093 612.177 47.1733 611.955C47.7373 611.733 48.3643 611.622 49.0543 611.622ZM49.0543 619.425C49.8223 619.425 50.3893 619.167 50.7553 618.651C51.1273 618.135 51.3133 617.379 51.3133 616.383C51.3133 615.387 51.1273 614.628 50.7553 614.106C50.3893 613.584 49.8223 613.323 49.0543 613.323C48.2743 613.323 47.6953 613.587 47.3173 614.115C46.9453 614.637 46.7593 615.393 46.7593 616.383C46.7593 617.373 46.9453 618.129 47.3173 618.651C47.6953 619.167 48.2743 619.425 49.0543 619.425Z" fill="#70C216"/>
<rect x="632" y="635" width="542" height="5" fill="#F74F64"/>
<path d="M645.005 614.493C645.005 615.447 644.846 616.323 644.528 617.121C644.21 617.919 643.763 618.606 643.187 619.182C642.611 619.758 641.918 620.205 641.108 620.523C640.298 620.841 639.398 621 638.408 621H633.449V607.986H638.408C639.398 607.986 640.298 608.148 641.108 608.472C641.918 608.79 642.611 609.237 643.187 609.813C643.763 610.383 644.21 611.067 644.528 611.865C644.846 612.663 645.005 613.539 645.005 614.493ZM642.521 614.493C642.521 613.779 642.425 613.14 642.233 612.576C642.047 612.006 641.774 611.526 641.414 611.136C641.06 610.74 640.628 610.437 640.118 610.227C639.614 610.017 639.044 609.912 638.408 609.912H635.879V619.074H638.408C639.044 619.074 639.614 618.969 640.118 618.759C640.628 618.549 641.06 618.249 641.414 617.859C641.774 617.463 642.047 616.983 642.233 616.419C642.425 615.849 642.521 615.207 642.521 614.493ZM651.054 611.622C651.738 611.622 652.359 611.733 652.917 611.955C653.481 612.177 653.961 612.492 654.357 612.9C654.759 613.308 655.068 613.806 655.284 614.394C655.5 614.982 655.608 615.639 655.608 616.365C655.608 617.097 655.5 617.757 655.284 618.345C655.068 618.933 654.759 619.434 654.357 619.848C653.961 620.262 653.481 620.58 652.917 620.802C652.359 621.024 651.738 621.135 651.054 621.135C650.364 621.135 649.737 621.024 649.173 620.802C648.609 620.58 648.126 620.262 647.724 619.848C647.328 619.434 647.019 618.933 646.797 618.345C646.581 617.757 646.473 617.097 646.473 616.365C646.473 615.639 646.581 614.982 646.797 614.394C647.019 613.806 647.328 613.308 647.724 612.9C648.126 612.492 648.609 612.177 649.173 611.955C649.737 611.733 650.364 611.622 651.054 611.622ZM651.054 619.425C651.822 619.425 652.389 619.167 652.755 618.651C653.127 618.135 653.313 617.379 653.313 616.383C653.313 615.387 653.127 614.628 652.755 614.106C652.389 613.584 651.822 613.323 651.054 613.323C650.274 613.323 649.695 613.587 649.317 614.115C648.945 614.637 648.759 615.393 648.759 616.383C648.759 617.373 648.945 618.129 649.317 618.651C649.695 619.167 650.274 619.425 651.054 619.425ZM659.683 612.9C659.869 612.714 660.064 612.543 660.268 612.387C660.478 612.225 660.697 612.09 660.925 611.982C661.159 611.868 661.408 611.781 661.672 611.721C661.936 611.655 662.224 611.622 662.536 611.622C663.04 611.622 663.487 611.709 663.877 611.883C664.267 612.051 664.591 612.291 664.849 612.603C665.113 612.909 665.311 613.278 665.443 613.71C665.581 614.136 665.65 614.607 665.65 615.123V621H663.427V615.123C663.427 614.559 663.298 614.124 663.04 613.818C662.782 613.506 662.389 613.35 661.861 613.35C661.477 613.35 661.117 613.437 660.781 613.611C660.445 613.785 660.127 614.022 659.827 614.322V621H657.604V611.766H658.963C659.251 611.766 659.44 611.901 659.53 612.171L659.683 612.9ZM669.313 607.113C669.601 607.587 669.796 608.082 669.898 608.598C670 609.108 670.009 609.615 669.925 610.119C669.841 610.617 669.664 611.097 669.394 611.559C669.13 612.015 668.773 612.426 668.323 612.792L667.621 612.369C667.561 612.333 667.519 612.291 667.495 612.243C667.471 612.189 667.459 612.138 667.459 612.09C667.465 612.036 667.477 611.985 667.495 611.937C667.519 611.889 667.549 611.847 667.585 611.811C667.711 611.661 667.831 611.463 667.945 611.217C668.059 610.971 668.137 610.695 668.179 610.389C668.227 610.083 668.221 609.756 668.161 609.408C668.107 609.06 667.972 608.712 667.756 608.364C667.654 608.19 667.624 608.04 667.666 607.914C667.714 607.782 667.813 607.689 667.963 607.635L669.313 607.113ZM675.151 621.144C674.347 621.144 673.729 620.919 673.297 620.469C672.871 620.013 672.658 619.386 672.658 618.588V613.431H671.713C671.593 613.431 671.491 613.392 671.407 613.314C671.323 613.236 671.281 613.119 671.281 612.963V612.081L672.766 611.838L673.234 609.318C673.264 609.198 673.321 609.105 673.405 609.039C673.489 608.973 673.597 608.94 673.729 608.94H674.881V611.847H677.347V613.431H674.881V618.435C674.881 618.723 674.95 618.948 675.088 619.11C675.232 619.272 675.427 619.353 675.673 619.353C675.811 619.353 675.925 619.338 676.015 619.308C676.111 619.272 676.192 619.236 676.258 619.2C676.33 619.164 676.393 619.131 676.447 619.101C676.501 619.065 676.555 619.047 676.609 619.047C676.675 619.047 676.729 619.065 676.771 619.101C676.813 619.131 676.858 619.179 676.906 619.245L677.572 620.325C677.248 620.595 676.876 620.799 676.456 620.937C676.036 621.075 675.601 621.144 675.151 621.144Z" fill="#F74F64"/>
<path d="M311.629 68.3711L329.457 109.857" stroke="#292929" stroke-width="8" stroke-miterlimit="10"/>
<path d="M287.971 68.3711L270.143 109.514" stroke="#292929" stroke-width="8" stroke-miterlimit="10"/>
<path d="M323.971 158.886L301 152.028C300.314 151.686 299.286 151.686 298.6 152.028L275.629 158.886C273.229 159.914 270.143 157.857 270.143 155.114V109.514H329.457V155.114C329.457 157.857 327.057 159.914 323.971 158.886Z" stroke="#292929" stroke-width="8" stroke-miterlimit="10"/>
<path d="M387.4 103.343L357.229 74.1997C353.457 70.4282 348.314 68.3711 342.829 68.3711H258.829C253.343 68.3711 248.2 70.4282 244.429 74.1997L214.6 103.343C210.829 107.114 208.429 112.6 208.429 118.085V213.4C208.429 224.714 217.686 233.971 229 233.971H373C384.314 233.971 393.571 224.714 393.571 213.4V118.085C393.571 112.6 391.171 107.114 387.4 103.343Z" stroke="#292929" stroke-width="8" stroke-miterlimit="10"/>
<path d="M208.429 109.171H393.571" stroke="#292929" stroke-width="8" stroke-miterlimit="10"/>
<path d="M393.571 510.943H208.429V522.943H393.571V510.943Z" stroke="#292929" stroke-width="8" stroke-miterlimit="10" stroke-linecap="round" stroke-linejoin="round"/>
<path d="M225.914 522.943H208.429V545.571H225.914V522.943Z" stroke="#292929" stroke-width="8" stroke-miterlimit="10" stroke-linecap="round" stroke-linejoin="round"/>
<path d="M393.572 522.943H376.086V545.571H393.572V522.943Z" stroke="#292929" stroke-width="8" stroke-miterlimit="10" stroke-linecap="round" stroke-linejoin="round"/>
<path d="M309.914 522.943H292.429V545.571H309.914V522.943Z" stroke="#292929" stroke-width="8" stroke-miterlimit="10" stroke-linecap="round" stroke-linejoin="round"/>
<path d="M285.571 435.514H230.029C224.2 435.514 219.743 439.971 219.743 445.8V500.314C219.743 506.143 224.2 510.6 230.029 510.6H285.571C291.4 510.6 295.857 506.143 295.857 500.314V445.8C295.857 440.314 291.4 435.514 285.571 435.514Z" stroke="#292929" stroke-width="8" stroke-miterlimit="10" stroke-linecap="round" stroke-linejoin="round"/>
<path d="M361.686 435.514H306.143C300.314 435.514 295.857 439.971 295.857 445.8V500.314C295.857 506.143 300.314 510.6 306.143 510.6H361.686C367.514 510.6 371.971 506.143 371.971 500.314V445.8C371.971 440.314 367.514 435.514 361.686 435.514Z" stroke="#292929" stroke-width="8" stroke-miterlimit="10" stroke-linecap="round" stroke-linejoin="round"/>
<path d="M323.629 360.429H268.086C262.257 360.429 257.8 364.886 257.8 370.714V425.229C257.8 431.057 262.257 435.514 268.086 435.514H323.629C329.457 435.514 333.914 431.057 333.914 425.229V370.714C333.914 364.886 329.457 360.429 323.629 360.429Z" stroke="#292929" stroke-width="8" stroke-miterlimit="10" stroke-linecap="round" stroke-linejoin="round"/>
<path d="M305.457 385.457L296.543 382.029C296.2 381.686 295.857 381.686 295.514 382.029L286.6 385.457C285.571 386.143 284.543 384.772 284.543 383.4V360.429H307.514V383.4C307.514 384.772 306.486 385.8 305.457 385.457Z" stroke="#292929" stroke-width="8" stroke-miterlimit="10"/>
<path d="M343.514 460.543L334.6 457.114C334.257 456.771 333.914 456.771 333.571 457.114L324.657 460.543C323.629 461.228 322.6 459.857 322.6 458.486V435.514H345.571V458.486C345.571 459.857 344.543 460.886 343.514 460.543Z" stroke="#292929" stroke-width="8" stroke-miterlimit="10"/>
<path d="M267.4 460.543L258.486 457.114C258.143 456.771 257.8 456.771 257.457 457.114L248.543 460.543C247.514 461.228 246.486 459.857 246.486 458.486V435.514H269.457V458.486C269.457 459.857 268.429 460.886 267.4 460.543Z" stroke="#292929" stroke-width="8" stroke-miterlimit="10"/>
<path d="M975.333 213H830.667C819.3 213 810 203.728 810 192.396V108.604C810 97.272 819.3 88 830.667 88H975.333C986.7 88 996 97.272 996 108.604V192.396C996 203.728 986.7 213 975.333 213Z" stroke="#292929" stroke-width="8" stroke-miterlimit="10"/>
<path d="M926.971 137.371L904 130.514C903.314 130.171 902.286 130.171 901.6 130.514L878.629 137.371C876.229 138.4 873.143 136.343 873.143 133.6V88H932.457V133.6C932.457 136.343 930.057 138.4 926.971 137.371Z" stroke="#292929" stroke-width="8" stroke-miterlimit="10"/>
<g clip-path="url(#clip0)">
<path d="M892.286 518.571H809.143" stroke="#292929" stroke-width="8" stroke-miterlimit="10" stroke-linecap="round" stroke-linejoin="round"/>
<path d="M996.857 518.571H914.143" stroke="#292929" stroke-width="8" stroke-miterlimit="10" stroke-linecap="round" stroke-linejoin="round"/>
<path d="M1018.71 518.571V503.571H787.286V518.571" stroke="#292929" stroke-width="8" stroke-miterlimit="10" stroke-linecap="round" stroke-linejoin="round"/>
<path d="M809.143 518.571V546.857H787.286V518.571" stroke="#292929" stroke-width="8" stroke-miterlimit="10" stroke-linecap="round" stroke-linejoin="round"/>
<path d="M809.143 518.571H787.286" stroke="#292929" stroke-width="8" stroke-miterlimit="10" stroke-linecap="round" stroke-linejoin="round"/>
<path d="M996.857 518.571V546.857H1018.71V518.571" stroke="#292929" stroke-width="8" stroke-miterlimit="10" stroke-linecap="round" stroke-linejoin="round"/>
<path d="M996.857 518.571H1018.71" stroke="#292929" stroke-width="8" stroke-miterlimit="10" stroke-linecap="round" stroke-linejoin="round"/>
<path d="M892.286 518.571V546.857H914.143V518.571" stroke="#292929" stroke-width="8" stroke-miterlimit="10" stroke-linecap="round" stroke-linejoin="round"/>
<path d="M892.286 518.571H914.143" stroke="#292929" stroke-width="8" stroke-miterlimit="10" stroke-linecap="round" stroke-linejoin="round"/>
<path d="M787.5 503L813 480.429" stroke="#292929" stroke-width="8" stroke-miterlimit="10" stroke-linecap="round" stroke-linejoin="round"/>
<path d="M986.143 471.429L1018.71 502.714" stroke="#292929" stroke-width="8" stroke-miterlimit="10" stroke-linecap="round" stroke-linejoin="round"/>
<path d="M898.286 427.286C898.714 428.572 899.143 429.858 899.143 431.572" stroke="#292929" stroke-width="8" stroke-miterlimit="10" stroke-linecap="round" stroke-linejoin="round"/>
<path d="M813 427.286C812.571 428.572 812.143 429.858 812.143 431.572V476.572C812.143 477.858 812.571 479.572 813 480.858" stroke="#292929" stroke-width="8" stroke-miterlimit="10" stroke-linecap="round" stroke-linejoin="round"/>
<path d="M899.143 476.572C899.143 481.715 894.857 486.429 889.286 486.429H821.571C817.714 486.429 814.286 484.287 813 480.858" stroke="#292929" stroke-width="8" stroke-miterlimit="10" stroke-linecap="round" stroke-linejoin="round"/>
<path d="M813 427.285C813.429 426.428 814.286 425.142 814.714 424.713L828.857 410.999C830.571 409.285 833.143 408.428 835.714 408.428H855.429" stroke="#292929" stroke-width="8" stroke-miterlimit="10" stroke-linecap="round" stroke-linejoin="round"/>
<path d="M865.286 427.286H813" stroke="#292929" stroke-width="8" stroke-miterlimit="10" stroke-linecap="round" stroke-linejoin="round"/>
<path d="M900 427.286C899.571 428.572 899.143 429.858 899.143 431.572" stroke="#292929" stroke-width="8" stroke-miterlimit="10" stroke-linecap="round" stroke-linejoin="round"/>
<path d="M942.857 408.428H962.571C965.143 408.428 967.714 409.285 969.429 410.999L983.571 424.713C984.429 425.571 984.857 426.428 985.286 427.285" stroke="#292929" stroke-width="8" stroke-miterlimit="10" stroke-linecap="round" stroke-linejoin="round"/>
<path d="M986.143 471.428V432C986.143 430.714 985.714 429 985.286 427.714" stroke="#292929" stroke-width="8" stroke-miterlimit="10" stroke-linecap="round" stroke-linejoin="round"/>
<path d="M899.143 476.572C899.143 482.143 903.428 486.429 909 486.429H976.714C981.857 486.429 986.571 482.143 986.571 476.572V471.429" stroke="#292929" stroke-width="8" stroke-miterlimit="10" stroke-linecap="round" stroke-linejoin="round"/>
<path d="M899.143 459V476.572" stroke="#292929" stroke-width="8" stroke-miterlimit="10" stroke-linecap="round" stroke-linejoin="round"/>
<path d="M899.143 459.001V431.572" stroke="#292929" stroke-width="8" stroke-miterlimit="10" stroke-linecap="round" stroke-linejoin="round"/>
<path d="M900 427.286H904.714" stroke="#292929" stroke-width="8" stroke-miterlimit="10" stroke-linecap="round" stroke-linejoin="round"/>
<path d="M900 427.286H899.143" stroke="#292929" stroke-width="8" stroke-miterlimit="10" stroke-linecap="round" stroke-linejoin="round"/>
<path d="M985.286 427.286H904.714" stroke="#292929" stroke-width="8" stroke-miterlimit="10" stroke-linecap="round" stroke-linejoin="round"/>
<path d="M899.143 427.286H900" stroke="#292929" stroke-width="8" stroke-miterlimit="10" stroke-linecap="round" stroke-linejoin="round"/>
<path d="M865.286 427.286C860.143 427.286 855.429 423 855.429 417.429V408" stroke="#292929" stroke-width="8" stroke-miterlimit="10" stroke-linecap="round" stroke-linejoin="round"/>
<path d="M856.714 368.572C857.143 367.715 858 366.429 858.429 366.001L872.571 352.286C874.286 350.572 876.857 349.715 879.429 349.715H899.143" stroke="#292929" stroke-width="8" stroke-miterlimit="10" stroke-linecap="round" stroke-linejoin="round"/>
<path d="M941.571 368.572C941.143 367.715 940.286 366.429 939.857 366.001L925.714 352.286C924 350.572 921.428 349.715 918.857 349.715H899.143" stroke="#292929" stroke-width="8" stroke-miterlimit="10" stroke-linecap="round" stroke-linejoin="round"/>
<path d="M855.429 408V372.857C855.429 371.571 855.857 369.857 856.286 368.571" stroke="#292929" stroke-width="8" stroke-miterlimit="10" stroke-linecap="round" stroke-linejoin="round"/>
<path d="M942.857 408.428V372.857C942.857 371.571 942.428 369.857 942 368.571" stroke="#292929" stroke-width="8" stroke-miterlimit="10" stroke-linecap="round" stroke-linejoin="round"/>
<path d="M942.857 408.428V417.856C942.857 422.999 938.571 427.713 933 427.713H900" stroke="#292929" stroke-width="8" stroke-miterlimit="10" stroke-linecap="round" stroke-linejoin="round"/>
<path d="M893.143 427.286H898.286" stroke="#292929" stroke-width="8" stroke-miterlimit="10" stroke-linecap="round" stroke-linejoin="round"/>
<path d="M899.143 427.286H898.286" stroke="#292929" stroke-width="8" stroke-miterlimit="10" stroke-linecap="round" stroke-linejoin="round"/>
<path d="M865.286 427.286H893.143" stroke="#292929" stroke-width="8" stroke-miterlimit="10" stroke-linecap="round" stroke-linejoin="round"/>
<path d="M899.143 368.571L899 353" stroke="#292929" stroke-width="8" stroke-miterlimit="10" stroke-linecap="round" stroke-linejoin="round"/>
<path d="M899.143 368.571H936.857" stroke="#292929" stroke-width="8" stroke-miterlimit="10" stroke-linecap="round" stroke-linejoin="round"/>
<path d="M941.571 368.571H936.857" stroke="#292929" stroke-width="8" stroke-miterlimit="10" stroke-linecap="round" stroke-linejoin="round"/>
<path d="M856.714 368.571H899.143" stroke="#292929" stroke-width="8" stroke-miterlimit="10" stroke-linecap="round" stroke-linejoin="round"/>
<path d="M964.286 459V462" stroke="#292929" stroke-width="8" stroke-miterlimit="10" stroke-linecap="round" stroke-linejoin="round"/>
<path d="M964.286 458.999V444.856" stroke="#292929" stroke-width="8" stroke-miterlimit="10" stroke-linecap="round" stroke-linejoin="round"/>
<path d="M957.429 452.142L964.286 444.856" stroke="#292929" stroke-width="8" stroke-miterlimit="10" stroke-linecap="round" stroke-linejoin="round"/>
<path d="M964.286 444.856L971.143 452.142" stroke="#292929" stroke-width="8" stroke-miterlimit="10" stroke-linecap="round" stroke-linejoin="round"/>
<path d="M939.429 459V462" stroke="#292929" stroke-width="8" stroke-miterlimit="10" stroke-linecap="round" stroke-linejoin="round"/>
<path d="M939.429 458.999V444.856" stroke="#292929" stroke-width="8" stroke-miterlimit="10" stroke-linecap="round" stroke-linejoin="round"/>
<path d="M932.572 452.142L939.429 444.856" stroke="#292929" stroke-width="8" stroke-miterlimit="10" stroke-linecap="round" stroke-linejoin="round"/>
<path d="M939.429 444.856L946.286 452.142" stroke="#292929" stroke-width="8" stroke-miterlimit="10" stroke-linecap="round" stroke-linejoin="round"/>
<path d="M853.286 458.999V453.428H824.571V469.285" stroke="#292929" stroke-width="8" stroke-miterlimit="10" stroke-linecap="round" stroke-linejoin="round"/>
<path d="M853.286 459V471.429H824.571V469.286" stroke="#292929" stroke-width="8" stroke-miterlimit="10" stroke-linecap="round" stroke-linejoin="round"/>
</g>
<defs>
<clipPath id="clip0">
<rect width="240" height="206.143" fill="white" transform="translate(783 345)"/>
</clipPath>
</defs>
</svg>
