<svg width="1204" height="678" viewBox="0 0 1204 678" fill="none" xmlns="http://www.w3.org/2000/svg">
<rect width="1204" height="677.25" fill="white"/>
<rect x="30" y="635" width="554" height="5" rx="2.5" fill="#70C216"/>
<path d="M43.005 614.493C43.005 615.447 42.846 616.323 42.528 617.121C42.21 617.919 41.763 618.606 41.187 619.182C40.611 619.758 39.918 620.205 39.108 620.523C38.298 620.841 37.398 621 36.408 621H31.449V607.986H36.408C37.398 607.986 38.298 608.148 39.108 608.472C39.918 608.79 40.611 609.237 41.187 609.813C41.763 610.383 42.21 611.067 42.528 611.865C42.846 612.663 43.005 613.539 43.005 614.493ZM40.521 614.493C40.521 613.779 40.425 613.14 40.233 612.576C40.047 612.006 39.774 611.526 39.414 611.136C39.06 610.74 38.628 610.437 38.118 610.227C37.614 610.017 37.044 609.912 36.408 609.912H33.879V619.074H36.408C37.044 619.074 37.614 618.969 38.118 618.759C38.628 618.549 39.06 618.249 39.414 617.859C39.774 617.463 40.047 616.983 40.233 616.419C40.425 615.849 40.521 615.207 40.521 614.493ZM49.0543 611.622C49.7383 611.622 50.3593 611.733 50.9173 611.955C51.4813 612.177 51.9613 612.492 52.3573 612.9C52.7593 613.308 53.0683 613.806 53.2843 614.394C53.5003 614.982 53.6083 615.639 53.6083 616.365C53.6083 617.097 53.5003 617.757 53.2843 618.345C53.0683 618.933 52.7593 619.434 52.3573 619.848C51.9613 620.262 51.4813 620.58 50.9173 620.802C50.3593 621.024 49.7383 621.135 49.0543 621.135C48.3643 621.135 47.7373 621.024 47.1733 620.802C46.6093 620.58 46.1263 620.262 45.7243 619.848C45.3283 619.434 45.0193 618.933 44.7973 618.345C44.5813 617.757 44.4733 617.097 44.4733 616.365C44.4733 615.639 44.5813 614.982 44.7973 614.394C45.0193 613.806 45.3283 613.308 45.7243 612.9C46.1263 612.492 46.6093 612.177 47.1733 611.955C47.7373 611.733 48.3643 611.622 49.0543 611.622ZM49.0543 619.425C49.8223 619.425 50.3893 619.167 50.7553 618.651C51.1273 618.135 51.3133 617.379 51.3133 616.383C51.3133 615.387 51.1273 614.628 50.7553 614.106C50.3893 613.584 49.8223 613.323 49.0543 613.323C48.2743 613.323 47.6953 613.587 47.3173 614.115C46.9453 614.637 46.7593 615.393 46.7593 616.383C46.7593 617.373 46.9453 618.129 47.3173 618.651C47.6953 619.167 48.2743 619.425 49.0543 619.425Z" fill="#70C216"/>
<rect x="632" y="635" width="542" height="5" fill="#F74F64"/>
<path d="M645.005 614.493C645.005 615.447 644.846 616.323 644.528 617.121C644.21 617.919 643.763 618.606 643.187 619.182C642.611 619.758 641.918 620.205 641.108 620.523C640.298 620.841 639.398 621 638.408 621H633.449V607.986H638.408C639.398 607.986 640.298 608.148 641.108 608.472C641.918 608.79 642.611 609.237 643.187 609.813C643.763 610.383 644.21 611.067 644.528 611.865C644.846 612.663 645.005 613.539 645.005 614.493ZM642.521 614.493C642.521 613.779 642.425 613.14 642.233 612.576C642.047 612.006 641.774 611.526 641.414 611.136C641.06 610.74 640.628 610.437 640.118 610.227C639.614 610.017 639.044 609.912 638.408 609.912H635.879V619.074H638.408C639.044 619.074 639.614 618.969 640.118 618.759C640.628 618.549 641.06 618.249 641.414 617.859C641.774 617.463 642.047 616.983 642.233 616.419C642.425 615.849 642.521 615.207 642.521 614.493ZM651.054 611.622C651.738 611.622 652.359 611.733 652.917 611.955C653.481 612.177 653.961 612.492 654.357 612.9C654.759 613.308 655.068 613.806 655.284 614.394C655.5 614.982 655.608 615.639 655.608 616.365C655.608 617.097 655.5 617.757 655.284 618.345C655.068 618.933 654.759 619.434 654.357 619.848C653.961 620.262 653.481 620.58 652.917 620.802C652.359 621.024 651.738 621.135 651.054 621.135C650.364 621.135 649.737 621.024 649.173 620.802C648.609 620.58 648.126 620.262 647.724 619.848C647.328 619.434 647.019 618.933 646.797 618.345C646.581 617.757 646.473 617.097 646.473 616.365C646.473 615.639 646.581 614.982 646.797 614.394C647.019 613.806 647.328 613.308 647.724 612.9C648.126 612.492 648.609 612.177 649.173 611.955C649.737 611.733 650.364 611.622 651.054 611.622ZM651.054 619.425C651.822 619.425 652.389 619.167 652.755 618.651C653.127 618.135 653.313 617.379 653.313 616.383C653.313 615.387 653.127 614.628 652.755 614.106C652.389 613.584 651.822 613.323 651.054 613.323C650.274 613.323 649.695 613.587 649.317 614.115C648.945 614.637 648.759 615.393 648.759 616.383C648.759 617.373 648.945 618.129 649.317 618.651C649.695 619.167 650.274 619.425 651.054 619.425ZM659.683 612.9C659.869 612.714 660.064 612.543 660.268 612.387C660.478 612.225 660.697 612.09 660.925 611.982C661.159 611.868 661.408 611.781 661.672 611.721C661.936 611.655 662.224 611.622 662.536 611.622C663.04 611.622 663.487 611.709 663.877 611.883C664.267 612.051 664.591 612.291 664.849 612.603C665.113 612.909 665.311 613.278 665.443 613.71C665.581 614.136 665.65 614.607 665.65 615.123V621H663.427V615.123C663.427 614.559 663.298 614.124 663.04 613.818C662.782 613.506 662.389 613.35 661.861 613.35C661.477 613.35 661.117 613.437 660.781 613.611C660.445 613.785 660.127 614.022 659.827 614.322V621H657.604V611.766H658.963C659.251 611.766 659.44 611.901 659.53 612.171L659.683 612.9ZM669.313 607.113C669.601 607.587 669.796 608.082 669.898 608.598C670 609.108 670.009 609.615 669.925 610.119C669.841 610.617 669.664 611.097 669.394 611.559C669.13 612.015 668.773 612.426 668.323 612.792L667.621 612.369C667.561 612.333 667.519 612.291 667.495 612.243C667.471 612.189 667.459 612.138 667.459 612.09C667.465 612.036 667.477 611.985 667.495 611.937C667.519 611.889 667.549 611.847 667.585 611.811C667.711 611.661 667.831 611.463 667.945 611.217C668.059 610.971 668.137 610.695 668.179 610.389C668.227 610.083 668.221 609.756 668.161 609.408C668.107 609.06 667.972 608.712 667.756 608.364C667.654 608.19 667.624 608.04 667.666 607.914C667.714 607.782 667.813 607.689 667.963 607.635L669.313 607.113ZM675.151 621.144C674.347 621.144 673.729 620.919 673.297 620.469C672.871 620.013 672.658 619.386 672.658 618.588V613.431H671.713C671.593 613.431 671.491 613.392 671.407 613.314C671.323 613.236 671.281 613.119 671.281 612.963V612.081L672.766 611.838L673.234 609.318C673.264 609.198 673.321 609.105 673.405 609.039C673.489 608.973 673.597 608.94 673.729 608.94H674.881V611.847H677.347V613.431H674.881V618.435C674.881 618.723 674.95 618.948 675.088 619.11C675.232 619.272 675.427 619.353 675.673 619.353C675.811 619.353 675.925 619.338 676.015 619.308C676.111 619.272 676.192 619.236 676.258 619.2C676.33 619.164 676.393 619.131 676.447 619.101C676.501 619.065 676.555 619.047 676.609 619.047C676.675 619.047 676.729 619.065 676.771 619.101C676.813 619.131 676.858 619.179 676.906 619.245L677.572 620.325C677.248 620.595 676.876 620.799 676.456 620.937C676.036 621.075 675.601 621.144 675.151 621.144Z" fill="#F74F64"/>
<path d="M856.719 319.754H949.164V338.28H856.719V319.754ZM856.719 283.132H930.588V301.658H856.719V283.132ZM856.719 356.805H949.164V374.901H856.719V356.805ZM967.307 218.938H949.164V209.459C949.164 207.162 948.156 205.151 946.14 203.428C944.412 201.417 942.252 200.412 939.66 200.412C937.356 200.412 935.196 201.417 933.18 203.428C931.452 205.151 930.588 207.162 930.588 209.459V218.938H912.013V209.459C912.013 207.162 911.149 205.151 909.421 203.428C907.693 201.417 905.533 200.412 902.941 200.412C900.349 200.412 898.189 201.417 896.461 203.428C894.733 205.151 893.869 207.162 893.869 209.459V218.938H875.294V209.459C875.294 207.162 874.286 205.151 872.27 203.428C870.542 201.417 868.526 200.412 866.222 200.412C863.631 200.412 861.327 201.417 859.311 203.428C857.583 205.151 856.719 207.162 856.719 209.459V218.938H838.575C833.392 218.938 828.928 220.805 825.184 224.539C821.728 227.985 820 232.15 820 237.033V402.474C820 407.644 821.728 412.096 825.184 415.83C828.928 419.277 833.392 421 838.575 421H967.307C972.491 421 976.811 419.277 980.267 415.83C984.01 412.096 985.882 407.644 985.882 402.474V237.033C985.882 232.15 984.01 227.985 980.267 224.539C976.811 220.805 972.491 218.938 967.307 218.938ZM838.575 402.474V237.033H856.719V246.511C856.719 248.809 857.583 250.963 859.311 252.974C861.327 254.697 863.631 255.559 866.222 255.559C868.526 255.559 870.542 254.697 872.27 252.974C874.286 250.963 875.294 248.809 875.294 246.511V237.033H893.869V246.511C893.869 248.809 894.733 250.963 896.461 252.974C898.189 254.697 900.349 255.559 902.941 255.559C905.533 255.559 907.693 254.697 909.421 252.974C911.149 250.963 912.013 248.809 912.013 246.511V237.033H930.588V246.511C930.588 248.809 931.452 250.963 933.18 252.974C935.196 254.697 937.356 255.559 939.66 255.559C942.252 255.559 944.412 254.697 946.14 252.974C948.156 250.963 949.164 248.809 949.164 246.511V237.033H967.307V402.474H838.575Z" fill="#41A5DD"/>
<circle cx="940" cy="200.412" r="18.9118" stroke="black"/>
<circle cx="925.882" cy="290.412" r="18.9118" stroke="black"/>
<path d="M358.943 393.571H267.057C255.743 393.571 246.486 384.314 246.486 373V232.771C246.486 226.943 250.943 222.486 256.772 222.486H369.229C375.057 222.486 379.514 226.943 379.514 232.771V373C379.514 384.314 370.257 393.571 358.943 393.571Z" stroke="#292929" stroke-width="8" stroke-miterlimit="10" stroke-linecap="round" stroke-linejoin="round"/>
<path d="M266.372 209.114V236.2" stroke="#292929" stroke-width="8" stroke-miterlimit="10" stroke-linecap="round" stroke-linejoin="round"/>
<path d="M313 209.114V236.2" stroke="#292929" stroke-width="8" stroke-miterlimit="10" stroke-linecap="round" stroke-linejoin="round"/>
<path d="M359.629 208.429V235.514" stroke="#292929" stroke-width="8" stroke-miterlimit="10" stroke-linecap="round" stroke-linejoin="round"/>
<path d="M266.372 272.2H359.629" stroke="#292929" stroke-width="8" stroke-miterlimit="10" stroke-linecap="round" stroke-linejoin="round"/>
<path d="M266.372 302.371H339.4" stroke="#292929" stroke-width="8" stroke-miterlimit="10" stroke-linecap="round" stroke-linejoin="round"/>
<path d="M266.372 332.543H359.629" stroke="#292929" stroke-width="8" stroke-miterlimit="10" stroke-linecap="round" stroke-linejoin="round"/>
<path d="M266.372 362.714H319.514" stroke="#292929" stroke-width="8" stroke-miterlimit="10" stroke-linecap="round" stroke-linejoin="round"/>
<circle cx="343.801" cy="301.426" r="14.3015" stroke="black"/>
<circle cx="359.801" cy="202.426" r="14.3015" stroke="black"/>
</svg>
