<svg width="1204" height="678" viewBox="0 0 1204 678" fill="none" xmlns="http://www.w3.org/2000/svg">
<rect width="1204" height="677.25" fill="white"/>
<rect x="30" y="635" width="542" height="5" rx="2.5" fill="#70C216"/>
<path d="M43.005 614.493C43.005 615.447 42.846 616.323 42.528 617.121C42.21 617.919 41.763 618.606 41.187 619.182C40.611 619.758 39.918 620.205 39.108 620.523C38.298 620.841 37.398 621 36.408 621H31.449V607.986H36.408C37.398 607.986 38.298 608.148 39.108 608.472C39.918 608.79 40.611 609.237 41.187 609.813C41.763 610.383 42.21 611.067 42.528 611.865C42.846 612.663 43.005 613.539 43.005 614.493ZM40.521 614.493C40.521 613.779 40.425 613.14 40.233 612.576C40.047 612.006 39.774 611.526 39.414 611.136C39.06 610.74 38.628 610.437 38.118 610.227C37.614 610.017 37.044 609.912 36.408 609.912H33.879V619.074H36.408C37.044 619.074 37.614 618.969 38.118 618.759C38.628 618.549 39.06 618.249 39.414 617.859C39.774 617.463 40.047 616.983 40.233 616.419C40.425 615.849 40.521 615.207 40.521 614.493ZM49.0543 611.622C49.7383 611.622 50.3593 611.733 50.9173 611.955C51.4813 612.177 51.9613 612.492 52.3573 612.9C52.7593 613.308 53.0683 613.806 53.2843 614.394C53.5003 614.982 53.6083 615.639 53.6083 616.365C53.6083 617.097 53.5003 617.757 53.2843 618.345C53.0683 618.933 52.7593 619.434 52.3573 619.848C51.9613 620.262 51.4813 620.58 50.9173 620.802C50.3593 621.024 49.7383 621.135 49.0543 621.135C48.3643 621.135 47.7373 621.024 47.1733 620.802C46.6093 620.58 46.1263 620.262 45.7243 619.848C45.3283 619.434 45.0193 618.933 44.7973 618.345C44.5813 617.757 44.4733 617.097 44.4733 616.365C44.4733 615.639 44.5813 614.982 44.7973 614.394C45.0193 613.806 45.3283 613.308 45.7243 612.9C46.1263 612.492 46.6093 612.177 47.1733 611.955C47.7373 611.733 48.3643 611.622 49.0543 611.622ZM49.0543 619.425C49.8223 619.425 50.3893 619.167 50.7553 618.651C51.1273 618.135 51.3133 617.379 51.3133 616.383C51.3133 615.387 51.1273 614.628 50.7553 614.106C50.3893 613.584 49.8223 613.323 49.0543 613.323C48.2743 613.323 47.6953 613.587 47.3173 614.115C46.9453 614.637 46.7593 615.393 46.7593 616.383C46.7593 617.373 46.9453 618.129 47.3173 618.651C47.6953 619.167 48.2743 619.425 49.0543 619.425Z" fill="#70C216"/>
<rect x="632" y="635" width="542" height="5" fill="#F74F64"/>
<path d="M645.005 614.493C645.005 615.447 644.846 616.323 644.528 617.121C644.21 617.919 643.763 618.606 643.187 619.182C642.611 619.758 641.918 620.205 641.108 620.523C640.298 620.841 639.398 621 638.408 621H633.449V607.986H638.408C639.398 607.986 640.298 608.148 641.108 608.472C641.918 608.79 642.611 609.237 643.187 609.813C643.763 610.383 644.21 611.067 644.528 611.865C644.846 612.663 645.005 613.539 645.005 614.493ZM642.521 614.493C642.521 613.779 642.425 613.14 642.233 612.576C642.047 612.006 641.774 611.526 641.414 611.136C641.06 610.74 640.628 610.437 640.118 610.227C639.614 610.017 639.044 609.912 638.408 609.912H635.879V619.074H638.408C639.044 619.074 639.614 618.969 640.118 618.759C640.628 618.549 641.06 618.249 641.414 617.859C641.774 617.463 642.047 616.983 642.233 616.419C642.425 615.849 642.521 615.207 642.521 614.493ZM651.054 611.622C651.738 611.622 652.359 611.733 652.917 611.955C653.481 612.177 653.961 612.492 654.357 612.9C654.759 613.308 655.068 613.806 655.284 614.394C655.5 614.982 655.608 615.639 655.608 616.365C655.608 617.097 655.5 617.757 655.284 618.345C655.068 618.933 654.759 619.434 654.357 619.848C653.961 620.262 653.481 620.58 652.917 620.802C652.359 621.024 651.738 621.135 651.054 621.135C650.364 621.135 649.737 621.024 649.173 620.802C648.609 620.58 648.126 620.262 647.724 619.848C647.328 619.434 647.019 618.933 646.797 618.345C646.581 617.757 646.473 617.097 646.473 616.365C646.473 615.639 646.581 614.982 646.797 614.394C647.019 613.806 647.328 613.308 647.724 612.9C648.126 612.492 648.609 612.177 649.173 611.955C649.737 611.733 650.364 611.622 651.054 611.622ZM651.054 619.425C651.822 619.425 652.389 619.167 652.755 618.651C653.127 618.135 653.313 617.379 653.313 616.383C653.313 615.387 653.127 614.628 652.755 614.106C652.389 613.584 651.822 613.323 651.054 613.323C650.274 613.323 649.695 613.587 649.317 614.115C648.945 614.637 648.759 615.393 648.759 616.383C648.759 617.373 648.945 618.129 649.317 618.651C649.695 619.167 650.274 619.425 651.054 619.425ZM659.683 612.9C659.869 612.714 660.064 612.543 660.268 612.387C660.478 612.225 660.697 612.09 660.925 611.982C661.159 611.868 661.408 611.781 661.672 611.721C661.936 611.655 662.224 611.622 662.536 611.622C663.04 611.622 663.487 611.709 663.877 611.883C664.267 612.051 664.591 612.291 664.849 612.603C665.113 612.909 665.311 613.278 665.443 613.71C665.581 614.136 665.65 614.607 665.65 615.123V621H663.427V615.123C663.427 614.559 663.298 614.124 663.04 613.818C662.782 613.506 662.389 613.35 661.861 613.35C661.477 613.35 661.117 613.437 660.781 613.611C660.445 613.785 660.127 614.022 659.827 614.322V621H657.604V611.766H658.963C659.251 611.766 659.44 611.901 659.53 612.171L659.683 612.9ZM669.313 607.113C669.601 607.587 669.796 608.082 669.898 608.598C670 609.108 670.009 609.615 669.925 610.119C669.841 610.617 669.664 611.097 669.394 611.559C669.13 612.015 668.773 612.426 668.323 612.792L667.621 612.369C667.561 612.333 667.519 612.291 667.495 612.243C667.471 612.189 667.459 612.138 667.459 612.09C667.465 612.036 667.477 611.985 667.495 611.937C667.519 611.889 667.549 611.847 667.585 611.811C667.711 611.661 667.831 611.463 667.945 611.217C668.059 610.971 668.137 610.695 668.179 610.389C668.227 610.083 668.221 609.756 668.161 609.408C668.107 609.06 667.972 608.712 667.756 608.364C667.654 608.19 667.624 608.04 667.666 607.914C667.714 607.782 667.813 607.689 667.963 607.635L669.313 607.113ZM675.151 621.144C674.347 621.144 673.729 620.919 673.297 620.469C672.871 620.013 672.658 619.386 672.658 618.588V613.431H671.713C671.593 613.431 671.491 613.392 671.407 613.314C671.323 613.236 671.281 613.119 671.281 612.963V612.081L672.766 611.838L673.234 609.318C673.264 609.198 673.321 609.105 673.405 609.039C673.489 608.973 673.597 608.94 673.729 608.94H674.881V611.847H677.347V613.431H674.881V618.435C674.881 618.723 674.95 618.948 675.088 619.11C675.232 619.272 675.427 619.353 675.673 619.353C675.811 619.353 675.925 619.338 676.015 619.308C676.111 619.272 676.192 619.236 676.258 619.2C676.33 619.164 676.393 619.131 676.447 619.101C676.501 619.065 676.555 619.047 676.609 619.047C676.675 619.047 676.729 619.065 676.771 619.101C676.813 619.131 676.858 619.179 676.906 619.245L677.572 620.325C677.248 620.595 676.876 620.799 676.456 620.937C676.036 621.075 675.601 621.144 675.151 621.144Z" fill="#F74F64"/>
<path d="M950.426 208.629H938.5V202.484C938.5 199.318 937.298 196.618 934.895 194.384C932.676 191.963 929.902 190.753 926.574 190.753H914.926V202.484H926.574V254.996C924.54 257.044 922.969 259.465 921.859 262.258H901.891C900.596 258.72 898.47 255.834 895.512 253.599C892.553 251.365 889.133 250.247 885.25 250.247C881.367 250.247 877.947 251.365 874.988 253.599C872.03 255.834 869.904 258.72 868.609 262.258H867.5V238.237H855.574V268.124C855.574 269.8 856.129 271.196 857.238 272.313C858.533 273.431 860.012 273.989 861.676 273.989H868.609C869.904 277.527 872.03 280.414 874.988 282.648C877.947 284.883 881.367 286 885.25 286C889.133 286 892.553 284.883 895.512 282.648C898.47 280.414 900.596 277.527 901.891 273.989H921.859C923.154 277.527 925.28 280.414 928.238 282.648C931.197 284.883 934.617 286 938.5 286C942.383 286 945.803 284.883 948.762 282.648C951.72 280.414 953.846 277.527 955.141 273.989H968.176C969.655 273.989 970.949 273.431 972.059 272.313C973.353 271.196 974 269.8 974 268.124V232.371C974 225.854 971.689 220.267 967.066 215.612C962.444 210.957 956.897 208.629 950.426 208.629ZM889.41 272.313C888.301 273.431 886.914 273.989 885.25 273.989C883.586 273.989 882.199 273.431 881.09 272.313C879.98 271.196 879.426 269.8 879.426 268.124C879.426 266.448 879.98 265.051 881.09 263.934C882.199 262.817 883.586 262.258 885.25 262.258C886.914 262.258 888.301 262.817 889.41 263.934C890.52 265.051 891.074 266.448 891.074 268.124C891.074 269.8 890.52 271.196 889.41 272.313ZM942.66 272.313C941.551 273.431 940.164 273.989 938.5 273.989C936.836 273.989 935.449 273.431 934.34 272.313C933.23 271.196 932.676 269.8 932.676 268.124C932.676 266.448 933.23 265.051 934.34 263.934C935.449 262.817 936.836 262.258 938.5 262.258C940.164 262.258 941.551 262.817 942.66 263.934C943.77 265.051 944.324 266.448 944.324 268.124C944.324 269.8 943.77 271.196 942.66 272.313ZM962.074 262.258H955.141C953.846 258.72 951.72 255.834 948.762 253.599C945.803 251.365 942.383 250.247 938.5 250.247V220.36H950.426C953.569 220.36 956.25 221.571 958.469 223.991C960.872 226.226 962.074 229.019 962.074 232.371V262.258ZM944.324 226.505H956.25V238.237H944.324V226.505ZM842.262 216.171C849.288 223.06 857.701 226.505 867.5 226.505C877.299 226.505 885.62 223.06 892.461 216.171C899.487 209.095 903 200.622 903 190.753C903 180.883 899.487 172.504 892.461 165.614C885.62 158.538 877.299 155 867.5 155C857.701 155 849.288 158.538 842.262 165.614C835.421 172.504 832 180.883 832 190.753C832 200.622 835.421 209.095 842.262 216.171ZM850.859 173.994C855.482 169.152 861.029 166.731 867.5 166.731C873.971 166.731 879.518 169.152 884.141 173.994C888.763 178.649 891.074 184.235 891.074 190.753C891.074 197.27 888.763 202.856 884.141 207.512C879.518 212.167 873.971 214.495 867.5 214.495C861.029 214.495 855.482 212.167 850.859 207.512C846.237 202.856 843.926 197.27 843.926 190.753C843.926 184.235 846.237 178.649 850.859 173.994ZM879.426 184.608H873.324V172.876H861.676V196.618H879.426V184.608ZM832 244.382H849.75V256.113H832V244.382ZM837.824 262.258H849.75V273.989H837.824V262.258Z" fill="#41A5DD"/>
<path d="M913.896 430.281H911.188V428.874C911.188 428.149 910.915 427.531 910.369 427.019C909.865 426.465 909.235 426.188 908.479 426.188H905.833V428.874H908.479V440.9C908.017 441.369 907.66 441.923 907.408 442.563H902.873C902.579 441.753 902.096 441.092 901.424 440.58C900.752 440.068 899.976 439.812 899.094 439.812C898.212 439.812 897.435 440.068 896.763 440.58C896.091 441.092 895.608 441.753 895.314 442.563H895.062V437.062H892.354V443.906C892.354 444.29 892.48 444.61 892.732 444.866C893.026 445.122 893.362 445.249 893.74 445.249H895.314C895.608 446.06 896.091 446.721 896.763 447.232C897.435 447.744 898.212 448 899.094 448C899.976 448 900.752 447.744 901.424 447.232C902.096 446.721 902.579 446.06 902.873 445.249H907.408C907.702 446.06 908.185 446.721 908.857 447.232C909.529 447.744 910.306 448 911.188 448C912.069 448 912.846 447.744 913.518 447.232C914.19 446.721 914.673 446.06 914.967 445.249H917.927C918.263 445.249 918.557 445.122 918.809 444.866C919.103 444.61 919.25 444.29 919.25 443.906V435.719C919.25 434.226 918.725 432.947 917.675 431.881C916.625 430.814 915.366 430.281 913.896 430.281ZM900.039 444.866C899.787 445.122 899.472 445.249 899.094 445.249C898.716 445.249 898.401 445.122 898.149 444.866C897.897 444.61 897.771 444.29 897.771 443.906C897.771 443.522 897.897 443.203 898.149 442.947C898.401 442.691 898.716 442.563 899.094 442.563C899.472 442.563 899.787 442.691 900.039 442.947C900.291 443.203 900.417 443.522 900.417 443.906C900.417 444.29 900.291 444.61 900.039 444.866ZM912.132 444.866C911.88 445.122 911.565 445.249 911.188 445.249C910.81 445.249 910.495 445.122 910.243 444.866C909.991 444.61 909.865 444.29 909.865 443.906C909.865 443.522 909.991 443.203 910.243 442.947C910.495 442.691 910.81 442.563 911.188 442.563C911.565 442.563 911.88 442.691 912.132 442.947C912.384 443.203 912.51 443.522 912.51 443.906C912.51 444.29 912.384 444.61 912.132 444.866ZM916.542 442.563H914.967C914.673 441.753 914.19 441.092 913.518 440.58C912.846 440.068 912.069 439.812 911.188 439.812V432.968H913.896C914.61 432.968 915.219 433.245 915.723 433.8C916.269 434.311 916.542 434.951 916.542 435.719V442.563ZM912.51 434.375H915.219V437.062H912.51V434.375ZM889.331 432.009C890.926 433.586 892.837 434.375 895.062 434.375C897.288 434.375 899.178 433.586 900.731 432.009C902.327 430.388 903.125 428.448 903.125 426.188C903.125 423.928 902.327 422.009 900.731 420.431C899.178 418.81 897.288 418 895.062 418C892.837 418 890.926 418.81 889.331 420.431C887.777 422.009 887 423.928 887 426.188C887 428.448 887.777 430.388 889.331 432.009ZM891.283 422.35C892.333 421.241 893.593 420.687 895.062 420.687C896.532 420.687 897.792 421.241 898.842 422.35C899.892 423.416 900.417 424.695 900.417 426.188C900.417 427.68 899.892 428.959 898.842 430.026C897.792 431.092 896.532 431.625 895.062 431.625C893.593 431.625 892.333 431.092 891.283 430.026C890.233 428.959 889.708 427.68 889.708 426.188C889.708 424.695 890.233 423.416 891.283 422.35ZM897.771 424.78H896.385V422.094H893.74V427.531H897.771V424.78ZM887 438.469H891.031V441.156H887V438.469ZM888.323 442.563H891.031V445.249H888.323V442.563Z" fill="#41A5DD"/>
<path d="M211.857 231.457H239.971" stroke="#292929" stroke-width="8" stroke-linecap="round" stroke-linejoin="round"/>
<path d="M219.743 251H239.971" stroke="#292929" stroke-width="8" stroke-linecap="round" stroke-linejoin="round"/>
<path d="M392.2 203L382.943 185.857C381.228 182.429 377.8 180.371 374.028 180.371H353.8V232.829C354.486 232.829 355.514 232.486 356.2 232.486C364.428 232.486 370.943 239 370.943 247.229H383.286C389.114 247.229 393.571 242.771 393.571 236.943V207.457C393.228 206.086 392.886 204.371 392.2 203Z" stroke="#292929" stroke-width="8" stroke-miterlimit="10"/>
<path d="M354.143 232.829V180.371C354.143 174.886 349.686 170.429 344.2 170.429H265.343C259.515 170.429 255.057 174.886 255.057 180.714V237.286C255.057 243.114 259.515 247.571 265.343 247.571H267.4C267.4 239.343 273.915 232.829 282.143 232.829C290.372 232.829 296.886 239.343 296.886 247.571H341.457C341.8 240.029 346.943 233.857 354.143 232.829Z" stroke="#292929" stroke-width="8" stroke-miterlimit="10"/>
<path d="M282.486 262.314C290.714 262.314 297.229 255.8 297.229 247.571C297.229 239.343 290.714 232.829 282.486 232.829C274.257 232.829 267.743 239.343 267.743 247.571C267.4 255.8 274.257 262.314 282.486 262.314Z" stroke="#292929" stroke-width="8" stroke-miterlimit="10"/>
<path d="M356.543 262.314C364.771 262.314 371.285 255.8 371.285 247.571C371.285 239.343 364.771 232.829 356.543 232.829C348.314 232.829 341.8 239.343 341.8 247.571C341.8 255.8 348.314 262.314 356.543 262.314Z" stroke="#292929" stroke-width="8" stroke-miterlimit="10"/>
<path d="M283.914 436.154H289.303" stroke="#292929" stroke-width="2" stroke-linecap="round" stroke-linejoin="round"/>
<path d="M285.426 439.9H289.303" stroke="#292929" stroke-width="2" stroke-linecap="round" stroke-linejoin="round"/>
<path d="M318.48 430.7L316.706 427.414C316.377 426.757 315.72 426.363 314.997 426.363H311.12V436.417C311.251 436.417 311.448 436.351 311.58 436.351C313.157 436.351 314.406 437.6 314.406 439.177H316.771C317.888 439.177 318.743 438.323 318.743 437.206V431.554C318.677 431.291 318.611 430.963 318.48 430.7Z" stroke="#292929" stroke-width="2" stroke-miterlimit="10"/>
<path d="M311.186 436.417V426.363C311.186 425.311 310.331 424.457 309.28 424.457H294.166C293.049 424.457 292.194 425.311 292.194 426.429V437.271C292.194 438.389 293.049 439.243 294.166 439.243H294.56C294.56 437.666 295.809 436.417 297.386 436.417C298.963 436.417 300.211 437.666 300.211 439.243H308.754C308.82 437.797 309.806 436.614 311.186 436.417Z" stroke="#292929" stroke-width="2" stroke-miterlimit="10"/>
<path d="M297.451 442.069C299.029 442.069 300.277 440.82 300.277 439.243C300.277 437.666 299.029 436.417 297.451 436.417C295.874 436.417 294.626 437.666 294.626 439.243C294.56 440.82 295.874 442.069 297.451 442.069Z" stroke="#292929" stroke-width="2" stroke-miterlimit="10"/>
<path d="M311.646 442.069C313.223 442.069 314.471 440.82 314.471 439.243C314.471 437.666 313.223 436.417 311.646 436.417C310.069 436.417 308.82 437.666 308.82 439.243C308.82 440.82 310.069 442.069 311.646 442.069Z" stroke="#292929" stroke-width="2" stroke-miterlimit="10"/>
</svg>
