<svg width="1204" height="678" viewBox="0 0 1204 678" fill="none" xmlns="http://www.w3.org/2000/svg">
<rect width="1204" height="677.25" fill="white"/>
<rect x="30" y="635" width="542" height="5" rx="2.5" fill="#70C216"/>
<path d="M43.005 614.493C43.005 615.447 42.846 616.323 42.528 617.121C42.21 617.919 41.763 618.606 41.187 619.182C40.611 619.758 39.918 620.205 39.108 620.523C38.298 620.841 37.398 621 36.408 621H31.449V607.986H36.408C37.398 607.986 38.298 608.148 39.108 608.472C39.918 608.79 40.611 609.237 41.187 609.813C41.763 610.383 42.21 611.067 42.528 611.865C42.846 612.663 43.005 613.539 43.005 614.493ZM40.521 614.493C40.521 613.779 40.425 613.14 40.233 612.576C40.047 612.006 39.774 611.526 39.414 611.136C39.06 610.74 38.628 610.437 38.118 610.227C37.614 610.017 37.044 609.912 36.408 609.912H33.879V619.074H36.408C37.044 619.074 37.614 618.969 38.118 618.759C38.628 618.549 39.06 618.249 39.414 617.859C39.774 617.463 40.047 616.983 40.233 616.419C40.425 615.849 40.521 615.207 40.521 614.493ZM49.0543 611.622C49.7383 611.622 50.3593 611.733 50.9173 611.955C51.4813 612.177 51.9613 612.492 52.3573 612.9C52.7593 613.308 53.0683 613.806 53.2843 614.394C53.5003 614.982 53.6083 615.639 53.6083 616.365C53.6083 617.097 53.5003 617.757 53.2843 618.345C53.0683 618.933 52.7593 619.434 52.3573 619.848C51.9613 620.262 51.4813 620.58 50.9173 620.802C50.3593 621.024 49.7383 621.135 49.0543 621.135C48.3643 621.135 47.7373 621.024 47.1733 620.802C46.6093 620.58 46.1263 620.262 45.7243 619.848C45.3283 619.434 45.0193 618.933 44.7973 618.345C44.5813 617.757 44.4733 617.097 44.4733 616.365C44.4733 615.639 44.5813 614.982 44.7973 614.394C45.0193 613.806 45.3283 613.308 45.7243 612.9C46.1263 612.492 46.6093 612.177 47.1733 611.955C47.7373 611.733 48.3643 611.622 49.0543 611.622ZM49.0543 619.425C49.8223 619.425 50.3893 619.167 50.7553 618.651C51.1273 618.135 51.3133 617.379 51.3133 616.383C51.3133 615.387 51.1273 614.628 50.7553 614.106C50.3893 613.584 49.8223 613.323 49.0543 613.323C48.2743 613.323 47.6953 613.587 47.3173 614.115C46.9453 614.637 46.7593 615.393 46.7593 616.383C46.7593 617.373 46.9453 618.129 47.3173 618.651C47.6953 619.167 48.2743 619.425 49.0543 619.425Z" fill="#70C216"/>
<rect x="632" y="635" width="542" height="5" fill="#F74F64"/>
<path d="M645.005 614.493C645.005 615.447 644.846 616.323 644.528 617.121C644.21 617.919 643.763 618.606 643.187 619.182C642.611 619.758 641.918 620.205 641.108 620.523C640.298 620.841 639.398 621 638.408 621H633.449V607.986H638.408C639.398 607.986 640.298 608.148 641.108 608.472C641.918 608.79 642.611 609.237 643.187 609.813C643.763 610.383 644.21 611.067 644.528 611.865C644.846 612.663 645.005 613.539 645.005 614.493ZM642.521 614.493C642.521 613.779 642.425 613.14 642.233 612.576C642.047 612.006 641.774 611.526 641.414 611.136C641.06 610.74 640.628 610.437 640.118 610.227C639.614 610.017 639.044 609.912 638.408 609.912H635.879V619.074H638.408C639.044 619.074 639.614 618.969 640.118 618.759C640.628 618.549 641.06 618.249 641.414 617.859C641.774 617.463 642.047 616.983 642.233 616.419C642.425 615.849 642.521 615.207 642.521 614.493ZM651.054 611.622C651.738 611.622 652.359 611.733 652.917 611.955C653.481 612.177 653.961 612.492 654.357 612.9C654.759 613.308 655.068 613.806 655.284 614.394C655.5 614.982 655.608 615.639 655.608 616.365C655.608 617.097 655.5 617.757 655.284 618.345C655.068 618.933 654.759 619.434 654.357 619.848C653.961 620.262 653.481 620.58 652.917 620.802C652.359 621.024 651.738 621.135 651.054 621.135C650.364 621.135 649.737 621.024 649.173 620.802C648.609 620.58 648.126 620.262 647.724 619.848C647.328 619.434 647.019 618.933 646.797 618.345C646.581 617.757 646.473 617.097 646.473 616.365C646.473 615.639 646.581 614.982 646.797 614.394C647.019 613.806 647.328 613.308 647.724 612.9C648.126 612.492 648.609 612.177 649.173 611.955C649.737 611.733 650.364 611.622 651.054 611.622ZM651.054 619.425C651.822 619.425 652.389 619.167 652.755 618.651C653.127 618.135 653.313 617.379 653.313 616.383C653.313 615.387 653.127 614.628 652.755 614.106C652.389 613.584 651.822 613.323 651.054 613.323C650.274 613.323 649.695 613.587 649.317 614.115C648.945 614.637 648.759 615.393 648.759 616.383C648.759 617.373 648.945 618.129 649.317 618.651C649.695 619.167 650.274 619.425 651.054 619.425ZM659.683 612.9C659.869 612.714 660.064 612.543 660.268 612.387C660.478 612.225 660.697 612.09 660.925 611.982C661.159 611.868 661.408 611.781 661.672 611.721C661.936 611.655 662.224 611.622 662.536 611.622C663.04 611.622 663.487 611.709 663.877 611.883C664.267 612.051 664.591 612.291 664.849 612.603C665.113 612.909 665.311 613.278 665.443 613.71C665.581 614.136 665.65 614.607 665.65 615.123V621H663.427V615.123C663.427 614.559 663.298 614.124 663.04 613.818C662.782 613.506 662.389 613.35 661.861 613.35C661.477 613.35 661.117 613.437 660.781 613.611C660.445 613.785 660.127 614.022 659.827 614.322V621H657.604V611.766H658.963C659.251 611.766 659.44 611.901 659.53 612.171L659.683 612.9ZM669.313 607.113C669.601 607.587 669.796 608.082 669.898 608.598C670 609.108 670.009 609.615 669.925 610.119C669.841 610.617 669.664 611.097 669.394 611.559C669.13 612.015 668.773 612.426 668.323 612.792L667.621 612.369C667.561 612.333 667.519 612.291 667.495 612.243C667.471 612.189 667.459 612.138 667.459 612.09C667.465 612.036 667.477 611.985 667.495 611.937C667.519 611.889 667.549 611.847 667.585 611.811C667.711 611.661 667.831 611.463 667.945 611.217C668.059 610.971 668.137 610.695 668.179 610.389C668.227 610.083 668.221 609.756 668.161 609.408C668.107 609.06 667.972 608.712 667.756 608.364C667.654 608.19 667.624 608.04 667.666 607.914C667.714 607.782 667.813 607.689 667.963 607.635L669.313 607.113ZM675.151 621.144C674.347 621.144 673.729 620.919 673.297 620.469C672.871 620.013 672.658 619.386 672.658 618.588V613.431H671.713C671.593 613.431 671.491 613.392 671.407 613.314C671.323 613.236 671.281 613.119 671.281 612.963V612.081L672.766 611.838L673.234 609.318C673.264 609.198 673.321 609.105 673.405 609.039C673.489 608.973 673.597 608.94 673.729 608.94H674.881V611.847H677.347V613.431H674.881V618.435C674.881 618.723 674.95 618.948 675.088 619.11C675.232 619.272 675.427 619.353 675.673 619.353C675.811 619.353 675.925 619.338 676.015 619.308C676.111 619.272 676.192 619.236 676.258 619.2C676.33 619.164 676.393 619.131 676.447 619.101C676.501 619.065 676.555 619.047 676.609 619.047C676.675 619.047 676.729 619.065 676.771 619.101C676.813 619.131 676.858 619.179 676.906 619.245L677.572 620.325C677.248 620.595 676.876 620.799 676.456 620.937C676.036 621.075 675.601 621.144 675.151 621.144Z" fill="#F74F64"/>
<path d="M775.526 279.946C775.39 279.811 775.322 279.676 775.322 279.54L775.118 279.338C774.982 279.202 774.914 279.135 774.914 279.135C774.914 278.864 774.846 278.729 774.71 278.729C774.438 278.458 774.234 278.323 774.098 278.323L715.962 249.507C715.01 248.831 714.126 248.831 713.31 249.507L695.971 258.03C695.699 258.301 695.495 258.436 695.359 258.436C695.359 258.571 695.291 258.639 695.155 258.639C695.019 258.774 694.951 258.91 694.951 259.045L694.747 259.248V259.451C694.611 259.451 694.543 259.586 694.543 259.857C694.407 259.992 694.339 260.262 694.339 260.668V281.976L678.632 289.89H678.428C678.156 289.89 678.02 290.025 678.02 290.296H677.816L677.408 290.701V290.904L677.204 291.107V291.513C677.068 291.513 677 291.581 677 291.716V304.703L677.408 305.515L678.02 306.124C678.156 306.259 678.224 306.327 678.224 306.327C678.496 306.327 678.632 306.394 678.632 306.53L682.712 308.559V321.343C682.712 322.561 683.256 323.373 684.344 323.779L742.48 352.797H742.888L743.092 353H744.316L744.52 352.797H744.928L774.098 338.186C775.05 337.78 775.526 336.969 775.526 335.751V279.946ZM714.738 255.189L766.143 280.758L755.331 286.237L703.722 260.668L714.738 255.189ZM700.255 265.336L752.476 291.31V307.95L700.255 281.976V265.336ZM697.195 287.049L700.867 288.875L698.827 289.89C696.923 290.701 696.515 291.987 697.603 293.745C698.011 294.828 698.895 295.369 700.255 295.369C700.527 295.369 700.935 295.233 701.479 294.963L707.19 292.122C707.326 292.122 707.394 292.054 707.394 291.919L712.494 294.557L710.454 295.572C708.686 296.519 708.278 297.804 709.23 299.427C709.638 300.51 710.522 301.051 711.882 301.051C712.426 301.051 712.834 300.915 713.106 300.645L718.818 297.804H719.022L724.121 300.239L722.081 301.457C720.178 302.268 719.77 303.553 720.857 305.312C721.265 306.259 722.081 306.733 723.305 306.733C723.985 306.733 724.461 306.665 724.733 306.53L730.445 303.689L730.649 303.486L735.749 306.124L733.709 307.139C731.805 307.95 731.397 309.235 732.485 310.994C732.893 312.076 733.709 312.618 734.933 312.618C735.341 312.618 735.817 312.482 736.361 312.212L742.072 309.371H742.276L748.804 312.618L737.992 318.097L686.383 292.325L697.195 287.049ZM682.712 302.065V296.992L734.933 322.967V328.04L686.995 304.298L682.712 302.065ZM740.848 345.492L688.627 319.517V311.4L736.565 335.345C737.381 335.751 738.264 335.751 739.216 335.345L740.848 334.534V345.492ZM769.815 333.925L746.56 345.492V329.866C746.56 328.784 746.084 327.972 745.132 327.431C744.044 326.89 743.16 326.89 742.48 327.431L740.848 328.04V322.967L756.555 315.256L756.759 315.053H756.963L757.371 314.647V314.444C757.643 314.444 757.779 314.309 757.779 314.038C757.915 313.903 757.983 313.7 757.983 313.429L758.187 313.226V291.31L769.815 285.425V333.925Z" fill="#41A5DD"/>
<path d="M936.704 266.654H927.53V261.823C927.53 260.651 927.021 259.626 926.001 258.748C925.128 257.723 924.035 257.211 922.725 257.211H913.551C912.24 257.211 911.075 257.723 910.056 258.748C909.182 259.626 908.745 260.651 908.745 261.823V266.654H899.571V261.823C899.571 260.651 899.061 259.626 898.042 258.748C897.168 257.723 896.076 257.211 894.765 257.211H885.591C884.28 257.211 883.115 257.723 882.096 258.748C881.222 259.626 880.786 260.651 880.786 261.823V266.654H871.611C867.68 266.654 864.33 268.045 861.563 270.827C858.942 273.463 857.632 276.757 857.632 280.71V332.102C857.632 336.055 858.942 339.423 861.563 342.205C864.33 344.84 867.68 346.158 871.611 346.158H936.704C940.636 346.158 943.913 344.84 946.534 342.205C949.301 339.423 950.684 336.055 950.684 332.102V280.71C950.684 276.757 949.301 273.463 946.534 270.827C943.913 268.045 940.636 266.654 936.704 266.654ZM908.745 275.879V308.822C908.745 310.14 909.182 311.238 910.056 312.116C911.075 312.995 912.24 313.434 913.551 313.434V336.934H894.765V313.434C896.076 313.434 897.168 312.995 898.042 312.116C899.061 311.238 899.571 310.14 899.571 308.822V275.879H908.745ZM866.806 332.102V280.71C866.806 279.393 867.243 278.294 868.116 277.416C869.136 276.391 870.301 275.879 871.611 275.879H880.786V308.822C880.786 310.14 881.222 311.238 882.096 312.116C883.115 312.995 884.28 313.434 885.591 313.434V336.934H871.611C870.301 336.934 869.136 336.495 868.116 335.616C867.243 334.591 866.806 333.42 866.806 332.102ZM941.51 332.102C941.51 333.42 941 334.591 939.981 335.616C939.107 336.495 938.015 336.934 936.704 336.934H922.725V313.434C924.035 313.434 925.128 312.995 926.001 312.116C927.021 311.238 927.53 310.14 927.53 308.822V275.879H936.704C938.015 275.879 939.107 276.391 939.981 277.416C941 278.294 941.51 279.393 941.51 280.71V332.102Z" fill="#41A5DD"/>
<path fill-rule="evenodd" clip-rule="evenodd" d="M1060.1 301.767V257.211C1087.45 259.837 1091.84 267.569 1093.4 273.593C1095.4 281.27 1101.63 282.427 1108.51 283.199C1115.4 283.952 1128.37 285.054 1128.37 293.3C1128.37 298.461 1123.5 301.216 1119.92 303.42H1125.23C1125.98 303.42 1126.59 304.026 1126.59 304.779V321.915C1126.59 322.668 1125.98 323.274 1125.23 323.274H1120.32V326.414C1120.32 328.141 1118.91 329.555 1117.18 329.555H1116.96L1115.58 339.436V341.824H1116.28C1116.45 341.824 1116.58 341.952 1116.58 342.117V344.358C1116.58 344.523 1116.45 344.652 1116.28 344.652H1115.58V346.158H1111.58V344.652H1110.88C1110.72 344.652 1110.59 344.523 1110.59 344.358V342.099C1110.59 341.934 1110.72 341.805 1110.88 341.805H1111.58V339.418L1110.2 329.537H1109.98C1108.26 329.537 1106.84 328.122 1106.84 326.396V323.255H1065.48V326.396C1065.48 328.122 1064.07 329.537 1062.34 329.537H1062.12L1060.74 339.418V341.805H1061.44C1061.61 341.805 1061.73 341.934 1061.73 342.099V344.358C1061.73 344.523 1061.61 344.652 1061.44 344.652H1060.74V346.158H1056.74V344.652H1056.04C1055.88 344.652 1055.75 344.523 1055.75 344.358V342.099C1055.75 341.934 1055.88 341.805 1056.04 341.805H1056.74V339.418L1055.36 329.537H1055.14C1053.41 329.537 1052 328.122 1052 326.396V322.006H1033.74C1033.23 322.006 1032.79 321.584 1032.79 321.051V316.919C1032.79 315.376 1033.76 314.403 1035.54 314.403H1041.09C1041.29 313.209 1041.77 311.997 1043.09 311.703C1043.07 310.693 1043.07 309.683 1043.06 308.673C1040.91 307.718 1040.5 305.679 1040.45 303.567C1039 303.567 1038.37 302.979 1038.37 301.767H1040.61L1047.52 290.564H1054.76L1052.64 294.035L1058.28 301.767H1060.1ZM1052.11 294.916L1047.89 301.767H1057.11L1052.11 294.916Z" fill="#41A5DD"/>
<path d="M373 378.486H229C217.686 378.486 208.428 369.229 208.428 357.914V244.086C208.428 232.772 217.686 223.514 229 223.514H373C384.314 223.514 393.571 232.772 393.571 244.086V357.914C393.571 369.229 384.314 378.486 373 378.486Z" stroke="#292929" stroke-width="8" stroke-miterlimit="10"/>
<path d="M314.714 223.514H286.943V303.743C286.943 309.572 291.4 314.029 297.228 314.029H304.428C310.257 314.029 314.714 309.572 314.714 303.743V223.514Z" fill="#292929" stroke="#292929" stroke-width="8" stroke-miterlimit="10"/>
<path d="M267.743 223.514H239.971V303.743C239.971 309.572 244.428 314.029 250.257 314.029H257.457C263.286 314.029 267.743 309.572 267.743 303.743V223.514V223.514Z" fill="#292929" stroke="#292929" stroke-width="8" stroke-miterlimit="10"/>
<path d="M253.686 314.029V378.486" stroke="#292929" stroke-width="8" stroke-miterlimit="10"/>
<path d="M301 314.029V378.486" stroke="#292929" stroke-width="8" stroke-miterlimit="10"/>
<path d="M362.372 223.514H334.6V303.743C334.6 309.572 339.057 314.029 344.886 314.029H352.086C357.914 314.029 362.372 309.572 362.372 303.743V223.514Z" fill="#292929" stroke="#292929" stroke-width="8" stroke-miterlimit="10"/>
<path d="M348.314 314.029V378.486" stroke="#292929" stroke-width="8" stroke-miterlimit="10"/>
</svg>
