<svg width="1204" height="678" viewBox="0 0 1204 678" fill="none" xmlns="http://www.w3.org/2000/svg">
<rect width="1204" height="677.25" fill="white"/>
<rect x="30" y="635" width="542" height="5" rx="2.5" fill="#70C216"/>
<path d="M43.005 614.493C43.005 615.447 42.846 616.323 42.528 617.121C42.21 617.919 41.763 618.606 41.187 619.182C40.611 619.758 39.918 620.205 39.108 620.523C38.298 620.841 37.398 621 36.408 621H31.449V607.986H36.408C37.398 607.986 38.298 608.148 39.108 608.472C39.918 608.79 40.611 609.237 41.187 609.813C41.763 610.383 42.21 611.067 42.528 611.865C42.846 612.663 43.005 613.539 43.005 614.493ZM40.521 614.493C40.521 613.779 40.425 613.14 40.233 612.576C40.047 612.006 39.774 611.526 39.414 611.136C39.06 610.74 38.628 610.437 38.118 610.227C37.614 610.017 37.044 609.912 36.408 609.912H33.879V619.074H36.408C37.044 619.074 37.614 618.969 38.118 618.759C38.628 618.549 39.06 618.249 39.414 617.859C39.774 617.463 40.047 616.983 40.233 616.419C40.425 615.849 40.521 615.207 40.521 614.493ZM49.0543 611.622C49.7383 611.622 50.3593 611.733 50.9173 611.955C51.4813 612.177 51.9613 612.492 52.3573 612.9C52.7593 613.308 53.0683 613.806 53.2843 614.394C53.5003 614.982 53.6083 615.639 53.6083 616.365C53.6083 617.097 53.5003 617.757 53.2843 618.345C53.0683 618.933 52.7593 619.434 52.3573 619.848C51.9613 620.262 51.4813 620.58 50.9173 620.802C50.3593 621.024 49.7383 621.135 49.0543 621.135C48.3643 621.135 47.7373 621.024 47.1733 620.802C46.6093 620.58 46.1263 620.262 45.7243 619.848C45.3283 619.434 45.0193 618.933 44.7973 618.345C44.5813 617.757 44.4733 617.097 44.4733 616.365C44.4733 615.639 44.5813 614.982 44.7973 614.394C45.0193 613.806 45.3283 613.308 45.7243 612.9C46.1263 612.492 46.6093 612.177 47.1733 611.955C47.7373 611.733 48.3643 611.622 49.0543 611.622ZM49.0543 619.425C49.8223 619.425 50.3893 619.167 50.7553 618.651C51.1273 618.135 51.3133 617.379 51.3133 616.383C51.3133 615.387 51.1273 614.628 50.7553 614.106C50.3893 613.584 49.8223 613.323 49.0543 613.323C48.2743 613.323 47.6953 613.587 47.3173 614.115C46.9453 614.637 46.7593 615.393 46.7593 616.383C46.7593 617.373 46.9453 618.129 47.3173 618.651C47.6953 619.167 48.2743 619.425 49.0543 619.425Z" fill="#70C216"/>
<rect x="632" y="635" width="542" height="5" fill="#F74F64"/>
<path d="M645.005 614.493C645.005 615.447 644.846 616.323 644.528 617.121C644.21 617.919 643.763 618.606 643.187 619.182C642.611 619.758 641.918 620.205 641.108 620.523C640.298 620.841 639.398 621 638.408 621H633.449V607.986H638.408C639.398 607.986 640.298 608.148 641.108 608.472C641.918 608.79 642.611 609.237 643.187 609.813C643.763 610.383 644.21 611.067 644.528 611.865C644.846 612.663 645.005 613.539 645.005 614.493ZM642.521 614.493C642.521 613.779 642.425 613.14 642.233 612.576C642.047 612.006 641.774 611.526 641.414 611.136C641.06 610.74 640.628 610.437 640.118 610.227C639.614 610.017 639.044 609.912 638.408 609.912H635.879V619.074H638.408C639.044 619.074 639.614 618.969 640.118 618.759C640.628 618.549 641.06 618.249 641.414 617.859C641.774 617.463 642.047 616.983 642.233 616.419C642.425 615.849 642.521 615.207 642.521 614.493ZM651.054 611.622C651.738 611.622 652.359 611.733 652.917 611.955C653.481 612.177 653.961 612.492 654.357 612.9C654.759 613.308 655.068 613.806 655.284 614.394C655.5 614.982 655.608 615.639 655.608 616.365C655.608 617.097 655.5 617.757 655.284 618.345C655.068 618.933 654.759 619.434 654.357 619.848C653.961 620.262 653.481 620.58 652.917 620.802C652.359 621.024 651.738 621.135 651.054 621.135C650.364 621.135 649.737 621.024 649.173 620.802C648.609 620.58 648.126 620.262 647.724 619.848C647.328 619.434 647.019 618.933 646.797 618.345C646.581 617.757 646.473 617.097 646.473 616.365C646.473 615.639 646.581 614.982 646.797 614.394C647.019 613.806 647.328 613.308 647.724 612.9C648.126 612.492 648.609 612.177 649.173 611.955C649.737 611.733 650.364 611.622 651.054 611.622ZM651.054 619.425C651.822 619.425 652.389 619.167 652.755 618.651C653.127 618.135 653.313 617.379 653.313 616.383C653.313 615.387 653.127 614.628 652.755 614.106C652.389 613.584 651.822 613.323 651.054 613.323C650.274 613.323 649.695 613.587 649.317 614.115C648.945 614.637 648.759 615.393 648.759 616.383C648.759 617.373 648.945 618.129 649.317 618.651C649.695 619.167 650.274 619.425 651.054 619.425ZM659.683 612.9C659.869 612.714 660.064 612.543 660.268 612.387C660.478 612.225 660.697 612.09 660.925 611.982C661.159 611.868 661.408 611.781 661.672 611.721C661.936 611.655 662.224 611.622 662.536 611.622C663.04 611.622 663.487 611.709 663.877 611.883C664.267 612.051 664.591 612.291 664.849 612.603C665.113 612.909 665.311 613.278 665.443 613.71C665.581 614.136 665.65 614.607 665.65 615.123V621H663.427V615.123C663.427 614.559 663.298 614.124 663.04 613.818C662.782 613.506 662.389 613.35 661.861 613.35C661.477 613.35 661.117 613.437 660.781 613.611C660.445 613.785 660.127 614.022 659.827 614.322V621H657.604V611.766H658.963C659.251 611.766 659.44 611.901 659.53 612.171L659.683 612.9ZM669.313 607.113C669.601 607.587 669.796 608.082 669.898 608.598C670 609.108 670.009 609.615 669.925 610.119C669.841 610.617 669.664 611.097 669.394 611.559C669.13 612.015 668.773 612.426 668.323 612.792L667.621 612.369C667.561 612.333 667.519 612.291 667.495 612.243C667.471 612.189 667.459 612.138 667.459 612.09C667.465 612.036 667.477 611.985 667.495 611.937C667.519 611.889 667.549 611.847 667.585 611.811C667.711 611.661 667.831 611.463 667.945 611.217C668.059 610.971 668.137 610.695 668.179 610.389C668.227 610.083 668.221 609.756 668.161 609.408C668.107 609.06 667.972 608.712 667.756 608.364C667.654 608.19 667.624 608.04 667.666 607.914C667.714 607.782 667.813 607.689 667.963 607.635L669.313 607.113ZM675.151 621.144C674.347 621.144 673.729 620.919 673.297 620.469C672.871 620.013 672.658 619.386 672.658 618.588V613.431H671.713C671.593 613.431 671.491 613.392 671.407 613.314C671.323 613.236 671.281 613.119 671.281 612.963V612.081L672.766 611.838L673.234 609.318C673.264 609.198 673.321 609.105 673.405 609.039C673.489 608.973 673.597 608.94 673.729 608.94H674.881V611.847H677.347V613.431H674.881V618.435C674.881 618.723 674.95 618.948 675.088 619.11C675.232 619.272 675.427 619.353 675.673 619.353C675.811 619.353 675.925 619.338 676.015 619.308C676.111 619.272 676.192 619.236 676.258 619.2C676.33 619.164 676.393 619.131 676.447 619.101C676.501 619.065 676.555 619.047 676.609 619.047C676.675 619.047 676.729 619.065 676.771 619.101C676.813 619.131 676.858 619.179 676.906 619.245L677.572 620.325C677.248 620.595 676.876 620.799 676.456 620.937C676.036 621.075 675.601 621.144 675.151 621.144Z" fill="#F74F64"/>
<path d="M373 279.486H229C217.686 279.486 208.429 270.228 208.429 258.914V145.086C208.429 133.771 217.686 124.514 229 124.514H373C384.314 124.514 393.571 133.771 393.571 145.086V258.914C393.571 270.228 384.314 279.486 373 279.486Z" stroke="#292929" stroke-width="8" stroke-miterlimit="10"/>
<path d="M314.714 124.514H286.943V204.743C286.943 210.571 291.4 215.028 297.228 215.028H304.428C310.257 215.028 314.714 210.571 314.714 204.743V124.514Z" fill="#292929" stroke="#292929" stroke-width="8" stroke-miterlimit="10"/>
<path d="M267.743 124.514H239.971V204.743C239.971 210.571 244.428 215.028 250.257 215.028H257.457C263.286 215.028 267.743 210.571 267.743 204.743V124.514V124.514Z" fill="#292929" stroke="#292929" stroke-width="8" stroke-miterlimit="10"/>
<path d="M253.686 215.029V279.486" stroke="#292929" stroke-width="8" stroke-miterlimit="10"/>
<path d="M301 215.029V279.486" stroke="#292929" stroke-width="8" stroke-miterlimit="10"/>
<path d="M362.372 124.514H334.6V204.743C334.6 210.571 339.057 215.028 344.886 215.028H352.086C357.914 215.028 362.372 210.571 362.372 204.743V124.514Z" fill="#292929" stroke="#292929" stroke-width="8" stroke-miterlimit="10"/>
<path d="M348.314 215.029V279.486" stroke="#292929" stroke-width="8" stroke-miterlimit="10"/>
<path d="M975 279.486H831C819.686 279.486 810.429 270.228 810.429 258.914V145.086C810.429 133.771 819.686 124.514 831 124.514H975C986.314 124.514 995.571 133.771 995.571 145.086V258.914C995.571 270.228 986.314 279.486 975 279.486Z" stroke="#292929" stroke-width="8" stroke-miterlimit="10"/>
<path d="M916.714 124.514H888.943V204.743C888.943 210.571 893.4 215.028 899.228 215.028H906.428C912.257 215.028 916.714 210.571 916.714 204.743V124.514Z" stroke="#292929" stroke-width="8" stroke-miterlimit="10"/>
<path d="M869.743 124.514H841.971V204.743C841.971 210.571 846.428 215.028 852.257 215.028H859.457C865.286 215.028 869.743 210.571 869.743 204.743V124.514V124.514Z" stroke="#292929" stroke-width="8" stroke-miterlimit="10"/>
<path d="M855.686 215.029V279.486" stroke="#292929" stroke-width="8" stroke-miterlimit="10"/>
<path d="M903 215.029V279.486" stroke="#292929" stroke-width="8" stroke-miterlimit="10"/>
<path d="M964.372 124.514H936.6V204.743C936.6 210.571 941.057 215.028 946.886 215.028H954.086C959.914 215.028 964.372 210.571 964.372 204.743V124.514Z" stroke="#292929" stroke-width="8" stroke-miterlimit="10"/>
<path d="M950.314 215.029V279.486" stroke="#292929" stroke-width="8" stroke-miterlimit="10"/>
<g clip-path="url(#clip0)">
<path d="M301 461.75C319.625 461.75 334.75 446.625 334.75 428C334.75 409.375 319.625 394.25 301 394.25C282.375 394.25 267.25 409.375 267.25 428C267.25 446.625 282.375 461.75 301 461.75Z" stroke="#292929" stroke-width="3" stroke-miterlimit="10" stroke-linecap="round" stroke-linejoin="round"/>
<path d="M327.25 429.5C328 415.875 318.25 404.25 305.25 402.125C303 401.75 301 403.5 301 405.875V426.5C301 427.5 300.625 428.5 299.875 429.125L285.375 443.625C283.75 445.25 284 448 285.875 449.375C290.5 452.625 296.125 454.5 302.25 454.25C315.5 453.625 326.5 442.75 327.25 429.5Z" fill="#292929" stroke="#292929" stroke-width="3" stroke-miterlimit="10" stroke-linecap="round" stroke-linejoin="round"/>
</g>
<g clip-path="url(#clip1)">
<path d="M903 461.75C921.625 461.75 936.75 446.625 936.75 428C936.75 409.375 921.625 394.25 903 394.25C884.375 394.25 869.25 409.375 869.25 428C869.25 446.625 884.375 461.75 903 461.75Z" stroke="#292929" stroke-width="3" stroke-miterlimit="10" stroke-linecap="round" stroke-linejoin="round"/>
<path d="M929.25 429.5C930 415.875 920.25 404.25 907.25 402.125C905 401.75 903 403.5 903 405.875V426.5C903 427.5 902.625 428.5 901.875 429.125L887.375 443.625C885.75 445.25 886 448 887.875 449.375C892.5 452.625 898.125 454.5 904.25 454.25C917.5 453.625 928.5 442.75 929.25 429.5Z" stroke="#292929" stroke-width="3" stroke-miterlimit="10" stroke-linecap="round" stroke-linejoin="round"/>
</g>
<defs>
<clipPath id="clip0">
<rect width="70" height="70" fill="white" transform="translate(266 393)"/>
</clipPath>
<clipPath id="clip1">
<rect width="70" height="70" fill="white" transform="translate(868 393)"/>
</clipPath>
</defs>
</svg>
