<svg width="1204" height="678" viewBox="0 0 1204 678" fill="none" xmlns="http://www.w3.org/2000/svg">
<rect width="1204" height="677.25" fill="white"/>
<rect x="30" y="635" width="542" height="5" rx="2.5" fill="#70C216"/>
<path d="M43.005 614.493C43.005 615.447 42.846 616.323 42.528 617.121C42.21 617.919 41.763 618.606 41.187 619.182C40.611 619.758 39.918 620.205 39.108 620.523C38.298 620.841 37.398 621 36.408 621H31.449V607.986H36.408C37.398 607.986 38.298 608.148 39.108 608.472C39.918 608.79 40.611 609.237 41.187 609.813C41.763 610.383 42.21 611.067 42.528 611.865C42.846 612.663 43.005 613.539 43.005 614.493ZM40.521 614.493C40.521 613.779 40.425 613.14 40.233 612.576C40.047 612.006 39.774 611.526 39.414 611.136C39.06 610.74 38.628 610.437 38.118 610.227C37.614 610.017 37.044 609.912 36.408 609.912H33.879V619.074H36.408C37.044 619.074 37.614 618.969 38.118 618.759C38.628 618.549 39.06 618.249 39.414 617.859C39.774 617.463 40.047 616.983 40.233 616.419C40.425 615.849 40.521 615.207 40.521 614.493ZM49.0543 611.622C49.7383 611.622 50.3593 611.733 50.9173 611.955C51.4813 612.177 51.9613 612.492 52.3573 612.9C52.7593 613.308 53.0683 613.806 53.2843 614.394C53.5003 614.982 53.6083 615.639 53.6083 616.365C53.6083 617.097 53.5003 617.757 53.2843 618.345C53.0683 618.933 52.7593 619.434 52.3573 619.848C51.9613 620.262 51.4813 620.58 50.9173 620.802C50.3593 621.024 49.7383 621.135 49.0543 621.135C48.3643 621.135 47.7373 621.024 47.1733 620.802C46.6093 620.58 46.1263 620.262 45.7243 619.848C45.3283 619.434 45.0193 618.933 44.7973 618.345C44.5813 617.757 44.4733 617.097 44.4733 616.365C44.4733 615.639 44.5813 614.982 44.7973 614.394C45.0193 613.806 45.3283 613.308 45.7243 612.9C46.1263 612.492 46.6093 612.177 47.1733 611.955C47.7373 611.733 48.3643 611.622 49.0543 611.622ZM49.0543 619.425C49.8223 619.425 50.3893 619.167 50.7553 618.651C51.1273 618.135 51.3133 617.379 51.3133 616.383C51.3133 615.387 51.1273 614.628 50.7553 614.106C50.3893 613.584 49.8223 613.323 49.0543 613.323C48.2743 613.323 47.6953 613.587 47.3173 614.115C46.9453 614.637 46.7593 615.393 46.7593 616.383C46.7593 617.373 46.9453 618.129 47.3173 618.651C47.6953 619.167 48.2743 619.425 49.0543 619.425Z" fill="#70C216"/>
<rect x="632" y="635" width="542" height="5" fill="#F74F64"/>
<path d="M645.005 614.493C645.005 615.447 644.846 616.323 644.528 617.121C644.21 617.919 643.763 618.606 643.187 619.182C642.611 619.758 641.918 620.205 641.108 620.523C640.298 620.841 639.398 621 638.408 621H633.449V607.986H638.408C639.398 607.986 640.298 608.148 641.108 608.472C641.918 608.79 642.611 609.237 643.187 609.813C643.763 610.383 644.21 611.067 644.528 611.865C644.846 612.663 645.005 613.539 645.005 614.493ZM642.521 614.493C642.521 613.779 642.425 613.14 642.233 612.576C642.047 612.006 641.774 611.526 641.414 611.136C641.06 610.74 640.628 610.437 640.118 610.227C639.614 610.017 639.044 609.912 638.408 609.912H635.879V619.074H638.408C639.044 619.074 639.614 618.969 640.118 618.759C640.628 618.549 641.06 618.249 641.414 617.859C641.774 617.463 642.047 616.983 642.233 616.419C642.425 615.849 642.521 615.207 642.521 614.493ZM651.054 611.622C651.738 611.622 652.359 611.733 652.917 611.955C653.481 612.177 653.961 612.492 654.357 612.9C654.759 613.308 655.068 613.806 655.284 614.394C655.5 614.982 655.608 615.639 655.608 616.365C655.608 617.097 655.5 617.757 655.284 618.345C655.068 618.933 654.759 619.434 654.357 619.848C653.961 620.262 653.481 620.58 652.917 620.802C652.359 621.024 651.738 621.135 651.054 621.135C650.364 621.135 649.737 621.024 649.173 620.802C648.609 620.58 648.126 620.262 647.724 619.848C647.328 619.434 647.019 618.933 646.797 618.345C646.581 617.757 646.473 617.097 646.473 616.365C646.473 615.639 646.581 614.982 646.797 614.394C647.019 613.806 647.328 613.308 647.724 612.9C648.126 612.492 648.609 612.177 649.173 611.955C649.737 611.733 650.364 611.622 651.054 611.622ZM651.054 619.425C651.822 619.425 652.389 619.167 652.755 618.651C653.127 618.135 653.313 617.379 653.313 616.383C653.313 615.387 653.127 614.628 652.755 614.106C652.389 613.584 651.822 613.323 651.054 613.323C650.274 613.323 649.695 613.587 649.317 614.115C648.945 614.637 648.759 615.393 648.759 616.383C648.759 617.373 648.945 618.129 649.317 618.651C649.695 619.167 650.274 619.425 651.054 619.425ZM659.683 612.9C659.869 612.714 660.064 612.543 660.268 612.387C660.478 612.225 660.697 612.09 660.925 611.982C661.159 611.868 661.408 611.781 661.672 611.721C661.936 611.655 662.224 611.622 662.536 611.622C663.04 611.622 663.487 611.709 663.877 611.883C664.267 612.051 664.591 612.291 664.849 612.603C665.113 612.909 665.311 613.278 665.443 613.71C665.581 614.136 665.65 614.607 665.65 615.123V621H663.427V615.123C663.427 614.559 663.298 614.124 663.04 613.818C662.782 613.506 662.389 613.35 661.861 613.35C661.477 613.35 661.117 613.437 660.781 613.611C660.445 613.785 660.127 614.022 659.827 614.322V621H657.604V611.766H658.963C659.251 611.766 659.44 611.901 659.53 612.171L659.683 612.9ZM669.313 607.113C669.601 607.587 669.796 608.082 669.898 608.598C670 609.108 670.009 609.615 669.925 610.119C669.841 610.617 669.664 611.097 669.394 611.559C669.13 612.015 668.773 612.426 668.323 612.792L667.621 612.369C667.561 612.333 667.519 612.291 667.495 612.243C667.471 612.189 667.459 612.138 667.459 612.09C667.465 612.036 667.477 611.985 667.495 611.937C667.519 611.889 667.549 611.847 667.585 611.811C667.711 611.661 667.831 611.463 667.945 611.217C668.059 610.971 668.137 610.695 668.179 610.389C668.227 610.083 668.221 609.756 668.161 609.408C668.107 609.06 667.972 608.712 667.756 608.364C667.654 608.19 667.624 608.04 667.666 607.914C667.714 607.782 667.813 607.689 667.963 607.635L669.313 607.113ZM675.151 621.144C674.347 621.144 673.729 620.919 673.297 620.469C672.871 620.013 672.658 619.386 672.658 618.588V613.431H671.713C671.593 613.431 671.491 613.392 671.407 613.314C671.323 613.236 671.281 613.119 671.281 612.963V612.081L672.766 611.838L673.234 609.318C673.264 609.198 673.321 609.105 673.405 609.039C673.489 608.973 673.597 608.94 673.729 608.94H674.881V611.847H677.347V613.431H674.881V618.435C674.881 618.723 674.95 618.948 675.088 619.11C675.232 619.272 675.427 619.353 675.673 619.353C675.811 619.353 675.925 619.338 676.015 619.308C676.111 619.272 676.192 619.236 676.258 619.2C676.33 619.164 676.393 619.131 676.447 619.101C676.501 619.065 676.555 619.047 676.609 619.047C676.675 619.047 676.729 619.065 676.771 619.101C676.813 619.131 676.858 619.179 676.906 619.245L677.572 620.325C677.248 620.595 676.876 620.799 676.456 620.937C676.036 621.075 675.601 621.144 675.151 621.144Z" fill="#F74F64"/>
<path d="M372.657 352.086H229.686C218.028 352.086 208.428 342.486 208.428 330.829V271.172C208.428 259.515 218.028 249.915 229.686 249.915H372.314C383.971 249.915 393.571 259.515 393.571 271.172V330.143C393.914 342.486 384.314 352.086 372.657 352.086Z" stroke="#292929" stroke-width="8" stroke-miterlimit="10"/>
<path d="M301 332.2C312.657 332.2 322.257 318.828 322.257 302.028C322.257 285.228 312.657 271.857 301 271.857C289.343 271.857 279.743 285.228 279.743 302.028C279.743 318.828 289.343 332.2 301 332.2Z" stroke="#292929" stroke-width="8" stroke-miterlimit="10"/>
<path d="M974.229 352.171H831.257C819.6 352.171 810 342.571 810 330.914V271.257C810 259.6 819.6 250 831.257 250H973.886C985.543 250 995.143 259.6 995.143 271.257V330.229C995.486 342.571 985.886 352.171 974.229 352.171Z" stroke="#292929" stroke-width="8" stroke-miterlimit="10"/>
<path d="M885 303.243C885 302.483 885.227 301.835 885.682 301.299C886.159 300.74 886.876 300.461 887.83 300.461H888.479C890.136 300.461 891.479 299.118 891.479 297.461V292.551C891.479 290.451 891.798 288.462 892.434 286.585C893.093 284.686 894.071 283.033 895.367 281.625C896.663 280.195 898.288 279.067 900.243 278.24C902.198 277.413 904.495 277 907.132 277C908.928 277 910.542 277.235 911.974 277.704C913.429 278.151 914.714 278.765 915.828 279.547C916.964 280.329 917.942 281.256 918.76 282.329C919.039 282.677 919.305 283.034 919.559 283.402C920.437 284.674 919.942 286.373 918.632 287.193L917.567 287.859C916.771 288.261 916.01 288.44 915.282 288.395C914.577 288.351 913.929 287.993 913.338 287.323C912.906 286.831 912.474 286.384 912.042 285.982C911.633 285.558 911.19 285.2 910.712 284.91C910.235 284.597 909.701 284.362 909.11 284.206C908.541 284.049 907.882 283.971 907.132 283.971C904.79 283.971 903.04 284.731 901.88 286.25C900.721 287.747 900.141 289.837 900.141 292.518V297.461C900.141 299.118 901.484 300.461 903.141 300.461H911.088C912.745 300.461 914.088 301.804 914.088 303.461V303.746C914.088 304.282 913.861 304.773 913.406 305.22C912.952 305.667 912.383 305.891 911.701 305.891H903.141C901.484 305.891 900.141 307.234 900.141 308.891V312.393C900.141 313.867 899.857 315.186 899.288 316.347C899.085 316.773 898.852 317.188 898.591 317.592C898.188 318.216 898.755 319.21 899.493 319.129V319.129C900.312 319.018 901.153 318.962 902.017 318.962H919C920.657 318.962 922 320.305 922 321.962V322.447C922 322.85 921.909 323.263 921.727 323.687C921.568 324.112 921.329 324.503 921.011 324.86C920.693 325.196 920.306 325.475 919.852 325.698C919.397 325.899 918.897 326 918.351 326H888.585C886.982 326 885.682 324.7 885.682 323.097V323.097C885.682 321.753 886.636 320.613 887.865 320.068V320.068C888.569 319.733 889.183 319.319 889.706 318.828C890.252 318.314 890.684 317.722 891.002 317.051C891.32 316.359 891.479 315.554 891.479 314.638V308.891C891.479 307.234 890.136 305.891 888.479 305.891H887.648C886.185 305.891 885 304.705 885 303.243V303.243Z" fill="#292929"/>
</svg>
