<?xml version="1.0" encoding="utf-8"?>
<!-- Generator: Adobe Illustrator 25.2.1, SVG Export Plug-In . SVG Version: 6.00 Build 0)  -->
<svg version="1.1" id="Layer_1" xmlns="http://www.w3.org/2000/svg" xmlns:xlink="http://www.w3.org/1999/xlink" x="0px" y="0px"
	 viewBox="0 0 70 70" style="enable-background:new 0 0 70 70;" xml:space="preserve">
<style type="text/css">
	.st0{fill:none;stroke:#292929;stroke-width:2;stroke-linecap:round;stroke-linejoin:round;stroke-miterlimit:10;}
	.st1{fill:none;stroke:#292929;stroke-width:2;stroke-linecap:round;stroke-linejoin:round;}
	.st2{fill:none;stroke:#292929;stroke-width:2;stroke-linecap:round;stroke-linejoin:round;stroke-miterlimit:9.9991;}
</style>
<path class="st0" d="M35,39.3L35,39.3c0-0.5-0.1-0.9-0.3-1.3"/>
<path class="st0" d="M35,53.2c0,1.7-1.3,3-3,3H11c-1.7,0-3-1.3-3-3V39.3c0-0.4,0.1-0.9,0.3-1.3"/>
<path class="st0" d="M21.5,32h-6.1c-0.8,0-1.5,0.3-2.1,0.9l-4.4,4.3c-0.2,0.2-0.4,0.5-0.6,0.8"/>
<line class="st0" x1="24.5" y1="38" x2="8.3" y2="38"/>
<path class="st0" d="M35,39.3c0-0.4,0.1-0.9,0.3-1.3"/>
<path class="st0" d="M35.3,38L35.3,38"/>
<path class="st0" d="M48.5,32.1h6.1c0.8,0,1.5,0.3,2.1,0.8l4.4,4.3c0.2,0.2,0.4,0.5,0.6,0.9"/>
<path class="st0" d="M35,53.2L35,53.2c0,1.7,1.4,3,3,3h21c1.7,0,3-1.4,3-3V39.3c0-0.4-0.1-0.9-0.3-1.3"/>
<line class="st0" x1="35" y1="53.2" x2="35" y2="39.3"/>
<line class="st0" x1="35.3" y1="38" x2="36.8" y2="38"/>
<line class="st0" x1="35.3" y1="38" x2="35" y2="38"/>
<line class="st0" x1="61.7" y1="38" x2="36.8" y2="38"/>
<line class="st0" x1="35.3" y1="38" x2="35" y2="38"/>
<path class="st0" d="M24.5,38c-1.6,0-3-1.3-3-3v-3"/>
<path class="st0" d="M21.8,19.8c0.2-0.3,0.3-0.6,0.6-0.8l4.3-4.3c0.6-0.5,1.3-0.8,2.1-0.8H35"/>
<path class="st0" d="M35,13.8h6.1c0.8,0,1.5,0.3,2.1,0.8l4.4,4.3c0.2,0.2,0.4,0.5,0.6,0.8"/>
<path class="st0" d="M21.5,32V21.1c0-0.4,0.1-0.9,0.3-1.3"/>
<path class="st0" d="M48.5,32.1v-11c0-0.4-0.1-0.9-0.3-1.3"/>
<path class="st0" d="M48.5,32.1V35c0,1.7-1.3,3-3,3H35.3"/>
<line class="st0" x1="34.7" y1="38" x2="33.2" y2="38"/>
<line class="st0" x1="34.7" y1="38" x2="35" y2="38"/>
<line class="st0" x1="24.5" y1="38" x2="33.2" y2="38"/>
<line class="st0" x1="46.7" y1="19.8" x2="48.2" y2="19.8"/>
<line class="st0" x1="35" y1="19.8" x2="35" y2="13.8"/>
<line class="st0" x1="35" y1="13.8" x2="35" y2="13.8"/>
<line class="st0" x1="48.2" y1="19.8" x2="35" y2="19.8"/>
<line class="st0" x1="21.8" y1="19.8" x2="35" y2="19.8"/>
<g>
	<path class="st1" d="M55.2,48.7v-5.3"/>
	<path class="st1" d="M53,45.6l2.2-2.2l2.2,2.2"/>
</g>
<g>
	<path class="st1" d="M47.5,48.7v-5.3"/>
	<path class="st1" d="M45.3,45.6l2.2-2.2l2.2,2.2"/>
</g>
<rect x="11.9" y="46.1" transform="matrix(0.9938 -0.1109 0.1109 0.9938 -5.3225 2.1093)" class="st2" width="8.8" height="5.6"/>
</svg>
