<?xml version="1.0" encoding="utf-8"?>
<!-- Generator: Adobe Illustrator 25.2.3, SVG Export Plug-In . SVG Version: 6.00 Build 0)  -->
<svg version="1.1" id="Layer_1" xmlns="http://www.w3.org/2000/svg" xmlns:xlink="http://www.w3.org/1999/xlink" x="0px" y="0px"
	 viewBox="0 0 70 70" style="enable-background:new 0 0 70 70;" xml:space="preserve">
<style type="text/css">
	.st0{fill:none;stroke:#000000;stroke-width:2;stroke-linecap:round;stroke-linejoin:round;stroke-miterlimit:10;}
</style>
<path class="st0" d="M58.4,24.1l-9.8-9.2c-0.6-0.5-1.3-0.8-2-0.8h-23c-0.8,0-1.5,0.3-2,0.8l-9.8,9.2"/>
<path class="st0" d="M11.6,34.9v15c0,3.3,2.7,6,6,6h34.8c3.3,0,6-2.7,6-6v-15"/>
<line class="st0" x1="23.5" y1="24.1" x2="23.5" y2="14.1"/>
<path class="st0" d="M27.6,34.9v6.3c0,0.7,0.7,1.2,1.4,1l5.8-1.7c0.2-0.1,0.4-0.1,0.6,0l5.8,1.7c0.7,0.2,1.4-0.3,1.4-1v-6.3"/>
<g>
	<path class="st0" d="M58.4,24.1l2.3,6.9c0.6,1.9-0.8,3.9-2.8,3.9H12.2c-2,0-3.5-2-2.8-3.9l2.3-6.9H58.4z"/>
</g>
</svg>
