<?xml version="1.0" encoding="utf-8"?>
<!-- Generator: Adobe Illustrator 25.2.1, SVG Export Plug-In . SVG Version: 6.00 Build 0)  -->
<svg version="1.1" id="Layer_1" xmlns="http://www.w3.org/2000/svg" xmlns:xlink="http://www.w3.org/1999/xlink" x="0px" y="0px"
	 viewBox="0 0 70 70" style="enable-background:new 0 0 70 70;" xml:space="preserve">
<style type="text/css">
	.st0{fill:none;stroke:#FFFFFF;stroke-width:0;stroke-linecap:round;stroke-linejoin:round;}
	.st1{fill:none;}
	.st2{fill:none;stroke:#292929;stroke-width:2;stroke-linecap:round;stroke-linejoin:round;stroke-miterlimit:10;}
	.st3{fill:none;stroke:#292929;stroke-width:2;stroke-linecap:round;stroke-linejoin:round;}
</style>
<polyline class="st0" points="-1214.8,-132.2 -922.1,-191.2 -625.1,-131.3 "/>
<polyline class="st1" points="-1214.8,-132.2 -1333.7,-108.2 -1169.4,222.1 -922.1,330.6 -674.9,222.1 -510.5,-108.2 -625.1,-131.3 
	"/>
<path class="st2" d="M34.4,22.7L7.7,28.1c-1.9,0.4-3,2.5-2.1,4.3l9.7,19.5c0.6,1.3,1.7,2.3,3,2.8l14.3,6.3c1.5,0.7,3.3,0.7,4.8,0
	l14.3-6.3c1.3-0.6,2.3-1.6,3-2.8l9.7-19.5c0.9-1.8-0.2-3.9-2.1-4.3l-26.7-5.4C35.2,22.6,34.8,22.6,34.4,22.7z"/>
<line class="st2" x1="35" y1="61.1" x2="35" y2="22.6"/>
<path class="st3" d="M12.7,27l4.7-16.9C17.8,8.9,19,8,20.4,8h29c1.3,0,2.5,0.9,2.9,2.1l5,17"/>
<polyline class="st0" points="-1214.8,-132.2 -1214.8,-132.2 -869,-61.3 -619.4,-112.2 -625.1,-131.3 "/>
<path class="st3" d="M19.8,25.5c0-0.2,0-0.5,0-0.7c0-3.3,2.7-6,6-6c2.8,0,5.1,1.9,5.8,4.4"/>
<line class="st2" x1="12.2" y1="45.6" x2="35" y2="51.3"/>
<line class="st2" x1="57.8" y1="45.6" x2="35" y2="51.3"/>
</svg>
