<svg width="70" height="70" viewBox="0 0 70 70" fill="none" xmlns="http://www.w3.org/2000/svg">
<path d="M50.1961 22.1947C46.0654 17.9137 44.2628 15.961 47.7176 10.0278C48.0932 9.27674 47.5674 8.37549 46.6662 8.37549H23.6092C22.7079 8.37549 22.1822 9.27674 22.5577 10.0278C26.0125 15.961 24.21 17.9137 20.0793 22.1947C17.2253 25.0486 16.8498 30.7566 17.9012 37.2906C19.178 44.4256 22.3324 52.687 26.1627 59.5215C26.1627 59.5966 27.2893 61.6244 35.1001 61.6244C42.911 61.6244 44.0375 59.6717 44.0375 59.5215C47.943 52.687 51.0222 44.4256 52.299 37.2906C53.4256 30.7566 52.9749 25.0486 50.1961 22.1947Z" stroke="#292929" stroke-width="2" stroke-miterlimit="10" stroke-linecap="round" stroke-linejoin="round"/>
<path d="M24.3602 15.1348H45.4645" stroke="#292929" stroke-width="2" stroke-miterlimit="10" stroke-linecap="round" stroke-linejoin="round"/>
</svg>
