<?xml version="1.0" encoding="utf-8"?>
<!-- Generator: Adobe Illustrator 25.2.1, SVG Export Plug-In . SVG Version: 6.00 Build 0)  -->
<svg version="1.1" id="Layer_1" xmlns="http://www.w3.org/2000/svg" xmlns:xlink="http://www.w3.org/1999/xlink" x="0px" y="0px"
	 viewBox="0 0 70 70" style="enable-background:new 0 0 70 70;" xml:space="preserve">
<style type="text/css">
	.st0{fill:none;stroke:#000000;stroke-width:2;stroke-linecap:round;stroke-linejoin:round;stroke-miterlimit:10;}
</style>
<g>
	<path class="st0" d="M54.4,44.6c0,30.7-8.4,10.1-18.8,10.1S16.8,75.3,16.8,44.6c0-10.4,8.4-18.8,18.8-18.8S54.4,34.2,54.4,44.6z"/>
	<ellipse transform="matrix(0.866 -0.5 0.5 0.866 -10.5764 9.8398)" class="st0" cx="13.1" cy="24.7" rx="4.5" ry="6.5"/>
	<ellipse transform="matrix(0.5 -0.866 0.866 0.5 7.1109 61.628)" class="st0" cx="56.9" cy="24.7" rx="6.5" ry="4.5"/>
	<ellipse transform="matrix(0.1606 -0.987 0.987 0.1606 21.6216 55.3352)" class="st0" cx="43.3" cy="15" rx="6.5" ry="4.5"/>
	<ellipse transform="matrix(0.987 -0.1606 0.1606 0.987 -2.0598 4.4301)" class="st0" cx="26.4" cy="15" rx="4.5" ry="6.5"/>
</g>
</svg>
