<?xml version="1.0" encoding="utf-8"?>
<!-- Generator: Adobe Illustrator 25.2.3, SVG Export Plug-In . SVG Version: 6.00 Build 0)  -->
<svg version="1.1" id="Layer_1" xmlns="http://www.w3.org/2000/svg" xmlns:xlink="http://www.w3.org/1999/xlink" x="0px" y="0px"
	 viewBox="0 0 70 70" style="enable-background:new 0 0 70 70;" xml:space="preserve">
<style type="text/css">
	.st0{fill:none;stroke:#292929;stroke-width:2;stroke-linecap:round;stroke-linejoin:round;stroke-miterlimit:10;}
	.st1{fill:none;stroke:#292929;stroke-width:2;stroke-linecap:round;stroke-linejoin:round;}
</style>
<path class="st0" d="M41.8,49.5c-0.1-0.1-0.2-0.1-0.4-0.1h-21c-0.1,0-0.2,0-0.3,0.1"/>
<path class="st0" d="M11.4,36.6l5.9-10.7c1.4-2.4,4-3.9,6.7-3.9H37"/>
<path class="st0" d="M50.4,40v13.4c0,1.4-1.1,2.5-2.5,2.5h-3.1c-1.4,0-2.5-1.1-2.5-2.5v-3.1c0-0.3-0.2-0.6-0.5-0.8"/>
<path class="st0" d="M11.4,36.6v16.9c0,1.4,1.1,2.5,2.5,2.5H17c1.4,0,2.5-1.1,2.5-2.5v-3.1c0-0.4,0.2-0.6,0.5-0.8"/>
<path class="st0" d="M35.9,27.1H23.1c-0.3,0-0.6,0.1-0.8,0.4l-3.9,7c-0.2,0.3-0.1,0.6,0,0.8c0.1,0.2,0.3,0.5,0.8,0.5v-0.1h19.9"/>
<line class="st0" x1="11.4" y1="36.6" x2="11.5" y2="36.6"/>
<line class="st0" x1="11.4" y1="36.6" x2="8" y2="36.6"/>
<line class="st0" x1="16.6" y1="43.4" x2="20.1" y2="43.4"/>
<line class="st0" x1="43.9" y1="43.4" x2="40.4" y2="43.4"/>
<line class="st0" x1="20" y1="49.5" x2="20.4" y2="49.5"/>
<line class="st0" x1="11.5" y1="49.5" x2="20" y2="49.5"/>
<line class="st0" x1="50.3" y1="49.5" x2="41.8" y2="49.5"/>
<line class="st0" x1="41.8" y1="49.5" x2="41.4" y2="49.5"/>
<path class="st1" d="M56.2,21.9L47,32.2l-5.3-5.1"/>
<circle class="st0" cx="49" cy="27.1" r="13"/>
</svg>
