<?xml version="1.0" encoding="utf-8"?>
<!-- Generator: Adobe Illustrator 25.2.3, SVG Export Plug-In . SVG Version: 6.00 Build 0)  -->
<svg version="1.1" id="Layer_1" xmlns="http://www.w3.org/2000/svg" xmlns:xlink="http://www.w3.org/1999/xlink" x="0px" y="0px"
	 viewBox="0 0 70 70" style="enable-background:new 0 0 70 70;" xml:space="preserve">
<style type="text/css">
	.st0{fill:none;stroke:#292929;stroke-width:2;stroke-linecap:round;stroke-linejoin:round;stroke-miterlimit:10;}
</style>
<path class="st0" d="M26.9,14.9h16.2c3.3,0,6.3,1.8,7.9,4.6l7,12.6V52c0,1.7-1.3,3-3,3h-3.6c-1.7,0-3-1.3-3-3v-3.7c0-0.5-0.4-1-1-1
	H22.6c-0.5,0-1,0.4-1,1V52c0,1.7-1.3,3-3,3H15c-1.7,0-3-1.3-3-3V32.1l7-12.6C20.6,16.7,23.7,14.9,26.9,14.9z"/>
<path class="st0" d="M21.3,31.2c-0.6,0-0.9-0.4-1-0.6c-0.1-0.2-0.2-0.5,0-0.9l4.6-8.3c0.2-0.4,0.6-0.5,0.9-0.5h18.5
	c0.4,0,0.7,0.2,0.9,0.5l4.6,8.2c0.3,0.5,0.1,0.9,0,1c-0.1,0.2-0.4,0.5-0.8,0.5H21.3z"/>
<path class="st0" d="M12.1,32.1H8H12.1z"/>
<path class="st0" d="M22.3,40.2h-4.1H22.3z"/>
<path class="st0" d="M50.3,40.2h-4.1H50.3z"/>
<path class="st0" d="M62,32.1h-4.1H62z"/>
<line class="st0" x1="22.6" y1="47.4" x2="12.1" y2="47.4"/>
<line class="st0" x1="47.4" y1="47.4" x2="57.9" y2="47.4"/>
</svg>
