<?xml version="1.0" encoding="utf-8"?>
<!-- Generator: Adobe Illustrator 25.3.1, SVG Export Plug-In . SVG Version: 6.00 Build 0)  -->
<svg version="1.1" id="Layer_1" xmlns="http://www.w3.org/2000/svg" xmlns:xlink="http://www.w3.org/1999/xlink" x="0px" y="0px"
	 viewBox="0 0 70 70" style="enable-background:new 0 0 70 70;" xml:space="preserve">
<style type="text/css">
	.st0{fill:none;stroke:#292929;stroke-width:2;}
	.st1{fill:none;stroke:#292929;stroke-width:2;stroke-miterlimit:10;}
	.st2{fill:none;stroke:#292929;stroke-width:2;stroke-linecap:round;stroke-linejoin:round;stroke-miterlimit:10;}
	.st3{fill:#292929;}
</style>
<circle class="st0" cx="49" cy="46" r="13"/>
<line class="st1" x1="8" y1="22.1" x2="58.1" y2="22.1"/>
<line class="st1" x1="33.1" y1="10.9" x2="33.1" y2="22.1"/>
<path class="st2" d="M58.1,36.7V24.4c0-1.5-0.6-3-1.7-4l-8.2-7.9c-1-1-2.4-1.6-3.9-1.6H21.7c-1.5,0-2.8,0.6-3.9,1.6l-8.1,7.9
	c-1.1,1-1.7,2.5-1.7,4v25.8c0,3.1,2.5,5.6,5.6,5.6h26.7"/>
<g>
	<path class="st2" d="M49,46c-2.5,0-4.4-7.1-4.4-7.1h8.8C53.4,38.9,51.5,46,49,46z"/>
	<line class="st2" x1="43.3" y1="38.9" x2="54.7" y2="38.9"/>
</g>
<g>
	<path class="st2" d="M49,46c-2.5,0-4.4,7.1-4.4,7.1h8.8C53.4,53.1,51.5,46,49,46z"/>
	<line class="st2" x1="43.3" y1="53.1" x2="54.7" y2="53.1"/>
</g>
<path class="st3" d="M53.4,53.1c0,0-0.5-2-1.4-3.9c-0.9-0.3-2.1-0.4-3.5-0.3c-0.9,0.2-1.8,0.7-2.7,0.8c-0.8,1.7-1.2,3.4-1.2,3.4
	H53.4z"/>
</svg>
