<?xml version="1.0" encoding="utf-8"?>
<!-- Generator: Adobe Illustrator 25.2.1, SVG Export Plug-In . SVG Version: 6.00 Build 0)  -->
<svg version="1.1" id="Layer_1" xmlns="http://www.w3.org/2000/svg" xmlns:xlink="http://www.w3.org/1999/xlink" x="0px" y="0px"
	 viewBox="0 0 70 70" style="enable-background:new 0 0 70 70;" xml:space="preserve">
<style type="text/css">
	.st0{fill:none;stroke:#292929;stroke-width:2;stroke-linecap:round;stroke-linejoin:round;stroke-miterlimit:10;}
</style>
<g>
	<path class="st0" d="M37,62H33V10c0-1.1,0.9-2,2-2h0c1.1,0,2,0.9,2,2V62z"/>
	<path class="st0" d="M16,24.8H33V14.4H16c-0.4,0-0.9,0.1-1.2,0.4L10.7,18c-1,0.8-1,2.4,0,3.2l4.1,3.2C15.1,24.6,15.6,24.8,16,24.8z
		"/>
	<path class="st0" d="M54,22.1H37V11.8H54c0.4,0,0.9,0.1,1.2,0.4l4.1,3.2c1,0.8,1,2.4,0,3.2l-4.1,3.2C54.9,22,54.4,22.1,54,22.1z"/>
</g>
</svg>
