<?xml version="1.0" encoding="utf-8"?>
<!-- Generator: Adobe Illustrator 25.2.3, SVG Export Plug-In . SVG Version: 6.00 Build 0)  -->
<svg version="1.1" id="Layer_1" xmlns="http://www.w3.org/2000/svg" xmlns:xlink="http://www.w3.org/1999/xlink" x="0px" y="0px"
	 viewBox="0 0 70 70" style="enable-background:new 0 0 70 70;" xml:space="preserve">
<style type="text/css">
	.st0{fill:none;stroke:#292929;stroke-width:2;stroke-linecap:round;stroke-linejoin:round;stroke-miterlimit:10;}
	.st1{fill:#292929;}
</style>
<path class="st0" d="M40.8,11.8l1.4,3.2c1.1,2.5,3.8,4.1,6.5,3.8l3.5-0.4c5.5-0.6,9.1,5.6,5.8,10.1L56,31.2c-1.6,2.2-1.6,5.3,0,7.5
	l2.1,2.8c3.3,4.5-0.3,10.7-5.8,10.1l-3.5-0.4C46,51,43.3,52.5,42.2,55l-1.4,3.2c-2.2,5.1-9.4,5.1-11.6,0L27.8,55
	c-1.1-2.5-3.8-4.1-6.5-3.8l-3.5,0.4C12.3,52.2,8.7,46,12,41.6l2.1-2.8c1.6-2.2,1.6-5.3,0-7.5L12,28.4c-3.3-4.5,0.3-10.7,5.8-10.1
	l3.5,0.4c2.8,0.3,5.4-1.2,6.5-3.8l1.4-3.2C31.4,6.7,38.6,6.7,40.8,11.8z"/>
<path class="st1" d="M28.5,34.6c0-0.3,0.1-0.5,0.3-0.7c0.2-0.2,0.5-0.3,0.8-0.3h1.1v-2.7c0-0.7,0.1-1.4,0.3-2.1
	c0.2-0.7,0.6-1.3,1-1.8c0.5-0.5,1-0.9,1.7-1.2c0.7-0.3,1.5-0.4,2.4-0.4c0.6,0,1.2,0.1,1.7,0.2c0.5,0.2,1,0.4,1.4,0.7
	c0.4,0.3,0.7,0.6,1,1c0.3,0.4,0.6,0.8,0.8,1.2l-1.3,0.8c-0.3,0.2-0.6,0.2-0.9,0.2c-0.3,0-0.5-0.2-0.8-0.4c-0.1-0.2-0.3-0.3-0.4-0.4
	c-0.1-0.1-0.3-0.2-0.4-0.3c-0.1-0.1-0.3-0.2-0.5-0.2c-0.2,0-0.4-0.1-0.6-0.1c-0.7,0-1.3,0.2-1.6,0.7c-0.4,0.5-0.5,1.2-0.5,2.1v2.7
	h4.7v1.3c0,0.1,0,0.2-0.1,0.3c0,0.1-0.1,0.2-0.2,0.3c-0.1,0.1-0.2,0.1-0.3,0.2c-0.1,0-0.2,0.1-0.4,0.1h-3.8v2.1
	c0,0.5-0.1,0.9-0.3,1.3c-0.2,0.4-0.4,0.8-0.8,1.1c0.3-0.1,0.6-0.1,0.9-0.2c0.3,0,0.6-0.1,1-0.1h6.5v1.3c0,0.2,0,0.3-0.1,0.5
	c-0.1,0.2-0.2,0.3-0.3,0.4c-0.1,0.1-0.3,0.2-0.4,0.3c-0.2,0.1-0.4,0.1-0.6,0.1H28.8v-2c0.3-0.1,0.5-0.1,0.8-0.2
	c0.2-0.1,0.5-0.2,0.6-0.4c0.2-0.2,0.3-0.4,0.4-0.6c0.1-0.2,0.2-0.5,0.2-0.8v-3h-2.2V34.6z"/>
</svg>
