<?xml version="1.0" encoding="utf-8"?>
<!-- Generator: Adobe Illustrator 25.2.3, SVG Export Plug-In . SVG Version: 6.00 Build 0)  -->
<svg version="1.1" id="Layer_1" xmlns="http://www.w3.org/2000/svg" xmlns:xlink="http://www.w3.org/1999/xlink" x="0px" y="0px"
	 viewBox="0 0 70 70" style="enable-background:new 0 0 70 70;" xml:space="preserve">
<style type="text/css">
	.st0{fill:#292929;}
	.st1{fill:none;stroke:#292929;stroke-width:2;stroke-linecap:round;stroke-linejoin:round;}
	.st2{fill:none;stroke:#292929;stroke-width:2;stroke-linecap:round;stroke-linejoin:round;stroke-miterlimit:10;}
</style>
<image style="overflow:visible;" width="476" height="630" xlink:href="../../../../../../Desktop/Screenshot 2021-06-10 at 10.28.18.png"  transform="matrix(0.5 0 0 0.5 -278.7808 -34.5265)">
</image>
<path class="st0" d="M8,37.9c0-0.2,0.1-0.4,0.2-0.5c0.1-0.1,0.3-0.2,0.6-0.2h0.8v-1.8c0-0.5,0.1-1,0.2-1.4c0.2-0.5,0.4-0.9,0.7-1.2
	c0.3-0.3,0.7-0.6,1.2-0.8c0.5-0.2,1-0.3,1.7-0.3c0.4,0,0.8,0.1,1.2,0.2c0.3,0.1,0.7,0.3,0.9,0.4c0.3,0.2,0.5,0.4,0.7,0.7
	c0.2,0.3,0.4,0.5,0.5,0.8l-0.9,0.6c-0.2,0.1-0.4,0.2-0.6,0.1c-0.2,0-0.4-0.1-0.5-0.3c-0.1-0.1-0.2-0.2-0.3-0.3
	c-0.1-0.1-0.2-0.2-0.3-0.2c-0.1-0.1-0.2-0.1-0.3-0.1c-0.1,0-0.3,0-0.4,0c-0.5,0-0.9,0.2-1.1,0.5c-0.2,0.3-0.4,0.8-0.4,1.4v1.8h3.2
	V38c0,0.1,0,0.1,0,0.2c0,0.1-0.1,0.1-0.1,0.2c-0.1,0.1-0.1,0.1-0.2,0.1c-0.1,0-0.2,0-0.2,0h-2.5V40c0,0.3-0.1,0.6-0.2,0.9
	c-0.1,0.3-0.3,0.5-0.5,0.7c0.2,0,0.4-0.1,0.6-0.1c0.2,0,0.4,0,0.7,0h4.4v0.9c0,0.1,0,0.2-0.1,0.3c0,0.1-0.1,0.2-0.2,0.3
	c-0.1,0.1-0.2,0.2-0.3,0.2c-0.1,0.1-0.2,0.1-0.4,0.1H8.2V42c0.2,0,0.3-0.1,0.5-0.2c0.2-0.1,0.3-0.2,0.4-0.3c0.1-0.1,0.2-0.2,0.3-0.4
	c0.1-0.2,0.1-0.3,0.1-0.6v-2H8V37.9z"/>
<polyline class="st1" points="44.4,23 58,18.2 63.3,31.6 "/>
<path class="st2" d="M57.5,19c0,0-8.7,32-49.5,32"/>
</svg>
