<?xml version="1.0" encoding="utf-8"?>
<!-- Generator: Adobe Illustrator 25.2.1, SVG Export Plug-In . SVG Version: 6.00 Build 0)  -->
<svg version="1.1" id="Layer_1" xmlns="http://www.w3.org/2000/svg" xmlns:xlink="http://www.w3.org/1999/xlink" x="0px" y="0px"
	 viewBox="0 0 70 70" style="enable-background:new 0 0 70 70;" xml:space="preserve">
<style type="text/css">
	.st0{fill:none;stroke:#292929;stroke-width:2;stroke-linecap:round;stroke-linejoin:round;stroke-miterlimit:10;}
</style>
<g>
	<line class="st0" x1="25.2" y1="47.6" x2="25.2" y2="62"/>
	<line class="st0" x1="44.5" y1="47.8" x2="44.5" y2="62"/>
	<path class="st0" d="M25.2,8c-7.3,3.6-12.3,11.1-12.3,19.8c0,8.7,5,16.2,12.3,19.8c3,1.5,6.3,2.3,9.8,2.3c3.4,0,6.6-0.8,9.5-2.1
		c7.5-3.5,12.6-11.2,12.6-20c0-8.7-5-16.2-12.3-19.8v17.9c0,1.2-0.7,2.2-1.8,2.7l-6.9,2.9c-0.7,0.3-1.5,0.3-2.3,0L27,28.6
		c-1.1-0.5-1.8-1.5-1.8-2.7V8z"/>
</g>
</svg>
