<?xml version="1.0" encoding="utf-8"?>
<!-- Generator: Adobe Illustrator 25.2.1, SVG Export Plug-In . SVG Version: 6.00 Build 0)  -->
<svg version="1.1" id="Layer_1" xmlns="http://www.w3.org/2000/svg" xmlns:xlink="http://www.w3.org/1999/xlink" x="0px" y="0px"
	 viewBox="0 0 70 70" style="enable-background:new 0 0 70 70;" xml:space="preserve">
<style type="text/css">
	.st0{fill:none;stroke:#292929;stroke-width:2;stroke-miterlimit:10;}
</style>
<g>
	<path class="st0" d="M22.1,33.4c0,0,0.1-0.1,0.1-0.1c5.4-3.5,20-3.3,25.6-0.1"/>
	<g>
		<path class="st0" d="M48,36.3c0-11.3-7.1-23-10.8-27.2C36,7.7,34,7.7,32.8,9C29.1,13.3,22,24.9,22,36.3c0,1,0,2.1,0.1,3
			c0.5,4.5,2.9,17.9,2.9,17.9c0.5,2.8,2.9,4.8,5.7,4.8h8.6c2.8,0,5.2-2,5.7-4.8c0,0,2.5-13.4,2.9-17.9C48,38.3,48,37.3,48,36.3z"/>
		<path class="st0" d="M47.9,40c0,0,0.1,0,0.1,0.1c5.4,3.3,6.9,12.1,7.4,16.9c0.2,1.7-1.2,3.1-2.9,3.1h-8.9"/>
		<path class="st0" d="M22.1,40.2c-5.4,3.7-7,12.1-7.5,16.7c-0.2,1.7,1.2,3.2,2.9,3.2h8.9"/>
	</g>
</g>
</svg>
