<?xml version="1.0" encoding="utf-8"?>
<!-- Generator: Adobe Illustrator 25.2.3, SVG Export Plug-In . SVG Version: 6.00 Build 0)  -->
<svg version="1.1" id="Layer_1" xmlns="http://www.w3.org/2000/svg" xmlns:xlink="http://www.w3.org/1999/xlink" x="0px" y="0px"
	 viewBox="0 0 70 70" style="enable-background:new 0 0 70 70;" xml:space="preserve">
<style type="text/css">
	.st0{fill:none;stroke:#000000;stroke-width:2;stroke-miterlimit:10;}
	.st1{fill:none;stroke:#000000;stroke-width:2;stroke-linecap:round;stroke-linejoin:round;stroke-miterlimit:10;}
</style>
<g>
	<path class="st0" d="M37,44.4H17c-1.7,0-3-1.3-3-3l0-16.9c0-1.7,1.3-3,3-3H37V44.4z"/>
	<path class="st0" d="M37,21.5v22.9l20.5,12.1c2,1.2,4.6-0.3,4.6-2.6l0-42c0-2.3-2.6-3.8-4.6-2.6L37,21.5z"/>
	<path class="st0" d="M31.3,44.4v1.3c0,1-0.5,2-1.4,2.6L28.7,49c-1.1,0.7-1.7,2.1-1.3,3.4l1.4,5c0.5,1.9-0.9,3.8-2.9,3.8l-0.9,0
		c-1.5,0-2.8-1.1-3-2.6l-2.2-14.2"/>
	<path class="st0" d="M14,25.2h-3c-1.7,0-3,1.4-3,3l0,9.3c0,1.7,1.4,3,3,3h3"/>
	<line class="st1" x1="19.4" y1="29.7" x2="31.6" y2="29.7"/>
</g>
</svg>
