<?xml version="1.0" encoding="utf-8"?>
<!-- Generator: Adobe Illustrator 25.3.1, SVG Export Plug-In . SVG Version: 6.00 Build 0)  -->
<svg version="1.1" id="Layer_1" xmlns="http://www.w3.org/2000/svg" xmlns:xlink="http://www.w3.org/1999/xlink" x="0px" y="0px"
	 viewBox="0 0 70 70" style="enable-background:new 0 0 70 70;" xml:space="preserve">
<style type="text/css">
	.st0{fill:none;stroke:#292929;stroke-width:2;stroke-linecap:round;stroke-linejoin:round;stroke-miterlimit:10;}
	.st1{fill:none;stroke:#292929;stroke-width:2;stroke-linecap:round;stroke-linejoin:round;}
	.st2{fill:none;stroke:#292929;stroke-width:2;stroke-miterlimit:10;}
</style>
<g>
	<path class="st0" d="M37.2,57.7C48.7,56.7,57.9,46.8,57.9,35c0-8.6-4.8-16.1-11.8-20"/>
	<path class="st0" d="M32.8,12.3C21.3,13.3,12.1,23.2,12.1,35c0,8.6,4.8,16.1,11.8,20"/>
	<g>
		<line class="st1" x1="33.8" y1="11.9" x2="28.1" y2="8"/>
		<line class="st1" x1="33.8" y1="11.9" x2="29.9" y2="17.5"/>
	</g>
	<g>
		<line class="st1" x1="36.6" y1="57.7" x2="42.1" y2="62"/>
		<line class="st1" x1="36.6" y1="57.7" x2="40.9" y2="52.2"/>
	</g>
</g>
<path class="st2" d="M35,21.7c-3.3,0-5.9,2.7-5.9,5.9c0,0.1,0,0.2,0,0.3c0,0,0,0,0,0l0,5.8c0,0,0,0,0,0c0,1.3,1,2.3,2.3,2.3l1,0
	c0,0,0,0,0,0c0.3,0,0.5,0.2,0.5,0.5v9.6l2.2,2.2l2.2-2.2l0-1.1c0,0,0,0,0,0l-1.2-1.2c-0.3-0.3-0.3-0.7,0-0.9l1.1-1.1
	c0,0,0.1-0.1,0.1-0.2c0-0.1,0-0.1-0.1-0.2l-1.1-1.1c-0.3-0.3-0.3-0.7,0-0.9l1.2-1.2c0,0,0,0,0,0v-1.6c0,0,0,0,0,0
	c0-0.3,0.2-0.5,0.5-0.5h1c0,0,0,0,0,0c1.3,0,2.3-1,2.3-2.3l0-6C40.9,24.4,38.3,21.7,35,21.7z"/>
<circle class="st2" cx="35" cy="27.3" r="2.2"/>
</svg>
