<?xml version="1.0" encoding="utf-8"?>
<!-- Generator: Adobe Illustrator 25.2.1, SVG Export Plug-In . SVG Version: 6.00 Build 0)  -->
<svg version="1.1" id="Layer_1" xmlns="http://www.w3.org/2000/svg" xmlns:xlink="http://www.w3.org/1999/xlink" x="0px" y="0px"
	 viewBox="0 0 70 70" style="enable-background:new 0 0 70 70;" xml:space="preserve">
<style type="text/css">
	.st0{fill:none;stroke:#000000;stroke-width:2;stroke-linecap:round;stroke-linejoin:round;stroke-miterlimit:3;}
</style>
<g>
	<path class="st0" d="M17,51.3l-6.6-2.8c-2-0.8-2.5-3.4-1-4.9l2.7-2.7c0.6-0.6,1.3-0.9,2.2-0.9h4.3c0.8,0,1.6-0.3,2.2-0.9l3.3-3.3
		c1.4-1.4,1.1-3.6-0.5-4.7L9.4,21.7c-1.6-1.1-1.8-3.3-0.5-4.7l2.8-2.8c0.8-0.8,2-1.1,3.1-0.7l21.8,7.3c1.1,0.4,2.3,0.1,3.1-0.7
		l8.9-8.8c8.4-8.5,18.5,1.6,10.2,10.2L50,30.2c-0.8,0.8-1.1,2-0.7,3.1l7.3,21.8c0.4,1.1,0.1,2.3-0.7,3.1L53,61.1
		c-1.4,1.4-3.6,1.1-4.7-0.5l-9.4-14.1c-1.1-1.6-3.3-1.8-4.7-0.5l-3.3,3.3c-0.6,0.6-0.9,1.3-0.9,2.1l0,4.2c0,0.8-0.3,1.6-0.9,2.1
		l-2.7,2.7c-1.5,1.5-4.1,1-4.9-1l-2.8-6.6C18.3,52.2,17.8,51.7,17,51.3z"/>
</g>
</svg>
