<?xml version="1.0" encoding="utf-8"?>
<!-- Generator: Adobe Illustrator 25.2.1, SVG Export Plug-In . SVG Version: 6.00 Build 0)  -->
<svg version="1.1" id="Layer_1" xmlns="http://www.w3.org/2000/svg" xmlns:xlink="http://www.w3.org/1999/xlink" x="0px" y="0px"
	 viewBox="0 0 70 70" style="enable-background:new 0 0 70 70;" xml:space="preserve">
<style type="text/css">
	.st0{fill:none;stroke:#292929;stroke-width:2;stroke-linecap:round;stroke-linejoin:round;stroke-miterlimit:10;}
</style>
<path class="st0" d="M42.9,55.7c-0.5,1.9-1.7,3.4-3.5,4.4c-1.7,1-3.5,1.2-5.5,0.7c-1.9-0.5-3.4-1.6-4.5-3.3c-1-1.8-1.2-3.6-0.7-5.5
	c0.5-2,1.6-3.5,3.3-4.5c1.8-1.1,3.7-1.3,5.6-0.9c2,0.5,3.5,1.7,4.4,3.5C43.2,51.8,43.5,53.7,42.9,55.7z"/>
<path class="st0" d="M28.8,51.9L7.5,46.3"/>
<path class="st0" d="M38.4,46.8L51.6,8.5l10.6,2.8"/>
<path class="st0" d="M33.3,46.9c0.1-0.1,0.2-0.2,0.2-0.4L43,28.1c1.5-2.9,0.4-6.6-2.6-8.1l-11.8-6.2c-2.9-1.5-6.6-0.4-8.1,2.6
	L11,34.8c-1.5,2.9-0.4,6.6,2.6,8.1l11.8,6.2c1.4,0.7,3,0.9,4.4,0.4"/>
</svg>
