<?xml version="1.0" encoding="utf-8"?>
<!-- Generator: Adobe Illustrator 25.2.1, SVG Export Plug-In . SVG Version: 6.00 Build 0)  -->
<svg version="1.1" id="Layer_1" xmlns="http://www.w3.org/2000/svg" xmlns:xlink="http://www.w3.org/1999/xlink" x="0px" y="0px"
	 viewBox="0 0 70 70" style="enable-background:new 0 0 70 70;" xml:space="preserve">
<style type="text/css">
	.st0{fill:none;stroke:#292929;stroke-width:2;stroke-linecap:round;stroke-linejoin:round;stroke-miterlimit:10;}
</style>
<g>
	<path class="st0" d="M33,31.2c0.6-0.2,1.2-0.4,1.9-0.4c1,0,2,0.3,2.8,0.8c1.4-2.1,3.7-4.1,6.7-5.5c0.2-1.3,0.4-2.6,0.4-4
		c0-7.8-8.7-14.1-8.7-14.1s-8.7,6.3-8.7,14.1c0,0.8,0.1,1.6,0.1,2.4C30.3,26.4,32.3,28.8,33,31.2z"/>
	<path class="st0" d="M34.8,41.6c-2.2,0-4.1-1.4-4.9-3.3c-2.3,1.3-5.6,1.7-9.2,1.1c-1.3,1.1-2.5,2.4-3.7,4
		c-4.6,6.3-1.2,16.5-1.2,16.5s10.7,0,15.3-6.4c0.8-1.1,1.5-2.3,2-3.4C34.6,47.1,35.1,44.1,34.8,41.6z"/>
	<path class="st0" d="M29.9,38.3c-0.3-0.6-0.4-1.3-0.4-2.1c0-2.3,1.5-4.3,3.5-5c-0.7-2.4-2.6-4.7-5.4-6.6c-1.5-1-3.1-1.8-5-2.5
		c-7.4-2.6-16.2,3.5-16.2,3.5s3.1,10.3,10.4,12.9c1.3,0.5,2.6,0.8,3.9,1C24.2,40,27.6,39.6,29.9,38.3z"/>
	<path class="st0" d="M40.2,37.3c-0.5,2.5-2.7,4.3-5.3,4.3c0,0-0.1,0-0.1,0c0.3,2.5-0.2,5.5-1.7,8.5c0.5,1.4,1.2,2.9,2,4.3
		c4.1,6.7,14.8,7.5,14.8,7.5s4.1-9.9,0.1-16.6c-0.7-1.1-1.4-2.1-2.2-3C45.5,39.7,42.7,37.9,40.2,37.3z"/>
	<path class="st0" d="M47.7,24.9c-1.2,0.3-2.3,0.8-3.3,1.3c-3,1.4-5.4,3.4-6.7,5.5c1.6,0.9,2.6,2.7,2.6,4.6c0,0.4,0,0.7-0.1,1.1
		c2.5,0.6,5.3,2.4,7.6,5.1c1.5-0.1,3.1-0.4,4.8-0.8c7.5-2.2,11.1-12.3,11.1-12.3S55.2,22.7,47.7,24.9z"/>
</g>
</svg>
