<?xml version="1.0" encoding="utf-8"?>
<!-- Generator: Adobe Illustrator 25.2.1, SVG Export Plug-In . SVG Version: 6.00 Build 0)  -->
<svg version="1.1" id="Layer_1" xmlns="http://www.w3.org/2000/svg" xmlns:xlink="http://www.w3.org/1999/xlink" x="0px" y="0px"
	 viewBox="0 0 70 70" style="enable-background:new 0 0 70 70;" xml:space="preserve">
<style type="text/css">
	.st0{fill:none;stroke:#292929;stroke-width:2;stroke-linecap:round;stroke-linejoin:round;stroke-miterlimit:10;}
	.st1{fill:#FFFFFF;stroke:#292929;stroke-width:2;stroke-linecap:round;stroke-linejoin:round;stroke-miterlimit:10;}
</style>
<path class="st0" d="M58,51v-3.7H12V51"/>
<path class="st0" d="M9,40.5h52"/>
<path class="st0" d="M46.2,20H23.8c-1.7,0-3,1.3-3,3v5.6h28.4V23C49.2,21.3,47.9,20,46.2,20z"/>
<path class="st0" d="M32.8,28.6h4.4"/>
<path class="st0" d="M23.2,28.6h-1.7c-0.8,0-1.5,0.3-2,0.8L9,39.1c-0.6,0.6-1,1.4-1,2.2v3c0,1.6,1.3,3,3,3h48c1.7,0,3-1.3,3-3v-3
	c0-0.8-0.4-1.6-1-2.2l-10.5-9.7c-0.6-0.5-1.3-0.8-2-0.8h-1.7"/>
<path class="st1" d="M32.5,30.1h-7.9c-0.3,0-0.5-0.2-0.5-0.5v-3.9c0-0.3,0.2-0.5,0.5-0.5h7.9c0.3,0,0.5,0.2,0.5,0.5v3.9
	C33,29.9,32.8,30.1,32.5,30.1z"/>
<path class="st1" d="M45.9,30.1H38c-0.3,0-0.5-0.2-0.5-0.5v-3.9c0-0.3,0.2-0.5,0.5-0.5h7.9c0.3,0,0.5,0.2,0.5,0.5v3.9
	C46.3,29.9,46.2,30.1,45.9,30.1z"/>
</svg>
