<?xml version="1.0" encoding="utf-8"?>
<!-- Generator: Adobe Illustrator 25.2.1, SVG Export Plug-In . SVG Version: 6.00 Build 0)  -->
<svg version="1.1" id="Layer_1" xmlns="http://www.w3.org/2000/svg" xmlns:xlink="http://www.w3.org/1999/xlink" x="0px" y="0px"
	 viewBox="0 0 70 70" style="enable-background:new 0 0 70 70;" xml:space="preserve">
<style type="text/css">
	.st0{fill:none;stroke:#292929;stroke-width:2;stroke-linecap:round;stroke-linejoin:round;stroke-miterlimit:10;}
	.st1{fill:#292929;}
</style>
<g>
	<path class="st0" d="M35,35C25.7,35,18.3,8,18.3,8h33.3C51.7,8,44.3,35,35,35z"/>
	<line class="st0" x1="13.4" y1="8" x2="56.6" y2="8"/>
</g>
<g>
	<path class="st0" d="M35,35c-9.3,0-16.7,27-16.7,27h33.3C51.7,62,44.3,35,35,35z"/>
	<line class="st0" x1="13.4" y1="62" x2="56.6" y2="62"/>
</g>
<path class="st1" d="M51.6,62c0.1,0-2-7.7-5.4-14.9c-3.6-1.3-8-1.6-13.1-1c-3.5,0.6-6.8,2.5-10.2,2.9C20,55.6,18.3,62,18.3,62H51.6z
	"/>
</svg>
