<?xml version="1.0" encoding="utf-8"?>
<!-- Generator: Adobe Illustrator 25.3.1, SVG Export Plug-In . SVG Version: 6.00 Build 0)  -->
<svg version="1.1" id="Layer_1" xmlns="http://www.w3.org/2000/svg" xmlns:xlink="http://www.w3.org/1999/xlink" x="0px" y="0px"
	 viewBox="0 0 70 70" style="enable-background:new 0 0 70 70;" xml:space="preserve">
<style type="text/css">
	.st0{fill:none;stroke:#292929;stroke-width:2;stroke-linecap:round;stroke-linejoin:round;}
</style>
<g>
	<circle class="st0" cx="35" cy="35" r="27"/>
	<path class="st0" d="M25.8,44.2c2.4,2.4,5.6,3.8,9.2,3.8c3.6,0,6.8-1.5,9.2-3.8"/>
	<path class="st0" d="M44.2,25.8C41.8,23.5,38.6,22,35,22c-3.6,0-6.8,1.5-9.2,3.8"/>
	<path class="st0" d="M25.8,25.8C23.5,28.2,22,31.4,22,35c0,3.6,1.5,6.8,3.8,9.2"/>
	<path class="st0" d="M44.2,25.8c2.4,2.4,3.8,5.6,3.8,9.2c0,3.6-1.5,6.8-3.8,9.2"/>
	<line class="st0" x1="53.8" y1="16.2" x2="44.2" y2="25.8"/>
	<line class="st0" x1="25.8" y1="44.2" x2="16.2" y2="53.8"/>
	<line class="st0" x1="16.2" y1="16.2" x2="25.8" y2="25.8"/>
	<path class="st0" d="M25.8,25.8"/>
	<line class="st0" x1="53.8" y1="53.8" x2="44.2" y2="44.2"/>
</g>
</svg>
